M48
; DRILL file KiCad 10.0.4-10.0.4~ubuntu24.04.1 date 2026-07-22T09:53:25
; FORMAT={-:-/ absolute / metric / decimal}
; #@! TF.CreationDate,2026-07-22T09:53:25+02:00
; #@! TF.GenerationSoftware,Kicad,Pcbnew,10.0.4-10.0.4~ubuntu24.04.1
; #@! TF.FileFunction,Plated,1,8,PTH
FMAT,2
METRIC
; #@! TA.AperFunction,Plated,PTH,ViaDrill
T1C0.200
; #@! TA.AperFunction,Plated,PTH,ComponentDrill
T2C0.920
; #@! TA.AperFunction,Plated,PTH,ComponentDrill
T3C2.300
%
G90
G05
T1
X101.8Y-105.65
X101.981Y-92.176
X102.43Y-77.25
X102.572Y-91.8
X103.145Y-77.332
X103.311Y-91.8
X103.668Y-77.855
X103.902Y-90.768
X103.917Y-78.482
X103.929Y-92.129
X104.05Y-106.3
X104.05Y-107.05
X104.05Y-107.8
X104.57Y-90.975
X105.299Y-77.909
X105.309Y-90.975
X105.324Y-77.234
X105.821Y-78.431
X105.969Y-90.742
X106.0Y-107.05
X106.014Y-92.125
X106.025Y-109.7
X106.496Y-78.441
X106.62Y-91.775
X106.625Y-118.55
X107.189Y-79.849
X107.287Y-79.181
X107.35Y-119.375
X107.359Y-91.775
X107.711Y-80.371
X108.0Y-92.1
X108.0Y-105.75
X108.04Y-90.634
X108.075Y-113.55
X108.384Y-81.096
X108.386Y-80.381
X108.62Y-91.025
X109.059Y-81.079
X109.359Y-91.025
X109.581Y-81.601
X109.705Y-82.265
X109.95Y-108.25
X109.989Y-90.72
X110.04Y-92.165
X110.622Y-91.775
X111.359Y-116.081
X111.361Y-91.775
X111.949Y-92.155
X111.95Y-106.7
X111.998Y-89.55
X112.055Y-116.15
X112.25Y-118.9
X112.63Y-89.85
X112.794Y-116.15
X113.369Y-89.85
X113.491Y-116.084
X113.575Y-118.8
X113.692Y-114.771
X113.872Y-109.465
X113.991Y-89.528
X114.003Y-92.286
X114.336Y-114.496
X114.63Y-91.975
X115.075Y-114.496
X115.369Y-91.975
X115.699Y-114.813
X115.95Y-107.4
X115.975Y-113.15
X115.983Y-89.533
X115.997Y-92.286
X116.63Y-89.8
X116.931Y-114.95
X117.331Y-115.525
X117.369Y-89.8
X117.575Y-128.8
X117.6Y-71.025
X117.997Y-89.49
X118.069Y-115.525
X118.568Y-115.033
X119.389Y-127.24
X119.389Y-127.979
X119.4Y-128.775
X119.425Y-71.025
X120.025Y-116.278
X120.55Y-116.74
X120.6Y-84.675
X120.65Y-97.25
X120.95Y-87.125
X121.05Y-99.85
X121.2Y-128.775
X121.225Y-70.975
X121.256Y-127.042
X121.256Y-127.781
X121.289Y-116.74
X121.704Y-116.177
X121.925Y-89.675
X122.6Y-109.7
X122.6Y-118.975
X122.65Y-79.53
X122.947Y-127.098
X122.947Y-127.837
X122.95Y-93.48
X122.975Y-71.0
X122.975Y-105.9
X123.0Y-103.25
X123.0Y-104.05
X123.0Y-128.775
X123.025Y-86.275
X123.05Y-101.6
X123.075Y-88.725
X123.075Y-91.3
X123.15Y-100.75
X123.2Y-79.08
X123.766Y-78.668
X123.8Y-105.1
X123.9Y-118.3
X123.925Y-110.25
X124.4Y-79.45
X124.6Y-97.3
X124.6Y-116.05
X124.8Y-71.0
X124.8Y-127.13
X124.8Y-127.869
X124.825Y-128.825
X124.896Y-78.956
X125.25Y-114.8
X125.475Y-79.35
X125.8Y-123.95
X125.8Y-124.65
X125.8Y-125.35
X125.9Y-115.95
X125.925Y-122.75
X126.3Y-79.0
X126.3Y-79.7
X126.3Y-80.4
X126.3Y-81.1
X126.4Y-115.35
X126.4Y-123.6
X126.4Y-124.3
X126.4Y-125.0
X126.75Y-122.775
X126.95Y-79.95
X126.95Y-80.65
X127.0Y-123.95
X127.0Y-124.65
X127.1Y-81.525
X127.1Y-104.95
X127.525Y-122.75
X127.7Y-124.6
X127.725Y-82.2
X128.15Y-108.4
X128.3Y-83.325
X128.325Y-122.725
X128.9Y-82.875
X129.2Y-122.725
X129.5Y-83.4
X130.1Y-82.875
X130.125Y-122.7
X130.4Y-119.875
X130.7Y-83.475
X130.7Y-91.65
X130.9Y-107.6
X130.95Y-122.675
X131.3Y-82.95
X131.625Y-86.6
X131.825Y-113.175
X131.892Y-83.432
X132.125Y-71.0
X132.43Y-82.985
X132.45Y-121.475
X132.6Y-87.35
X132.75Y-125.925
X132.775Y-126.725
X132.8Y-71.0
X132.8Y-128.45
X132.826Y-127.562
X132.85Y-82.425
X132.85Y-125.2
X133.1Y-110.225
X133.575Y-89.95
X133.7Y-120.25
X134.325Y-92.575
X134.35Y-109.725
X134.875Y-119.1
X135.225Y-95.075
X135.425Y-113.175
X135.8Y-70.975
X135.8Y-128.1
X136.0Y-113.925
X136.015Y-89.275
X136.875Y-111.525
X137.425Y-113.675
X137.975Y-108.85
X138.525Y-101.275
X139.125Y-103.825
X139.725Y-108.475
X140.6Y-70.975
X140.625Y-128.75
X140.8Y-100.1
X140.925Y-87.975
X141.0Y-87.15
X141.025Y-90.05
X141.05Y-91.65
X141.05Y-92.45
X141.05Y-96.15
X141.05Y-104.6
X141.05Y-116.25
X141.075Y-95.075
X141.075Y-112.9
X141.075Y-117.6
X141.075Y-120.15
X141.1Y-89.275
X141.1Y-99.4
X141.1Y-115.1
X141.15Y-97.35
X141.15Y-101.95
X141.15Y-110.1
X141.175Y-122.75
X141.825Y-108.725
X142.4Y-106.025
X142.4Y-128.75
X142.425Y-71.0
X142.95Y-100.925
X142.986Y-76.632
X143.525Y-88.225
X143.625Y-86.025
X143.632Y-76.9
X143.632Y-81.644
X143.8Y-71.0
X144.175Y-128.75
X144.387Y-76.9
X144.387Y-81.644
X144.64Y-71.015
X144.7Y-96.125
X144.8Y-128.125
X144.927Y-127.437
X144.938Y-76.462
X144.975Y-73.65
X145.05Y-126.748
X145.197Y-82.5
X145.25Y-98.725
X145.34Y-70.998
X145.433Y-75.967
X145.884Y-74.251
X145.952Y-82.5
X145.967Y-75.433
X146.1Y-73.585
X146.139Y-71.015
X146.364Y-74.857
X147.6Y-77.15
X148.339Y-77.139
X148.861Y-77.661
X149.072Y-78.329
X149.465Y-83.974
X149.474Y-99.675
X149.498Y-124.35
X149.5Y-100.9
X149.5Y-123.65
X149.525Y-125.225
X149.572Y-79.753
X149.956Y-80.339
X150.0Y-71.0
X150.0Y-128.825
X150.153Y-84.101
X150.528Y-82.894
X150.605Y-75.19
X150.676Y-83.578
X150.695Y-80.339
X151.116Y-79.779
X151.289Y-75.339
X151.392Y-81.292
X151.8Y-71.0
X151.8Y-128.85
X151.811Y-75.861
X151.889Y-76.557
X152.055Y-81.61
X152.589Y-76.539
X152.794Y-81.61
X153.111Y-77.061
X153.255Y-77.746
X153.428Y-81.312
X153.6Y-70.95
X153.6Y-128.85
X155.1Y-71.0
X155.4Y-128.85
X155.949Y-71.015
X156.0Y-117.625
X156.6Y-115.125
X156.649Y-71.015
X157.2Y-122.75
X157.349Y-71.015
X157.8Y-120.225
X158.121Y-71.036
X158.4Y-102.325
X158.75Y-122.825
X158.95Y-88.125
X158.95Y-99.975
X158.975Y-93.95
X158.975Y-100.85
X158.984Y-93.191
X159.0Y-87.175
X159.0Y-97.7
X159.0Y-113.3
X159.01Y-88.94
X159.025Y-91.0
X159.025Y-96.08
X159.025Y-104.225
X159.025Y-108.45
X159.025Y-109.275
X159.025Y-114.275
X159.025Y-116.0
X159.025Y-116.85
X159.025Y-118.6
X159.05Y-86.225
X159.05Y-117.8
X159.075Y-98.475
X159.1Y-111.05
X159.1Y-121.45
X159.725Y-102.625
X159.725Y-122.825
X159.806Y-80.208
X160.3Y-123.5
X160.45Y-78.505
X160.575Y-107.5
X160.625Y-124.175
X161.05Y-78.03
X161.5Y-107.3
X161.65Y-77.55
X161.775Y-112.575
X161.8Y-124.85
X162.162Y-84.212
X162.7Y-104.975
X163.3Y-106.275
X163.9Y-109.65
X164.102Y-111.3
X164.175Y-112.65
X164.5Y-107.825
X164.925Y-115.025
X165.075Y-115.9
X165.1Y-87.675
X165.7Y-89.175
X165.775Y-117.125
X166.3Y-94.4
X166.3Y-118.875
X166.802Y-103.55
X166.9Y-92.75
X167.5Y-110.725
X167.575Y-99.35
X168.1Y-85.1
X168.1Y-109.45
X168.675Y-128.15
X168.7Y-70.975
X168.7Y-89.05
X169.3Y-90.475
X169.3Y-113.2
X169.875Y-91.675
X169.9Y-115.8
X170.5Y-95.575
X170.5Y-118.65
X171.075Y-93.975
X171.1Y-119.175
X171.7Y-98.15
X171.7Y-104.55
X172.3Y-96.2
X172.9Y-122.65
X173.5Y-99.825
X174.1Y-100.975
X174.85Y-101.25
X175.3Y-71.05
X175.3Y-118.65
X175.3Y-128.825
X175.325Y-103.425
X175.325Y-113.5
X175.35Y-106.2
X175.375Y-124.475
X175.425Y-84.525
X175.425Y-85.75
X175.425Y-108.975
X175.525Y-116.025
X176.025Y-119.15
X176.2Y-84.525
X176.2Y-124.475
X176.8Y-95.1
X176.85Y-90.075
X176.925Y-84.5
X176.95Y-92.2
X176.95Y-124.475
X177.1Y-71.0
X177.1Y-128.8
X177.2Y-112.425
X177.22Y-109.98
X177.225Y-94.325
X177.579Y-76.725
X177.8Y-84.525
X177.8Y-124.45
X178.12Y-76.28
X178.6Y-84.525
X178.625Y-124.425
X178.859Y-76.28
X178.9Y-71.0
X178.9Y-128.8
X179.225Y-96.2
X179.3Y-103.725
X179.3Y-106.425
X179.412Y-76.709
X179.475Y-88.175
X179.475Y-100.775
X179.525Y-90.625
X179.925Y-114.1
X182.05Y-104.9
X183.531Y-121.32
X184.23Y-121.35
X184.969Y-121.35
X185.67Y-121.35
T2
X186.8Y-83.15
X186.8Y-85.65
X186.8Y-87.65
X186.8Y-90.15
X186.8Y-101.9
X186.8Y-104.4
X186.8Y-106.4
X186.8Y-108.9
T3
X184.09Y-79.41
X184.09Y-93.89
X184.09Y-98.16
X184.09Y-112.64
M30
