%TF.GenerationSoftware,KiCad,Pcbnew,10.0.4-10.0.4~ubuntu24.04.1*%
%TF.CreationDate,2026-07-22T09:53:31+02:00*%
%TF.ProjectId,dc-scm-server-integration-dc-scm-debug-interposer,64632d73-636d-42d7-9365-727665722d69,1.0.0*%
%TF.SameCoordinates,Original*%
%TF.FileFunction,Copper,L4,Inr*%
%TF.FilePolarity,Positive*%
%FSLAX46Y46*%
G04 Gerber Fmt 4.6, Leading zero omitted, Abs format (unit mm)*
G04 Created by KiCad (PCBNEW 10.0.4-10.0.4~ubuntu24.04.1) date 2026-07-22 09:53:31*
%MOMM*%
%LPD*%
G01*
G04 APERTURE LIST*
%TA.AperFunction,ComponentPad*%
%ADD10C,1.500000*%
%TD*%
%TA.AperFunction,ComponentPad*%
%ADD11C,3.400000*%
%TD*%
%TA.AperFunction,ViaPad*%
%ADD12C,0.550000*%
%TD*%
%TA.AperFunction,Conductor*%
%ADD13C,0.300000*%
%TD*%
%TA.AperFunction,Conductor*%
%ADD14C,0.200000*%
%TD*%
%TA.AperFunction,Conductor*%
%ADD15C,0.203000*%
%TD*%
G04 APERTURE END LIST*
D10*
%TO.N,/PCIe to USB/USBA1_VBUS*%
%TO.C,J8*%
X186800000Y-83150000D03*
%TO.N,/PCIe to USB/LOCAL_USB1.D-*%
X186800000Y-85650000D03*
%TO.N,/PCIe to USB/LOCAL_USB1.D+*%
X186800000Y-87650000D03*
%TO.N,GND*%
X186800000Y-90150000D03*
D11*
X184090000Y-79410000D03*
X184090000Y-93890000D03*
%TD*%
D10*
%TO.N,/PCIe to USB/USBA2_VBUS*%
%TO.C,J14*%
X186800000Y-101900000D03*
%TO.N,/PCIe to USB/LOCAL_USB2.D-*%
X186800000Y-104400000D03*
%TO.N,/PCIe to USB/LOCAL_USB2.D+*%
X186800000Y-106400000D03*
%TO.N,GND*%
X186800000Y-108900000D03*
D11*
X184090000Y-98160000D03*
X184090000Y-112640000D03*
%TD*%
D12*
%TO.N,/Power/1V8_FB*%
X106000000Y-107050000D03*
X108000000Y-105750000D03*
%TO.N,/DC-SCI edge connector/DC_SCM_SPI_SCMCNTRL.DO*%
X176950000Y-124475000D03*
X176925000Y-84500000D03*
%TO.N,/DC-SCI edge connector/DC_SCM_LTPI.TXCK-*%
X145197500Y-82500000D03*
%TO.N,/DC-SCI gold fingers connector/LTPI_TXCK-*%
X145433067Y-75966933D03*
%TO.N,/DC-SCI edge connector/DC_SCM_ESPI.~{ALERT0}*%
X131891500Y-83432046D03*
X123075000Y-91300000D03*
X132775000Y-126725000D03*
%TO.N,/DC-SCI edge connector/DC-SCM_PCIE0_SGMII.TX0-*%
X110621743Y-91775000D03*
X112055500Y-116150000D03*
%TO.N,/DC-SCI edge connector/DC_SCM_NC-SI.TXD1*%
X165075000Y-115900000D03*
X159025000Y-116000000D03*
%TO.N,/DC-SCI edge connector/DC_SCM_QSPI.SCK*%
X132450000Y-121475000D03*
X141050000Y-91650000D03*
X130700000Y-91650000D03*
X113575000Y-118800000D03*
%TO.N,/DC-SCI edge connector/DC_SCM_SPI_SCMCNTRL.SCK*%
X176200000Y-84525000D03*
X176200000Y-124475000D03*
X177200000Y-112425000D03*
%TO.N,GND*%
X142425000Y-71000000D03*
X153600000Y-128850000D03*
X149464509Y-83973935D03*
X147600000Y-77150000D03*
X115698835Y-114813356D03*
X103901856Y-90767829D03*
X183531146Y-121319881D03*
X178900000Y-128800000D03*
X177100000Y-128800000D03*
X121704002Y-116176590D03*
X110040425Y-92164965D03*
X143800000Y-71000000D03*
X144938090Y-76461910D03*
X105969444Y-90741598D03*
X132800000Y-71000000D03*
X178900000Y-71000000D03*
X177578897Y-76724572D03*
X132125000Y-71000000D03*
X106496207Y-78441110D03*
X128150000Y-108400000D03*
X117996961Y-89489683D03*
X105323958Y-77234193D03*
X135800000Y-128100000D03*
X151800000Y-128850000D03*
X120024851Y-116277854D03*
X123000000Y-128775000D03*
X159025000Y-96080000D03*
X150000000Y-71000000D03*
X175300000Y-128825000D03*
X104050000Y-107050000D03*
X150000000Y-128825000D03*
X108386209Y-80380949D03*
X168675000Y-128150000D03*
X175300000Y-71050000D03*
X140600000Y-70975000D03*
X117575000Y-128800000D03*
X151392341Y-81292095D03*
X142400000Y-128750000D03*
X113871828Y-109465000D03*
X168700000Y-70975000D03*
X121225000Y-70975000D03*
X123900000Y-118300000D03*
X151800000Y-71000000D03*
X117600000Y-71025000D03*
X155400000Y-128850000D03*
X106014023Y-92124555D03*
X142985850Y-76631958D03*
X132800000Y-128450000D03*
X113692054Y-114771098D03*
X146364280Y-74856770D03*
X121200000Y-128775000D03*
X153600000Y-70950000D03*
X103928818Y-92128614D03*
X108383934Y-81095681D03*
X182050000Y-104900000D03*
X149571761Y-79753103D03*
X119400000Y-128775000D03*
X102430000Y-77250000D03*
X115996736Y-92285769D03*
X122950000Y-93480000D03*
X124825000Y-128825000D03*
X177100000Y-71000000D03*
X151888960Y-76556955D03*
X109705172Y-82264811D03*
X108039613Y-90634394D03*
X185669503Y-121350000D03*
X107350000Y-119375000D03*
X151115556Y-79779340D03*
X144175000Y-128750000D03*
X101981065Y-92175636D03*
X153428460Y-81311605D03*
X140625000Y-128750000D03*
X103916584Y-78482257D03*
X104050000Y-107800000D03*
X113491413Y-116084315D03*
X135800000Y-70975000D03*
X124800000Y-71000000D03*
X113990965Y-89527845D03*
X111948676Y-92154919D03*
X179411687Y-76709066D03*
X159050000Y-117800000D03*
X109989343Y-90719547D03*
X150528080Y-82893672D03*
X155100000Y-71000000D03*
X115983478Y-89532856D03*
X150604670Y-75190155D03*
X111997892Y-89550315D03*
X122975000Y-71000000D03*
X119425000Y-71025000D03*
X108000000Y-92100000D03*
X141050000Y-96150000D03*
X104050000Y-106300000D03*
X114003161Y-92285564D03*
X149072317Y-78328708D03*
X111358897Y-116081098D03*
X118567648Y-115033216D03*
X159025000Y-91000000D03*
X153255000Y-77746365D03*
X116930700Y-114950401D03*
X176950000Y-92200000D03*
X159025000Y-104225000D03*
X141050000Y-116250000D03*
X107287236Y-79180949D03*
%TO.N,/DC-SCI edge connector/DC_SCM_QSPI.IO3*%
X135225000Y-95075000D03*
X115975000Y-113150000D03*
X135425000Y-113175000D03*
X141075000Y-95075000D03*
X131825000Y-113175000D03*
%TO.N,+1V8*%
X115950000Y-107400000D03*
X159100000Y-121450000D03*
X141150000Y-97350000D03*
X130900000Y-107600000D03*
X111950000Y-106700000D03*
X120650000Y-97250000D03*
%TO.N,/DC-SCI edge connector/DC_SCM_QSPI.~{CS0}*%
X133100000Y-110225000D03*
X123925000Y-110250000D03*
X131625000Y-86600000D03*
X141000000Y-87150000D03*
%TO.N,/DC-SCI edge connector/DC_SCM_QSPI.IO1*%
X133575000Y-89950000D03*
X122600000Y-109700000D03*
X134350000Y-109725000D03*
X106025000Y-109700000D03*
X141025000Y-90050000D03*
%TO.N,/DC-SCI edge connector/DC_SCM_QSPI.IO2*%
X141050000Y-92450000D03*
X134875000Y-119100000D03*
X134325000Y-92575000D03*
X106625000Y-118550000D03*
X122600000Y-118975000D03*
%TO.N,/DC-SCI edge connector/DC_SCM_QSPI.IO0*%
X132600000Y-87350000D03*
X130400000Y-119875000D03*
X112250000Y-118900000D03*
X133700000Y-120250000D03*
X140925000Y-87975000D03*
%TO.N,/DC-SCI edge connector/DC_SCM_UART.RX*%
X141100000Y-99400000D03*
X167575000Y-99350000D03*
%TO.N,/DC-SCI gold fingers connector/PCIE0_SGMII_RX1+*%
X105821276Y-78431276D03*
%TO.N,/DC-SCI edge connector/DC-SCM_PCIE0_SGMII.RX1+*%
X105309500Y-90975000D03*
%TO.N,/DC-SCI edge connector/DC_SCM_I2C_I3C17.SDA*%
X141075000Y-112900000D03*
X132850000Y-125200000D03*
X137425000Y-113675000D03*
X132850000Y-82425000D03*
%TO.N,/DC-SCI edge connector/DC_SCM_LTPI.TXD-*%
X143632500Y-81644122D03*
%TO.N,/DC-SCI gold fingers connector/LTPI_TXD-*%
X143632500Y-76900000D03*
%TO.N,/DC-SCI edge connector/DC_SCM_I2C8.SDA*%
X179525000Y-90625000D03*
X169875000Y-91675000D03*
%TO.N,/DC-SCI edge connector/DC_SCM_I2C_I3C13.SCL*%
X173500000Y-99825000D03*
%TO.N,/DC-SCI edge connector/DC_SCM_I2C_I3C13.SDA*%
X179475000Y-100775000D03*
X174100000Y-100975000D03*
%TO.N,/DC-SCI edge connector/DC_SCM_I2C_I3C14.SCL*%
X158400000Y-102325000D03*
X175325000Y-103425000D03*
X158750000Y-122825000D03*
%TO.N,/DC-SCI edge connector/DC_SCM_I2C_I3C14.SDA*%
X159725000Y-122825000D03*
X159725000Y-102625000D03*
X179300000Y-103725000D03*
%TO.N,/DC-SCI edge connector/DC_SCM_I2C_I3C15.SCL*%
X160575000Y-107500000D03*
X175350000Y-106200000D03*
X160300000Y-123500000D03*
%TO.N,/DC-SCI edge connector/DC_SCM_I2C_I3C15.SDA*%
X160625000Y-124175000D03*
X161500000Y-107300000D03*
X179300000Y-106425000D03*
%TO.N,/DC-SCI edge connector/DC_SCM_I2C_I3C16.SCL*%
X168100000Y-109450000D03*
X175425000Y-108975000D03*
%TO.N,/DC-SCI edge connector/DC_SCM_I2C_I3C16.SDA*%
X167500000Y-110725000D03*
X177220000Y-109980000D03*
%TO.N,/DC-SCI edge connector/DC_SCM_ESPI.SCK*%
X126750000Y-122775000D03*
X127725000Y-82200000D03*
%TO.N,/DC-SCI edge connector/PECI_VREF_HPM_SCM*%
X127100000Y-104950000D03*
X127100000Y-81525000D03*
X125925000Y-122750000D03*
%TO.N,/DC-SCI edge connector/DC-SCM_PCIE0_SGMII.TX1+*%
X115074812Y-114496181D03*
X113369500Y-89850000D03*
%TO.N,/DC-SCI edge connector/DC_SCM_ESPI.IO3*%
X123075000Y-88725000D03*
X132826102Y-127561950D03*
X131300000Y-82950000D03*
%TO.N,/DC-SCI edge connector/DC_SCM_ESPI.IO1*%
X130100000Y-82875000D03*
X130125000Y-122700000D03*
%TO.N,/DC-SCI edge connector/DC_SCM_ESPI.~{CS0}*%
X120600000Y-84675000D03*
X127525000Y-122750000D03*
X128300000Y-83325000D03*
%TO.N,/DC-SCI edge connector/DC_SCM_ESPI.IO2*%
X130700000Y-83475000D03*
X123025000Y-86275000D03*
X130950000Y-122675000D03*
%TO.N,/DC-SCI edge connector/DC_SCM_ESPI.~{RESET}*%
X120950000Y-87125000D03*
X128900000Y-82875000D03*
X128325000Y-122725000D03*
%TO.N,/DC-SCI edge connector/DC_SCM_ESPI.IO0*%
X129200000Y-122725000D03*
X121925000Y-89675000D03*
X129500000Y-83400000D03*
%TO.N,/DC-SCI edge connector/DC_SCM_I2C_I3C17.SCL*%
X132750000Y-125925000D03*
X132430420Y-82985315D03*
X136875000Y-111525000D03*
%TO.N,/DC-SCI edge connector/DC_SCM_I2C_I3C18.SDA*%
X141100000Y-115100000D03*
X156600000Y-115125000D03*
%TO.N,/DC-SCI edge connector/DC_SCM_I2C_I3C18.SCL*%
X156000000Y-117625000D03*
X141075000Y-117600000D03*
%TO.N,/DC-SCI edge connector/DC_SCM_I2C_I3C19.SDA*%
X141075000Y-120150000D03*
X157800000Y-120225000D03*
%TO.N,/DC-SCI edge connector/DC_SCM_I2C_I3C19.SCL*%
X157200000Y-122750000D03*
X141175000Y-122750000D03*
%TO.N,/DC-SCI edge connector/DC_SCM_12V_AUX*%
X126950000Y-80650000D03*
X126300000Y-79700000D03*
X126400000Y-124300000D03*
X126400000Y-123600000D03*
X123050000Y-101600000D03*
X126400000Y-125000000D03*
X127700000Y-124600000D03*
X126300000Y-79000000D03*
X125800000Y-124650000D03*
X127000000Y-123950000D03*
X126300000Y-81100000D03*
X126950000Y-79950000D03*
X127000000Y-124650000D03*
X125800000Y-125350000D03*
X126300000Y-80400000D03*
X125800000Y-123950000D03*
%TO.N,/DC-SCI edge connector/DC_SCM_PRSNT1_N*%
X137975000Y-108850000D03*
%TO.N,/DC-SCI edge connector/DC_SCM_JTAG.TCK*%
X138525000Y-101275000D03*
%TO.N,/DC-SCI edge connector/DC_SCM_JTAG.TDO*%
X139125000Y-103825000D03*
%TO.N,/DC-SCI edge connector/DC_SCM_JTAG.TDI*%
X139725000Y-108475000D03*
%TO.N,/DC-SCI edge connector/DC_SCM_JTAG.TMS*%
X140800000Y-100100000D03*
%TO.N,/DC-SCI edge connector/DC_SCM_JTAG.TRST*%
X141825000Y-108725000D03*
%TO.N,/DC-SCI edge connector/~{DC_SCM_STBY_RST}*%
X142400000Y-106025000D03*
X122975000Y-105900000D03*
%TO.N,/DC-SCI edge connector/DC_SCM_STBY_EN*%
X142950000Y-100925000D03*
X101800000Y-105650000D03*
X123150000Y-100750000D03*
%TO.N,/DC-SCI edge connector/DC_SCM_I2C0.SCL*%
X159000000Y-87175000D03*
X143525000Y-88225000D03*
%TO.N,/DC-SCI edge connector/DC_SCM_I2C0.SDA*%
X159050000Y-86225000D03*
X143625000Y-86025000D03*
%TO.N,/DC-SCI edge connector/DC_SCM_I2C1.SCL*%
X144700000Y-96125000D03*
X159000000Y-97700000D03*
%TO.N,/DC-SCI edge connector/DC_SCM_I2C1.SDA*%
X145250000Y-98725000D03*
X159075000Y-98475000D03*
%TO.N,/DC-SCI edge connector/DC_SCM_LTPI.TXD+*%
X144387500Y-81644122D03*
%TO.N,/DC-SCI edge connector/DC_SCM_LTPI.TXCK+*%
X145952500Y-82500000D03*
%TO.N,/DC-SCI edge connector/DC_SCM_I2C2.SCL*%
X149500000Y-100900000D03*
X158975000Y-100850000D03*
X149500000Y-123650000D03*
X125250000Y-114800000D03*
%TO.N,/DC-SCI edge connector/DC_SCM_I2C2.SDA*%
X158950000Y-99975000D03*
X126400000Y-115350000D03*
X149498497Y-124350001D03*
X149473500Y-99675000D03*
%TO.N,/DC-SCI edge connector/~{PCIE_HPM_SCM_PERST}*%
X125900000Y-115950000D03*
X149525000Y-125225000D03*
%TO.N,/DC-SCI edge connector/DC-SCM_PCIE1.RX0-*%
X150152970Y-84100522D03*
%TO.N,/DC-SCI edge connector/DC-SCM_PCIE1.RX0+*%
X150675522Y-83577970D03*
%TO.N,/DC-SCI edge connector/DC-SCM_PCIE_USB_SCMROOT.RX0-*%
X149955500Y-80338550D03*
%TO.N,/DC-SCI edge connector/DC-SCM_PCIE_USB_SCMROOT.RX0+*%
X150694500Y-80338550D03*
%TO.N,/DC-SCI edge connector/DC-SCM_CLK_100M_0.CLK-*%
X152055500Y-81609506D03*
%TO.N,/DC-SCI edge connector/DC-SCM_CLK_100M_0.CLK+*%
X152794500Y-81609506D03*
%TO.N,/DC-SCI edge connector/DC_SCM_I2C3.SCL*%
X162700000Y-104975000D03*
%TO.N,/DC-SCI edge connector/DC_SCM_I2C3.SDA*%
X163300000Y-106275000D03*
%TO.N,/DC-SCI edge connector/DC_SCM_I2C4.SCL*%
X159025000Y-109275000D03*
X163900000Y-109650000D03*
%TO.N,/DC-SCI edge connector/DC_SCM_I2C4.SDA*%
X164500000Y-107825000D03*
X159025000Y-108450000D03*
%TO.N,/DC-SCI edge connector/DC_SCM_I2C5.SCL*%
X158950000Y-88125000D03*
X165100000Y-87675000D03*
%TO.N,/DC-SCI edge connector/DC_SCM_I2C5.SDA*%
X159010348Y-88939652D03*
X165700000Y-89175000D03*
%TO.N,/DC-SCI edge connector/DC_SCM_I2C6.SCL*%
X166300000Y-94400000D03*
X158975000Y-93950000D03*
%TO.N,/DC-SCI edge connector/DC_SCM_I2C6.SDA*%
X166900000Y-92750000D03*
X158983732Y-93191268D03*
%TO.N,/DC-SCI edge connector/DC_SCM_TPM_SPI.SCK*%
X169300000Y-113200000D03*
X175325000Y-113500000D03*
%TO.N,/DC-SCI edge connector/DC_SCM_TPM_SPI.~{CS0}*%
X175525000Y-116025000D03*
X169900000Y-115800000D03*
%TO.N,/DC-SCI edge connector/DC_SCM_TPM_SPI.DI*%
X175300000Y-118650000D03*
X170500000Y-118650000D03*
%TO.N,/DC-SCI edge connector/DC_SCM_TPM_SPI.DO*%
X171100000Y-119175000D03*
X176025000Y-119150000D03*
%TO.N,/DC-SCI edge connector/DC_SCM_I2C_I3C12.SCL*%
X171700000Y-98150000D03*
%TO.N,/DC-SCI edge connector/DC_SCM_I2C_I3C12.SDA*%
X179225000Y-96200000D03*
X172300000Y-96200000D03*
%TO.N,/DC-SCI edge connector/~{DC_SCM_SPI_SCMCNTRL_IRQ0}*%
X172900000Y-122650000D03*
%TO.N,/DC-SCI edge connector/DC_SCM_UART.TX*%
X141150000Y-101950000D03*
X174850000Y-101250000D03*
%TO.N,/DC-SCI edge connector/DC-SCM_CLK_100M_1.CLK-*%
X184230500Y-121350000D03*
%TO.N,/DC-SCI edge connector/DC-SCM_CLK_100M_1.CLK+*%
X184969500Y-121350000D03*
%TO.N,/DC-SCI edge connector/DC_SCM_QSPI.~{CS1}*%
X108075000Y-113550000D03*
X141100000Y-89275000D03*
X136000000Y-113925000D03*
X136015000Y-89275000D03*
%TO.N,/DC-SCI edge connector/DC_SCM_STBY_RDY*%
X123000000Y-104050000D03*
X144800000Y-128125000D03*
%TO.N,/DC-SCI edge connector/~{DC_SCM_INTRUSION}*%
X141150000Y-110100000D03*
X144927463Y-127436700D03*
X123800000Y-105100000D03*
%TO.N,/DC-SCI edge connector/DC_SCM_P3V0*%
X124600000Y-97300000D03*
X145050000Y-126747508D03*
X124600000Y-116050000D03*
%TO.N,/DC-SCI edge connector/DC_SCM_NC-SI.REF_CLK*%
X161800000Y-124850000D03*
X162162500Y-84212500D03*
X161775000Y-112575000D03*
%TO.N,/DC-SCI edge connector/DC_SCM_NC-SI.CRS_DV*%
X159000000Y-113300000D03*
X164175000Y-112650000D03*
%TO.N,/DC-SCI edge connector/DC_SCM_NC-SI.TX_EN*%
X159100000Y-111050000D03*
X164102500Y-111300000D03*
%TO.N,/DC-SCI edge connector/DC_SCM_NC-SI.TXD0*%
X164925000Y-115025000D03*
X159025000Y-114275000D03*
%TO.N,/DC-SCI edge connector/DC_SCM_NC-SI.RXD0*%
X165775000Y-117125000D03*
X159025000Y-116850000D03*
%TO.N,/DC-SCI edge connector/DC_SCM_NC-SI.RXD1*%
X159025000Y-118600000D03*
X166300000Y-118875000D03*
%TO.N,/DC-SCI edge connector/DC_SCM_HPM_FRU*%
X166802500Y-103550000D03*
X123000000Y-103250000D03*
%TO.N,/DC-SCI edge connector/DC_SCM_I2C7.SCL*%
X175425000Y-85750000D03*
X168100000Y-85100000D03*
%TO.N,/DC-SCI edge connector/DC_SCM_I2C7.SDA*%
X179475000Y-88175000D03*
X168700000Y-89050000D03*
%TO.N,/DC-SCI edge connector/DC_SCM_I2C8.SCL*%
X176850000Y-90075000D03*
X169300000Y-90475000D03*
%TO.N,/DC-SCI edge connector/DC_SCM_I2C9.SCL*%
X176800000Y-95100000D03*
X170500000Y-95575000D03*
%TO.N,/DC-SCI edge connector/DC_SCM_I2C9.SDA*%
X171075000Y-93975000D03*
X177225000Y-94325000D03*
%TO.N,/DC-SCI edge connector/DC_SCM_PRSNT0_N*%
X171700000Y-104550000D03*
X141050000Y-104600000D03*
%TO.N,/DC-SCI edge connector/DC_SCM_SPI_SCMCNTRL.~{CS1}*%
X175375000Y-124475000D03*
X175425000Y-84525000D03*
%TO.N,/DC-SCI edge connector/DC_SCM_SPI_SCMCNTRL.DI*%
X177800000Y-124450000D03*
X177800000Y-84525000D03*
%TO.N,/DC-SCI edge connector/DC_SCM_SPI_SCMCNTRL.~{CS0}*%
X179925000Y-114100000D03*
X178625000Y-124425000D03*
X178600000Y-84525000D03*
%TO.N,/DC-SCI edge connector/DC-SCM_PCIE0_SGMII.RX0-*%
X102571743Y-91800000D03*
%TO.N,/DC-SCI edge connector/DC-SCM_PCIE0_SGMII.RX0+*%
X103310743Y-91800000D03*
%TO.N,/DC-SCI edge connector/DC-SCM_PCIE0_SGMII.RX1-*%
X104570500Y-90975000D03*
%TO.N,/DC-SCI edge connector/DC-SCM_PCIE0_SGMII.RX2-*%
X106620500Y-91775000D03*
%TO.N,/DC-SCI edge connector/DC-SCM_PCIE0_SGMII.RX2+*%
X107359500Y-91775000D03*
%TO.N,/DC-SCI edge connector/DC-SCM_PCIE0_SGMII.RX3-*%
X108620500Y-91025000D03*
%TO.N,/DC-SCI edge connector/DC-SCM_PCIE0_SGMII.RX3+*%
X109359500Y-91025000D03*
%TO.N,/DC-SCI edge connector/DC_SCM_PECI*%
X121050000Y-99850000D03*
%TO.N,/DC-SCI edge connector/DC-SCM_PCIE0_SGMII.TX0+*%
X111360743Y-91775000D03*
X112794500Y-116150000D03*
%TO.N,/DC-SCI edge connector/DC-SCM_PCIE0_SGMII.TX1-*%
X114335812Y-114496181D03*
X112630500Y-89850000D03*
%TO.N,/DC-SCI edge connector/DC-SCM_PCIE0_SGMII.TX2-*%
X114630500Y-91975000D03*
X117330500Y-115525000D03*
%TO.N,/DC-SCI edge connector/DC-SCM_PCIE0_SGMII.TX2+*%
X115369500Y-91975000D03*
X118069500Y-115525000D03*
%TO.N,/DC-SCI edge connector/DC-SCM_PCIE0_SGMII.TX3-*%
X116630500Y-89800000D03*
X120550207Y-116740460D03*
%TO.N,/DC-SCI edge connector/DC-SCM_PCIE0_SGMII.TX3+*%
X117369500Y-89800000D03*
X121289207Y-116740460D03*
%TO.N,/DC-SCI gold fingers connector/CLK_100M_0_CLK+*%
X153111276Y-77061276D03*
%TO.N,/DC-SCI gold fingers connector/PCIE0_SGMII_RX0+*%
X103667764Y-77854788D03*
%TO.N,/DC-SCI gold fingers connector/CLK_100M_1_CLK-*%
X178119599Y-76280000D03*
%TO.N,/DC-SCI gold fingers connector/PCIE0_SGMII_RX0-*%
X103145212Y-77332236D03*
%TO.N,/DC-SCI gold fingers connector/CLK_100M_1_CLK+*%
X178858599Y-76280000D03*
%TO.N,/DC-SCI gold fingers connector/PCIE1_RX0+*%
X148861276Y-77661276D03*
%TO.N,/DC-SCI gold fingers connector/PCIE_USB_SCMROOT_RX0+*%
X151811276Y-75861276D03*
%TO.N,/DC-SCI gold fingers connector/PCIE0_SGMII_RX3-*%
X109058724Y-81078724D03*
%TO.N,/DC-SCI gold fingers connector/PCIE0_SGMII_RX2-*%
X107188724Y-79848724D03*
%TO.N,/DC-SCI gold fingers connector/PCIE0_SGMII_RX1-*%
X105298724Y-77908724D03*
%TO.N,/DC-SCI gold fingers connector/PCIE0_SGMII_RX2+*%
X107711276Y-80371276D03*
%TO.N,/DC-SCI gold fingers connector/PCIE1_RX0-*%
X148338724Y-77138724D03*
%TO.N,/DC-SCI gold fingers connector/PCIE0_SGMII_RX3+*%
X109581276Y-81601276D03*
%TO.N,/DC-SCI gold fingers connector/CLK_100M_0_CLK-*%
X152588724Y-76538724D03*
%TO.N,/DC-SCI gold fingers connector/LTPI_TXD+*%
X144387500Y-76900000D03*
%TO.N,/DC-SCI gold fingers connector/LTPI_TXCK+*%
X145966933Y-75433067D03*
%TO.N,Net-(J1B-I2C_3V3_2_SCL)*%
X124400000Y-79450000D03*
X144975000Y-73650000D03*
%TO.N,Net-(J1B-I2C_3V3_2_SDA)*%
X125475000Y-79350000D03*
X145883516Y-74250688D03*
%TO.N,Net-(J1D-PCIE_HPM_SCM_PERST_N)*%
X146100000Y-73585002D03*
X124896225Y-78956275D03*
%TO.N,/DC-SCI gold fingers connector/PCIE_USB_SCMROOT_RX0-*%
X151288724Y-75338724D03*
%TO.N,Net-(J1A-HPM_SCM_STBY_RDY)*%
X144640247Y-71014998D03*
X122650000Y-79530000D03*
%TO.N,Net-(J1A-HPM_SCM_INTRUSION_N)*%
X145340044Y-70998013D03*
X123200000Y-79080000D03*
%TO.N,Net-(J1A-P3V0_HPM_SCM_BAT)*%
X123766117Y-78668278D03*
X146138962Y-71014998D03*
%TO.N,Net-(J1B-I2C_I3C_1V8_14_SCL)*%
X155948511Y-71014998D03*
X159805699Y-80208126D03*
%TO.N,Net-(J1B-I2C_I3C_1V8_14_SDA)*%
X160450000Y-78504760D03*
X156648514Y-71014998D03*
%TO.N,Net-(J1B-I2C_I3C_1V8_15_SCL)*%
X157348517Y-71014998D03*
X161050000Y-78029760D03*
%TO.N,Net-(J1B-I2C_I3C_1V8_15_SDA)*%
X161650000Y-77550000D03*
X158120824Y-71035635D03*
%TO.N,/DC-SCI edge connector/PCIE_LOCAL_USB_RX0-*%
X109950000Y-108250000D03*
%TD*%
%TO.N,+1V8*%
D13*
X157750000Y-118850000D02*
X157750000Y-104850000D01*
X159100000Y-121450000D02*
X159100000Y-120200000D01*
X159100000Y-120200000D02*
X157750000Y-118850000D01*
X112650000Y-107400000D02*
X115950000Y-107400000D01*
X130900000Y-107600000D02*
X141150000Y-97350000D01*
X115950000Y-107400000D02*
X115950000Y-101950000D01*
X157750000Y-104850000D02*
X150250000Y-97350000D01*
X150250000Y-97350000D02*
X141150000Y-97350000D01*
X111950000Y-106700000D02*
X112650000Y-107400000D01*
X115950000Y-101950000D02*
X120650000Y-97250000D01*
%TO.N,/DC-SCI edge connector/DC_SCM_I2C2.SCL*%
D14*
X149900000Y-123250000D02*
X149900000Y-101300000D01*
X149500000Y-123650000D02*
X149900000Y-123250000D01*
X135350000Y-114800000D02*
X125250000Y-114800000D01*
X144700000Y-118850000D02*
X139400000Y-118850000D01*
X149500000Y-123650000D02*
X144700000Y-118850000D01*
X139400000Y-118850000D02*
X135350000Y-114800000D01*
X149900000Y-101300000D02*
X149500000Y-100900000D01*
%TO.N,/DC-SCI edge connector/DC_SCM_I2C2.SDA*%
X126750000Y-115700000D02*
X134400000Y-115700000D01*
X149498497Y-124350001D02*
X149542462Y-124350001D01*
X134400000Y-115700000D02*
X140100000Y-121400000D01*
X149542462Y-124350001D02*
X150450000Y-123442463D01*
X150450000Y-123442463D02*
X150450000Y-100651500D01*
X140100000Y-121400000D02*
X146500000Y-121400000D01*
X149450001Y-124350001D02*
X149498497Y-124350001D01*
X146500000Y-121400000D02*
X149450001Y-124350001D01*
X150450000Y-100651500D02*
X149473500Y-99675000D01*
X126400000Y-115350000D02*
X126750000Y-115700000D01*
%TO.N,/DC-SCI edge connector/~{PCIE_HPM_SCM_PERST}*%
D15*
X140650000Y-123650000D02*
X147950000Y-123650000D01*
X126250000Y-116300000D02*
X133300000Y-116300000D01*
X147950000Y-123650000D02*
X149525000Y-125225000D01*
X133300000Y-116300000D02*
X140650000Y-123650000D01*
X125900000Y-115950000D02*
X126250000Y-116300000D01*
%TO.N,/DC-SCI edge connector/DC_SCM_P3V0*%
D14*
X125700000Y-117250000D02*
X124600000Y-116150000D01*
X145050000Y-126747508D02*
X141297508Y-126747508D01*
X131800000Y-117250000D02*
X125700000Y-117250000D01*
X141297508Y-126747508D02*
X131800000Y-117250000D01*
X124600000Y-116150000D02*
X124600000Y-116050000D01*
%TO.N,Net-(J1B-I2C_3V3_2_SCL)*%
X125500000Y-77150000D02*
X124350000Y-78300000D01*
X134650002Y-77150000D02*
X125500000Y-77150000D01*
X124350000Y-79400000D02*
X124400000Y-79450000D01*
X144975000Y-73650000D02*
X138150002Y-73650000D01*
X138150002Y-73650000D02*
X134650002Y-77150000D01*
X124350000Y-78300000D02*
X124350000Y-79400000D01*
%TO.N,Net-(J1B-I2C_3V3_2_SDA)*%
D15*
X137050000Y-78250000D02*
X140300000Y-75000000D01*
X140300000Y-75000000D02*
X145134204Y-75000000D01*
X145134204Y-75000000D02*
X145883516Y-74250688D01*
X125950000Y-78250000D02*
X137050000Y-78250000D01*
X125475000Y-78725000D02*
X125950000Y-78250000D01*
X125475000Y-79350000D02*
X125475000Y-78725000D01*
%TO.N,Net-(J1D-PCIE_HPM_SCM_PERST_N)*%
X124896225Y-78503775D02*
X124896225Y-78956275D01*
X145784582Y-73585002D02*
X145119584Y-74250000D01*
X146100000Y-73585002D02*
X145784582Y-73585002D01*
X125700000Y-77700000D02*
X124896225Y-78503775D01*
X139300000Y-74250000D02*
X135850000Y-77700000D01*
X135850000Y-77700000D02*
X125700000Y-77700000D01*
X145119584Y-74250000D02*
X139300000Y-74250000D01*
%TD*%
%TA.AperFunction,Conductor*%
%TO.N,/DC-SCI edge connector/DC_SCM_12V_AUX*%
G36*
X122623921Y-78707577D02*
G01*
X122650513Y-78711614D01*
X122656940Y-78717272D01*
X122665156Y-78719685D01*
X122682765Y-78740007D01*
X122702956Y-78757782D01*
X122705304Y-78766018D01*
X122710911Y-78772489D01*
X122714738Y-78799108D01*
X122722113Y-78824974D01*
X122720235Y-78837340D01*
X122720855Y-78841647D01*
X122718004Y-78852035D01*
X122716816Y-78859868D01*
X122712992Y-78872521D01*
X122710312Y-78877164D01*
X122700312Y-78914483D01*
X122699743Y-78916368D01*
X122681662Y-78944021D01*
X122664454Y-78972254D01*
X122662622Y-78973143D01*
X122661508Y-78974848D01*
X122631328Y-78988345D01*
X122601607Y-79002783D01*
X122599586Y-79002541D01*
X122597727Y-79003373D01*
X122581044Y-79004500D01*
X122580817Y-79004500D01*
X122447164Y-79040312D01*
X122447161Y-79040313D01*
X122327338Y-79109492D01*
X122327333Y-79109496D01*
X122229496Y-79207333D01*
X122229492Y-79207338D01*
X122160313Y-79327161D01*
X122160312Y-79327164D01*
X122124500Y-79460817D01*
X122124500Y-79599183D01*
X122144867Y-79675192D01*
X122160312Y-79732835D01*
X122160313Y-79732838D01*
X122229492Y-79852661D01*
X122229494Y-79852664D01*
X122229495Y-79852665D01*
X122327335Y-79950505D01*
X122447164Y-80019688D01*
X122580817Y-80055500D01*
X122580819Y-80055500D01*
X122719181Y-80055500D01*
X122719183Y-80055500D01*
X122852836Y-80019688D01*
X122972665Y-79950505D01*
X123070505Y-79852665D01*
X123139688Y-79732836D01*
X123149181Y-79697405D01*
X123185546Y-79637746D01*
X123248393Y-79607217D01*
X123268956Y-79605500D01*
X123269181Y-79605500D01*
X123269183Y-79605500D01*
X123402836Y-79569688D01*
X123522665Y-79500505D01*
X123620505Y-79402665D01*
X123643113Y-79363507D01*
X123693679Y-79315292D01*
X123762286Y-79302068D01*
X123827151Y-79328036D01*
X123867680Y-79384950D01*
X123874500Y-79425507D01*
X123874500Y-79519183D01*
X123910265Y-79652658D01*
X123910312Y-79652835D01*
X123910313Y-79652838D01*
X123979492Y-79772661D01*
X123979494Y-79772664D01*
X123979495Y-79772665D01*
X124077335Y-79870505D01*
X124077336Y-79870506D01*
X124077338Y-79870507D01*
X124137249Y-79905096D01*
X124197164Y-79939688D01*
X124330817Y-79975500D01*
X124330819Y-79975500D01*
X124469181Y-79975500D01*
X124469183Y-79975500D01*
X124602836Y-79939688D01*
X124722665Y-79870505D01*
X124820505Y-79772665D01*
X124843500Y-79732837D01*
X124861954Y-79700874D01*
X124912520Y-79652658D01*
X124981127Y-79639434D01*
X125045992Y-79665402D01*
X125057022Y-79675192D01*
X125152335Y-79770505D01*
X125272164Y-79839688D01*
X125405817Y-79875500D01*
X125405819Y-79875500D01*
X125544181Y-79875500D01*
X125544183Y-79875500D01*
X125677836Y-79839688D01*
X125797665Y-79770505D01*
X125895505Y-79672665D01*
X125964688Y-79552836D01*
X126000500Y-79419183D01*
X126000500Y-79280817D01*
X125964688Y-79147164D01*
X125895505Y-79027335D01*
X125870667Y-79002497D01*
X125866329Y-78994552D01*
X125859080Y-78989126D01*
X125849844Y-78964363D01*
X125837182Y-78941174D01*
X125837827Y-78932143D01*
X125834664Y-78923661D01*
X125840280Y-78897840D01*
X125842166Y-78871482D01*
X125847984Y-78862427D01*
X125849516Y-78855389D01*
X125870661Y-78827141D01*
X125961486Y-78736316D01*
X126022808Y-78702834D01*
X126049165Y-78700000D01*
X128175293Y-78700000D01*
X128242332Y-78719685D01*
X128288087Y-78772489D01*
X128299291Y-78823419D01*
X128303541Y-79732835D01*
X128312941Y-81744831D01*
X128293570Y-81811961D01*
X128240980Y-81857962D01*
X128171869Y-81868229D01*
X128108178Y-81839501D01*
X128101261Y-81833091D01*
X128047666Y-81779496D01*
X128047661Y-81779492D01*
X127927838Y-81710313D01*
X127927837Y-81710312D01*
X127927836Y-81710312D01*
X127794183Y-81674500D01*
X127749500Y-81674500D01*
X127682461Y-81654815D01*
X127636706Y-81602011D01*
X127625500Y-81550500D01*
X127625500Y-81455819D01*
X127625500Y-81455817D01*
X127589688Y-81322164D01*
X127520505Y-81202335D01*
X127422665Y-81104495D01*
X127422664Y-81104494D01*
X127422661Y-81104492D01*
X127302838Y-81035313D01*
X127302837Y-81035312D01*
X127302836Y-81035312D01*
X127169183Y-80999500D01*
X127030817Y-80999500D01*
X126897164Y-81035312D01*
X126897161Y-81035313D01*
X126777338Y-81104492D01*
X126777333Y-81104496D01*
X126679496Y-81202333D01*
X126679492Y-81202338D01*
X126610313Y-81322161D01*
X126610312Y-81322164D01*
X126574500Y-81455817D01*
X126574500Y-81594183D01*
X126605617Y-81710312D01*
X126610312Y-81727835D01*
X126610313Y-81727838D01*
X126679492Y-81847661D01*
X126679494Y-81847664D01*
X126679495Y-81847665D01*
X126777335Y-81945505D01*
X126897164Y-82014688D01*
X127030817Y-82050500D01*
X127030819Y-82050500D01*
X127075500Y-82050500D01*
X127142539Y-82070185D01*
X127188294Y-82122989D01*
X127199500Y-82174500D01*
X127199500Y-82269183D01*
X127230617Y-82385312D01*
X127235312Y-82402835D01*
X127235313Y-82402838D01*
X127304492Y-82522661D01*
X127304494Y-82522664D01*
X127304495Y-82522665D01*
X127402335Y-82620505D01*
X127522164Y-82689688D01*
X127655817Y-82725500D01*
X127655819Y-82725500D01*
X127794180Y-82725500D01*
X127794183Y-82725500D01*
X127841882Y-82712719D01*
X127911729Y-82714382D01*
X127969592Y-82753544D01*
X127997096Y-82817772D01*
X127985510Y-82886675D01*
X127961655Y-82920175D01*
X127879492Y-83002338D01*
X127810313Y-83122161D01*
X127810312Y-83122164D01*
X127774500Y-83255817D01*
X127774500Y-83394182D01*
X127810312Y-83527835D01*
X127810313Y-83527838D01*
X127879492Y-83647661D01*
X127879494Y-83647664D01*
X127879495Y-83647665D01*
X127977335Y-83745505D01*
X128097164Y-83814688D01*
X128230817Y-83850500D01*
X128230819Y-83850500D01*
X128231431Y-83850664D01*
X128291092Y-83887029D01*
X128321621Y-83949876D01*
X128323337Y-83969860D01*
X128434537Y-107770025D01*
X128415166Y-107837155D01*
X128362576Y-107883156D01*
X128293465Y-107893423D01*
X128278445Y-107890379D01*
X128251488Y-107883156D01*
X128219183Y-107874500D01*
X128080817Y-107874500D01*
X127947164Y-107910312D01*
X127947161Y-107910313D01*
X127827338Y-107979492D01*
X127827333Y-107979496D01*
X127729496Y-108077333D01*
X127729492Y-108077338D01*
X127660313Y-108197161D01*
X127660312Y-108197164D01*
X127624500Y-108330817D01*
X127624500Y-108469182D01*
X127660312Y-108602835D01*
X127660313Y-108602838D01*
X127729492Y-108722661D01*
X127729494Y-108722664D01*
X127729495Y-108722665D01*
X127827335Y-108820505D01*
X127947164Y-108889688D01*
X128080817Y-108925500D01*
X128080819Y-108925500D01*
X128219180Y-108925500D01*
X128219183Y-108925500D01*
X128284322Y-108908046D01*
X128354169Y-108909709D01*
X128412032Y-108948871D01*
X128439536Y-109013100D01*
X128440412Y-109027242D01*
X128465165Y-114324921D01*
X128445794Y-114392051D01*
X128393204Y-114438052D01*
X128341166Y-114449500D01*
X125694032Y-114449500D01*
X125626993Y-114429815D01*
X125606351Y-114413181D01*
X125572666Y-114379496D01*
X125572661Y-114379492D01*
X125452838Y-114310313D01*
X125452837Y-114310312D01*
X125452836Y-114310312D01*
X125319183Y-114274500D01*
X125180817Y-114274500D01*
X125047164Y-114310312D01*
X125047161Y-114310313D01*
X124927338Y-114379492D01*
X124927333Y-114379496D01*
X124829496Y-114477333D01*
X124829492Y-114477338D01*
X124760313Y-114597161D01*
X124760312Y-114597164D01*
X124724500Y-114730817D01*
X124724500Y-114869183D01*
X124749916Y-114964035D01*
X124760312Y-115002835D01*
X124760313Y-115002838D01*
X124829492Y-115122661D01*
X124829494Y-115122664D01*
X124829495Y-115122665D01*
X124927335Y-115220505D01*
X124927336Y-115220506D01*
X124927338Y-115220507D01*
X124954263Y-115236052D01*
X125047164Y-115289688D01*
X125180817Y-115325500D01*
X125180819Y-115325500D01*
X125319181Y-115325500D01*
X125319183Y-115325500D01*
X125452836Y-115289688D01*
X125572665Y-115220505D01*
X125606351Y-115186819D01*
X125633278Y-115172115D01*
X125659097Y-115155523D01*
X125665297Y-115154631D01*
X125667674Y-115153334D01*
X125694032Y-115150500D01*
X125750500Y-115150500D01*
X125817539Y-115170185D01*
X125863294Y-115222989D01*
X125874500Y-115274500D01*
X125874500Y-115317646D01*
X125854815Y-115384685D01*
X125802011Y-115430440D01*
X125782594Y-115437421D01*
X125697162Y-115460312D01*
X125697161Y-115460313D01*
X125577338Y-115529492D01*
X125577333Y-115529496D01*
X125479496Y-115627333D01*
X125479492Y-115627338D01*
X125410313Y-115747161D01*
X125410312Y-115747164D01*
X125374500Y-115880817D01*
X125374500Y-116019183D01*
X125389460Y-116075015D01*
X125404662Y-116131750D01*
X125402999Y-116201600D01*
X125363836Y-116259462D01*
X125299608Y-116286966D01*
X125230705Y-116275379D01*
X125197206Y-116251524D01*
X125161685Y-116216003D01*
X125128200Y-116154680D01*
X125127071Y-116127311D01*
X125125500Y-116127311D01*
X125125500Y-115980819D01*
X125125500Y-115980817D01*
X125089688Y-115847164D01*
X125031953Y-115747164D01*
X125020507Y-115727338D01*
X125020503Y-115727333D01*
X124922666Y-115629496D01*
X124922661Y-115629492D01*
X124802838Y-115560313D01*
X124802837Y-115560312D01*
X124802836Y-115560312D01*
X124669183Y-115524500D01*
X124530817Y-115524500D01*
X124397164Y-115560312D01*
X124397161Y-115560313D01*
X124277338Y-115629492D01*
X124277333Y-115629496D01*
X124179496Y-115727333D01*
X124179492Y-115727338D01*
X124110313Y-115847161D01*
X124110312Y-115847164D01*
X124074500Y-115980817D01*
X124074500Y-116119183D01*
X124109961Y-116251524D01*
X124110312Y-116252835D01*
X124110313Y-116252838D01*
X124179492Y-116372661D01*
X124179494Y-116372664D01*
X124179495Y-116372665D01*
X124277335Y-116470505D01*
X124277336Y-116470506D01*
X124277338Y-116470507D01*
X124316613Y-116493182D01*
X124397164Y-116539688D01*
X124497359Y-116566535D01*
X124552946Y-116598628D01*
X125484788Y-117530470D01*
X125564712Y-117576614D01*
X125653856Y-117600500D01*
X125653858Y-117600500D01*
X128356123Y-117600500D01*
X128423162Y-117620185D01*
X128468917Y-117672989D01*
X128480123Y-117724432D01*
X128482513Y-122075432D01*
X128462865Y-122142482D01*
X128410086Y-122188266D01*
X128358513Y-122199500D01*
X128255817Y-122199500D01*
X128122164Y-122235312D01*
X128122161Y-122235313D01*
X128002338Y-122304492D01*
X128002331Y-122304498D01*
X127997148Y-122309681D01*
X127935824Y-122343163D01*
X127866132Y-122338176D01*
X127847471Y-122329383D01*
X127727838Y-122260313D01*
X127727837Y-122260312D01*
X127727836Y-122260312D01*
X127594183Y-122224500D01*
X127455817Y-122224500D01*
X127322164Y-122260312D01*
X127322161Y-122260313D01*
X127202338Y-122329492D01*
X127195890Y-122334441D01*
X127194147Y-122332170D01*
X127144946Y-122359019D01*
X127075256Y-122354015D01*
X127056623Y-122345233D01*
X126952836Y-122285312D01*
X126819183Y-122249500D01*
X126680817Y-122249500D01*
X126547164Y-122285312D01*
X126547161Y-122285313D01*
X126427336Y-122354493D01*
X126426089Y-122355451D01*
X126424846Y-122355931D01*
X126420297Y-122358558D01*
X126419887Y-122357848D01*
X126360919Y-122380643D01*
X126292475Y-122366603D01*
X126262924Y-122344754D01*
X126247666Y-122329496D01*
X126247661Y-122329492D01*
X126127838Y-122260313D01*
X126127837Y-122260312D01*
X126127836Y-122260312D01*
X125994183Y-122224500D01*
X125855817Y-122224500D01*
X125722164Y-122260312D01*
X125722161Y-122260313D01*
X125602338Y-122329492D01*
X125602333Y-122329496D01*
X125504496Y-122427333D01*
X125504492Y-122427338D01*
X125435313Y-122547161D01*
X125435312Y-122547164D01*
X125399500Y-122680817D01*
X125399500Y-122819183D01*
X125428614Y-122927836D01*
X125435312Y-122952835D01*
X125435313Y-122952838D01*
X125504492Y-123072661D01*
X125504494Y-123072664D01*
X125504495Y-123072665D01*
X125602335Y-123170505D01*
X125602336Y-123170506D01*
X125602338Y-123170507D01*
X125603123Y-123170960D01*
X125722164Y-123239688D01*
X125855817Y-123275500D01*
X125855819Y-123275500D01*
X125994181Y-123275500D01*
X125994183Y-123275500D01*
X126127836Y-123239688D01*
X126247665Y-123170505D01*
X126247674Y-123170495D01*
X126248897Y-123169558D01*
X126250133Y-123169079D01*
X126254704Y-123166441D01*
X126255115Y-123167153D01*
X126314064Y-123144357D01*
X126382510Y-123158388D01*
X126412075Y-123180245D01*
X126427335Y-123195505D01*
X126427336Y-123195506D01*
X126427338Y-123195507D01*
X126460559Y-123214687D01*
X126547164Y-123264688D01*
X126680817Y-123300500D01*
X126680819Y-123300500D01*
X126819181Y-123300500D01*
X126819183Y-123300500D01*
X126952836Y-123264688D01*
X127072665Y-123195505D01*
X127072669Y-123195500D01*
X127079110Y-123190559D01*
X127080858Y-123192837D01*
X127129985Y-123165995D01*
X127199678Y-123170960D01*
X127218378Y-123179767D01*
X127322164Y-123239688D01*
X127455817Y-123275500D01*
X127455819Y-123275500D01*
X127594181Y-123275500D01*
X127594183Y-123275500D01*
X127727836Y-123239688D01*
X127847665Y-123170505D01*
X127852845Y-123165324D01*
X127914164Y-123131838D01*
X127983856Y-123136819D01*
X128002523Y-123145614D01*
X128122164Y-123214688D01*
X128255817Y-123250500D01*
X128255819Y-123250500D01*
X128359227Y-123250500D01*
X128426266Y-123270185D01*
X128472021Y-123322989D01*
X128483227Y-123374432D01*
X128484120Y-125000958D01*
X128464472Y-125068008D01*
X128411693Y-125113792D01*
X128342540Y-125123774D01*
X128303825Y-125111511D01*
X128185585Y-125051265D01*
X128185584Y-125051264D01*
X128185583Y-125051264D01*
X127957217Y-124977063D01*
X127957215Y-124977062D01*
X127957214Y-124977062D01*
X127775031Y-124948207D01*
X127720054Y-124939500D01*
X127479936Y-124939500D01*
X127424958Y-124948207D01*
X127242776Y-124977062D01*
X127014404Y-125051265D01*
X126800458Y-125160276D01*
X126606196Y-125301417D01*
X126436403Y-125471212D01*
X126295279Y-125665454D01*
X126295273Y-125665463D01*
X126192751Y-125866676D01*
X126144777Y-125917472D01*
X126084041Y-125934368D01*
X117575775Y-126056184D01*
X117508461Y-126037461D01*
X117461955Y-125985318D01*
X117450000Y-125932197D01*
X117450000Y-118905817D01*
X122074500Y-118905817D01*
X122074500Y-119044182D01*
X122110312Y-119177835D01*
X122110313Y-119177838D01*
X122179492Y-119297661D01*
X122179494Y-119297664D01*
X122179495Y-119297665D01*
X122277335Y-119395505D01*
X122397164Y-119464688D01*
X122530817Y-119500500D01*
X122530819Y-119500500D01*
X122669181Y-119500500D01*
X122669183Y-119500500D01*
X122802836Y-119464688D01*
X122922665Y-119395505D01*
X123020505Y-119297665D01*
X123089688Y-119177836D01*
X123125500Y-119044183D01*
X123125500Y-118905817D01*
X123089688Y-118772164D01*
X123020505Y-118652335D01*
X122922665Y-118554495D01*
X122922664Y-118554494D01*
X122922661Y-118554492D01*
X122802838Y-118485313D01*
X122802837Y-118485312D01*
X122802836Y-118485312D01*
X122669183Y-118449500D01*
X122530817Y-118449500D01*
X122397164Y-118485312D01*
X122397161Y-118485313D01*
X122277338Y-118554492D01*
X122277333Y-118554496D01*
X122179496Y-118652333D01*
X122179492Y-118652338D01*
X122110313Y-118772161D01*
X122110312Y-118772164D01*
X122074500Y-118905817D01*
X117450000Y-118905817D01*
X117450000Y-118230817D01*
X123374500Y-118230817D01*
X123374500Y-118369183D01*
X123405617Y-118485312D01*
X123410312Y-118502835D01*
X123410313Y-118502838D01*
X123479492Y-118622661D01*
X123479494Y-118622664D01*
X123479495Y-118622665D01*
X123577335Y-118720505D01*
X123697164Y-118789688D01*
X123830817Y-118825500D01*
X123830819Y-118825500D01*
X123969181Y-118825500D01*
X123969183Y-118825500D01*
X124102836Y-118789688D01*
X124222665Y-118720505D01*
X124320505Y-118622665D01*
X124389688Y-118502836D01*
X124425500Y-118369183D01*
X124425500Y-118230817D01*
X124389688Y-118097164D01*
X124320505Y-117977335D01*
X124222665Y-117879495D01*
X124222664Y-117879494D01*
X124222661Y-117879492D01*
X124102838Y-117810313D01*
X124102837Y-117810312D01*
X124102836Y-117810312D01*
X123969183Y-117774500D01*
X123830817Y-117774500D01*
X123697164Y-117810312D01*
X123697161Y-117810313D01*
X123577338Y-117879492D01*
X123577333Y-117879496D01*
X123479496Y-117977333D01*
X123479492Y-117977338D01*
X123410313Y-118097161D01*
X123410312Y-118097164D01*
X123374500Y-118230817D01*
X117450000Y-118230817D01*
X117450000Y-116208671D01*
X119499351Y-116208671D01*
X119499351Y-116347037D01*
X119533773Y-116475500D01*
X119535163Y-116480689D01*
X119535164Y-116480692D01*
X119604343Y-116600515D01*
X119604345Y-116600518D01*
X119604346Y-116600519D01*
X119702186Y-116698359D01*
X119822015Y-116767542D01*
X119955668Y-116803354D01*
X119955672Y-116803354D01*
X119959079Y-116804267D01*
X120018740Y-116840632D01*
X120046761Y-116891949D01*
X120060519Y-116943295D01*
X120060520Y-116943298D01*
X120129699Y-117063121D01*
X120129701Y-117063124D01*
X120129702Y-117063125D01*
X120227542Y-117160965D01*
X120347371Y-117230148D01*
X120481024Y-117265960D01*
X120481026Y-117265960D01*
X120619388Y-117265960D01*
X120619390Y-117265960D01*
X120753043Y-117230148D01*
X120857708Y-117169719D01*
X120925607Y-117153247D01*
X120981705Y-117169719D01*
X121086371Y-117230148D01*
X121220024Y-117265960D01*
X121220026Y-117265960D01*
X121358388Y-117265960D01*
X121358390Y-117265960D01*
X121492043Y-117230148D01*
X121611872Y-117160965D01*
X121709712Y-117063125D01*
X121778895Y-116943296D01*
X121814707Y-116809643D01*
X121814707Y-116786112D01*
X121834392Y-116719073D01*
X121887196Y-116673318D01*
X121906616Y-116666337D01*
X121906838Y-116666278D01*
X122026667Y-116597095D01*
X122124507Y-116499255D01*
X122193690Y-116379426D01*
X122229502Y-116245773D01*
X122229502Y-116107407D01*
X122193690Y-115973754D01*
X122136963Y-115875500D01*
X122124509Y-115853928D01*
X122124505Y-115853923D01*
X122026668Y-115756086D01*
X122026663Y-115756082D01*
X121906840Y-115686903D01*
X121906839Y-115686902D01*
X121906838Y-115686902D01*
X121773185Y-115651090D01*
X121634819Y-115651090D01*
X121501166Y-115686902D01*
X121501163Y-115686903D01*
X121381340Y-115756082D01*
X121381335Y-115756086D01*
X121283498Y-115853923D01*
X121283494Y-115853928D01*
X121214315Y-115973751D01*
X121214314Y-115973754D01*
X121178502Y-116107407D01*
X121178502Y-116130937D01*
X121158817Y-116197976D01*
X121113474Y-116240016D01*
X121100661Y-116246942D01*
X121086371Y-116250772D01*
X120980224Y-116312055D01*
X120978679Y-116312891D01*
X120946143Y-116319826D01*
X120913806Y-116327672D01*
X120911928Y-116327120D01*
X120910345Y-116327458D01*
X120900804Y-116323854D01*
X120857708Y-116311199D01*
X120753049Y-116250775D01*
X120753045Y-116250773D01*
X120753043Y-116250772D01*
X120619390Y-116214960D01*
X120619389Y-116214960D01*
X120615978Y-116214046D01*
X120556317Y-116177681D01*
X120528297Y-116126365D01*
X120514539Y-116075018D01*
X120479706Y-116014686D01*
X120445358Y-115955192D01*
X120445354Y-115955187D01*
X120347517Y-115857350D01*
X120347512Y-115857346D01*
X120227689Y-115788167D01*
X120227688Y-115788166D01*
X120227687Y-115788166D01*
X120094034Y-115752354D01*
X119955668Y-115752354D01*
X119822015Y-115788166D01*
X119822012Y-115788167D01*
X119702189Y-115857346D01*
X119702184Y-115857350D01*
X119604347Y-115955187D01*
X119604343Y-115955192D01*
X119535164Y-116075015D01*
X119535163Y-116075018D01*
X119499351Y-116208671D01*
X117450000Y-116208671D01*
X117450000Y-116132061D01*
X117469685Y-116065022D01*
X117522489Y-116019267D01*
X117526547Y-116017500D01*
X117533329Y-116014689D01*
X117533336Y-116014688D01*
X117638001Y-115954259D01*
X117705900Y-115937787D01*
X117761998Y-115954259D01*
X117866664Y-116014688D01*
X118000317Y-116050500D01*
X118000319Y-116050500D01*
X118138681Y-116050500D01*
X118138683Y-116050500D01*
X118272336Y-116014688D01*
X118392165Y-115945505D01*
X118490005Y-115847665D01*
X118559188Y-115727836D01*
X118583474Y-115637197D01*
X118619838Y-115577539D01*
X118671151Y-115549519D01*
X118770484Y-115522904D01*
X118890313Y-115453721D01*
X118988153Y-115355881D01*
X119057336Y-115236052D01*
X119093148Y-115102399D01*
X119093148Y-114964033D01*
X119057336Y-114830380D01*
X118988153Y-114710551D01*
X118890313Y-114612711D01*
X118890312Y-114612710D01*
X118890309Y-114612708D01*
X118770486Y-114543529D01*
X118770485Y-114543528D01*
X118770484Y-114543528D01*
X118636831Y-114507716D01*
X118498465Y-114507716D01*
X118364812Y-114543528D01*
X118364809Y-114543529D01*
X118244986Y-114612708D01*
X118244981Y-114612712D01*
X118147144Y-114710549D01*
X118147140Y-114710554D01*
X118077961Y-114830377D01*
X118077960Y-114830378D01*
X118053674Y-114921016D01*
X118017308Y-114980677D01*
X117965993Y-115008697D01*
X117866662Y-115035312D01*
X117866657Y-115035315D01*
X117761999Y-115095739D01*
X117750833Y-115098447D01*
X117741529Y-115105191D01*
X117717494Y-115106536D01*
X117694099Y-115112212D01*
X117681445Y-115108553D01*
X117671769Y-115109095D01*
X117640383Y-115096681D01*
X117638895Y-115096251D01*
X117638419Y-115095981D01*
X117533336Y-115035312D01*
X117529451Y-115034271D01*
X117519095Y-115028406D01*
X117499860Y-115008566D01*
X117478343Y-114991226D01*
X117475882Y-114983833D01*
X117470461Y-114978241D01*
X117465006Y-114951153D01*
X117456279Y-114924931D01*
X117456200Y-114920507D01*
X117456200Y-114881220D01*
X117456200Y-114881218D01*
X117454223Y-114873842D01*
X117450000Y-114841754D01*
X117450000Y-109630817D01*
X122074500Y-109630817D01*
X122074500Y-109769183D01*
X122090661Y-109829495D01*
X122110312Y-109902835D01*
X122110313Y-109902838D01*
X122179492Y-110022661D01*
X122179494Y-110022664D01*
X122179495Y-110022665D01*
X122277335Y-110120505D01*
X122397164Y-110189688D01*
X122530817Y-110225500D01*
X122530819Y-110225500D01*
X122669181Y-110225500D01*
X122669183Y-110225500D01*
X122802836Y-110189688D01*
X122818201Y-110180817D01*
X123399500Y-110180817D01*
X123399500Y-110319182D01*
X123435312Y-110452835D01*
X123435313Y-110452838D01*
X123504492Y-110572661D01*
X123504494Y-110572664D01*
X123504495Y-110572665D01*
X123602335Y-110670505D01*
X123722164Y-110739688D01*
X123855817Y-110775500D01*
X123855819Y-110775500D01*
X123994181Y-110775500D01*
X123994183Y-110775500D01*
X124127836Y-110739688D01*
X124247665Y-110670505D01*
X124345505Y-110572665D01*
X124414688Y-110452836D01*
X124450500Y-110319183D01*
X124450500Y-110180817D01*
X124414688Y-110047164D01*
X124345505Y-109927335D01*
X124247665Y-109829495D01*
X124247664Y-109829494D01*
X124247661Y-109829492D01*
X124127838Y-109760313D01*
X124127837Y-109760312D01*
X124127836Y-109760312D01*
X123994183Y-109724500D01*
X123855817Y-109724500D01*
X123722164Y-109760312D01*
X123722161Y-109760313D01*
X123602338Y-109829492D01*
X123602333Y-109829496D01*
X123504496Y-109927333D01*
X123504492Y-109927338D01*
X123435313Y-110047161D01*
X123435312Y-110047164D01*
X123399500Y-110180817D01*
X122818201Y-110180817D01*
X122922665Y-110120505D01*
X123020505Y-110022665D01*
X123089688Y-109902836D01*
X123125500Y-109769183D01*
X123125500Y-109630817D01*
X123089688Y-109497164D01*
X123020505Y-109377335D01*
X122922665Y-109279495D01*
X122922664Y-109279494D01*
X122922661Y-109279492D01*
X122802838Y-109210313D01*
X122802837Y-109210312D01*
X122802836Y-109210312D01*
X122669183Y-109174500D01*
X122530817Y-109174500D01*
X122397164Y-109210312D01*
X122397161Y-109210313D01*
X122277338Y-109279492D01*
X122277333Y-109279496D01*
X122179496Y-109377333D01*
X122179492Y-109377338D01*
X122110313Y-109497161D01*
X122110312Y-109497164D01*
X122074500Y-109630817D01*
X117450000Y-109630817D01*
X117450000Y-105830817D01*
X122449500Y-105830817D01*
X122449500Y-105969182D01*
X122485312Y-106102835D01*
X122485313Y-106102838D01*
X122554492Y-106222661D01*
X122554494Y-106222664D01*
X122554495Y-106222665D01*
X122652335Y-106320505D01*
X122772164Y-106389688D01*
X122905817Y-106425500D01*
X122905819Y-106425500D01*
X123044181Y-106425500D01*
X123044183Y-106425500D01*
X123177836Y-106389688D01*
X123297665Y-106320505D01*
X123395505Y-106222665D01*
X123464688Y-106102836D01*
X123500500Y-105969183D01*
X123500500Y-105830817D01*
X123479002Y-105750585D01*
X123480665Y-105680738D01*
X123519827Y-105622875D01*
X123584056Y-105595371D01*
X123630867Y-105598718D01*
X123730817Y-105625500D01*
X123730819Y-105625500D01*
X123869181Y-105625500D01*
X123869183Y-105625500D01*
X124002836Y-105589688D01*
X124122665Y-105520505D01*
X124220505Y-105422665D01*
X124289688Y-105302836D01*
X124325500Y-105169183D01*
X124325500Y-105030817D01*
X124289688Y-104897164D01*
X124280250Y-104880817D01*
X126574500Y-104880817D01*
X126574500Y-105019183D01*
X126577618Y-105030817D01*
X126610312Y-105152835D01*
X126610313Y-105152838D01*
X126679492Y-105272661D01*
X126679494Y-105272664D01*
X126679495Y-105272665D01*
X126777335Y-105370505D01*
X126777336Y-105370506D01*
X126777338Y-105370507D01*
X126788799Y-105377124D01*
X126897164Y-105439688D01*
X127030817Y-105475500D01*
X127030819Y-105475500D01*
X127169181Y-105475500D01*
X127169183Y-105475500D01*
X127302836Y-105439688D01*
X127422665Y-105370505D01*
X127520505Y-105272665D01*
X127589688Y-105152836D01*
X127625500Y-105019183D01*
X127625500Y-104880817D01*
X127589688Y-104747164D01*
X127520505Y-104627335D01*
X127422665Y-104529495D01*
X127422664Y-104529494D01*
X127422661Y-104529492D01*
X127302838Y-104460313D01*
X127302837Y-104460312D01*
X127302836Y-104460312D01*
X127169183Y-104424500D01*
X127030817Y-104424500D01*
X126897164Y-104460312D01*
X126897161Y-104460313D01*
X126777338Y-104529492D01*
X126777333Y-104529496D01*
X126679496Y-104627333D01*
X126679492Y-104627338D01*
X126610313Y-104747161D01*
X126610312Y-104747164D01*
X126574500Y-104880817D01*
X124280250Y-104880817D01*
X124220505Y-104777335D01*
X124122665Y-104679495D01*
X124122664Y-104679494D01*
X124122661Y-104679492D01*
X124002838Y-104610313D01*
X124002837Y-104610312D01*
X124002836Y-104610312D01*
X123869183Y-104574500D01*
X123730817Y-104574500D01*
X123597164Y-104610312D01*
X123597161Y-104610313D01*
X123477338Y-104679492D01*
X123477333Y-104679496D01*
X123379496Y-104777333D01*
X123379492Y-104777338D01*
X123310313Y-104897161D01*
X123310312Y-104897164D01*
X123274500Y-105030817D01*
X123274500Y-105169182D01*
X123295997Y-105249412D01*
X123294334Y-105319262D01*
X123255171Y-105377124D01*
X123190942Y-105404628D01*
X123144129Y-105401280D01*
X123092146Y-105387351D01*
X123044183Y-105374500D01*
X122905817Y-105374500D01*
X122772164Y-105410312D01*
X122772161Y-105410313D01*
X122652338Y-105479492D01*
X122652333Y-105479496D01*
X122554496Y-105577333D01*
X122554492Y-105577338D01*
X122485313Y-105697161D01*
X122485312Y-105697164D01*
X122449500Y-105830817D01*
X117450000Y-105830817D01*
X117450000Y-103180817D01*
X122474500Y-103180817D01*
X122474500Y-103319182D01*
X122510312Y-103452835D01*
X122510313Y-103452838D01*
X122579493Y-103572662D01*
X122580916Y-103574517D01*
X122581629Y-103576362D01*
X122583558Y-103579703D01*
X122583036Y-103580003D01*
X122606107Y-103639688D01*
X122592066Y-103708132D01*
X122580916Y-103725483D01*
X122579493Y-103727337D01*
X122510313Y-103847161D01*
X122510312Y-103847164D01*
X122474500Y-103980817D01*
X122474500Y-104119182D01*
X122510312Y-104252835D01*
X122510313Y-104252838D01*
X122579492Y-104372661D01*
X122579494Y-104372664D01*
X122579495Y-104372665D01*
X122677335Y-104470505D01*
X122797164Y-104539688D01*
X122930817Y-104575500D01*
X122930819Y-104575500D01*
X123069181Y-104575500D01*
X123069183Y-104575500D01*
X123202836Y-104539688D01*
X123322665Y-104470505D01*
X123420505Y-104372665D01*
X123489688Y-104252836D01*
X123525500Y-104119183D01*
X123525500Y-103980817D01*
X123489688Y-103847164D01*
X123420505Y-103727335D01*
X123420502Y-103727332D01*
X123419089Y-103725490D01*
X123418377Y-103723648D01*
X123416442Y-103720297D01*
X123416964Y-103719995D01*
X123393892Y-103660322D01*
X123407928Y-103591876D01*
X123419089Y-103574510D01*
X123420499Y-103572670D01*
X123420505Y-103572665D01*
X123489688Y-103452836D01*
X123525500Y-103319183D01*
X123525500Y-103180817D01*
X123489688Y-103047164D01*
X123420505Y-102927335D01*
X123322665Y-102829495D01*
X123322664Y-102829494D01*
X123322661Y-102829492D01*
X123202838Y-102760313D01*
X123202837Y-102760312D01*
X123202836Y-102760312D01*
X123069183Y-102724500D01*
X122930817Y-102724500D01*
X122797164Y-102760312D01*
X122797161Y-102760313D01*
X122677338Y-102829492D01*
X122677333Y-102829496D01*
X122579496Y-102927333D01*
X122579492Y-102927338D01*
X122510313Y-103047161D01*
X122510312Y-103047164D01*
X122474500Y-103180817D01*
X117450000Y-103180817D01*
X117450000Y-101067754D01*
X117469685Y-101000715D01*
X117486316Y-100980076D01*
X117785575Y-100680817D01*
X122624500Y-100680817D01*
X122624500Y-100819182D01*
X122660312Y-100952835D01*
X122660313Y-100952838D01*
X122729492Y-101072661D01*
X122729494Y-101072664D01*
X122729495Y-101072665D01*
X122827335Y-101170505D01*
X122947164Y-101239688D01*
X123080817Y-101275500D01*
X123080819Y-101275500D01*
X123219181Y-101275500D01*
X123219183Y-101275500D01*
X123352836Y-101239688D01*
X123472665Y-101170505D01*
X123570505Y-101072665D01*
X123639688Y-100952836D01*
X123675500Y-100819183D01*
X123675500Y-100680817D01*
X123639688Y-100547164D01*
X123570505Y-100427335D01*
X123472665Y-100329495D01*
X123472664Y-100329494D01*
X123472661Y-100329492D01*
X123352838Y-100260313D01*
X123352837Y-100260312D01*
X123352836Y-100260312D01*
X123219183Y-100224500D01*
X123080817Y-100224500D01*
X122947164Y-100260312D01*
X122947161Y-100260313D01*
X122827338Y-100329492D01*
X122827333Y-100329496D01*
X122729496Y-100427333D01*
X122729492Y-100427338D01*
X122660313Y-100547161D01*
X122660312Y-100547164D01*
X122624500Y-100680817D01*
X117785575Y-100680817D01*
X118685575Y-99780817D01*
X120524500Y-99780817D01*
X120524500Y-99919182D01*
X120560312Y-100052835D01*
X120560313Y-100052838D01*
X120629492Y-100172661D01*
X120629494Y-100172664D01*
X120629495Y-100172665D01*
X120727335Y-100270505D01*
X120847164Y-100339688D01*
X120980817Y-100375500D01*
X120980819Y-100375500D01*
X121119181Y-100375500D01*
X121119183Y-100375500D01*
X121252836Y-100339688D01*
X121372665Y-100270505D01*
X121470505Y-100172665D01*
X121539688Y-100052836D01*
X121575500Y-99919183D01*
X121575500Y-99780817D01*
X121539688Y-99647164D01*
X121470505Y-99527335D01*
X121372665Y-99429495D01*
X121372664Y-99429494D01*
X121372661Y-99429492D01*
X121252838Y-99360313D01*
X121252837Y-99360312D01*
X121252836Y-99360312D01*
X121119183Y-99324500D01*
X120980817Y-99324500D01*
X120847164Y-99360312D01*
X120847161Y-99360313D01*
X120727338Y-99429492D01*
X120727333Y-99429496D01*
X120629496Y-99527333D01*
X120629492Y-99527338D01*
X120560313Y-99647161D01*
X120560312Y-99647164D01*
X120524500Y-99780817D01*
X118685575Y-99780817D01*
X120657044Y-97809347D01*
X120712630Y-97777255D01*
X120719180Y-97775500D01*
X120719183Y-97775500D01*
X120852836Y-97739688D01*
X120972665Y-97670505D01*
X121070505Y-97572665D01*
X121139688Y-97452836D01*
X121175500Y-97319183D01*
X121175500Y-97230817D01*
X124074500Y-97230817D01*
X124074500Y-97369183D01*
X124096915Y-97452835D01*
X124110312Y-97502835D01*
X124110313Y-97502838D01*
X124179492Y-97622661D01*
X124179494Y-97622664D01*
X124179495Y-97622665D01*
X124277335Y-97720505D01*
X124277336Y-97720506D01*
X124277338Y-97720507D01*
X124310559Y-97739687D01*
X124397164Y-97789688D01*
X124530817Y-97825500D01*
X124530819Y-97825500D01*
X124669181Y-97825500D01*
X124669183Y-97825500D01*
X124802836Y-97789688D01*
X124922665Y-97720505D01*
X125020505Y-97622665D01*
X125089688Y-97502836D01*
X125125500Y-97369183D01*
X125125500Y-97230817D01*
X125089688Y-97097164D01*
X125020505Y-96977335D01*
X124922665Y-96879495D01*
X124922664Y-96879494D01*
X124922661Y-96879492D01*
X124802838Y-96810313D01*
X124802837Y-96810312D01*
X124802836Y-96810312D01*
X124669183Y-96774500D01*
X124530817Y-96774500D01*
X124397164Y-96810312D01*
X124397161Y-96810313D01*
X124277338Y-96879492D01*
X124277333Y-96879496D01*
X124179496Y-96977333D01*
X124179492Y-96977338D01*
X124110313Y-97097161D01*
X124110312Y-97097164D01*
X124074500Y-97230817D01*
X121175500Y-97230817D01*
X121175500Y-97180817D01*
X121139688Y-97047164D01*
X121070505Y-96927335D01*
X120972665Y-96829495D01*
X120972664Y-96829494D01*
X120972661Y-96829492D01*
X120852838Y-96760313D01*
X120852837Y-96760312D01*
X120852836Y-96760312D01*
X120719183Y-96724500D01*
X120580817Y-96724500D01*
X120447164Y-96760312D01*
X120447161Y-96760313D01*
X120327338Y-96829492D01*
X120327333Y-96829496D01*
X120229496Y-96927333D01*
X120229492Y-96927338D01*
X120160313Y-97047161D01*
X120160312Y-97047162D01*
X120122745Y-97187368D01*
X120090651Y-97242955D01*
X117661681Y-99671926D01*
X117600358Y-99705411D01*
X117530666Y-99700427D01*
X117474733Y-99658555D01*
X117450316Y-99593091D01*
X117450000Y-99584245D01*
X117450000Y-93410817D01*
X122424500Y-93410817D01*
X122424500Y-93549182D01*
X122460312Y-93682835D01*
X122460313Y-93682838D01*
X122529492Y-93802661D01*
X122529494Y-93802664D01*
X122529495Y-93802665D01*
X122627335Y-93900505D01*
X122747164Y-93969688D01*
X122880817Y-94005500D01*
X122880819Y-94005500D01*
X123019181Y-94005500D01*
X123019183Y-94005500D01*
X123152836Y-93969688D01*
X123272665Y-93900505D01*
X123370505Y-93802665D01*
X123439688Y-93682836D01*
X123475500Y-93549183D01*
X123475500Y-93410817D01*
X123439688Y-93277164D01*
X123370505Y-93157335D01*
X123272665Y-93059495D01*
X123272664Y-93059494D01*
X123272661Y-93059492D01*
X123152838Y-92990313D01*
X123152837Y-92990312D01*
X123152836Y-92990312D01*
X123019183Y-92954500D01*
X122880817Y-92954500D01*
X122747164Y-92990312D01*
X122747161Y-92990313D01*
X122627338Y-93059492D01*
X122627333Y-93059496D01*
X122529496Y-93157333D01*
X122529492Y-93157338D01*
X122460313Y-93277161D01*
X122460312Y-93277164D01*
X122424500Y-93410817D01*
X117450000Y-93410817D01*
X117450000Y-91230817D01*
X122549500Y-91230817D01*
X122549500Y-91369182D01*
X122585312Y-91502835D01*
X122585313Y-91502838D01*
X122654492Y-91622661D01*
X122654494Y-91622664D01*
X122654495Y-91622665D01*
X122752335Y-91720505D01*
X122872164Y-91789688D01*
X123005817Y-91825500D01*
X123005819Y-91825500D01*
X123144181Y-91825500D01*
X123144183Y-91825500D01*
X123277836Y-91789688D01*
X123397665Y-91720505D01*
X123495505Y-91622665D01*
X123564688Y-91502836D01*
X123600500Y-91369183D01*
X123600500Y-91230817D01*
X123564688Y-91097164D01*
X123495505Y-90977335D01*
X123397665Y-90879495D01*
X123397664Y-90879494D01*
X123397661Y-90879492D01*
X123277838Y-90810313D01*
X123277837Y-90810312D01*
X123277836Y-90810312D01*
X123144183Y-90774500D01*
X123005817Y-90774500D01*
X122872164Y-90810312D01*
X122872161Y-90810313D01*
X122752338Y-90879492D01*
X122752333Y-90879496D01*
X122654496Y-90977333D01*
X122654492Y-90977338D01*
X122585313Y-91097161D01*
X122585312Y-91097164D01*
X122549500Y-91230817D01*
X117450000Y-91230817D01*
X117450000Y-90417615D01*
X117469685Y-90350576D01*
X117522489Y-90304821D01*
X117541899Y-90297843D01*
X117572336Y-90289688D01*
X117692165Y-90220505D01*
X117790005Y-90122665D01*
X117816263Y-90077183D01*
X117866830Y-90028968D01*
X117923651Y-90015183D01*
X118066142Y-90015183D01*
X118066144Y-90015183D01*
X118199797Y-89979371D01*
X118319626Y-89910188D01*
X118417466Y-89812348D01*
X118486649Y-89692519D01*
X118509881Y-89605817D01*
X121399500Y-89605817D01*
X121399500Y-89744183D01*
X121432994Y-89869183D01*
X121435312Y-89877835D01*
X121435313Y-89877838D01*
X121504492Y-89997661D01*
X121504494Y-89997664D01*
X121504495Y-89997665D01*
X121602335Y-90095505D01*
X121722164Y-90164688D01*
X121855817Y-90200500D01*
X121855819Y-90200500D01*
X121994181Y-90200500D01*
X121994183Y-90200500D01*
X122127836Y-90164688D01*
X122247665Y-90095505D01*
X122345505Y-89997665D01*
X122414688Y-89877836D01*
X122450500Y-89744183D01*
X122450500Y-89605817D01*
X122414688Y-89472164D01*
X122345505Y-89352335D01*
X122247665Y-89254495D01*
X122247664Y-89254494D01*
X122247661Y-89254492D01*
X122127838Y-89185313D01*
X122127837Y-89185312D01*
X122127836Y-89185312D01*
X121994183Y-89149500D01*
X121855817Y-89149500D01*
X121722164Y-89185312D01*
X121722161Y-89185313D01*
X121602338Y-89254492D01*
X121602333Y-89254496D01*
X121504496Y-89352333D01*
X121504492Y-89352338D01*
X121435313Y-89472161D01*
X121435312Y-89472164D01*
X121399500Y-89605817D01*
X118509881Y-89605817D01*
X118522461Y-89558866D01*
X118522461Y-89420500D01*
X118486649Y-89286847D01*
X118417466Y-89167018D01*
X118319626Y-89069178D01*
X118319625Y-89069177D01*
X118319622Y-89069175D01*
X118199799Y-88999996D01*
X118199798Y-88999995D01*
X118199797Y-88999995D01*
X118066144Y-88964183D01*
X117927778Y-88964183D01*
X117794125Y-88999995D01*
X117794122Y-88999996D01*
X117674299Y-89069175D01*
X117674294Y-89069179D01*
X117661681Y-89081793D01*
X117600358Y-89115278D01*
X117530666Y-89110294D01*
X117474733Y-89068422D01*
X117450316Y-89002958D01*
X117450000Y-88994112D01*
X117450000Y-88655817D01*
X122549500Y-88655817D01*
X122549500Y-88794182D01*
X122585312Y-88927835D01*
X122585313Y-88927838D01*
X122654492Y-89047661D01*
X122654494Y-89047664D01*
X122654495Y-89047665D01*
X122752335Y-89145505D01*
X122752336Y-89145506D01*
X122752338Y-89145507D01*
X122789593Y-89167016D01*
X122872164Y-89214688D01*
X123005817Y-89250500D01*
X123005819Y-89250500D01*
X123144181Y-89250500D01*
X123144183Y-89250500D01*
X123277836Y-89214688D01*
X123397665Y-89145505D01*
X123495505Y-89047665D01*
X123564688Y-88927836D01*
X123600500Y-88794183D01*
X123600500Y-88655817D01*
X123564688Y-88522164D01*
X123495505Y-88402335D01*
X123397665Y-88304495D01*
X123397664Y-88304494D01*
X123397661Y-88304492D01*
X123277838Y-88235313D01*
X123277837Y-88235312D01*
X123277836Y-88235312D01*
X123144183Y-88199500D01*
X123005817Y-88199500D01*
X122872164Y-88235312D01*
X122872161Y-88235313D01*
X122752338Y-88304492D01*
X122752333Y-88304496D01*
X122654496Y-88402333D01*
X122654492Y-88402338D01*
X122585313Y-88522161D01*
X122585312Y-88522164D01*
X122549500Y-88655817D01*
X117450000Y-88655817D01*
X117450000Y-87055817D01*
X120424500Y-87055817D01*
X120424500Y-87194182D01*
X120460312Y-87327835D01*
X120460313Y-87327838D01*
X120529492Y-87447661D01*
X120529494Y-87447664D01*
X120529495Y-87447665D01*
X120627335Y-87545505D01*
X120747164Y-87614688D01*
X120880817Y-87650500D01*
X120880819Y-87650500D01*
X121019181Y-87650500D01*
X121019183Y-87650500D01*
X121152836Y-87614688D01*
X121272665Y-87545505D01*
X121370505Y-87447665D01*
X121439688Y-87327836D01*
X121475500Y-87194183D01*
X121475500Y-87055817D01*
X121439688Y-86922164D01*
X121370505Y-86802335D01*
X121272665Y-86704495D01*
X121272664Y-86704494D01*
X121272661Y-86704492D01*
X121152838Y-86635313D01*
X121152837Y-86635312D01*
X121152836Y-86635312D01*
X121019183Y-86599500D01*
X120880817Y-86599500D01*
X120747164Y-86635312D01*
X120747161Y-86635313D01*
X120627338Y-86704492D01*
X120627333Y-86704496D01*
X120529496Y-86802333D01*
X120529492Y-86802338D01*
X120460313Y-86922161D01*
X120460312Y-86922164D01*
X120424500Y-87055817D01*
X117450000Y-87055817D01*
X117450000Y-86205817D01*
X122499500Y-86205817D01*
X122499500Y-86344182D01*
X122535312Y-86477835D01*
X122535313Y-86477838D01*
X122604492Y-86597661D01*
X122604494Y-86597664D01*
X122604495Y-86597665D01*
X122702335Y-86695505D01*
X122822164Y-86764688D01*
X122955817Y-86800500D01*
X122955819Y-86800500D01*
X123094181Y-86800500D01*
X123094183Y-86800500D01*
X123227836Y-86764688D01*
X123347665Y-86695505D01*
X123445505Y-86597665D01*
X123514688Y-86477836D01*
X123550500Y-86344183D01*
X123550500Y-86205817D01*
X123514688Y-86072164D01*
X123445505Y-85952335D01*
X123347665Y-85854495D01*
X123347664Y-85854494D01*
X123347661Y-85854492D01*
X123227838Y-85785313D01*
X123227837Y-85785312D01*
X123227836Y-85785312D01*
X123094183Y-85749500D01*
X122955817Y-85749500D01*
X122822164Y-85785312D01*
X122822161Y-85785313D01*
X122702338Y-85854492D01*
X122702333Y-85854496D01*
X122604496Y-85952333D01*
X122604492Y-85952338D01*
X122535313Y-86072161D01*
X122535312Y-86072164D01*
X122499500Y-86205817D01*
X117450000Y-86205817D01*
X117450000Y-84605817D01*
X120074500Y-84605817D01*
X120074500Y-84744182D01*
X120110312Y-84877835D01*
X120110313Y-84877838D01*
X120179492Y-84997661D01*
X120179494Y-84997664D01*
X120179495Y-84997665D01*
X120277335Y-85095505D01*
X120397164Y-85164688D01*
X120530817Y-85200500D01*
X120530819Y-85200500D01*
X120669181Y-85200500D01*
X120669183Y-85200500D01*
X120802836Y-85164688D01*
X120922665Y-85095505D01*
X121020505Y-84997665D01*
X121089688Y-84877836D01*
X121125500Y-84744183D01*
X121125500Y-84605817D01*
X121089688Y-84472164D01*
X121020505Y-84352335D01*
X120922665Y-84254495D01*
X120922664Y-84254494D01*
X120922661Y-84254492D01*
X120802838Y-84185313D01*
X120802837Y-84185312D01*
X120802836Y-84185312D01*
X120669183Y-84149500D01*
X120530817Y-84149500D01*
X120397164Y-84185312D01*
X120397161Y-84185313D01*
X120277338Y-84254492D01*
X120277333Y-84254496D01*
X120179496Y-84352333D01*
X120179492Y-84352338D01*
X120110313Y-84472161D01*
X120110312Y-84472164D01*
X120074500Y-84605817D01*
X117450000Y-84605817D01*
X117450000Y-78824000D01*
X117469685Y-78756961D01*
X117522489Y-78711206D01*
X117574000Y-78700000D01*
X122598117Y-78700000D01*
X122623921Y-78707577D01*
G37*
%TD.AperFunction*%
%TD*%
M02*
