%TF.GenerationSoftware,KiCad,Pcbnew,10.0.4-10.0.4~ubuntu24.04.1*%
%TF.CreationDate,2026-07-22T09:53:32+02:00*%
%TF.ProjectId,dc-scm-server-integration-dc-scm-debug-interposer,64632d73-636d-42d7-9365-727665722d69,1.0.0*%
%TF.SameCoordinates,Original*%
%TF.FileFunction,Legend,Bot*%
%TF.FilePolarity,Positive*%
%FSLAX46Y46*%
G04 Gerber Fmt 4.6, Leading zero omitted, Abs format (unit mm)*
G04 Created by KiCad (PCBNEW 10.0.4-10.0.4~ubuntu24.04.1) date 2026-07-22 09:53:32*
%MOMM*%
%LPD*%
G01*
G04 APERTURE LIST*
%ADD10C,0.150000*%
G04 APERTURE END LIST*
D10*
X170833836Y-77742866D02*
X170500503Y-77509533D01*
X170833836Y-77342866D02*
X170133836Y-77342866D01*
X170133836Y-77342866D02*
X170133836Y-77609533D01*
X170133836Y-77609533D02*
X170167169Y-77676200D01*
X170167169Y-77676200D02*
X170200503Y-77709533D01*
X170200503Y-77709533D02*
X170267169Y-77742866D01*
X170267169Y-77742866D02*
X170367169Y-77742866D01*
X170367169Y-77742866D02*
X170433836Y-77709533D01*
X170433836Y-77709533D02*
X170467169Y-77676200D01*
X170467169Y-77676200D02*
X170500503Y-77609533D01*
X170500503Y-77609533D02*
X170500503Y-77342866D01*
X170133836Y-78342866D02*
X170133836Y-78209533D01*
X170133836Y-78209533D02*
X170167169Y-78142866D01*
X170167169Y-78142866D02*
X170200503Y-78109533D01*
X170200503Y-78109533D02*
X170300503Y-78042866D01*
X170300503Y-78042866D02*
X170433836Y-78009533D01*
X170433836Y-78009533D02*
X170700503Y-78009533D01*
X170700503Y-78009533D02*
X170767169Y-78042866D01*
X170767169Y-78042866D02*
X170800503Y-78076200D01*
X170800503Y-78076200D02*
X170833836Y-78142866D01*
X170833836Y-78142866D02*
X170833836Y-78276200D01*
X170833836Y-78276200D02*
X170800503Y-78342866D01*
X170800503Y-78342866D02*
X170767169Y-78376200D01*
X170767169Y-78376200D02*
X170700503Y-78409533D01*
X170700503Y-78409533D02*
X170533836Y-78409533D01*
X170533836Y-78409533D02*
X170467169Y-78376200D01*
X170467169Y-78376200D02*
X170433836Y-78342866D01*
X170433836Y-78342866D02*
X170400503Y-78276200D01*
X170400503Y-78276200D02*
X170400503Y-78142866D01*
X170400503Y-78142866D02*
X170433836Y-78076200D01*
X170433836Y-78076200D02*
X170467169Y-78042866D01*
X170467169Y-78042866D02*
X170533836Y-78009533D01*
X170133836Y-78642867D02*
X170133836Y-79076200D01*
X170133836Y-79076200D02*
X170400503Y-78842867D01*
X170400503Y-78842867D02*
X170400503Y-78942867D01*
X170400503Y-78942867D02*
X170433836Y-79009533D01*
X170433836Y-79009533D02*
X170467169Y-79042867D01*
X170467169Y-79042867D02*
X170533836Y-79076200D01*
X170533836Y-79076200D02*
X170700503Y-79076200D01*
X170700503Y-79076200D02*
X170767169Y-79042867D01*
X170767169Y-79042867D02*
X170800503Y-79009533D01*
X170800503Y-79009533D02*
X170833836Y-78942867D01*
X170833836Y-78942867D02*
X170833836Y-78742867D01*
X170833836Y-78742867D02*
X170800503Y-78676200D01*
X170800503Y-78676200D02*
X170767169Y-78642867D01*
X166598230Y-79757132D02*
X166264897Y-79523799D01*
X166598230Y-79357132D02*
X165898230Y-79357132D01*
X165898230Y-79357132D02*
X165898230Y-79623799D01*
X165898230Y-79623799D02*
X165931563Y-79690466D01*
X165931563Y-79690466D02*
X165964897Y-79723799D01*
X165964897Y-79723799D02*
X166031563Y-79757132D01*
X166031563Y-79757132D02*
X166131563Y-79757132D01*
X166131563Y-79757132D02*
X166198230Y-79723799D01*
X166198230Y-79723799D02*
X166231563Y-79690466D01*
X166231563Y-79690466D02*
X166264897Y-79623799D01*
X166264897Y-79623799D02*
X166264897Y-79357132D01*
X165964897Y-80023799D02*
X165931563Y-80057132D01*
X165931563Y-80057132D02*
X165898230Y-80123799D01*
X165898230Y-80123799D02*
X165898230Y-80290466D01*
X165898230Y-80290466D02*
X165931563Y-80357132D01*
X165931563Y-80357132D02*
X165964897Y-80390466D01*
X165964897Y-80390466D02*
X166031563Y-80423799D01*
X166031563Y-80423799D02*
X166098230Y-80423799D01*
X166098230Y-80423799D02*
X166198230Y-80390466D01*
X166198230Y-80390466D02*
X166598230Y-79990466D01*
X166598230Y-79990466D02*
X166598230Y-80423799D01*
X166131563Y-81023799D02*
X166598230Y-81023799D01*
X165864897Y-80857133D02*
X166364897Y-80690466D01*
X166364897Y-80690466D02*
X166364897Y-81123799D01*
X125298230Y-80823799D02*
X124964897Y-80590466D01*
X125298230Y-80423799D02*
X124598230Y-80423799D01*
X124598230Y-80423799D02*
X124598230Y-80690466D01*
X124598230Y-80690466D02*
X124631563Y-80757133D01*
X124631563Y-80757133D02*
X124664897Y-80790466D01*
X124664897Y-80790466D02*
X124731563Y-80823799D01*
X124731563Y-80823799D02*
X124831563Y-80823799D01*
X124831563Y-80823799D02*
X124898230Y-80790466D01*
X124898230Y-80790466D02*
X124931563Y-80757133D01*
X124931563Y-80757133D02*
X124964897Y-80690466D01*
X124964897Y-80690466D02*
X124964897Y-80423799D01*
X124664897Y-81090466D02*
X124631563Y-81123799D01*
X124631563Y-81123799D02*
X124598230Y-81190466D01*
X124598230Y-81190466D02*
X124598230Y-81357133D01*
X124598230Y-81357133D02*
X124631563Y-81423799D01*
X124631563Y-81423799D02*
X124664897Y-81457133D01*
X124664897Y-81457133D02*
X124731563Y-81490466D01*
X124731563Y-81490466D02*
X124798230Y-81490466D01*
X124798230Y-81490466D02*
X124898230Y-81457133D01*
X124898230Y-81457133D02*
X125298230Y-81057133D01*
X125298230Y-81057133D02*
X125298230Y-81490466D01*
X168398230Y-77757132D02*
X168064897Y-77523799D01*
X168398230Y-77357132D02*
X167698230Y-77357132D01*
X167698230Y-77357132D02*
X167698230Y-77623799D01*
X167698230Y-77623799D02*
X167731563Y-77690466D01*
X167731563Y-77690466D02*
X167764897Y-77723799D01*
X167764897Y-77723799D02*
X167831563Y-77757132D01*
X167831563Y-77757132D02*
X167931563Y-77757132D01*
X167931563Y-77757132D02*
X167998230Y-77723799D01*
X167998230Y-77723799D02*
X168031563Y-77690466D01*
X168031563Y-77690466D02*
X168064897Y-77623799D01*
X168064897Y-77623799D02*
X168064897Y-77357132D01*
X167764897Y-78023799D02*
X167731563Y-78057132D01*
X167731563Y-78057132D02*
X167698230Y-78123799D01*
X167698230Y-78123799D02*
X167698230Y-78290466D01*
X167698230Y-78290466D02*
X167731563Y-78357132D01*
X167731563Y-78357132D02*
X167764897Y-78390466D01*
X167764897Y-78390466D02*
X167831563Y-78423799D01*
X167831563Y-78423799D02*
X167898230Y-78423799D01*
X167898230Y-78423799D02*
X167998230Y-78390466D01*
X167998230Y-78390466D02*
X168398230Y-77990466D01*
X168398230Y-77990466D02*
X168398230Y-78423799D01*
X167698230Y-78657133D02*
X167698230Y-79123799D01*
X167698230Y-79123799D02*
X168398230Y-78823799D01*
X124128230Y-80823799D02*
X123794897Y-80590466D01*
X124128230Y-80423799D02*
X123428230Y-80423799D01*
X123428230Y-80423799D02*
X123428230Y-80690466D01*
X123428230Y-80690466D02*
X123461563Y-80757133D01*
X123461563Y-80757133D02*
X123494897Y-80790466D01*
X123494897Y-80790466D02*
X123561563Y-80823799D01*
X123561563Y-80823799D02*
X123661563Y-80823799D01*
X123661563Y-80823799D02*
X123728230Y-80790466D01*
X123728230Y-80790466D02*
X123761563Y-80757133D01*
X123761563Y-80757133D02*
X123794897Y-80690466D01*
X123794897Y-80690466D02*
X123794897Y-80423799D01*
X123428230Y-81057133D02*
X123428230Y-81490466D01*
X123428230Y-81490466D02*
X123694897Y-81257133D01*
X123694897Y-81257133D02*
X123694897Y-81357133D01*
X123694897Y-81357133D02*
X123728230Y-81423799D01*
X123728230Y-81423799D02*
X123761563Y-81457133D01*
X123761563Y-81457133D02*
X123828230Y-81490466D01*
X123828230Y-81490466D02*
X123994897Y-81490466D01*
X123994897Y-81490466D02*
X124061563Y-81457133D01*
X124061563Y-81457133D02*
X124094897Y-81423799D01*
X124094897Y-81423799D02*
X124128230Y-81357133D01*
X124128230Y-81357133D02*
X124128230Y-81157133D01*
X124128230Y-81157133D02*
X124094897Y-81090466D01*
X124094897Y-81090466D02*
X124061563Y-81057133D01*
X187001316Y-124539866D02*
X187234649Y-124539866D01*
X187234649Y-124906533D02*
X187234649Y-124206533D01*
X187234649Y-124206533D02*
X186901316Y-124206533D01*
X186634649Y-124906533D02*
X186634649Y-124206533D01*
X186634649Y-124206533D02*
X186467982Y-124206533D01*
X186467982Y-124206533D02*
X186367982Y-124239866D01*
X186367982Y-124239866D02*
X186301316Y-124306533D01*
X186301316Y-124306533D02*
X186267982Y-124373200D01*
X186267982Y-124373200D02*
X186234649Y-124506533D01*
X186234649Y-124506533D02*
X186234649Y-124606533D01*
X186234649Y-124606533D02*
X186267982Y-124739866D01*
X186267982Y-124739866D02*
X186301316Y-124806533D01*
X186301316Y-124806533D02*
X186367982Y-124873200D01*
X186367982Y-124873200D02*
X186467982Y-124906533D01*
X186467982Y-124906533D02*
X186634649Y-124906533D01*
X186001316Y-124206533D02*
X185534649Y-124206533D01*
X185534649Y-124206533D02*
X185834649Y-124906533D01*
X102001316Y-124539866D02*
X102234649Y-124539866D01*
X102234649Y-124906533D02*
X102234649Y-124206533D01*
X102234649Y-124206533D02*
X101901316Y-124206533D01*
X101634649Y-124906533D02*
X101634649Y-124206533D01*
X101634649Y-124206533D02*
X101467982Y-124206533D01*
X101467982Y-124206533D02*
X101367982Y-124239866D01*
X101367982Y-124239866D02*
X101301316Y-124306533D01*
X101301316Y-124306533D02*
X101267982Y-124373200D01*
X101267982Y-124373200D02*
X101234649Y-124506533D01*
X101234649Y-124506533D02*
X101234649Y-124606533D01*
X101234649Y-124606533D02*
X101267982Y-124739866D01*
X101267982Y-124739866D02*
X101301316Y-124806533D01*
X101301316Y-124806533D02*
X101367982Y-124873200D01*
X101367982Y-124873200D02*
X101467982Y-124906533D01*
X101467982Y-124906533D02*
X101634649Y-124906533D01*
X100834649Y-124506533D02*
X100901316Y-124473200D01*
X100901316Y-124473200D02*
X100934649Y-124439866D01*
X100934649Y-124439866D02*
X100967982Y-124373200D01*
X100967982Y-124373200D02*
X100967982Y-124339866D01*
X100967982Y-124339866D02*
X100934649Y-124273200D01*
X100934649Y-124273200D02*
X100901316Y-124239866D01*
X100901316Y-124239866D02*
X100834649Y-124206533D01*
X100834649Y-124206533D02*
X100701316Y-124206533D01*
X100701316Y-124206533D02*
X100634649Y-124239866D01*
X100634649Y-124239866D02*
X100601316Y-124273200D01*
X100601316Y-124273200D02*
X100567982Y-124339866D01*
X100567982Y-124339866D02*
X100567982Y-124373200D01*
X100567982Y-124373200D02*
X100601316Y-124439866D01*
X100601316Y-124439866D02*
X100634649Y-124473200D01*
X100634649Y-124473200D02*
X100701316Y-124506533D01*
X100701316Y-124506533D02*
X100834649Y-124506533D01*
X100834649Y-124506533D02*
X100901316Y-124539866D01*
X100901316Y-124539866D02*
X100934649Y-124573200D01*
X100934649Y-124573200D02*
X100967982Y-124639866D01*
X100967982Y-124639866D02*
X100967982Y-124773200D01*
X100967982Y-124773200D02*
X100934649Y-124839866D01*
X100934649Y-124839866D02*
X100901316Y-124873200D01*
X100901316Y-124873200D02*
X100834649Y-124906533D01*
X100834649Y-124906533D02*
X100701316Y-124906533D01*
X100701316Y-124906533D02*
X100634649Y-124873200D01*
X100634649Y-124873200D02*
X100601316Y-124839866D01*
X100601316Y-124839866D02*
X100567982Y-124773200D01*
X100567982Y-124773200D02*
X100567982Y-124639866D01*
X100567982Y-124639866D02*
X100601316Y-124573200D01*
X100601316Y-124573200D02*
X100634649Y-124539866D01*
X100634649Y-124539866D02*
X100701316Y-124506533D01*
X124716239Y-82170141D02*
X124382906Y-81936808D01*
X124716239Y-81770141D02*
X124016239Y-81770141D01*
X124016239Y-81770141D02*
X124016239Y-82036808D01*
X124016239Y-82036808D02*
X124049572Y-82103475D01*
X124049572Y-82103475D02*
X124082906Y-82136808D01*
X124082906Y-82136808D02*
X124149572Y-82170141D01*
X124149572Y-82170141D02*
X124249572Y-82170141D01*
X124249572Y-82170141D02*
X124316239Y-82136808D01*
X124316239Y-82136808D02*
X124349572Y-82103475D01*
X124349572Y-82103475D02*
X124382906Y-82036808D01*
X124382906Y-82036808D02*
X124382906Y-81770141D01*
X124716239Y-82836808D02*
X124716239Y-82436808D01*
X124716239Y-82636808D02*
X124016239Y-82636808D01*
X124016239Y-82636808D02*
X124116239Y-82570141D01*
X124116239Y-82570141D02*
X124182906Y-82503475D01*
X124182906Y-82503475D02*
X124216239Y-82436808D01*
X124016239Y-83070142D02*
X124016239Y-83503475D01*
X124016239Y-83503475D02*
X124282906Y-83270142D01*
X124282906Y-83270142D02*
X124282906Y-83370142D01*
X124282906Y-83370142D02*
X124316239Y-83436808D01*
X124316239Y-83436808D02*
X124349572Y-83470142D01*
X124349572Y-83470142D02*
X124416239Y-83503475D01*
X124416239Y-83503475D02*
X124582906Y-83503475D01*
X124582906Y-83503475D02*
X124649572Y-83470142D01*
X124649572Y-83470142D02*
X124682906Y-83436808D01*
X124682906Y-83436808D02*
X124716239Y-83370142D01*
X124716239Y-83370142D02*
X124716239Y-83170142D01*
X124716239Y-83170142D02*
X124682906Y-83103475D01*
X124682906Y-83103475D02*
X124649572Y-83070142D01*
X166633836Y-79742866D02*
X166300503Y-79509533D01*
X166633836Y-79342866D02*
X165933836Y-79342866D01*
X165933836Y-79342866D02*
X165933836Y-79609533D01*
X165933836Y-79609533D02*
X165967169Y-79676200D01*
X165967169Y-79676200D02*
X166000503Y-79709533D01*
X166000503Y-79709533D02*
X166067169Y-79742866D01*
X166067169Y-79742866D02*
X166167169Y-79742866D01*
X166167169Y-79742866D02*
X166233836Y-79709533D01*
X166233836Y-79709533D02*
X166267169Y-79676200D01*
X166267169Y-79676200D02*
X166300503Y-79609533D01*
X166300503Y-79609533D02*
X166300503Y-79342866D01*
X165933836Y-79976200D02*
X165933836Y-80442866D01*
X165933836Y-80442866D02*
X166633836Y-80142866D01*
X166000503Y-80676200D02*
X165967169Y-80709533D01*
X165967169Y-80709533D02*
X165933836Y-80776200D01*
X165933836Y-80776200D02*
X165933836Y-80942867D01*
X165933836Y-80942867D02*
X165967169Y-81009533D01*
X165967169Y-81009533D02*
X166000503Y-81042867D01*
X166000503Y-81042867D02*
X166067169Y-81076200D01*
X166067169Y-81076200D02*
X166133836Y-81076200D01*
X166133836Y-81076200D02*
X166233836Y-81042867D01*
X166233836Y-81042867D02*
X166633836Y-80642867D01*
X166633836Y-80642867D02*
X166633836Y-81076200D01*
X136098230Y-80423799D02*
X135764897Y-80190466D01*
X136098230Y-80023799D02*
X135398230Y-80023799D01*
X135398230Y-80023799D02*
X135398230Y-80290466D01*
X135398230Y-80290466D02*
X135431563Y-80357133D01*
X135431563Y-80357133D02*
X135464897Y-80390466D01*
X135464897Y-80390466D02*
X135531563Y-80423799D01*
X135531563Y-80423799D02*
X135631563Y-80423799D01*
X135631563Y-80423799D02*
X135698230Y-80390466D01*
X135698230Y-80390466D02*
X135731563Y-80357133D01*
X135731563Y-80357133D02*
X135764897Y-80290466D01*
X135764897Y-80290466D02*
X135764897Y-80023799D01*
X135398230Y-80657133D02*
X135398230Y-81123799D01*
X135398230Y-81123799D02*
X136098230Y-80823799D01*
X138498230Y-80423799D02*
X138164897Y-80190466D01*
X138498230Y-80023799D02*
X137798230Y-80023799D01*
X137798230Y-80023799D02*
X137798230Y-80290466D01*
X137798230Y-80290466D02*
X137831563Y-80357133D01*
X137831563Y-80357133D02*
X137864897Y-80390466D01*
X137864897Y-80390466D02*
X137931563Y-80423799D01*
X137931563Y-80423799D02*
X138031563Y-80423799D01*
X138031563Y-80423799D02*
X138098230Y-80390466D01*
X138098230Y-80390466D02*
X138131563Y-80357133D01*
X138131563Y-80357133D02*
X138164897Y-80290466D01*
X138164897Y-80290466D02*
X138164897Y-80023799D01*
X138031563Y-81023799D02*
X138498230Y-81023799D01*
X137764897Y-80857133D02*
X138264897Y-80690466D01*
X138264897Y-80690466D02*
X138264897Y-81123799D01*
X159033836Y-81742866D02*
X158700503Y-81509533D01*
X159033836Y-81342866D02*
X158333836Y-81342866D01*
X158333836Y-81342866D02*
X158333836Y-81609533D01*
X158333836Y-81609533D02*
X158367169Y-81676200D01*
X158367169Y-81676200D02*
X158400503Y-81709533D01*
X158400503Y-81709533D02*
X158467169Y-81742866D01*
X158467169Y-81742866D02*
X158567169Y-81742866D01*
X158567169Y-81742866D02*
X158633836Y-81709533D01*
X158633836Y-81709533D02*
X158667169Y-81676200D01*
X158667169Y-81676200D02*
X158700503Y-81609533D01*
X158700503Y-81609533D02*
X158700503Y-81342866D01*
X158333836Y-82342866D02*
X158333836Y-82209533D01*
X158333836Y-82209533D02*
X158367169Y-82142866D01*
X158367169Y-82142866D02*
X158400503Y-82109533D01*
X158400503Y-82109533D02*
X158500503Y-82042866D01*
X158500503Y-82042866D02*
X158633836Y-82009533D01*
X158633836Y-82009533D02*
X158900503Y-82009533D01*
X158900503Y-82009533D02*
X158967169Y-82042866D01*
X158967169Y-82042866D02*
X159000503Y-82076200D01*
X159000503Y-82076200D02*
X159033836Y-82142866D01*
X159033836Y-82142866D02*
X159033836Y-82276200D01*
X159033836Y-82276200D02*
X159000503Y-82342866D01*
X159000503Y-82342866D02*
X158967169Y-82376200D01*
X158967169Y-82376200D02*
X158900503Y-82409533D01*
X158900503Y-82409533D02*
X158733836Y-82409533D01*
X158733836Y-82409533D02*
X158667169Y-82376200D01*
X158667169Y-82376200D02*
X158633836Y-82342866D01*
X158633836Y-82342866D02*
X158600503Y-82276200D01*
X158600503Y-82276200D02*
X158600503Y-82142866D01*
X158600503Y-82142866D02*
X158633836Y-82076200D01*
X158633836Y-82076200D02*
X158667169Y-82042866D01*
X158667169Y-82042866D02*
X158733836Y-82009533D01*
X158333836Y-82642867D02*
X158333836Y-83109533D01*
X158333836Y-83109533D02*
X159033836Y-82809533D01*
X171398230Y-79757132D02*
X171064897Y-79523799D01*
X171398230Y-79357132D02*
X170698230Y-79357132D01*
X170698230Y-79357132D02*
X170698230Y-79623799D01*
X170698230Y-79623799D02*
X170731563Y-79690466D01*
X170731563Y-79690466D02*
X170764897Y-79723799D01*
X170764897Y-79723799D02*
X170831563Y-79757132D01*
X170831563Y-79757132D02*
X170931563Y-79757132D01*
X170931563Y-79757132D02*
X170998230Y-79723799D01*
X170998230Y-79723799D02*
X171031563Y-79690466D01*
X171031563Y-79690466D02*
X171064897Y-79623799D01*
X171064897Y-79623799D02*
X171064897Y-79357132D01*
X170698230Y-79990466D02*
X170698230Y-80423799D01*
X170698230Y-80423799D02*
X170964897Y-80190466D01*
X170964897Y-80190466D02*
X170964897Y-80290466D01*
X170964897Y-80290466D02*
X170998230Y-80357132D01*
X170998230Y-80357132D02*
X171031563Y-80390466D01*
X171031563Y-80390466D02*
X171098230Y-80423799D01*
X171098230Y-80423799D02*
X171264897Y-80423799D01*
X171264897Y-80423799D02*
X171331563Y-80390466D01*
X171331563Y-80390466D02*
X171364897Y-80357132D01*
X171364897Y-80357132D02*
X171398230Y-80290466D01*
X171398230Y-80290466D02*
X171398230Y-80090466D01*
X171398230Y-80090466D02*
X171364897Y-80023799D01*
X171364897Y-80023799D02*
X171331563Y-79990466D01*
X170698230Y-81057133D02*
X170698230Y-80723799D01*
X170698230Y-80723799D02*
X171031563Y-80690466D01*
X171031563Y-80690466D02*
X170998230Y-80723799D01*
X170998230Y-80723799D02*
X170964897Y-80790466D01*
X170964897Y-80790466D02*
X170964897Y-80957133D01*
X170964897Y-80957133D02*
X170998230Y-81023799D01*
X170998230Y-81023799D02*
X171031563Y-81057133D01*
X171031563Y-81057133D02*
X171098230Y-81090466D01*
X171098230Y-81090466D02*
X171264897Y-81090466D01*
X171264897Y-81090466D02*
X171331563Y-81057133D01*
X171331563Y-81057133D02*
X171364897Y-81023799D01*
X171364897Y-81023799D02*
X171398230Y-80957133D01*
X171398230Y-80957133D02*
X171398230Y-80790466D01*
X171398230Y-80790466D02*
X171364897Y-80723799D01*
X171364897Y-80723799D02*
X171331563Y-80690466D01*
X131930533Y-77251315D02*
X131597200Y-77017982D01*
X131930533Y-76851315D02*
X131230533Y-76851315D01*
X131230533Y-76851315D02*
X131230533Y-77117982D01*
X131230533Y-77117982D02*
X131263866Y-77184649D01*
X131263866Y-77184649D02*
X131297200Y-77217982D01*
X131297200Y-77217982D02*
X131363866Y-77251315D01*
X131363866Y-77251315D02*
X131463866Y-77251315D01*
X131463866Y-77251315D02*
X131530533Y-77217982D01*
X131530533Y-77217982D02*
X131563866Y-77184649D01*
X131563866Y-77184649D02*
X131597200Y-77117982D01*
X131597200Y-77117982D02*
X131597200Y-76851315D01*
X131930533Y-77917982D02*
X131930533Y-77517982D01*
X131930533Y-77717982D02*
X131230533Y-77717982D01*
X131230533Y-77717982D02*
X131330533Y-77651315D01*
X131330533Y-77651315D02*
X131397200Y-77584649D01*
X131397200Y-77584649D02*
X131430533Y-77517982D01*
X171998230Y-77757132D02*
X171664897Y-77523799D01*
X171998230Y-77357132D02*
X171298230Y-77357132D01*
X171298230Y-77357132D02*
X171298230Y-77623799D01*
X171298230Y-77623799D02*
X171331563Y-77690466D01*
X171331563Y-77690466D02*
X171364897Y-77723799D01*
X171364897Y-77723799D02*
X171431563Y-77757132D01*
X171431563Y-77757132D02*
X171531563Y-77757132D01*
X171531563Y-77757132D02*
X171598230Y-77723799D01*
X171598230Y-77723799D02*
X171631563Y-77690466D01*
X171631563Y-77690466D02*
X171664897Y-77623799D01*
X171664897Y-77623799D02*
X171664897Y-77357132D01*
X171298230Y-77990466D02*
X171298230Y-78423799D01*
X171298230Y-78423799D02*
X171564897Y-78190466D01*
X171564897Y-78190466D02*
X171564897Y-78290466D01*
X171564897Y-78290466D02*
X171598230Y-78357132D01*
X171598230Y-78357132D02*
X171631563Y-78390466D01*
X171631563Y-78390466D02*
X171698230Y-78423799D01*
X171698230Y-78423799D02*
X171864897Y-78423799D01*
X171864897Y-78423799D02*
X171931563Y-78390466D01*
X171931563Y-78390466D02*
X171964897Y-78357132D01*
X171964897Y-78357132D02*
X171998230Y-78290466D01*
X171998230Y-78290466D02*
X171998230Y-78090466D01*
X171998230Y-78090466D02*
X171964897Y-78023799D01*
X171964897Y-78023799D02*
X171931563Y-77990466D01*
X171298230Y-79023799D02*
X171298230Y-78890466D01*
X171298230Y-78890466D02*
X171331563Y-78823799D01*
X171331563Y-78823799D02*
X171364897Y-78790466D01*
X171364897Y-78790466D02*
X171464897Y-78723799D01*
X171464897Y-78723799D02*
X171598230Y-78690466D01*
X171598230Y-78690466D02*
X171864897Y-78690466D01*
X171864897Y-78690466D02*
X171931563Y-78723799D01*
X171931563Y-78723799D02*
X171964897Y-78757133D01*
X171964897Y-78757133D02*
X171998230Y-78823799D01*
X171998230Y-78823799D02*
X171998230Y-78957133D01*
X171998230Y-78957133D02*
X171964897Y-79023799D01*
X171964897Y-79023799D02*
X171931563Y-79057133D01*
X171931563Y-79057133D02*
X171864897Y-79090466D01*
X171864897Y-79090466D02*
X171698230Y-79090466D01*
X171698230Y-79090466D02*
X171631563Y-79057133D01*
X171631563Y-79057133D02*
X171598230Y-79023799D01*
X171598230Y-79023799D02*
X171564897Y-78957133D01*
X171564897Y-78957133D02*
X171564897Y-78823799D01*
X171564897Y-78823799D02*
X171598230Y-78757133D01*
X171598230Y-78757133D02*
X171631563Y-78723799D01*
X171631563Y-78723799D02*
X171698230Y-78690466D01*
X124133836Y-80142866D02*
X123800503Y-79909533D01*
X124133836Y-79742866D02*
X123433836Y-79742866D01*
X123433836Y-79742866D02*
X123433836Y-80009533D01*
X123433836Y-80009533D02*
X123467169Y-80076200D01*
X123467169Y-80076200D02*
X123500503Y-80109533D01*
X123500503Y-80109533D02*
X123567169Y-80142866D01*
X123567169Y-80142866D02*
X123667169Y-80142866D01*
X123667169Y-80142866D02*
X123733836Y-80109533D01*
X123733836Y-80109533D02*
X123767169Y-80076200D01*
X123767169Y-80076200D02*
X123800503Y-80009533D01*
X123800503Y-80009533D02*
X123800503Y-79742866D01*
X124133836Y-80476200D02*
X124133836Y-80609533D01*
X124133836Y-80609533D02*
X124100503Y-80676200D01*
X124100503Y-80676200D02*
X124067169Y-80709533D01*
X124067169Y-80709533D02*
X123967169Y-80776200D01*
X123967169Y-80776200D02*
X123833836Y-80809533D01*
X123833836Y-80809533D02*
X123567169Y-80809533D01*
X123567169Y-80809533D02*
X123500503Y-80776200D01*
X123500503Y-80776200D02*
X123467169Y-80742866D01*
X123467169Y-80742866D02*
X123433836Y-80676200D01*
X123433836Y-80676200D02*
X123433836Y-80542866D01*
X123433836Y-80542866D02*
X123467169Y-80476200D01*
X123467169Y-80476200D02*
X123500503Y-80442866D01*
X123500503Y-80442866D02*
X123567169Y-80409533D01*
X123567169Y-80409533D02*
X123733836Y-80409533D01*
X123733836Y-80409533D02*
X123800503Y-80442866D01*
X123800503Y-80442866D02*
X123833836Y-80476200D01*
X123833836Y-80476200D02*
X123867169Y-80542866D01*
X123867169Y-80542866D02*
X123867169Y-80676200D01*
X123867169Y-80676200D02*
X123833836Y-80742866D01*
X123833836Y-80742866D02*
X123800503Y-80776200D01*
X123800503Y-80776200D02*
X123733836Y-80809533D01*
X124133836Y-81142867D02*
X124133836Y-81276200D01*
X124133836Y-81276200D02*
X124100503Y-81342867D01*
X124100503Y-81342867D02*
X124067169Y-81376200D01*
X124067169Y-81376200D02*
X123967169Y-81442867D01*
X123967169Y-81442867D02*
X123833836Y-81476200D01*
X123833836Y-81476200D02*
X123567169Y-81476200D01*
X123567169Y-81476200D02*
X123500503Y-81442867D01*
X123500503Y-81442867D02*
X123467169Y-81409533D01*
X123467169Y-81409533D02*
X123433836Y-81342867D01*
X123433836Y-81342867D02*
X123433836Y-81209533D01*
X123433836Y-81209533D02*
X123467169Y-81142867D01*
X123467169Y-81142867D02*
X123500503Y-81109533D01*
X123500503Y-81109533D02*
X123567169Y-81076200D01*
X123567169Y-81076200D02*
X123733836Y-81076200D01*
X123733836Y-81076200D02*
X123800503Y-81109533D01*
X123800503Y-81109533D02*
X123833836Y-81142867D01*
X123833836Y-81142867D02*
X123867169Y-81209533D01*
X123867169Y-81209533D02*
X123867169Y-81342867D01*
X123867169Y-81342867D02*
X123833836Y-81409533D01*
X123833836Y-81409533D02*
X123800503Y-81442867D01*
X123800503Y-81442867D02*
X123733836Y-81476200D01*
X187001316Y-72639866D02*
X187234649Y-72639866D01*
X187234649Y-73006533D02*
X187234649Y-72306533D01*
X187234649Y-72306533D02*
X186901316Y-72306533D01*
X186634649Y-73006533D02*
X186634649Y-72306533D01*
X186634649Y-72306533D02*
X186467982Y-72306533D01*
X186467982Y-72306533D02*
X186367982Y-72339866D01*
X186367982Y-72339866D02*
X186301316Y-72406533D01*
X186301316Y-72406533D02*
X186267982Y-72473200D01*
X186267982Y-72473200D02*
X186234649Y-72606533D01*
X186234649Y-72606533D02*
X186234649Y-72706533D01*
X186234649Y-72706533D02*
X186267982Y-72839866D01*
X186267982Y-72839866D02*
X186301316Y-72906533D01*
X186301316Y-72906533D02*
X186367982Y-72973200D01*
X186367982Y-72973200D02*
X186467982Y-73006533D01*
X186467982Y-73006533D02*
X186634649Y-73006533D01*
X185634649Y-72306533D02*
X185767982Y-72306533D01*
X185767982Y-72306533D02*
X185834649Y-72339866D01*
X185834649Y-72339866D02*
X185867982Y-72373200D01*
X185867982Y-72373200D02*
X185934649Y-72473200D01*
X185934649Y-72473200D02*
X185967982Y-72606533D01*
X185967982Y-72606533D02*
X185967982Y-72873200D01*
X185967982Y-72873200D02*
X185934649Y-72939866D01*
X185934649Y-72939866D02*
X185901316Y-72973200D01*
X185901316Y-72973200D02*
X185834649Y-73006533D01*
X185834649Y-73006533D02*
X185701316Y-73006533D01*
X185701316Y-73006533D02*
X185634649Y-72973200D01*
X185634649Y-72973200D02*
X185601316Y-72939866D01*
X185601316Y-72939866D02*
X185567982Y-72873200D01*
X185567982Y-72873200D02*
X185567982Y-72706533D01*
X185567982Y-72706533D02*
X185601316Y-72639866D01*
X185601316Y-72639866D02*
X185634649Y-72606533D01*
X185634649Y-72606533D02*
X185701316Y-72573200D01*
X185701316Y-72573200D02*
X185834649Y-72573200D01*
X185834649Y-72573200D02*
X185901316Y-72606533D01*
X185901316Y-72606533D02*
X185934649Y-72639866D01*
X185934649Y-72639866D02*
X185967982Y-72706533D01*
X139698230Y-79757132D02*
X139364897Y-79523799D01*
X139698230Y-79357132D02*
X138998230Y-79357132D01*
X138998230Y-79357132D02*
X138998230Y-79623799D01*
X138998230Y-79623799D02*
X139031563Y-79690466D01*
X139031563Y-79690466D02*
X139064897Y-79723799D01*
X139064897Y-79723799D02*
X139131563Y-79757132D01*
X139131563Y-79757132D02*
X139231563Y-79757132D01*
X139231563Y-79757132D02*
X139298230Y-79723799D01*
X139298230Y-79723799D02*
X139331563Y-79690466D01*
X139331563Y-79690466D02*
X139364897Y-79623799D01*
X139364897Y-79623799D02*
X139364897Y-79357132D01*
X139698230Y-80423799D02*
X139698230Y-80023799D01*
X139698230Y-80223799D02*
X138998230Y-80223799D01*
X138998230Y-80223799D02*
X139098230Y-80157132D01*
X139098230Y-80157132D02*
X139164897Y-80090466D01*
X139164897Y-80090466D02*
X139198230Y-80023799D01*
X139231563Y-81023799D02*
X139698230Y-81023799D01*
X138964897Y-80857133D02*
X139464897Y-80690466D01*
X139464897Y-80690466D02*
X139464897Y-81123799D01*
X165998230Y-77757132D02*
X165664897Y-77523799D01*
X165998230Y-77357132D02*
X165298230Y-77357132D01*
X165298230Y-77357132D02*
X165298230Y-77623799D01*
X165298230Y-77623799D02*
X165331563Y-77690466D01*
X165331563Y-77690466D02*
X165364897Y-77723799D01*
X165364897Y-77723799D02*
X165431563Y-77757132D01*
X165431563Y-77757132D02*
X165531563Y-77757132D01*
X165531563Y-77757132D02*
X165598230Y-77723799D01*
X165598230Y-77723799D02*
X165631563Y-77690466D01*
X165631563Y-77690466D02*
X165664897Y-77623799D01*
X165664897Y-77623799D02*
X165664897Y-77357132D01*
X165364897Y-78023799D02*
X165331563Y-78057132D01*
X165331563Y-78057132D02*
X165298230Y-78123799D01*
X165298230Y-78123799D02*
X165298230Y-78290466D01*
X165298230Y-78290466D02*
X165331563Y-78357132D01*
X165331563Y-78357132D02*
X165364897Y-78390466D01*
X165364897Y-78390466D02*
X165431563Y-78423799D01*
X165431563Y-78423799D02*
X165498230Y-78423799D01*
X165498230Y-78423799D02*
X165598230Y-78390466D01*
X165598230Y-78390466D02*
X165998230Y-77990466D01*
X165998230Y-77990466D02*
X165998230Y-78423799D01*
X165298230Y-78657133D02*
X165298230Y-79090466D01*
X165298230Y-79090466D02*
X165564897Y-78857133D01*
X165564897Y-78857133D02*
X165564897Y-78957133D01*
X165564897Y-78957133D02*
X165598230Y-79023799D01*
X165598230Y-79023799D02*
X165631563Y-79057133D01*
X165631563Y-79057133D02*
X165698230Y-79090466D01*
X165698230Y-79090466D02*
X165864897Y-79090466D01*
X165864897Y-79090466D02*
X165931563Y-79057133D01*
X165931563Y-79057133D02*
X165964897Y-79023799D01*
X165964897Y-79023799D02*
X165998230Y-78957133D01*
X165998230Y-78957133D02*
X165998230Y-78757133D01*
X165998230Y-78757133D02*
X165964897Y-78690466D01*
X165964897Y-78690466D02*
X165931563Y-78657133D01*
X140898230Y-79757132D02*
X140564897Y-79523799D01*
X140898230Y-79357132D02*
X140198230Y-79357132D01*
X140198230Y-79357132D02*
X140198230Y-79623799D01*
X140198230Y-79623799D02*
X140231563Y-79690466D01*
X140231563Y-79690466D02*
X140264897Y-79723799D01*
X140264897Y-79723799D02*
X140331563Y-79757132D01*
X140331563Y-79757132D02*
X140431563Y-79757132D01*
X140431563Y-79757132D02*
X140498230Y-79723799D01*
X140498230Y-79723799D02*
X140531563Y-79690466D01*
X140531563Y-79690466D02*
X140564897Y-79623799D01*
X140564897Y-79623799D02*
X140564897Y-79357132D01*
X140898230Y-80423799D02*
X140898230Y-80023799D01*
X140898230Y-80223799D02*
X140198230Y-80223799D01*
X140198230Y-80223799D02*
X140298230Y-80157132D01*
X140298230Y-80157132D02*
X140364897Y-80090466D01*
X140364897Y-80090466D02*
X140398230Y-80023799D01*
X140198230Y-81023799D02*
X140198230Y-80890466D01*
X140198230Y-80890466D02*
X140231563Y-80823799D01*
X140231563Y-80823799D02*
X140264897Y-80790466D01*
X140264897Y-80790466D02*
X140364897Y-80723799D01*
X140364897Y-80723799D02*
X140498230Y-80690466D01*
X140498230Y-80690466D02*
X140764897Y-80690466D01*
X140764897Y-80690466D02*
X140831563Y-80723799D01*
X140831563Y-80723799D02*
X140864897Y-80757133D01*
X140864897Y-80757133D02*
X140898230Y-80823799D01*
X140898230Y-80823799D02*
X140898230Y-80957133D01*
X140898230Y-80957133D02*
X140864897Y-81023799D01*
X140864897Y-81023799D02*
X140831563Y-81057133D01*
X140831563Y-81057133D02*
X140764897Y-81090466D01*
X140764897Y-81090466D02*
X140598230Y-81090466D01*
X140598230Y-81090466D02*
X140531563Y-81057133D01*
X140531563Y-81057133D02*
X140498230Y-81023799D01*
X140498230Y-81023799D02*
X140464897Y-80957133D01*
X140464897Y-80957133D02*
X140464897Y-80823799D01*
X140464897Y-80823799D02*
X140498230Y-80757133D01*
X140498230Y-80757133D02*
X140531563Y-80723799D01*
X140531563Y-80723799D02*
X140598230Y-80690466D01*
X102001316Y-72639866D02*
X102234649Y-72639866D01*
X102234649Y-73006533D02*
X102234649Y-72306533D01*
X102234649Y-72306533D02*
X101901316Y-72306533D01*
X101634649Y-73006533D02*
X101634649Y-72306533D01*
X101634649Y-72306533D02*
X101467982Y-72306533D01*
X101467982Y-72306533D02*
X101367982Y-72339866D01*
X101367982Y-72339866D02*
X101301316Y-72406533D01*
X101301316Y-72406533D02*
X101267982Y-72473200D01*
X101267982Y-72473200D02*
X101234649Y-72606533D01*
X101234649Y-72606533D02*
X101234649Y-72706533D01*
X101234649Y-72706533D02*
X101267982Y-72839866D01*
X101267982Y-72839866D02*
X101301316Y-72906533D01*
X101301316Y-72906533D02*
X101367982Y-72973200D01*
X101367982Y-72973200D02*
X101467982Y-73006533D01*
X101467982Y-73006533D02*
X101634649Y-73006533D01*
X100601316Y-72306533D02*
X100934649Y-72306533D01*
X100934649Y-72306533D02*
X100967982Y-72639866D01*
X100967982Y-72639866D02*
X100934649Y-72606533D01*
X100934649Y-72606533D02*
X100867982Y-72573200D01*
X100867982Y-72573200D02*
X100701316Y-72573200D01*
X100701316Y-72573200D02*
X100634649Y-72606533D01*
X100634649Y-72606533D02*
X100601316Y-72639866D01*
X100601316Y-72639866D02*
X100567982Y-72706533D01*
X100567982Y-72706533D02*
X100567982Y-72873200D01*
X100567982Y-72873200D02*
X100601316Y-72939866D01*
X100601316Y-72939866D02*
X100634649Y-72973200D01*
X100634649Y-72973200D02*
X100701316Y-73006533D01*
X100701316Y-73006533D02*
X100867982Y-73006533D01*
X100867982Y-73006533D02*
X100934649Y-72973200D01*
X100934649Y-72973200D02*
X100967982Y-72939866D01*
X137298230Y-80423799D02*
X136964897Y-80190466D01*
X137298230Y-80023799D02*
X136598230Y-80023799D01*
X136598230Y-80023799D02*
X136598230Y-80290466D01*
X136598230Y-80290466D02*
X136631563Y-80357133D01*
X136631563Y-80357133D02*
X136664897Y-80390466D01*
X136664897Y-80390466D02*
X136731563Y-80423799D01*
X136731563Y-80423799D02*
X136831563Y-80423799D01*
X136831563Y-80423799D02*
X136898230Y-80390466D01*
X136898230Y-80390466D02*
X136931563Y-80357133D01*
X136931563Y-80357133D02*
X136964897Y-80290466D01*
X136964897Y-80290466D02*
X136964897Y-80023799D01*
X137298230Y-80757133D02*
X137298230Y-80890466D01*
X137298230Y-80890466D02*
X137264897Y-80957133D01*
X137264897Y-80957133D02*
X137231563Y-80990466D01*
X137231563Y-80990466D02*
X137131563Y-81057133D01*
X137131563Y-81057133D02*
X136998230Y-81090466D01*
X136998230Y-81090466D02*
X136731563Y-81090466D01*
X136731563Y-81090466D02*
X136664897Y-81057133D01*
X136664897Y-81057133D02*
X136631563Y-81023799D01*
X136631563Y-81023799D02*
X136598230Y-80957133D01*
X136598230Y-80957133D02*
X136598230Y-80823799D01*
X136598230Y-80823799D02*
X136631563Y-80757133D01*
X136631563Y-80757133D02*
X136664897Y-80723799D01*
X136664897Y-80723799D02*
X136731563Y-80690466D01*
X136731563Y-80690466D02*
X136898230Y-80690466D01*
X136898230Y-80690466D02*
X136964897Y-80723799D01*
X136964897Y-80723799D02*
X136998230Y-80757133D01*
X136998230Y-80757133D02*
X137031563Y-80823799D01*
X137031563Y-80823799D02*
X137031563Y-80957133D01*
X137031563Y-80957133D02*
X136998230Y-81023799D01*
X136998230Y-81023799D02*
X136964897Y-81057133D01*
X136964897Y-81057133D02*
X136898230Y-81090466D01*
X125878230Y-82157132D02*
X125544897Y-81923799D01*
X125878230Y-81757132D02*
X125178230Y-81757132D01*
X125178230Y-81757132D02*
X125178230Y-82023799D01*
X125178230Y-82023799D02*
X125211563Y-82090466D01*
X125211563Y-82090466D02*
X125244897Y-82123799D01*
X125244897Y-82123799D02*
X125311563Y-82157132D01*
X125311563Y-82157132D02*
X125411563Y-82157132D01*
X125411563Y-82157132D02*
X125478230Y-82123799D01*
X125478230Y-82123799D02*
X125511563Y-82090466D01*
X125511563Y-82090466D02*
X125544897Y-82023799D01*
X125544897Y-82023799D02*
X125544897Y-81757132D01*
X125878230Y-82823799D02*
X125878230Y-82423799D01*
X125878230Y-82623799D02*
X125178230Y-82623799D01*
X125178230Y-82623799D02*
X125278230Y-82557132D01*
X125278230Y-82557132D02*
X125344897Y-82490466D01*
X125344897Y-82490466D02*
X125378230Y-82423799D01*
X125478230Y-83223799D02*
X125444897Y-83157133D01*
X125444897Y-83157133D02*
X125411563Y-83123799D01*
X125411563Y-83123799D02*
X125344897Y-83090466D01*
X125344897Y-83090466D02*
X125311563Y-83090466D01*
X125311563Y-83090466D02*
X125244897Y-83123799D01*
X125244897Y-83123799D02*
X125211563Y-83157133D01*
X125211563Y-83157133D02*
X125178230Y-83223799D01*
X125178230Y-83223799D02*
X125178230Y-83357133D01*
X125178230Y-83357133D02*
X125211563Y-83423799D01*
X125211563Y-83423799D02*
X125244897Y-83457133D01*
X125244897Y-83457133D02*
X125311563Y-83490466D01*
X125311563Y-83490466D02*
X125344897Y-83490466D01*
X125344897Y-83490466D02*
X125411563Y-83457133D01*
X125411563Y-83457133D02*
X125444897Y-83423799D01*
X125444897Y-83423799D02*
X125478230Y-83357133D01*
X125478230Y-83357133D02*
X125478230Y-83223799D01*
X125478230Y-83223799D02*
X125511563Y-83157133D01*
X125511563Y-83157133D02*
X125544897Y-83123799D01*
X125544897Y-83123799D02*
X125611563Y-83090466D01*
X125611563Y-83090466D02*
X125744897Y-83090466D01*
X125744897Y-83090466D02*
X125811563Y-83123799D01*
X125811563Y-83123799D02*
X125844897Y-83157133D01*
X125844897Y-83157133D02*
X125878230Y-83223799D01*
X125878230Y-83223799D02*
X125878230Y-83357133D01*
X125878230Y-83357133D02*
X125844897Y-83423799D01*
X125844897Y-83423799D02*
X125811563Y-83457133D01*
X125811563Y-83457133D02*
X125744897Y-83490466D01*
X125744897Y-83490466D02*
X125611563Y-83490466D01*
X125611563Y-83490466D02*
X125544897Y-83457133D01*
X125544897Y-83457133D02*
X125511563Y-83423799D01*
X125511563Y-83423799D02*
X125478230Y-83357133D01*
X172633836Y-79742866D02*
X172300503Y-79509533D01*
X172633836Y-79342866D02*
X171933836Y-79342866D01*
X171933836Y-79342866D02*
X171933836Y-79609533D01*
X171933836Y-79609533D02*
X171967169Y-79676200D01*
X171967169Y-79676200D02*
X172000503Y-79709533D01*
X172000503Y-79709533D02*
X172067169Y-79742866D01*
X172067169Y-79742866D02*
X172167169Y-79742866D01*
X172167169Y-79742866D02*
X172233836Y-79709533D01*
X172233836Y-79709533D02*
X172267169Y-79676200D01*
X172267169Y-79676200D02*
X172300503Y-79609533D01*
X172300503Y-79609533D02*
X172300503Y-79342866D01*
X171933836Y-80342866D02*
X171933836Y-80209533D01*
X171933836Y-80209533D02*
X171967169Y-80142866D01*
X171967169Y-80142866D02*
X172000503Y-80109533D01*
X172000503Y-80109533D02*
X172100503Y-80042866D01*
X172100503Y-80042866D02*
X172233836Y-80009533D01*
X172233836Y-80009533D02*
X172500503Y-80009533D01*
X172500503Y-80009533D02*
X172567169Y-80042866D01*
X172567169Y-80042866D02*
X172600503Y-80076200D01*
X172600503Y-80076200D02*
X172633836Y-80142866D01*
X172633836Y-80142866D02*
X172633836Y-80276200D01*
X172633836Y-80276200D02*
X172600503Y-80342866D01*
X172600503Y-80342866D02*
X172567169Y-80376200D01*
X172567169Y-80376200D02*
X172500503Y-80409533D01*
X172500503Y-80409533D02*
X172333836Y-80409533D01*
X172333836Y-80409533D02*
X172267169Y-80376200D01*
X172267169Y-80376200D02*
X172233836Y-80342866D01*
X172233836Y-80342866D02*
X172200503Y-80276200D01*
X172200503Y-80276200D02*
X172200503Y-80142866D01*
X172200503Y-80142866D02*
X172233836Y-80076200D01*
X172233836Y-80076200D02*
X172267169Y-80042866D01*
X172267169Y-80042866D02*
X172333836Y-80009533D01*
X171933836Y-81042867D02*
X171933836Y-80709533D01*
X171933836Y-80709533D02*
X172267169Y-80676200D01*
X172267169Y-80676200D02*
X172233836Y-80709533D01*
X172233836Y-80709533D02*
X172200503Y-80776200D01*
X172200503Y-80776200D02*
X172200503Y-80942867D01*
X172200503Y-80942867D02*
X172233836Y-81009533D01*
X172233836Y-81009533D02*
X172267169Y-81042867D01*
X172267169Y-81042867D02*
X172333836Y-81076200D01*
X172333836Y-81076200D02*
X172500503Y-81076200D01*
X172500503Y-81076200D02*
X172567169Y-81042867D01*
X172567169Y-81042867D02*
X172600503Y-81009533D01*
X172600503Y-81009533D02*
X172633836Y-80942867D01*
X172633836Y-80942867D02*
X172633836Y-80776200D01*
X172633836Y-80776200D02*
X172600503Y-80709533D01*
X172600503Y-80709533D02*
X172567169Y-80676200D01*
X135498230Y-78423799D02*
X135164897Y-78190466D01*
X135498230Y-78023799D02*
X134798230Y-78023799D01*
X134798230Y-78023799D02*
X134798230Y-78290466D01*
X134798230Y-78290466D02*
X134831563Y-78357133D01*
X134831563Y-78357133D02*
X134864897Y-78390466D01*
X134864897Y-78390466D02*
X134931563Y-78423799D01*
X134931563Y-78423799D02*
X135031563Y-78423799D01*
X135031563Y-78423799D02*
X135098230Y-78390466D01*
X135098230Y-78390466D02*
X135131563Y-78357133D01*
X135131563Y-78357133D02*
X135164897Y-78290466D01*
X135164897Y-78290466D02*
X135164897Y-78023799D01*
X134798230Y-79023799D02*
X134798230Y-78890466D01*
X134798230Y-78890466D02*
X134831563Y-78823799D01*
X134831563Y-78823799D02*
X134864897Y-78790466D01*
X134864897Y-78790466D02*
X134964897Y-78723799D01*
X134964897Y-78723799D02*
X135098230Y-78690466D01*
X135098230Y-78690466D02*
X135364897Y-78690466D01*
X135364897Y-78690466D02*
X135431563Y-78723799D01*
X135431563Y-78723799D02*
X135464897Y-78757133D01*
X135464897Y-78757133D02*
X135498230Y-78823799D01*
X135498230Y-78823799D02*
X135498230Y-78957133D01*
X135498230Y-78957133D02*
X135464897Y-79023799D01*
X135464897Y-79023799D02*
X135431563Y-79057133D01*
X135431563Y-79057133D02*
X135364897Y-79090466D01*
X135364897Y-79090466D02*
X135198230Y-79090466D01*
X135198230Y-79090466D02*
X135131563Y-79057133D01*
X135131563Y-79057133D02*
X135098230Y-79023799D01*
X135098230Y-79023799D02*
X135064897Y-78957133D01*
X135064897Y-78957133D02*
X135064897Y-78823799D01*
X135064897Y-78823799D02*
X135098230Y-78757133D01*
X135098230Y-78757133D02*
X135131563Y-78723799D01*
X135131563Y-78723799D02*
X135198230Y-78690466D01*
X136698230Y-78423799D02*
X136364897Y-78190466D01*
X136698230Y-78023799D02*
X135998230Y-78023799D01*
X135998230Y-78023799D02*
X135998230Y-78290466D01*
X135998230Y-78290466D02*
X136031563Y-78357133D01*
X136031563Y-78357133D02*
X136064897Y-78390466D01*
X136064897Y-78390466D02*
X136131563Y-78423799D01*
X136131563Y-78423799D02*
X136231563Y-78423799D01*
X136231563Y-78423799D02*
X136298230Y-78390466D01*
X136298230Y-78390466D02*
X136331563Y-78357133D01*
X136331563Y-78357133D02*
X136364897Y-78290466D01*
X136364897Y-78290466D02*
X136364897Y-78023799D01*
X136298230Y-78823799D02*
X136264897Y-78757133D01*
X136264897Y-78757133D02*
X136231563Y-78723799D01*
X136231563Y-78723799D02*
X136164897Y-78690466D01*
X136164897Y-78690466D02*
X136131563Y-78690466D01*
X136131563Y-78690466D02*
X136064897Y-78723799D01*
X136064897Y-78723799D02*
X136031563Y-78757133D01*
X136031563Y-78757133D02*
X135998230Y-78823799D01*
X135998230Y-78823799D02*
X135998230Y-78957133D01*
X135998230Y-78957133D02*
X136031563Y-79023799D01*
X136031563Y-79023799D02*
X136064897Y-79057133D01*
X136064897Y-79057133D02*
X136131563Y-79090466D01*
X136131563Y-79090466D02*
X136164897Y-79090466D01*
X136164897Y-79090466D02*
X136231563Y-79057133D01*
X136231563Y-79057133D02*
X136264897Y-79023799D01*
X136264897Y-79023799D02*
X136298230Y-78957133D01*
X136298230Y-78957133D02*
X136298230Y-78823799D01*
X136298230Y-78823799D02*
X136331563Y-78757133D01*
X136331563Y-78757133D02*
X136364897Y-78723799D01*
X136364897Y-78723799D02*
X136431563Y-78690466D01*
X136431563Y-78690466D02*
X136564897Y-78690466D01*
X136564897Y-78690466D02*
X136631563Y-78723799D01*
X136631563Y-78723799D02*
X136664897Y-78757133D01*
X136664897Y-78757133D02*
X136698230Y-78823799D01*
X136698230Y-78823799D02*
X136698230Y-78957133D01*
X136698230Y-78957133D02*
X136664897Y-79023799D01*
X136664897Y-79023799D02*
X136631563Y-79057133D01*
X136631563Y-79057133D02*
X136564897Y-79090466D01*
X136564897Y-79090466D02*
X136431563Y-79090466D01*
X136431563Y-79090466D02*
X136364897Y-79057133D01*
X136364897Y-79057133D02*
X136331563Y-79023799D01*
X136331563Y-79023799D02*
X136298230Y-78957133D01*
X164798230Y-77757132D02*
X164464897Y-77523799D01*
X164798230Y-77357132D02*
X164098230Y-77357132D01*
X164098230Y-77357132D02*
X164098230Y-77623799D01*
X164098230Y-77623799D02*
X164131563Y-77690466D01*
X164131563Y-77690466D02*
X164164897Y-77723799D01*
X164164897Y-77723799D02*
X164231563Y-77757132D01*
X164231563Y-77757132D02*
X164331563Y-77757132D01*
X164331563Y-77757132D02*
X164398230Y-77723799D01*
X164398230Y-77723799D02*
X164431563Y-77690466D01*
X164431563Y-77690466D02*
X164464897Y-77623799D01*
X164464897Y-77623799D02*
X164464897Y-77357132D01*
X164164897Y-78023799D02*
X164131563Y-78057132D01*
X164131563Y-78057132D02*
X164098230Y-78123799D01*
X164098230Y-78123799D02*
X164098230Y-78290466D01*
X164098230Y-78290466D02*
X164131563Y-78357132D01*
X164131563Y-78357132D02*
X164164897Y-78390466D01*
X164164897Y-78390466D02*
X164231563Y-78423799D01*
X164231563Y-78423799D02*
X164298230Y-78423799D01*
X164298230Y-78423799D02*
X164398230Y-78390466D01*
X164398230Y-78390466D02*
X164798230Y-77990466D01*
X164798230Y-77990466D02*
X164798230Y-78423799D01*
X164798230Y-79090466D02*
X164798230Y-78690466D01*
X164798230Y-78890466D02*
X164098230Y-78890466D01*
X164098230Y-78890466D02*
X164198230Y-78823799D01*
X164198230Y-78823799D02*
X164264897Y-78757133D01*
X164264897Y-78757133D02*
X164298230Y-78690466D01*
X156933836Y-77742866D02*
X156600503Y-77509533D01*
X156933836Y-77342866D02*
X156233836Y-77342866D01*
X156233836Y-77342866D02*
X156233836Y-77609533D01*
X156233836Y-77609533D02*
X156267169Y-77676200D01*
X156267169Y-77676200D02*
X156300503Y-77709533D01*
X156300503Y-77709533D02*
X156367169Y-77742866D01*
X156367169Y-77742866D02*
X156467169Y-77742866D01*
X156467169Y-77742866D02*
X156533836Y-77709533D01*
X156533836Y-77709533D02*
X156567169Y-77676200D01*
X156567169Y-77676200D02*
X156600503Y-77609533D01*
X156600503Y-77609533D02*
X156600503Y-77342866D01*
X156233836Y-77976200D02*
X156233836Y-78442866D01*
X156233836Y-78442866D02*
X156933836Y-78142866D01*
X156533836Y-78809533D02*
X156500503Y-78742867D01*
X156500503Y-78742867D02*
X156467169Y-78709533D01*
X156467169Y-78709533D02*
X156400503Y-78676200D01*
X156400503Y-78676200D02*
X156367169Y-78676200D01*
X156367169Y-78676200D02*
X156300503Y-78709533D01*
X156300503Y-78709533D02*
X156267169Y-78742867D01*
X156267169Y-78742867D02*
X156233836Y-78809533D01*
X156233836Y-78809533D02*
X156233836Y-78942867D01*
X156233836Y-78942867D02*
X156267169Y-79009533D01*
X156267169Y-79009533D02*
X156300503Y-79042867D01*
X156300503Y-79042867D02*
X156367169Y-79076200D01*
X156367169Y-79076200D02*
X156400503Y-79076200D01*
X156400503Y-79076200D02*
X156467169Y-79042867D01*
X156467169Y-79042867D02*
X156500503Y-79009533D01*
X156500503Y-79009533D02*
X156533836Y-78942867D01*
X156533836Y-78942867D02*
X156533836Y-78809533D01*
X156533836Y-78809533D02*
X156567169Y-78742867D01*
X156567169Y-78742867D02*
X156600503Y-78709533D01*
X156600503Y-78709533D02*
X156667169Y-78676200D01*
X156667169Y-78676200D02*
X156800503Y-78676200D01*
X156800503Y-78676200D02*
X156867169Y-78709533D01*
X156867169Y-78709533D02*
X156900503Y-78742867D01*
X156900503Y-78742867D02*
X156933836Y-78809533D01*
X156933836Y-78809533D02*
X156933836Y-78942867D01*
X156933836Y-78942867D02*
X156900503Y-79009533D01*
X156900503Y-79009533D02*
X156867169Y-79042867D01*
X156867169Y-79042867D02*
X156800503Y-79076200D01*
X156800503Y-79076200D02*
X156667169Y-79076200D01*
X156667169Y-79076200D02*
X156600503Y-79042867D01*
X156600503Y-79042867D02*
X156567169Y-79009533D01*
X156567169Y-79009533D02*
X156533836Y-78942867D01*
X155683836Y-77742866D02*
X155350503Y-77509533D01*
X155683836Y-77342866D02*
X154983836Y-77342866D01*
X154983836Y-77342866D02*
X154983836Y-77609533D01*
X154983836Y-77609533D02*
X155017169Y-77676200D01*
X155017169Y-77676200D02*
X155050503Y-77709533D01*
X155050503Y-77709533D02*
X155117169Y-77742866D01*
X155117169Y-77742866D02*
X155217169Y-77742866D01*
X155217169Y-77742866D02*
X155283836Y-77709533D01*
X155283836Y-77709533D02*
X155317169Y-77676200D01*
X155317169Y-77676200D02*
X155350503Y-77609533D01*
X155350503Y-77609533D02*
X155350503Y-77342866D01*
X154983836Y-77976200D02*
X154983836Y-78442866D01*
X154983836Y-78442866D02*
X155683836Y-78142866D01*
X154983836Y-79009533D02*
X154983836Y-78876200D01*
X154983836Y-78876200D02*
X155017169Y-78809533D01*
X155017169Y-78809533D02*
X155050503Y-78776200D01*
X155050503Y-78776200D02*
X155150503Y-78709533D01*
X155150503Y-78709533D02*
X155283836Y-78676200D01*
X155283836Y-78676200D02*
X155550503Y-78676200D01*
X155550503Y-78676200D02*
X155617169Y-78709533D01*
X155617169Y-78709533D02*
X155650503Y-78742867D01*
X155650503Y-78742867D02*
X155683836Y-78809533D01*
X155683836Y-78809533D02*
X155683836Y-78942867D01*
X155683836Y-78942867D02*
X155650503Y-79009533D01*
X155650503Y-79009533D02*
X155617169Y-79042867D01*
X155617169Y-79042867D02*
X155550503Y-79076200D01*
X155550503Y-79076200D02*
X155383836Y-79076200D01*
X155383836Y-79076200D02*
X155317169Y-79042867D01*
X155317169Y-79042867D02*
X155283836Y-79009533D01*
X155283836Y-79009533D02*
X155250503Y-78942867D01*
X155250503Y-78942867D02*
X155250503Y-78809533D01*
X155250503Y-78809533D02*
X155283836Y-78742867D01*
X155283836Y-78742867D02*
X155317169Y-78709533D01*
X155317169Y-78709533D02*
X155383836Y-78676200D01*
X164198230Y-79757132D02*
X163864897Y-79523799D01*
X164198230Y-79357132D02*
X163498230Y-79357132D01*
X163498230Y-79357132D02*
X163498230Y-79623799D01*
X163498230Y-79623799D02*
X163531563Y-79690466D01*
X163531563Y-79690466D02*
X163564897Y-79723799D01*
X163564897Y-79723799D02*
X163631563Y-79757132D01*
X163631563Y-79757132D02*
X163731563Y-79757132D01*
X163731563Y-79757132D02*
X163798230Y-79723799D01*
X163798230Y-79723799D02*
X163831563Y-79690466D01*
X163831563Y-79690466D02*
X163864897Y-79623799D01*
X163864897Y-79623799D02*
X163864897Y-79357132D01*
X163564897Y-80023799D02*
X163531563Y-80057132D01*
X163531563Y-80057132D02*
X163498230Y-80123799D01*
X163498230Y-80123799D02*
X163498230Y-80290466D01*
X163498230Y-80290466D02*
X163531563Y-80357132D01*
X163531563Y-80357132D02*
X163564897Y-80390466D01*
X163564897Y-80390466D02*
X163631563Y-80423799D01*
X163631563Y-80423799D02*
X163698230Y-80423799D01*
X163698230Y-80423799D02*
X163798230Y-80390466D01*
X163798230Y-80390466D02*
X164198230Y-79990466D01*
X164198230Y-79990466D02*
X164198230Y-80423799D01*
X163498230Y-80857133D02*
X163498230Y-80923799D01*
X163498230Y-80923799D02*
X163531563Y-80990466D01*
X163531563Y-80990466D02*
X163564897Y-81023799D01*
X163564897Y-81023799D02*
X163631563Y-81057133D01*
X163631563Y-81057133D02*
X163764897Y-81090466D01*
X163764897Y-81090466D02*
X163931563Y-81090466D01*
X163931563Y-81090466D02*
X164064897Y-81057133D01*
X164064897Y-81057133D02*
X164131563Y-81023799D01*
X164131563Y-81023799D02*
X164164897Y-80990466D01*
X164164897Y-80990466D02*
X164198230Y-80923799D01*
X164198230Y-80923799D02*
X164198230Y-80857133D01*
X164198230Y-80857133D02*
X164164897Y-80790466D01*
X164164897Y-80790466D02*
X164131563Y-80757133D01*
X164131563Y-80757133D02*
X164064897Y-80723799D01*
X164064897Y-80723799D02*
X163931563Y-80690466D01*
X163931563Y-80690466D02*
X163764897Y-80690466D01*
X163764897Y-80690466D02*
X163631563Y-80723799D01*
X163631563Y-80723799D02*
X163564897Y-80757133D01*
X163564897Y-80757133D02*
X163531563Y-80790466D01*
X163531563Y-80790466D02*
X163498230Y-80857133D01*
X121183836Y-82172866D02*
X120850503Y-81939533D01*
X121183836Y-81772866D02*
X120483836Y-81772866D01*
X120483836Y-81772866D02*
X120483836Y-82039533D01*
X120483836Y-82039533D02*
X120517169Y-82106200D01*
X120517169Y-82106200D02*
X120550503Y-82139533D01*
X120550503Y-82139533D02*
X120617169Y-82172866D01*
X120617169Y-82172866D02*
X120717169Y-82172866D01*
X120717169Y-82172866D02*
X120783836Y-82139533D01*
X120783836Y-82139533D02*
X120817169Y-82106200D01*
X120817169Y-82106200D02*
X120850503Y-82039533D01*
X120850503Y-82039533D02*
X120850503Y-81772866D01*
X120483836Y-82806200D02*
X120483836Y-82472866D01*
X120483836Y-82472866D02*
X120817169Y-82439533D01*
X120817169Y-82439533D02*
X120783836Y-82472866D01*
X120783836Y-82472866D02*
X120750503Y-82539533D01*
X120750503Y-82539533D02*
X120750503Y-82706200D01*
X120750503Y-82706200D02*
X120783836Y-82772866D01*
X120783836Y-82772866D02*
X120817169Y-82806200D01*
X120817169Y-82806200D02*
X120883836Y-82839533D01*
X120883836Y-82839533D02*
X121050503Y-82839533D01*
X121050503Y-82839533D02*
X121117169Y-82806200D01*
X121117169Y-82806200D02*
X121150503Y-82772866D01*
X121150503Y-82772866D02*
X121183836Y-82706200D01*
X121183836Y-82706200D02*
X121183836Y-82539533D01*
X121183836Y-82539533D02*
X121150503Y-82472866D01*
X121150503Y-82472866D02*
X121117169Y-82439533D01*
X120483836Y-83472867D02*
X120483836Y-83139533D01*
X120483836Y-83139533D02*
X120817169Y-83106200D01*
X120817169Y-83106200D02*
X120783836Y-83139533D01*
X120783836Y-83139533D02*
X120750503Y-83206200D01*
X120750503Y-83206200D02*
X120750503Y-83372867D01*
X120750503Y-83372867D02*
X120783836Y-83439533D01*
X120783836Y-83439533D02*
X120817169Y-83472867D01*
X120817169Y-83472867D02*
X120883836Y-83506200D01*
X120883836Y-83506200D02*
X121050503Y-83506200D01*
X121050503Y-83506200D02*
X121117169Y-83472867D01*
X121117169Y-83472867D02*
X121150503Y-83439533D01*
X121150503Y-83439533D02*
X121183836Y-83372867D01*
X121183836Y-83372867D02*
X121183836Y-83206200D01*
X121183836Y-83206200D02*
X121150503Y-83139533D01*
X121150503Y-83139533D02*
X121117169Y-83106200D01*
X167233836Y-77742866D02*
X166900503Y-77509533D01*
X167233836Y-77342866D02*
X166533836Y-77342866D01*
X166533836Y-77342866D02*
X166533836Y-77609533D01*
X166533836Y-77609533D02*
X166567169Y-77676200D01*
X166567169Y-77676200D02*
X166600503Y-77709533D01*
X166600503Y-77709533D02*
X166667169Y-77742866D01*
X166667169Y-77742866D02*
X166767169Y-77742866D01*
X166767169Y-77742866D02*
X166833836Y-77709533D01*
X166833836Y-77709533D02*
X166867169Y-77676200D01*
X166867169Y-77676200D02*
X166900503Y-77609533D01*
X166900503Y-77609533D02*
X166900503Y-77342866D01*
X166533836Y-77976200D02*
X166533836Y-78442866D01*
X166533836Y-78442866D02*
X167233836Y-78142866D01*
X167233836Y-79076200D02*
X167233836Y-78676200D01*
X167233836Y-78876200D02*
X166533836Y-78876200D01*
X166533836Y-78876200D02*
X166633836Y-78809533D01*
X166633836Y-78809533D02*
X166700503Y-78742867D01*
X166700503Y-78742867D02*
X166733836Y-78676200D01*
X139098230Y-78423799D02*
X138764897Y-78190466D01*
X139098230Y-78023799D02*
X138398230Y-78023799D01*
X138398230Y-78023799D02*
X138398230Y-78290466D01*
X138398230Y-78290466D02*
X138431563Y-78357133D01*
X138431563Y-78357133D02*
X138464897Y-78390466D01*
X138464897Y-78390466D02*
X138531563Y-78423799D01*
X138531563Y-78423799D02*
X138631563Y-78423799D01*
X138631563Y-78423799D02*
X138698230Y-78390466D01*
X138698230Y-78390466D02*
X138731563Y-78357133D01*
X138731563Y-78357133D02*
X138764897Y-78290466D01*
X138764897Y-78290466D02*
X138764897Y-78023799D01*
X138398230Y-79057133D02*
X138398230Y-78723799D01*
X138398230Y-78723799D02*
X138731563Y-78690466D01*
X138731563Y-78690466D02*
X138698230Y-78723799D01*
X138698230Y-78723799D02*
X138664897Y-78790466D01*
X138664897Y-78790466D02*
X138664897Y-78957133D01*
X138664897Y-78957133D02*
X138698230Y-79023799D01*
X138698230Y-79023799D02*
X138731563Y-79057133D01*
X138731563Y-79057133D02*
X138798230Y-79090466D01*
X138798230Y-79090466D02*
X138964897Y-79090466D01*
X138964897Y-79090466D02*
X139031563Y-79057133D01*
X139031563Y-79057133D02*
X139064897Y-79023799D01*
X139064897Y-79023799D02*
X139098230Y-78957133D01*
X139098230Y-78957133D02*
X139098230Y-78790466D01*
X139098230Y-78790466D02*
X139064897Y-78723799D01*
X139064897Y-78723799D02*
X139031563Y-78690466D01*
X160783836Y-79742866D02*
X160450503Y-79509533D01*
X160783836Y-79342866D02*
X160083836Y-79342866D01*
X160083836Y-79342866D02*
X160083836Y-79609533D01*
X160083836Y-79609533D02*
X160117169Y-79676200D01*
X160117169Y-79676200D02*
X160150503Y-79709533D01*
X160150503Y-79709533D02*
X160217169Y-79742866D01*
X160217169Y-79742866D02*
X160317169Y-79742866D01*
X160317169Y-79742866D02*
X160383836Y-79709533D01*
X160383836Y-79709533D02*
X160417169Y-79676200D01*
X160417169Y-79676200D02*
X160450503Y-79609533D01*
X160450503Y-79609533D02*
X160450503Y-79342866D01*
X160083836Y-79976200D02*
X160083836Y-80442866D01*
X160083836Y-80442866D02*
X160783836Y-80142866D01*
X160083836Y-80842867D02*
X160083836Y-80909533D01*
X160083836Y-80909533D02*
X160117169Y-80976200D01*
X160117169Y-80976200D02*
X160150503Y-81009533D01*
X160150503Y-81009533D02*
X160217169Y-81042867D01*
X160217169Y-81042867D02*
X160350503Y-81076200D01*
X160350503Y-81076200D02*
X160517169Y-81076200D01*
X160517169Y-81076200D02*
X160650503Y-81042867D01*
X160650503Y-81042867D02*
X160717169Y-81009533D01*
X160717169Y-81009533D02*
X160750503Y-80976200D01*
X160750503Y-80976200D02*
X160783836Y-80909533D01*
X160783836Y-80909533D02*
X160783836Y-80842867D01*
X160783836Y-80842867D02*
X160750503Y-80776200D01*
X160750503Y-80776200D02*
X160717169Y-80742867D01*
X160717169Y-80742867D02*
X160650503Y-80709533D01*
X160650503Y-80709533D02*
X160517169Y-80676200D01*
X160517169Y-80676200D02*
X160350503Y-80676200D01*
X160350503Y-80676200D02*
X160217169Y-80709533D01*
X160217169Y-80709533D02*
X160150503Y-80742867D01*
X160150503Y-80742867D02*
X160117169Y-80776200D01*
X160117169Y-80776200D02*
X160083836Y-80842867D01*
X167198230Y-77757132D02*
X166864897Y-77523799D01*
X167198230Y-77357132D02*
X166498230Y-77357132D01*
X166498230Y-77357132D02*
X166498230Y-77623799D01*
X166498230Y-77623799D02*
X166531563Y-77690466D01*
X166531563Y-77690466D02*
X166564897Y-77723799D01*
X166564897Y-77723799D02*
X166631563Y-77757132D01*
X166631563Y-77757132D02*
X166731563Y-77757132D01*
X166731563Y-77757132D02*
X166798230Y-77723799D01*
X166798230Y-77723799D02*
X166831563Y-77690466D01*
X166831563Y-77690466D02*
X166864897Y-77623799D01*
X166864897Y-77623799D02*
X166864897Y-77357132D01*
X166564897Y-78023799D02*
X166531563Y-78057132D01*
X166531563Y-78057132D02*
X166498230Y-78123799D01*
X166498230Y-78123799D02*
X166498230Y-78290466D01*
X166498230Y-78290466D02*
X166531563Y-78357132D01*
X166531563Y-78357132D02*
X166564897Y-78390466D01*
X166564897Y-78390466D02*
X166631563Y-78423799D01*
X166631563Y-78423799D02*
X166698230Y-78423799D01*
X166698230Y-78423799D02*
X166798230Y-78390466D01*
X166798230Y-78390466D02*
X167198230Y-77990466D01*
X167198230Y-77990466D02*
X167198230Y-78423799D01*
X166498230Y-79057133D02*
X166498230Y-78723799D01*
X166498230Y-78723799D02*
X166831563Y-78690466D01*
X166831563Y-78690466D02*
X166798230Y-78723799D01*
X166798230Y-78723799D02*
X166764897Y-78790466D01*
X166764897Y-78790466D02*
X166764897Y-78957133D01*
X166764897Y-78957133D02*
X166798230Y-79023799D01*
X166798230Y-79023799D02*
X166831563Y-79057133D01*
X166831563Y-79057133D02*
X166898230Y-79090466D01*
X166898230Y-79090466D02*
X167064897Y-79090466D01*
X167064897Y-79090466D02*
X167131563Y-79057133D01*
X167131563Y-79057133D02*
X167164897Y-79023799D01*
X167164897Y-79023799D02*
X167198230Y-78957133D01*
X167198230Y-78957133D02*
X167198230Y-78790466D01*
X167198230Y-78790466D02*
X167164897Y-78723799D01*
X167164897Y-78723799D02*
X167131563Y-78690466D01*
X172433836Y-77842866D02*
X172100503Y-77609533D01*
X172433836Y-77442866D02*
X171733836Y-77442866D01*
X171733836Y-77442866D02*
X171733836Y-77709533D01*
X171733836Y-77709533D02*
X171767169Y-77776200D01*
X171767169Y-77776200D02*
X171800503Y-77809533D01*
X171800503Y-77809533D02*
X171867169Y-77842866D01*
X171867169Y-77842866D02*
X171967169Y-77842866D01*
X171967169Y-77842866D02*
X172033836Y-77809533D01*
X172033836Y-77809533D02*
X172067169Y-77776200D01*
X172067169Y-77776200D02*
X172100503Y-77709533D01*
X172100503Y-77709533D02*
X172100503Y-77442866D01*
X171733836Y-78476200D02*
X171733836Y-78142866D01*
X171733836Y-78142866D02*
X172067169Y-78109533D01*
X172067169Y-78109533D02*
X172033836Y-78142866D01*
X172033836Y-78142866D02*
X172000503Y-78209533D01*
X172000503Y-78209533D02*
X172000503Y-78376200D01*
X172000503Y-78376200D02*
X172033836Y-78442866D01*
X172033836Y-78442866D02*
X172067169Y-78476200D01*
X172067169Y-78476200D02*
X172133836Y-78509533D01*
X172133836Y-78509533D02*
X172300503Y-78509533D01*
X172300503Y-78509533D02*
X172367169Y-78476200D01*
X172367169Y-78476200D02*
X172400503Y-78442866D01*
X172400503Y-78442866D02*
X172433836Y-78376200D01*
X172433836Y-78376200D02*
X172433836Y-78209533D01*
X172433836Y-78209533D02*
X172400503Y-78142866D01*
X172400503Y-78142866D02*
X172367169Y-78109533D01*
X171733836Y-79109533D02*
X171733836Y-78976200D01*
X171733836Y-78976200D02*
X171767169Y-78909533D01*
X171767169Y-78909533D02*
X171800503Y-78876200D01*
X171800503Y-78876200D02*
X171900503Y-78809533D01*
X171900503Y-78809533D02*
X172033836Y-78776200D01*
X172033836Y-78776200D02*
X172300503Y-78776200D01*
X172300503Y-78776200D02*
X172367169Y-78809533D01*
X172367169Y-78809533D02*
X172400503Y-78842867D01*
X172400503Y-78842867D02*
X172433836Y-78909533D01*
X172433836Y-78909533D02*
X172433836Y-79042867D01*
X172433836Y-79042867D02*
X172400503Y-79109533D01*
X172400503Y-79109533D02*
X172367169Y-79142867D01*
X172367169Y-79142867D02*
X172300503Y-79176200D01*
X172300503Y-79176200D02*
X172133836Y-79176200D01*
X172133836Y-79176200D02*
X172067169Y-79142867D01*
X172067169Y-79142867D02*
X172033836Y-79109533D01*
X172033836Y-79109533D02*
X172000503Y-79042867D01*
X172000503Y-79042867D02*
X172000503Y-78909533D01*
X172000503Y-78909533D02*
X172033836Y-78842867D01*
X172033836Y-78842867D02*
X172067169Y-78809533D01*
X172067169Y-78809533D02*
X172133836Y-78776200D01*
X170798230Y-77757132D02*
X170464897Y-77523799D01*
X170798230Y-77357132D02*
X170098230Y-77357132D01*
X170098230Y-77357132D02*
X170098230Y-77623799D01*
X170098230Y-77623799D02*
X170131563Y-77690466D01*
X170131563Y-77690466D02*
X170164897Y-77723799D01*
X170164897Y-77723799D02*
X170231563Y-77757132D01*
X170231563Y-77757132D02*
X170331563Y-77757132D01*
X170331563Y-77757132D02*
X170398230Y-77723799D01*
X170398230Y-77723799D02*
X170431563Y-77690466D01*
X170431563Y-77690466D02*
X170464897Y-77623799D01*
X170464897Y-77623799D02*
X170464897Y-77357132D01*
X170098230Y-77990466D02*
X170098230Y-78423799D01*
X170098230Y-78423799D02*
X170364897Y-78190466D01*
X170364897Y-78190466D02*
X170364897Y-78290466D01*
X170364897Y-78290466D02*
X170398230Y-78357132D01*
X170398230Y-78357132D02*
X170431563Y-78390466D01*
X170431563Y-78390466D02*
X170498230Y-78423799D01*
X170498230Y-78423799D02*
X170664897Y-78423799D01*
X170664897Y-78423799D02*
X170731563Y-78390466D01*
X170731563Y-78390466D02*
X170764897Y-78357132D01*
X170764897Y-78357132D02*
X170798230Y-78290466D01*
X170798230Y-78290466D02*
X170798230Y-78090466D01*
X170798230Y-78090466D02*
X170764897Y-78023799D01*
X170764897Y-78023799D02*
X170731563Y-77990466D01*
X170331563Y-79023799D02*
X170798230Y-79023799D01*
X170064897Y-78857133D02*
X170564897Y-78690466D01*
X170564897Y-78690466D02*
X170564897Y-79123799D01*
X159583836Y-79742866D02*
X159250503Y-79509533D01*
X159583836Y-79342866D02*
X158883836Y-79342866D01*
X158883836Y-79342866D02*
X158883836Y-79609533D01*
X158883836Y-79609533D02*
X158917169Y-79676200D01*
X158917169Y-79676200D02*
X158950503Y-79709533D01*
X158950503Y-79709533D02*
X159017169Y-79742866D01*
X159017169Y-79742866D02*
X159117169Y-79742866D01*
X159117169Y-79742866D02*
X159183836Y-79709533D01*
X159183836Y-79709533D02*
X159217169Y-79676200D01*
X159217169Y-79676200D02*
X159250503Y-79609533D01*
X159250503Y-79609533D02*
X159250503Y-79342866D01*
X158883836Y-80342866D02*
X158883836Y-80209533D01*
X158883836Y-80209533D02*
X158917169Y-80142866D01*
X158917169Y-80142866D02*
X158950503Y-80109533D01*
X158950503Y-80109533D02*
X159050503Y-80042866D01*
X159050503Y-80042866D02*
X159183836Y-80009533D01*
X159183836Y-80009533D02*
X159450503Y-80009533D01*
X159450503Y-80009533D02*
X159517169Y-80042866D01*
X159517169Y-80042866D02*
X159550503Y-80076200D01*
X159550503Y-80076200D02*
X159583836Y-80142866D01*
X159583836Y-80142866D02*
X159583836Y-80276200D01*
X159583836Y-80276200D02*
X159550503Y-80342866D01*
X159550503Y-80342866D02*
X159517169Y-80376200D01*
X159517169Y-80376200D02*
X159450503Y-80409533D01*
X159450503Y-80409533D02*
X159283836Y-80409533D01*
X159283836Y-80409533D02*
X159217169Y-80376200D01*
X159217169Y-80376200D02*
X159183836Y-80342866D01*
X159183836Y-80342866D02*
X159150503Y-80276200D01*
X159150503Y-80276200D02*
X159150503Y-80142866D01*
X159150503Y-80142866D02*
X159183836Y-80076200D01*
X159183836Y-80076200D02*
X159217169Y-80042866D01*
X159217169Y-80042866D02*
X159283836Y-80009533D01*
X159183836Y-80809533D02*
X159150503Y-80742867D01*
X159150503Y-80742867D02*
X159117169Y-80709533D01*
X159117169Y-80709533D02*
X159050503Y-80676200D01*
X159050503Y-80676200D02*
X159017169Y-80676200D01*
X159017169Y-80676200D02*
X158950503Y-80709533D01*
X158950503Y-80709533D02*
X158917169Y-80742867D01*
X158917169Y-80742867D02*
X158883836Y-80809533D01*
X158883836Y-80809533D02*
X158883836Y-80942867D01*
X158883836Y-80942867D02*
X158917169Y-81009533D01*
X158917169Y-81009533D02*
X158950503Y-81042867D01*
X158950503Y-81042867D02*
X159017169Y-81076200D01*
X159017169Y-81076200D02*
X159050503Y-81076200D01*
X159050503Y-81076200D02*
X159117169Y-81042867D01*
X159117169Y-81042867D02*
X159150503Y-81009533D01*
X159150503Y-81009533D02*
X159183836Y-80942867D01*
X159183836Y-80942867D02*
X159183836Y-80809533D01*
X159183836Y-80809533D02*
X159217169Y-80742867D01*
X159217169Y-80742867D02*
X159250503Y-80709533D01*
X159250503Y-80709533D02*
X159317169Y-80676200D01*
X159317169Y-80676200D02*
X159450503Y-80676200D01*
X159450503Y-80676200D02*
X159517169Y-80709533D01*
X159517169Y-80709533D02*
X159550503Y-80742867D01*
X159550503Y-80742867D02*
X159583836Y-80809533D01*
X159583836Y-80809533D02*
X159583836Y-80942867D01*
X159583836Y-80942867D02*
X159550503Y-81009533D01*
X159550503Y-81009533D02*
X159517169Y-81042867D01*
X159517169Y-81042867D02*
X159450503Y-81076200D01*
X159450503Y-81076200D02*
X159317169Y-81076200D01*
X159317169Y-81076200D02*
X159250503Y-81042867D01*
X159250503Y-81042867D02*
X159217169Y-81009533D01*
X159217169Y-81009533D02*
X159183836Y-80942867D01*
X141498230Y-77757132D02*
X141164897Y-77523799D01*
X141498230Y-77357132D02*
X140798230Y-77357132D01*
X140798230Y-77357132D02*
X140798230Y-77623799D01*
X140798230Y-77623799D02*
X140831563Y-77690466D01*
X140831563Y-77690466D02*
X140864897Y-77723799D01*
X140864897Y-77723799D02*
X140931563Y-77757132D01*
X140931563Y-77757132D02*
X141031563Y-77757132D01*
X141031563Y-77757132D02*
X141098230Y-77723799D01*
X141098230Y-77723799D02*
X141131563Y-77690466D01*
X141131563Y-77690466D02*
X141164897Y-77623799D01*
X141164897Y-77623799D02*
X141164897Y-77357132D01*
X141498230Y-78423799D02*
X141498230Y-78023799D01*
X141498230Y-78223799D02*
X140798230Y-78223799D01*
X140798230Y-78223799D02*
X140898230Y-78157132D01*
X140898230Y-78157132D02*
X140964897Y-78090466D01*
X140964897Y-78090466D02*
X140998230Y-78023799D01*
X140798230Y-78657133D02*
X140798230Y-79123799D01*
X140798230Y-79123799D02*
X141498230Y-78823799D01*
X173233836Y-77742866D02*
X172900503Y-77509533D01*
X173233836Y-77342866D02*
X172533836Y-77342866D01*
X172533836Y-77342866D02*
X172533836Y-77609533D01*
X172533836Y-77609533D02*
X172567169Y-77676200D01*
X172567169Y-77676200D02*
X172600503Y-77709533D01*
X172600503Y-77709533D02*
X172667169Y-77742866D01*
X172667169Y-77742866D02*
X172767169Y-77742866D01*
X172767169Y-77742866D02*
X172833836Y-77709533D01*
X172833836Y-77709533D02*
X172867169Y-77676200D01*
X172867169Y-77676200D02*
X172900503Y-77609533D01*
X172900503Y-77609533D02*
X172900503Y-77342866D01*
X172533836Y-78342866D02*
X172533836Y-78209533D01*
X172533836Y-78209533D02*
X172567169Y-78142866D01*
X172567169Y-78142866D02*
X172600503Y-78109533D01*
X172600503Y-78109533D02*
X172700503Y-78042866D01*
X172700503Y-78042866D02*
X172833836Y-78009533D01*
X172833836Y-78009533D02*
X173100503Y-78009533D01*
X173100503Y-78009533D02*
X173167169Y-78042866D01*
X173167169Y-78042866D02*
X173200503Y-78076200D01*
X173200503Y-78076200D02*
X173233836Y-78142866D01*
X173233836Y-78142866D02*
X173233836Y-78276200D01*
X173233836Y-78276200D02*
X173200503Y-78342866D01*
X173200503Y-78342866D02*
X173167169Y-78376200D01*
X173167169Y-78376200D02*
X173100503Y-78409533D01*
X173100503Y-78409533D02*
X172933836Y-78409533D01*
X172933836Y-78409533D02*
X172867169Y-78376200D01*
X172867169Y-78376200D02*
X172833836Y-78342866D01*
X172833836Y-78342866D02*
X172800503Y-78276200D01*
X172800503Y-78276200D02*
X172800503Y-78142866D01*
X172800503Y-78142866D02*
X172833836Y-78076200D01*
X172833836Y-78076200D02*
X172867169Y-78042866D01*
X172867169Y-78042866D02*
X172933836Y-78009533D01*
X172533836Y-79009533D02*
X172533836Y-78876200D01*
X172533836Y-78876200D02*
X172567169Y-78809533D01*
X172567169Y-78809533D02*
X172600503Y-78776200D01*
X172600503Y-78776200D02*
X172700503Y-78709533D01*
X172700503Y-78709533D02*
X172833836Y-78676200D01*
X172833836Y-78676200D02*
X173100503Y-78676200D01*
X173100503Y-78676200D02*
X173167169Y-78709533D01*
X173167169Y-78709533D02*
X173200503Y-78742867D01*
X173200503Y-78742867D02*
X173233836Y-78809533D01*
X173233836Y-78809533D02*
X173233836Y-78942867D01*
X173233836Y-78942867D02*
X173200503Y-79009533D01*
X173200503Y-79009533D02*
X173167169Y-79042867D01*
X173167169Y-79042867D02*
X173100503Y-79076200D01*
X173100503Y-79076200D02*
X172933836Y-79076200D01*
X172933836Y-79076200D02*
X172867169Y-79042867D01*
X172867169Y-79042867D02*
X172833836Y-79009533D01*
X172833836Y-79009533D02*
X172800503Y-78942867D01*
X172800503Y-78942867D02*
X172800503Y-78809533D01*
X172800503Y-78809533D02*
X172833836Y-78742867D01*
X172833836Y-78742867D02*
X172867169Y-78709533D01*
X172867169Y-78709533D02*
X172933836Y-78676200D01*
X156333836Y-79742866D02*
X156000503Y-79509533D01*
X156333836Y-79342866D02*
X155633836Y-79342866D01*
X155633836Y-79342866D02*
X155633836Y-79609533D01*
X155633836Y-79609533D02*
X155667169Y-79676200D01*
X155667169Y-79676200D02*
X155700503Y-79709533D01*
X155700503Y-79709533D02*
X155767169Y-79742866D01*
X155767169Y-79742866D02*
X155867169Y-79742866D01*
X155867169Y-79742866D02*
X155933836Y-79709533D01*
X155933836Y-79709533D02*
X155967169Y-79676200D01*
X155967169Y-79676200D02*
X156000503Y-79609533D01*
X156000503Y-79609533D02*
X156000503Y-79342866D01*
X155633836Y-79976200D02*
X155633836Y-80442866D01*
X155633836Y-80442866D02*
X156333836Y-80142866D01*
X155633836Y-80642867D02*
X155633836Y-81109533D01*
X155633836Y-81109533D02*
X156333836Y-80809533D01*
X161002836Y-79512164D02*
X160669503Y-79278831D01*
X161002836Y-79112164D02*
X160302836Y-79112164D01*
X160302836Y-79112164D02*
X160302836Y-79378831D01*
X160302836Y-79378831D02*
X160336169Y-79445498D01*
X160336169Y-79445498D02*
X160369503Y-79478831D01*
X160369503Y-79478831D02*
X160436169Y-79512164D01*
X160436169Y-79512164D02*
X160536169Y-79512164D01*
X160536169Y-79512164D02*
X160602836Y-79478831D01*
X160602836Y-79478831D02*
X160636169Y-79445498D01*
X160636169Y-79445498D02*
X160669503Y-79378831D01*
X160669503Y-79378831D02*
X160669503Y-79112164D01*
X160302836Y-80112164D02*
X160302836Y-79978831D01*
X160302836Y-79978831D02*
X160336169Y-79912164D01*
X160336169Y-79912164D02*
X160369503Y-79878831D01*
X160369503Y-79878831D02*
X160469503Y-79812164D01*
X160469503Y-79812164D02*
X160602836Y-79778831D01*
X160602836Y-79778831D02*
X160869503Y-79778831D01*
X160869503Y-79778831D02*
X160936169Y-79812164D01*
X160936169Y-79812164D02*
X160969503Y-79845498D01*
X160969503Y-79845498D02*
X161002836Y-79912164D01*
X161002836Y-79912164D02*
X161002836Y-80045498D01*
X161002836Y-80045498D02*
X160969503Y-80112164D01*
X160969503Y-80112164D02*
X160936169Y-80145498D01*
X160936169Y-80145498D02*
X160869503Y-80178831D01*
X160869503Y-80178831D02*
X160702836Y-80178831D01*
X160702836Y-80178831D02*
X160636169Y-80145498D01*
X160636169Y-80145498D02*
X160602836Y-80112164D01*
X160602836Y-80112164D02*
X160569503Y-80045498D01*
X160569503Y-80045498D02*
X160569503Y-79912164D01*
X160569503Y-79912164D02*
X160602836Y-79845498D01*
X160602836Y-79845498D02*
X160636169Y-79812164D01*
X160636169Y-79812164D02*
X160702836Y-79778831D01*
X161002836Y-80512165D02*
X161002836Y-80645498D01*
X161002836Y-80645498D02*
X160969503Y-80712165D01*
X160969503Y-80712165D02*
X160936169Y-80745498D01*
X160936169Y-80745498D02*
X160836169Y-80812165D01*
X160836169Y-80812165D02*
X160702836Y-80845498D01*
X160702836Y-80845498D02*
X160436169Y-80845498D01*
X160436169Y-80845498D02*
X160369503Y-80812165D01*
X160369503Y-80812165D02*
X160336169Y-80778831D01*
X160336169Y-80778831D02*
X160302836Y-80712165D01*
X160302836Y-80712165D02*
X160302836Y-80578831D01*
X160302836Y-80578831D02*
X160336169Y-80512165D01*
X160336169Y-80512165D02*
X160369503Y-80478831D01*
X160369503Y-80478831D02*
X160436169Y-80445498D01*
X160436169Y-80445498D02*
X160602836Y-80445498D01*
X160602836Y-80445498D02*
X160669503Y-80478831D01*
X160669503Y-80478831D02*
X160702836Y-80512165D01*
X160702836Y-80512165D02*
X160736169Y-80578831D01*
X160736169Y-80578831D02*
X160736169Y-80712165D01*
X160736169Y-80712165D02*
X160702836Y-80778831D01*
X160702836Y-80778831D02*
X160669503Y-80812165D01*
X160669503Y-80812165D02*
X160602836Y-80845498D01*
X137898230Y-77757132D02*
X137564897Y-77523799D01*
X137898230Y-77357132D02*
X137198230Y-77357132D01*
X137198230Y-77357132D02*
X137198230Y-77623799D01*
X137198230Y-77623799D02*
X137231563Y-77690466D01*
X137231563Y-77690466D02*
X137264897Y-77723799D01*
X137264897Y-77723799D02*
X137331563Y-77757132D01*
X137331563Y-77757132D02*
X137431563Y-77757132D01*
X137431563Y-77757132D02*
X137498230Y-77723799D01*
X137498230Y-77723799D02*
X137531563Y-77690466D01*
X137531563Y-77690466D02*
X137564897Y-77623799D01*
X137564897Y-77623799D02*
X137564897Y-77357132D01*
X137898230Y-78423799D02*
X137898230Y-78023799D01*
X137898230Y-78223799D02*
X137198230Y-78223799D01*
X137198230Y-78223799D02*
X137298230Y-78157132D01*
X137298230Y-78157132D02*
X137364897Y-78090466D01*
X137364897Y-78090466D02*
X137398230Y-78023799D01*
X137198230Y-78857133D02*
X137198230Y-78923799D01*
X137198230Y-78923799D02*
X137231563Y-78990466D01*
X137231563Y-78990466D02*
X137264897Y-79023799D01*
X137264897Y-79023799D02*
X137331563Y-79057133D01*
X137331563Y-79057133D02*
X137464897Y-79090466D01*
X137464897Y-79090466D02*
X137631563Y-79090466D01*
X137631563Y-79090466D02*
X137764897Y-79057133D01*
X137764897Y-79057133D02*
X137831563Y-79023799D01*
X137831563Y-79023799D02*
X137864897Y-78990466D01*
X137864897Y-78990466D02*
X137898230Y-78923799D01*
X137898230Y-78923799D02*
X137898230Y-78857133D01*
X137898230Y-78857133D02*
X137864897Y-78790466D01*
X137864897Y-78790466D02*
X137831563Y-78757133D01*
X137831563Y-78757133D02*
X137764897Y-78723799D01*
X137764897Y-78723799D02*
X137631563Y-78690466D01*
X137631563Y-78690466D02*
X137464897Y-78690466D01*
X137464897Y-78690466D02*
X137331563Y-78723799D01*
X137331563Y-78723799D02*
X137264897Y-78757133D01*
X137264897Y-78757133D02*
X137231563Y-78790466D01*
X137231563Y-78790466D02*
X137198230Y-78857133D01*
X171433836Y-79742866D02*
X171100503Y-79509533D01*
X171433836Y-79342866D02*
X170733836Y-79342866D01*
X170733836Y-79342866D02*
X170733836Y-79609533D01*
X170733836Y-79609533D02*
X170767169Y-79676200D01*
X170767169Y-79676200D02*
X170800503Y-79709533D01*
X170800503Y-79709533D02*
X170867169Y-79742866D01*
X170867169Y-79742866D02*
X170967169Y-79742866D01*
X170967169Y-79742866D02*
X171033836Y-79709533D01*
X171033836Y-79709533D02*
X171067169Y-79676200D01*
X171067169Y-79676200D02*
X171100503Y-79609533D01*
X171100503Y-79609533D02*
X171100503Y-79342866D01*
X170733836Y-80342866D02*
X170733836Y-80209533D01*
X170733836Y-80209533D02*
X170767169Y-80142866D01*
X170767169Y-80142866D02*
X170800503Y-80109533D01*
X170800503Y-80109533D02*
X170900503Y-80042866D01*
X170900503Y-80042866D02*
X171033836Y-80009533D01*
X171033836Y-80009533D02*
X171300503Y-80009533D01*
X171300503Y-80009533D02*
X171367169Y-80042866D01*
X171367169Y-80042866D02*
X171400503Y-80076200D01*
X171400503Y-80076200D02*
X171433836Y-80142866D01*
X171433836Y-80142866D02*
X171433836Y-80276200D01*
X171433836Y-80276200D02*
X171400503Y-80342866D01*
X171400503Y-80342866D02*
X171367169Y-80376200D01*
X171367169Y-80376200D02*
X171300503Y-80409533D01*
X171300503Y-80409533D02*
X171133836Y-80409533D01*
X171133836Y-80409533D02*
X171067169Y-80376200D01*
X171067169Y-80376200D02*
X171033836Y-80342866D01*
X171033836Y-80342866D02*
X171000503Y-80276200D01*
X171000503Y-80276200D02*
X171000503Y-80142866D01*
X171000503Y-80142866D02*
X171033836Y-80076200D01*
X171033836Y-80076200D02*
X171067169Y-80042866D01*
X171067169Y-80042866D02*
X171133836Y-80009533D01*
X170967169Y-81009533D02*
X171433836Y-81009533D01*
X170700503Y-80842867D02*
X171200503Y-80676200D01*
X171200503Y-80676200D02*
X171200503Y-81109533D01*
X172598230Y-79757132D02*
X172264897Y-79523799D01*
X172598230Y-79357132D02*
X171898230Y-79357132D01*
X171898230Y-79357132D02*
X171898230Y-79623799D01*
X171898230Y-79623799D02*
X171931563Y-79690466D01*
X171931563Y-79690466D02*
X171964897Y-79723799D01*
X171964897Y-79723799D02*
X172031563Y-79757132D01*
X172031563Y-79757132D02*
X172131563Y-79757132D01*
X172131563Y-79757132D02*
X172198230Y-79723799D01*
X172198230Y-79723799D02*
X172231563Y-79690466D01*
X172231563Y-79690466D02*
X172264897Y-79623799D01*
X172264897Y-79623799D02*
X172264897Y-79357132D01*
X171898230Y-79990466D02*
X171898230Y-80423799D01*
X171898230Y-80423799D02*
X172164897Y-80190466D01*
X172164897Y-80190466D02*
X172164897Y-80290466D01*
X172164897Y-80290466D02*
X172198230Y-80357132D01*
X172198230Y-80357132D02*
X172231563Y-80390466D01*
X172231563Y-80390466D02*
X172298230Y-80423799D01*
X172298230Y-80423799D02*
X172464897Y-80423799D01*
X172464897Y-80423799D02*
X172531563Y-80390466D01*
X172531563Y-80390466D02*
X172564897Y-80357132D01*
X172564897Y-80357132D02*
X172598230Y-80290466D01*
X172598230Y-80290466D02*
X172598230Y-80090466D01*
X172598230Y-80090466D02*
X172564897Y-80023799D01*
X172564897Y-80023799D02*
X172531563Y-79990466D01*
X171898230Y-80657133D02*
X171898230Y-81123799D01*
X171898230Y-81123799D02*
X172598230Y-80823799D01*
X173833836Y-79742866D02*
X173500503Y-79509533D01*
X173833836Y-79342866D02*
X173133836Y-79342866D01*
X173133836Y-79342866D02*
X173133836Y-79609533D01*
X173133836Y-79609533D02*
X173167169Y-79676200D01*
X173167169Y-79676200D02*
X173200503Y-79709533D01*
X173200503Y-79709533D02*
X173267169Y-79742866D01*
X173267169Y-79742866D02*
X173367169Y-79742866D01*
X173367169Y-79742866D02*
X173433836Y-79709533D01*
X173433836Y-79709533D02*
X173467169Y-79676200D01*
X173467169Y-79676200D02*
X173500503Y-79609533D01*
X173500503Y-79609533D02*
X173500503Y-79342866D01*
X173133836Y-80376200D02*
X173133836Y-80042866D01*
X173133836Y-80042866D02*
X173467169Y-80009533D01*
X173467169Y-80009533D02*
X173433836Y-80042866D01*
X173433836Y-80042866D02*
X173400503Y-80109533D01*
X173400503Y-80109533D02*
X173400503Y-80276200D01*
X173400503Y-80276200D02*
X173433836Y-80342866D01*
X173433836Y-80342866D02*
X173467169Y-80376200D01*
X173467169Y-80376200D02*
X173533836Y-80409533D01*
X173533836Y-80409533D02*
X173700503Y-80409533D01*
X173700503Y-80409533D02*
X173767169Y-80376200D01*
X173767169Y-80376200D02*
X173800503Y-80342866D01*
X173800503Y-80342866D02*
X173833836Y-80276200D01*
X173833836Y-80276200D02*
X173833836Y-80109533D01*
X173833836Y-80109533D02*
X173800503Y-80042866D01*
X173800503Y-80042866D02*
X173767169Y-80009533D01*
X173433836Y-80809533D02*
X173400503Y-80742867D01*
X173400503Y-80742867D02*
X173367169Y-80709533D01*
X173367169Y-80709533D02*
X173300503Y-80676200D01*
X173300503Y-80676200D02*
X173267169Y-80676200D01*
X173267169Y-80676200D02*
X173200503Y-80709533D01*
X173200503Y-80709533D02*
X173167169Y-80742867D01*
X173167169Y-80742867D02*
X173133836Y-80809533D01*
X173133836Y-80809533D02*
X173133836Y-80942867D01*
X173133836Y-80942867D02*
X173167169Y-81009533D01*
X173167169Y-81009533D02*
X173200503Y-81042867D01*
X173200503Y-81042867D02*
X173267169Y-81076200D01*
X173267169Y-81076200D02*
X173300503Y-81076200D01*
X173300503Y-81076200D02*
X173367169Y-81042867D01*
X173367169Y-81042867D02*
X173400503Y-81009533D01*
X173400503Y-81009533D02*
X173433836Y-80942867D01*
X173433836Y-80942867D02*
X173433836Y-80809533D01*
X173433836Y-80809533D02*
X173467169Y-80742867D01*
X173467169Y-80742867D02*
X173500503Y-80709533D01*
X173500503Y-80709533D02*
X173567169Y-80676200D01*
X173567169Y-80676200D02*
X173700503Y-80676200D01*
X173700503Y-80676200D02*
X173767169Y-80709533D01*
X173767169Y-80709533D02*
X173800503Y-80742867D01*
X173800503Y-80742867D02*
X173833836Y-80809533D01*
X173833836Y-80809533D02*
X173833836Y-80942867D01*
X173833836Y-80942867D02*
X173800503Y-81009533D01*
X173800503Y-81009533D02*
X173767169Y-81042867D01*
X173767169Y-81042867D02*
X173700503Y-81076200D01*
X173700503Y-81076200D02*
X173567169Y-81076200D01*
X173567169Y-81076200D02*
X173500503Y-81042867D01*
X173500503Y-81042867D02*
X173467169Y-81009533D01*
X173467169Y-81009533D02*
X173433836Y-80942867D01*
X134898230Y-79757132D02*
X134564897Y-79523799D01*
X134898230Y-79357132D02*
X134198230Y-79357132D01*
X134198230Y-79357132D02*
X134198230Y-79623799D01*
X134198230Y-79623799D02*
X134231563Y-79690466D01*
X134231563Y-79690466D02*
X134264897Y-79723799D01*
X134264897Y-79723799D02*
X134331563Y-79757132D01*
X134331563Y-79757132D02*
X134431563Y-79757132D01*
X134431563Y-79757132D02*
X134498230Y-79723799D01*
X134498230Y-79723799D02*
X134531563Y-79690466D01*
X134531563Y-79690466D02*
X134564897Y-79623799D01*
X134564897Y-79623799D02*
X134564897Y-79357132D01*
X134898230Y-80423799D02*
X134898230Y-80023799D01*
X134898230Y-80223799D02*
X134198230Y-80223799D01*
X134198230Y-80223799D02*
X134298230Y-80157132D01*
X134298230Y-80157132D02*
X134364897Y-80090466D01*
X134364897Y-80090466D02*
X134398230Y-80023799D01*
X134264897Y-80690466D02*
X134231563Y-80723799D01*
X134231563Y-80723799D02*
X134198230Y-80790466D01*
X134198230Y-80790466D02*
X134198230Y-80957133D01*
X134198230Y-80957133D02*
X134231563Y-81023799D01*
X134231563Y-81023799D02*
X134264897Y-81057133D01*
X134264897Y-81057133D02*
X134331563Y-81090466D01*
X134331563Y-81090466D02*
X134398230Y-81090466D01*
X134398230Y-81090466D02*
X134498230Y-81057133D01*
X134498230Y-81057133D02*
X134898230Y-80657133D01*
X134898230Y-80657133D02*
X134898230Y-81090466D01*
X155133836Y-79742866D02*
X154800503Y-79509533D01*
X155133836Y-79342866D02*
X154433836Y-79342866D01*
X154433836Y-79342866D02*
X154433836Y-79609533D01*
X154433836Y-79609533D02*
X154467169Y-79676200D01*
X154467169Y-79676200D02*
X154500503Y-79709533D01*
X154500503Y-79709533D02*
X154567169Y-79742866D01*
X154567169Y-79742866D02*
X154667169Y-79742866D01*
X154667169Y-79742866D02*
X154733836Y-79709533D01*
X154733836Y-79709533D02*
X154767169Y-79676200D01*
X154767169Y-79676200D02*
X154800503Y-79609533D01*
X154800503Y-79609533D02*
X154800503Y-79342866D01*
X154433836Y-79976200D02*
X154433836Y-80442866D01*
X154433836Y-80442866D02*
X155133836Y-80142866D01*
X154433836Y-81042867D02*
X154433836Y-80709533D01*
X154433836Y-80709533D02*
X154767169Y-80676200D01*
X154767169Y-80676200D02*
X154733836Y-80709533D01*
X154733836Y-80709533D02*
X154700503Y-80776200D01*
X154700503Y-80776200D02*
X154700503Y-80942867D01*
X154700503Y-80942867D02*
X154733836Y-81009533D01*
X154733836Y-81009533D02*
X154767169Y-81042867D01*
X154767169Y-81042867D02*
X154833836Y-81076200D01*
X154833836Y-81076200D02*
X155000503Y-81076200D01*
X155000503Y-81076200D02*
X155067169Y-81042867D01*
X155067169Y-81042867D02*
X155100503Y-81009533D01*
X155100503Y-81009533D02*
X155133836Y-80942867D01*
X155133836Y-80942867D02*
X155133836Y-80776200D01*
X155133836Y-80776200D02*
X155100503Y-80709533D01*
X155100503Y-80709533D02*
X155067169Y-80676200D01*
X127148230Y-82157132D02*
X126814897Y-81923799D01*
X127148230Y-81757132D02*
X126448230Y-81757132D01*
X126448230Y-81757132D02*
X126448230Y-82023799D01*
X126448230Y-82023799D02*
X126481563Y-82090466D01*
X126481563Y-82090466D02*
X126514897Y-82123799D01*
X126514897Y-82123799D02*
X126581563Y-82157132D01*
X126581563Y-82157132D02*
X126681563Y-82157132D01*
X126681563Y-82157132D02*
X126748230Y-82123799D01*
X126748230Y-82123799D02*
X126781563Y-82090466D01*
X126781563Y-82090466D02*
X126814897Y-82023799D01*
X126814897Y-82023799D02*
X126814897Y-81757132D01*
X127148230Y-82823799D02*
X127148230Y-82423799D01*
X127148230Y-82623799D02*
X126448230Y-82623799D01*
X126448230Y-82623799D02*
X126548230Y-82557132D01*
X126548230Y-82557132D02*
X126614897Y-82490466D01*
X126614897Y-82490466D02*
X126648230Y-82423799D01*
X127148230Y-83157133D02*
X127148230Y-83290466D01*
X127148230Y-83290466D02*
X127114897Y-83357133D01*
X127114897Y-83357133D02*
X127081563Y-83390466D01*
X127081563Y-83390466D02*
X126981563Y-83457133D01*
X126981563Y-83457133D02*
X126848230Y-83490466D01*
X126848230Y-83490466D02*
X126581563Y-83490466D01*
X126581563Y-83490466D02*
X126514897Y-83457133D01*
X126514897Y-83457133D02*
X126481563Y-83423799D01*
X126481563Y-83423799D02*
X126448230Y-83357133D01*
X126448230Y-83357133D02*
X126448230Y-83223799D01*
X126448230Y-83223799D02*
X126481563Y-83157133D01*
X126481563Y-83157133D02*
X126514897Y-83123799D01*
X126514897Y-83123799D02*
X126581563Y-83090466D01*
X126581563Y-83090466D02*
X126748230Y-83090466D01*
X126748230Y-83090466D02*
X126814897Y-83123799D01*
X126814897Y-83123799D02*
X126848230Y-83157133D01*
X126848230Y-83157133D02*
X126881563Y-83223799D01*
X126881563Y-83223799D02*
X126881563Y-83357133D01*
X126881563Y-83357133D02*
X126848230Y-83423799D01*
X126848230Y-83423799D02*
X126814897Y-83457133D01*
X126814897Y-83457133D02*
X126748230Y-83490466D01*
X140298230Y-77757132D02*
X139964897Y-77523799D01*
X140298230Y-77357132D02*
X139598230Y-77357132D01*
X139598230Y-77357132D02*
X139598230Y-77623799D01*
X139598230Y-77623799D02*
X139631563Y-77690466D01*
X139631563Y-77690466D02*
X139664897Y-77723799D01*
X139664897Y-77723799D02*
X139731563Y-77757132D01*
X139731563Y-77757132D02*
X139831563Y-77757132D01*
X139831563Y-77757132D02*
X139898230Y-77723799D01*
X139898230Y-77723799D02*
X139931563Y-77690466D01*
X139931563Y-77690466D02*
X139964897Y-77623799D01*
X139964897Y-77623799D02*
X139964897Y-77357132D01*
X140298230Y-78423799D02*
X140298230Y-78023799D01*
X140298230Y-78223799D02*
X139598230Y-78223799D01*
X139598230Y-78223799D02*
X139698230Y-78157132D01*
X139698230Y-78157132D02*
X139764897Y-78090466D01*
X139764897Y-78090466D02*
X139798230Y-78023799D01*
X139598230Y-79057133D02*
X139598230Y-78723799D01*
X139598230Y-78723799D02*
X139931563Y-78690466D01*
X139931563Y-78690466D02*
X139898230Y-78723799D01*
X139898230Y-78723799D02*
X139864897Y-78790466D01*
X139864897Y-78790466D02*
X139864897Y-78957133D01*
X139864897Y-78957133D02*
X139898230Y-79023799D01*
X139898230Y-79023799D02*
X139931563Y-79057133D01*
X139931563Y-79057133D02*
X139998230Y-79090466D01*
X139998230Y-79090466D02*
X140164897Y-79090466D01*
X140164897Y-79090466D02*
X140231563Y-79057133D01*
X140231563Y-79057133D02*
X140264897Y-79023799D01*
X140264897Y-79023799D02*
X140298230Y-78957133D01*
X140298230Y-78957133D02*
X140298230Y-78790466D01*
X140298230Y-78790466D02*
X140264897Y-78723799D01*
X140264897Y-78723799D02*
X140231563Y-78690466D01*
X165398230Y-79757132D02*
X165064897Y-79523799D01*
X165398230Y-79357132D02*
X164698230Y-79357132D01*
X164698230Y-79357132D02*
X164698230Y-79623799D01*
X164698230Y-79623799D02*
X164731563Y-79690466D01*
X164731563Y-79690466D02*
X164764897Y-79723799D01*
X164764897Y-79723799D02*
X164831563Y-79757132D01*
X164831563Y-79757132D02*
X164931563Y-79757132D01*
X164931563Y-79757132D02*
X164998230Y-79723799D01*
X164998230Y-79723799D02*
X165031563Y-79690466D01*
X165031563Y-79690466D02*
X165064897Y-79623799D01*
X165064897Y-79623799D02*
X165064897Y-79357132D01*
X164764897Y-80023799D02*
X164731563Y-80057132D01*
X164731563Y-80057132D02*
X164698230Y-80123799D01*
X164698230Y-80123799D02*
X164698230Y-80290466D01*
X164698230Y-80290466D02*
X164731563Y-80357132D01*
X164731563Y-80357132D02*
X164764897Y-80390466D01*
X164764897Y-80390466D02*
X164831563Y-80423799D01*
X164831563Y-80423799D02*
X164898230Y-80423799D01*
X164898230Y-80423799D02*
X164998230Y-80390466D01*
X164998230Y-80390466D02*
X165398230Y-79990466D01*
X165398230Y-79990466D02*
X165398230Y-80423799D01*
X164764897Y-80690466D02*
X164731563Y-80723799D01*
X164731563Y-80723799D02*
X164698230Y-80790466D01*
X164698230Y-80790466D02*
X164698230Y-80957133D01*
X164698230Y-80957133D02*
X164731563Y-81023799D01*
X164731563Y-81023799D02*
X164764897Y-81057133D01*
X164764897Y-81057133D02*
X164831563Y-81090466D01*
X164831563Y-81090466D02*
X164898230Y-81090466D01*
X164898230Y-81090466D02*
X164998230Y-81057133D01*
X164998230Y-81057133D02*
X165398230Y-80657133D01*
X165398230Y-80657133D02*
X165398230Y-81090466D01*
X167798230Y-79757132D02*
X167464897Y-79523799D01*
X167798230Y-79357132D02*
X167098230Y-79357132D01*
X167098230Y-79357132D02*
X167098230Y-79623799D01*
X167098230Y-79623799D02*
X167131563Y-79690466D01*
X167131563Y-79690466D02*
X167164897Y-79723799D01*
X167164897Y-79723799D02*
X167231563Y-79757132D01*
X167231563Y-79757132D02*
X167331563Y-79757132D01*
X167331563Y-79757132D02*
X167398230Y-79723799D01*
X167398230Y-79723799D02*
X167431563Y-79690466D01*
X167431563Y-79690466D02*
X167464897Y-79623799D01*
X167464897Y-79623799D02*
X167464897Y-79357132D01*
X167164897Y-80023799D02*
X167131563Y-80057132D01*
X167131563Y-80057132D02*
X167098230Y-80123799D01*
X167098230Y-80123799D02*
X167098230Y-80290466D01*
X167098230Y-80290466D02*
X167131563Y-80357132D01*
X167131563Y-80357132D02*
X167164897Y-80390466D01*
X167164897Y-80390466D02*
X167231563Y-80423799D01*
X167231563Y-80423799D02*
X167298230Y-80423799D01*
X167298230Y-80423799D02*
X167398230Y-80390466D01*
X167398230Y-80390466D02*
X167798230Y-79990466D01*
X167798230Y-79990466D02*
X167798230Y-80423799D01*
X167098230Y-81023799D02*
X167098230Y-80890466D01*
X167098230Y-80890466D02*
X167131563Y-80823799D01*
X167131563Y-80823799D02*
X167164897Y-80790466D01*
X167164897Y-80790466D02*
X167264897Y-80723799D01*
X167264897Y-80723799D02*
X167398230Y-80690466D01*
X167398230Y-80690466D02*
X167664897Y-80690466D01*
X167664897Y-80690466D02*
X167731563Y-80723799D01*
X167731563Y-80723799D02*
X167764897Y-80757133D01*
X167764897Y-80757133D02*
X167798230Y-80823799D01*
X167798230Y-80823799D02*
X167798230Y-80957133D01*
X167798230Y-80957133D02*
X167764897Y-81023799D01*
X167764897Y-81023799D02*
X167731563Y-81057133D01*
X167731563Y-81057133D02*
X167664897Y-81090466D01*
X167664897Y-81090466D02*
X167498230Y-81090466D01*
X167498230Y-81090466D02*
X167431563Y-81057133D01*
X167431563Y-81057133D02*
X167398230Y-81023799D01*
X167398230Y-81023799D02*
X167364897Y-80957133D01*
X167364897Y-80957133D02*
X167364897Y-80823799D01*
X167364897Y-80823799D02*
X167398230Y-80757133D01*
X167398230Y-80757133D02*
X167431563Y-80723799D01*
X167431563Y-80723799D02*
X167498230Y-80690466D01*
%TO.C,R1*%
X129905000Y-78300000D02*
X129905000Y-78000000D01*
X130705000Y-78300000D02*
X130705000Y-78000000D01*
%TD*%
M02*
