%TF.GenerationSoftware,KiCad,Pcbnew,10.0.4-10.0.4~ubuntu24.04.1*%
%TF.CreationDate,2026-07-22T09:53:31+02:00*%
%TF.ProjectId,dc-scm-server-integration-dc-scm-debug-interposer,64632d73-636d-42d7-9365-727665722d69,1.0.0*%
%TF.SameCoordinates,Original*%
%TF.FileFunction,Paste,Bot*%
%TF.FilePolarity,Positive*%
%FSLAX46Y46*%
G04 Gerber Fmt 4.6, Leading zero omitted, Abs format (unit mm)*
G04 Created by KiCad (PCBNEW 10.0.4-10.0.4~ubuntu24.04.1) date 2026-07-22 09:53:31*
%MOMM*%
%LPD*%
G01*
G04 APERTURE LIST*
G04 Aperture macros list*
%AMRoundRect*
0 Rectangle with rounded corners*
0 $1 Rounding radius*
0 $2 $3 $4 $5 $6 $7 $8 $9 X,Y pos of 4 corners*
0 Add a 4 corners polygon primitive as box body*
4,1,4,$2,$3,$4,$5,$6,$7,$8,$9,$2,$3,0*
0 Add four circle primitives for the rounded corners*
1,1,$1+$1,$2,$3*
1,1,$1+$1,$4,$5*
1,1,$1+$1,$6,$7*
1,1,$1+$1,$8,$9*
0 Add four rect primitives between the rounded corners*
20,1,$1+$1,$2,$3,$4,$5,0*
20,1,$1+$1,$4,$5,$6,$7,0*
20,1,$1+$1,$6,$7,$8,$9,0*
20,1,$1+$1,$8,$9,$2,$3,0*%
G04 Aperture macros list end*
%ADD10RoundRect,0.147500X-0.172500X0.147500X-0.172500X-0.147500X0.172500X-0.147500X0.172500X0.147500X0*%
%ADD11RoundRect,0.147500X0.172500X-0.147500X0.172500X0.147500X-0.172500X0.147500X-0.172500X-0.147500X0*%
%ADD12RoundRect,0.160000X0.340000X-0.240000X0.340000X0.240000X-0.340000X0.240000X-0.340000X-0.240000X0*%
G04 APERTURE END LIST*
D10*
%TO.C,R63*%
X171700000Y-77720000D03*
X171700000Y-78680000D03*
%TD*%
D11*
%TO.C,R24*%
X165100000Y-80680000D03*
X165100000Y-79720000D03*
%TD*%
%TO.C,R2*%
X123800000Y-81080000D03*
X123800000Y-80120000D03*
%TD*%
%TO.C,R27*%
X166900000Y-78680000D03*
X166900000Y-77720000D03*
%TD*%
%TO.C,R3*%
X122630000Y-81080000D03*
X122630000Y-80120000D03*
%TD*%
%TO.C,R13*%
X123218009Y-83093009D03*
X123218009Y-82133009D03*
%TD*%
D10*
%TO.C,R72*%
X167500000Y-79720000D03*
X167500000Y-80680000D03*
%TD*%
D11*
%TO.C,R7*%
X134600000Y-80680000D03*
X134600000Y-79720000D03*
%TD*%
%TO.C,R4*%
X137000000Y-80680000D03*
X137000000Y-79720000D03*
%TD*%
D10*
%TO.C,R67*%
X159900000Y-81720000D03*
X159900000Y-82680000D03*
%TD*%
D11*
%TO.C,R35*%
X169900000Y-80680000D03*
X169900000Y-79720000D03*
%TD*%
D12*
%TO.C,R1*%
X130305000Y-78850000D03*
X130305000Y-77450000D03*
%TD*%
D11*
%TO.C,R36*%
X170500000Y-78680000D03*
X170500000Y-77720000D03*
%TD*%
D10*
%TO.C,R99*%
X125000000Y-80120000D03*
X125000000Y-81080000D03*
%TD*%
D11*
%TO.C,R14*%
X138200000Y-80680000D03*
X138200000Y-79720000D03*
%TD*%
%TO.C,R23*%
X164500000Y-78680000D03*
X164500000Y-77720000D03*
%TD*%
%TO.C,R16*%
X139400000Y-80680000D03*
X139400000Y-79720000D03*
%TD*%
%TO.C,R9*%
X135800000Y-80680000D03*
X135800000Y-79720000D03*
%TD*%
%TO.C,R18*%
X124380000Y-83080000D03*
X124380000Y-82120000D03*
%TD*%
D10*
%TO.C,R65*%
X173500000Y-79720000D03*
X173500000Y-80680000D03*
%TD*%
D11*
%TO.C,R6*%
X134000000Y-78680000D03*
X134000000Y-77720000D03*
%TD*%
%TO.C,R8*%
X135200000Y-78680000D03*
X135200000Y-77720000D03*
%TD*%
%TO.C,R21*%
X163300000Y-78680000D03*
X163300000Y-77720000D03*
%TD*%
D10*
%TO.C,R78*%
X157800000Y-77720000D03*
X157800000Y-78680000D03*
%TD*%
%TO.C,R76*%
X156550000Y-77720000D03*
X156550000Y-78680000D03*
%TD*%
D11*
%TO.C,R20*%
X162700000Y-80680000D03*
X162700000Y-79720000D03*
%TD*%
D10*
%TO.C,R55*%
X122050000Y-82150000D03*
X122050000Y-83110000D03*
%TD*%
%TO.C,R71*%
X168100000Y-77720000D03*
X168100000Y-78680000D03*
%TD*%
D11*
%TO.C,R5*%
X137600000Y-78680000D03*
X137600000Y-77720000D03*
%TD*%
D10*
%TO.C,R70*%
X161650000Y-79720000D03*
X161650000Y-80680000D03*
%TD*%
D11*
%TO.C,R25*%
X165700000Y-78680000D03*
X165700000Y-77720000D03*
%TD*%
D10*
%TO.C,R56*%
X172900000Y-77720000D03*
X172900000Y-78680000D03*
%TD*%
D11*
%TO.C,R34*%
X169300000Y-78680000D03*
X169300000Y-77720000D03*
%TD*%
D10*
%TO.C,R68*%
X160450000Y-79720000D03*
X160450000Y-80680000D03*
%TD*%
D11*
%TO.C,R17*%
X140000000Y-78680000D03*
X140000000Y-77720000D03*
%TD*%
D10*
%TO.C,R66*%
X174100000Y-77720000D03*
X174100000Y-78680000D03*
%TD*%
%TO.C,R77*%
X157200000Y-79720000D03*
X157200000Y-80680000D03*
%TD*%
%TO.C,R69*%
X161050000Y-81720000D03*
X161050000Y-82680000D03*
%TD*%
D11*
%TO.C,R10*%
X136400000Y-78680000D03*
X136400000Y-77720000D03*
%TD*%
D10*
%TO.C,R64*%
X172300000Y-79720000D03*
X172300000Y-80680000D03*
%TD*%
D11*
%TO.C,R37*%
X171100000Y-80680000D03*
X171100000Y-79720000D03*
%TD*%
D10*
%TO.C,R58*%
X174700000Y-79720000D03*
X174700000Y-80680000D03*
%TD*%
D11*
%TO.C,R12*%
X133400000Y-80680000D03*
X133400000Y-79720000D03*
%TD*%
D10*
%TO.C,R75*%
X156000000Y-79720000D03*
X156000000Y-80680000D03*
%TD*%
D11*
%TO.C,R19*%
X125650000Y-83080000D03*
X125650000Y-82120000D03*
%TD*%
%TO.C,R15*%
X138800000Y-78680000D03*
X138800000Y-77720000D03*
%TD*%
%TO.C,R22*%
X163900000Y-80680000D03*
X163900000Y-79720000D03*
%TD*%
%TO.C,R26*%
X166300000Y-80680000D03*
X166300000Y-79720000D03*
%TD*%
M02*
