%TF.GenerationSoftware,KiCad,Pcbnew,10.0.4-10.0.4~ubuntu24.04.1*%
%TF.CreationDate,2026-07-22T09:53:31+02:00*%
%TF.ProjectId,dc-scm-server-integration-dc-scm-debug-interposer,64632d73-636d-42d7-9365-727665722d69,1.0.0*%
%TF.SameCoordinates,Original*%
%TF.FileFunction,Copper,L8,Bot*%
%TF.FilePolarity,Positive*%
%FSLAX46Y46*%
G04 Gerber Fmt 4.6, Leading zero omitted, Abs format (unit mm)*
G04 Created by KiCad (PCBNEW 10.0.4-10.0.4~ubuntu24.04.1) date 2026-07-22 09:53:31*
%MOMM*%
%LPD*%
G01*
G04 APERTURE LIST*
G04 Aperture macros list*
%AMRoundRect*
0 Rectangle with rounded corners*
0 $1 Rounding radius*
0 $2 $3 $4 $5 $6 $7 $8 $9 X,Y pos of 4 corners*
0 Add a 4 corners polygon primitive as box body*
4,1,4,$2,$3,$4,$5,$6,$7,$8,$9,$2,$3,0*
0 Add four circle primitives for the rounded corners*
1,1,$1+$1,$2,$3*
1,1,$1+$1,$4,$5*
1,1,$1+$1,$6,$7*
1,1,$1+$1,$8,$9*
0 Add four rect primitives between the rounded corners*
20,1,$1+$1,$2,$3,$4,$5,0*
20,1,$1+$1,$4,$5,$6,$7,0*
20,1,$1+$1,$6,$7,$8,$9,0*
20,1,$1+$1,$8,$9,$2,$3,0*%
G04 Aperture macros list end*
%TA.AperFunction,SMDPad,CuDef*%
%ADD10R,0.380000X1.720000*%
%TD*%
%TA.AperFunction,SMDPad,CuDef*%
%ADD11R,0.380000X2.120000*%
%TD*%
%TA.AperFunction,ComponentPad*%
%ADD12C,1.500000*%
%TD*%
%TA.AperFunction,ComponentPad*%
%ADD13C,3.400000*%
%TD*%
%TA.AperFunction,SMDPad,CuDef*%
%ADD14RoundRect,0.147500X-0.172500X0.147500X-0.172500X-0.147500X0.172500X-0.147500X0.172500X0.147500X0*%
%TD*%
%TA.AperFunction,SMDPad,CuDef*%
%ADD15RoundRect,0.147500X0.172500X-0.147500X0.172500X0.147500X-0.172500X0.147500X-0.172500X-0.147500X0*%
%TD*%
%TA.AperFunction,SMDPad,CuDef*%
%ADD16C,1.000000*%
%TD*%
%TA.AperFunction,SMDPad,CuDef*%
%ADD17RoundRect,0.160000X0.340000X-0.240000X0.340000X0.240000X-0.340000X0.240000X-0.340000X-0.240000X0*%
%TD*%
%TA.AperFunction,ViaPad*%
%ADD18C,0.550000*%
%TD*%
%TA.AperFunction,Conductor*%
%ADD19C,0.203000*%
%TD*%
%TA.AperFunction,Conductor*%
%ADD20C,0.180000*%
%TD*%
%TA.AperFunction,Conductor*%
%ADD21C,0.155000*%
%TD*%
%TA.AperFunction,Conductor*%
%ADD22C,0.300000*%
%TD*%
%TA.AperFunction,Conductor*%
%ADD23C,0.200000*%
%TD*%
G04 APERTURE END LIST*
D10*
%TO.P,J2,A1,P12V_AUX_A1*%
%TO.N,/DC-SCI edge connector/DC_SCM_12V_AUX*%
X129800000Y-130200000D03*
%TO.P,J2,A2,P12V_AUX_A2*%
X130400000Y-130200000D03*
%TO.P,J2,A3,P12V_AUX_A3*%
X131000000Y-130200000D03*
%TO.P,J2,A4,P12V_AUX_A4*%
X131600000Y-130200000D03*
D11*
%TO.P,J2,A5,GND_A5*%
%TO.N,GND*%
X132200000Y-130400000D03*
%TO.P,J2,A6,GND_A6*%
X132800000Y-130400000D03*
D10*
%TO.P,J2,A7,PRSNT1_HPM_SCM_N_A7*%
%TO.N,/DC-SCI edge connector/DC_SCM_PRSNT1_N*%
X133400000Y-130200000D03*
%TO.P,J2,A8,JTAG_SCMCNTRL_TCK_A8*%
%TO.N,/DC-SCI edge connector/DC_SCM_JTAG.TCK*%
X134000000Y-130200000D03*
%TO.P,J2,A9,JTAG_SCMCNTRL_TDO_A9*%
%TO.N,/DC-SCI edge connector/DC_SCM_JTAG.TDO*%
X134600000Y-130200000D03*
%TO.P,J2,A10,JTAG_SCMCNTRL_TDI_A10*%
%TO.N,/DC-SCI edge connector/DC_SCM_JTAG.TDI*%
X135200000Y-130200000D03*
%TO.P,J2,A11,JTAG_SCMCNTRL_TMS_A11*%
%TO.N,/DC-SCI edge connector/DC_SCM_JTAG.TMS*%
X135800000Y-130200000D03*
%TO.P,J2,A12,JTAG_SCMCNTRL_TRST_N_A12*%
%TO.N,/DC-SCI edge connector/DC_SCM_JTAG.TRST*%
X136400000Y-130200000D03*
%TO.P,J2,A13,SCM_HPM_STBY_RST_N_A13*%
%TO.N,/DC-SCI edge connector/~{DC_SCM_STBY_RST}*%
X137000000Y-130200000D03*
%TO.P,J2,A14,SCM_HPM_STBY_EN_A14*%
%TO.N,/DC-SCI edge connector/DC_SCM_STBY_EN*%
X137600000Y-130200000D03*
%TO.P,J2,A15,I2C_3V3_0_SCL_A15*%
%TO.N,/DC-SCI edge connector/DC_SCM_I2C0.SCL*%
X138200000Y-130200000D03*
%TO.P,J2,A16,I2C_3V3_0_SDA_A16*%
%TO.N,/DC-SCI edge connector/DC_SCM_I2C0.SDA*%
X138800000Y-130200000D03*
%TO.P,J2,A17,I2C_3V3_1_SCL_A17*%
%TO.N,/DC-SCI edge connector/DC_SCM_I2C1.SCL*%
X139400000Y-130200000D03*
%TO.P,J2,A18,I2C_3V3_1_SDA_A18*%
%TO.N,/DC-SCI edge connector/DC_SCM_I2C1.SDA*%
X140000000Y-130200000D03*
D11*
%TO.P,J2,A19,GND_A19*%
%TO.N,GND*%
X140600000Y-130400000D03*
D10*
%TO.P,J2,A20,LTPI_SCM_HPM_DATA_DN_A20*%
%TO.N,/DC-SCI edge connector/DC_SCM_LTPI.TXD-*%
X141200000Y-130200000D03*
%TO.P,J2,A21,LTPI_SCM_HPM_DATA_DP_A21*%
%TO.N,/DC-SCI edge connector/DC_SCM_LTPI.TXD+*%
X141800000Y-130200000D03*
D11*
%TO.P,J2,A22,GND_A22*%
%TO.N,GND*%
X142400000Y-130400000D03*
D10*
%TO.P,J2,A23,LTPI_SCM_HPM_CLK_DN_A23*%
%TO.N,/DC-SCI edge connector/DC_SCM_LTPI.TXCK-*%
X143000000Y-130200000D03*
%TO.P,J2,A24,LTPI_SCM_HPM_CLK_DP_A24*%
%TO.N,/DC-SCI edge connector/DC_SCM_LTPI.TXCK+*%
X143600000Y-130200000D03*
D11*
%TO.P,J2,A25,GND_A25*%
%TO.N,GND*%
X144200000Y-130400000D03*
D10*
%TO.P,J2,A26,I2C_3V3_2_SCL_A26*%
%TO.N,/DC-SCI edge connector/DC_SCM_I2C2.SCL*%
X144800000Y-130200000D03*
%TO.P,J2,A27,I2C_3V3_2_SDA_A27*%
%TO.N,/DC-SCI edge connector/DC_SCM_I2C2.SDA*%
X145400000Y-130200000D03*
%TO.P,J2,A28,PCIE_HPM_SCM_PERST_N_A28*%
%TO.N,/DC-SCI edge connector/~{PCIE_HPM_SCM_PERST}*%
X146000000Y-130200000D03*
D11*
%TO.P,J2,A29,GND_A29*%
%TO.N,GND*%
X150000000Y-130400000D03*
D10*
%TO.P,J2,A30,PCIE_HPMROOT_SCM_HPM_4_DN_A30*%
%TO.N,/DC-SCI edge connector/DC-SCM_PCIE1.RX0-*%
X150600000Y-130200000D03*
%TO.P,J2,A31,PCIE_HPMROOT_SCM_HPM_4_DP_A31*%
%TO.N,/DC-SCI edge connector/DC-SCM_PCIE1.RX0+*%
X151200000Y-130200000D03*
D11*
%TO.P,J2,A32,GND_A32*%
%TO.N,GND*%
X151800000Y-130400000D03*
D10*
%TO.P,J2,A33,PCIE_SCMROOT_SCM_HPM_DN_A33*%
%TO.N,/DC-SCI edge connector/DC-SCM_PCIE_USB_SCMROOT.RX0-*%
X152400000Y-130200000D03*
%TO.P,J2,A34,PCIE_SCMROOT_SCM_HPM_DP_A34*%
%TO.N,/DC-SCI edge connector/DC-SCM_PCIE_USB_SCMROOT.RX0+*%
X153000000Y-130200000D03*
D11*
%TO.P,J2,A35,GND_A35*%
%TO.N,GND*%
X153600000Y-130400000D03*
D10*
%TO.P,J2,A36,PCIE_HPM_SCM_CLK_100M_0_DN_A36*%
%TO.N,/DC-SCI edge connector/DC-SCM_CLK_100M_0.CLK-*%
X154200000Y-130200000D03*
%TO.P,J2,A37,PCIE_HPM_SCM_CLK_100M_0_DP_A37*%
%TO.N,/DC-SCI edge connector/DC-SCM_CLK_100M_0.CLK+*%
X154800000Y-130200000D03*
D11*
%TO.P,J2,A38,GND_A38*%
%TO.N,GND*%
X155400000Y-130400000D03*
D10*
%TO.P,J2,A39,I2C_I3C_1V0_18_SCL_A39*%
%TO.N,/DC-SCI edge connector/DC_SCM_I2C_I3C18.SCL*%
X156000000Y-130200000D03*
%TO.P,J2,A40,I2C_I3C_1V0_18_SDA_A40*%
%TO.N,/DC-SCI edge connector/DC_SCM_I2C_I3C18.SDA*%
X156600000Y-130200000D03*
%TO.P,J2,A41,I2C_I3C_1V0_19_SCL_A41*%
%TO.N,/DC-SCI edge connector/DC_SCM_I2C_I3C19.SCL*%
X157200000Y-130200000D03*
%TO.P,J2,A42,I2C_I3C_1V0_19_SDA_A42*%
%TO.N,/DC-SCI edge connector/DC_SCM_I2C_I3C19.SDA*%
X157800000Y-130200000D03*
%TO.P,J2,A43,I2C_3V3_3_SCL_A43*%
%TO.N,/DC-SCI edge connector/DC_SCM_I2C3.SCL*%
X162700000Y-130200000D03*
%TO.P,J2,A44,I2C_3V3_3_SDA_A44*%
%TO.N,/DC-SCI edge connector/DC_SCM_I2C3.SDA*%
X163300000Y-130200000D03*
%TO.P,J2,A45,I2C_3V3_4_SCL_A45*%
%TO.N,/DC-SCI edge connector/DC_SCM_I2C4.SCL*%
X163900000Y-130200000D03*
%TO.P,J2,A46,I2C_3V3_4_SDA_A46*%
%TO.N,/DC-SCI edge connector/DC_SCM_I2C4.SDA*%
X164500000Y-130200000D03*
%TO.P,J2,A47,I2C_3V3_5_SCL_A47*%
%TO.N,/DC-SCI edge connector/DC_SCM_I2C5.SCL*%
X165100000Y-130200000D03*
%TO.P,J2,A48,I2C_3V3_5_SDA_A48*%
%TO.N,/DC-SCI edge connector/DC_SCM_I2C5.SDA*%
X165700000Y-130200000D03*
%TO.P,J2,A49,I2C_3V3_6_SCL_A49*%
%TO.N,/DC-SCI edge connector/DC_SCM_I2C6.SCL*%
X166300000Y-130200000D03*
%TO.P,J2,A50,I2C_3V3_6_SDA_A50*%
%TO.N,/DC-SCI edge connector/DC_SCM_I2C6.SDA*%
X166900000Y-130200000D03*
%TO.P,J2,A51,I2C_I3C_1V8_16_SCL_A51*%
%TO.N,/DC-SCI edge connector/DC_SCM_I2C_I3C16.SDA*%
X167500000Y-130200000D03*
%TO.P,J2,A52,I2C_I3C_1V8_16_SDA_A52*%
%TO.N,/DC-SCI edge connector/DC_SCM_I2C_I3C16.SCL*%
X168100000Y-130200000D03*
D11*
%TO.P,J2,A53,GND_A53*%
%TO.N,GND*%
X168700000Y-130400000D03*
D10*
%TO.P,J2,A54,SPI_HPMCNTRL_TPM_CLK_A54*%
%TO.N,/DC-SCI edge connector/DC_SCM_TPM_SPI.SCK*%
X169300000Y-130200000D03*
%TO.P,J2,A55,SPI_HPMCNTRL_TPM_CS_N_A55*%
%TO.N,/DC-SCI edge connector/DC_SCM_TPM_SPI.~{CS0}*%
X169900000Y-130200000D03*
%TO.P,J2,A56,SPI_HPMCNTRL_TPM_DI_IO0_A56*%
%TO.N,/DC-SCI edge connector/DC_SCM_TPM_SPI.DI*%
X170500000Y-130200000D03*
%TO.P,J2,A57,SPI_HPMCNTRL_TPM_DO_IO1_A57*%
%TO.N,/DC-SCI edge connector/DC_SCM_TPM_SPI.DO*%
X171100000Y-130200000D03*
%TO.P,J2,A58,I2C_I3C_1V8_12_SCL_A58*%
%TO.N,/DC-SCI edge connector/DC_SCM_I2C_I3C12.SCL*%
X171700000Y-130200000D03*
%TO.P,J2,A59,I2C_I3C_1V8_12_SDA_A59*%
%TO.N,/DC-SCI edge connector/DC_SCM_I2C_I3C12.SDA*%
X172300000Y-130200000D03*
%TO.P,J2,A60,GPIO_A60*%
%TO.N,/DC-SCI edge connector/~{DC_SCM_SPI_SCMCNTRL_IRQ0}*%
X172900000Y-130200000D03*
%TO.P,J2,A61,I2C_I3C_1V8_13_SCL_A61*%
%TO.N,/DC-SCI edge connector/DC_SCM_I2C_I3C13.SCL*%
X173500000Y-130200000D03*
%TO.P,J2,A62,I2C_I3C_1V8_13_SDA_A62*%
%TO.N,/DC-SCI edge connector/DC_SCM_I2C_I3C13.SDA*%
X174100000Y-130200000D03*
%TO.P,J2,A63,UART0_HPM_SCM_DATA_A63*%
%TO.N,/DC-SCI edge connector/DC_SCM_UART.TX*%
X174700000Y-130200000D03*
D11*
%TO.P,J2,A64,GND_A64*%
%TO.N,GND*%
X175300000Y-130400000D03*
D10*
%TO.P,J2,A65,PCIE_HPMROOT_SCM_HPM_5_DN_A65*%
%TO.N,/DC-SCI edge connector/PCIE_LOCAL_USB_TX0-*%
X175900000Y-130200000D03*
%TO.P,J2,A66,PCIE_HPMROOT_SCM_HPM_5_DP_A66*%
%TO.N,/DC-SCI edge connector/PCIE_LOCAL_USB_TX0+*%
X176500000Y-130200000D03*
D11*
%TO.P,J2,A67,GND_A67*%
%TO.N,GND*%
X177100000Y-130400000D03*
D10*
%TO.P,J2,A68,PCIE_HPM_SCM_CLK_100M_1_S0_DN_A68*%
%TO.N,/DC-SCI edge connector/DC-SCM_CLK_100M_1.CLK-*%
X177700000Y-130200000D03*
%TO.P,J2,A69,PCIE_HPM_SCM_CLK_100M_1_S0_DP_A69*%
%TO.N,/DC-SCI edge connector/DC-SCM_CLK_100M_1.CLK+*%
X178300000Y-130200000D03*
D11*
%TO.P,J2,A70,GND_A70*%
%TO.N,GND*%
X178900000Y-130400000D03*
%TO.P,J2,OA1,GND_OA1*%
X117600000Y-130400000D03*
D10*
%TO.P,J2,OA2,PCIE_HPMROOT_SCM_HPM_0_DN_OA2*%
%TO.N,/DC-SCI edge connector/DC-SCM_PCIE0_SGMII.RX0-*%
X118200000Y-130200000D03*
%TO.P,J2,OA3,PCIE_HPMROOT_SCM_HPM_0_DP_OA3*%
%TO.N,/DC-SCI edge connector/DC-SCM_PCIE0_SGMII.RX0+*%
X118800000Y-130200000D03*
D11*
%TO.P,J2,OA4,GND_OA4*%
%TO.N,GND*%
X119400000Y-130400000D03*
D10*
%TO.P,J2,OA5,PCIE_HPMROOT_SCM_HPM_1_DN_OA5*%
%TO.N,/DC-SCI edge connector/DC-SCM_PCIE0_SGMII.RX1-*%
X120000000Y-130200000D03*
%TO.P,J2,OA6,PCIE_HPMROOT_SCM_HPM_1_DP_OA6*%
%TO.N,/DC-SCI edge connector/DC-SCM_PCIE0_SGMII.RX1+*%
X120600000Y-130200000D03*
D11*
%TO.P,J2,OA7,GND_OA7*%
%TO.N,GND*%
X121200000Y-130400000D03*
D10*
%TO.P,J2,OA8,PCIE_HPMROOT_SCM_HPM_2_DN_OA8*%
%TO.N,/DC-SCI edge connector/DC-SCM_PCIE0_SGMII.RX2-*%
X121800000Y-130200000D03*
%TO.P,J2,OA9,PCIE_HPMROOT_SCM_HPM_2_DP_OA9*%
%TO.N,/DC-SCI edge connector/DC-SCM_PCIE0_SGMII.RX2+*%
X122400000Y-130200000D03*
D11*
%TO.P,J2,OA10,GND_OA10*%
%TO.N,GND*%
X123000000Y-130400000D03*
D10*
%TO.P,J2,OA11,PCIE_HPMROOT_SCM_HPM_3_DN_OA11*%
%TO.N,/DC-SCI edge connector/DC-SCM_PCIE0_SGMII.RX3-*%
X123600000Y-130200000D03*
%TO.P,J2,OA12,PCIE_HPMROOT_SCM_HPM_3_DP_OA12*%
%TO.N,/DC-SCI edge connector/DC-SCM_PCIE0_SGMII.RX3+*%
X124200000Y-130200000D03*
D11*
%TO.P,J2,OA13,GND_OA13*%
%TO.N,GND*%
X124800000Y-130400000D03*
D10*
%TO.P,J2,OA14,PECI_HPM_SCM_OA14*%
%TO.N,/DC-SCI edge connector/DC_SCM_PECI*%
X125400000Y-130200000D03*
%TD*%
D12*
%TO.P,J8,1,VBUS_1*%
%TO.N,/PCIe to USB/USBA1_VBUS*%
X186800000Y-83150000D03*
%TO.P,J8,2,D-_2*%
%TO.N,/PCIe to USB/LOCAL_USB1.D-*%
X186800000Y-85650000D03*
%TO.P,J8,3,D+_3*%
%TO.N,/PCIe to USB/LOCAL_USB1.D+*%
X186800000Y-87650000D03*
%TO.P,J8,4,GND_4*%
%TO.N,GND*%
X186800000Y-90150000D03*
D13*
%TO.P,J8,SH,SH_SH*%
X184090000Y-79410000D03*
X184090000Y-93890000D03*
%TD*%
D10*
%TO.P,J1,A1,P12V_AUX_A1*%
%TO.N,/DC-SCI gold fingers connector/12V_AUX*%
X129795000Y-72300000D03*
%TO.P,J1,A2,P12V_AUX_A2*%
X130400000Y-72300000D03*
%TO.P,J1,A3,P12V_AUX_A3*%
X131000000Y-72300000D03*
%TO.P,J1,A4,P12V_AUX_A4*%
X131600000Y-72300000D03*
%TO.P,J1,A5,GND_A5*%
%TO.N,GND*%
X132200000Y-72300000D03*
%TO.P,J1,A6,GND_A6*%
X132800000Y-72300000D03*
%TO.P,J1,A7,PRSNT1_HPM_SCM_N_A7*%
%TO.N,Net-(J1A-PRSNT1_HPM_SCM_N)*%
X133400000Y-72300000D03*
%TO.P,J1,A8,JTAG_SCMCNTRL_TCK_A8*%
%TO.N,Net-(J1A-JTAG_SCMCNTRL_TCK)*%
X134000000Y-72300000D03*
%TO.P,J1,A9,JTAG_SCMCNTRL_TDO_A9*%
%TO.N,Net-(J1A-JTAG_SCMCNTRL_TDO)*%
X134600000Y-72300000D03*
%TO.P,J1,A10,JTAG_SCMCNTRL_TDI_A10*%
%TO.N,Net-(J1A-JTAG_SCMCNTRL_TDI)*%
X135200000Y-72300000D03*
%TO.P,J1,A11,JTAG_SCMCNTRL_TMS_A11*%
%TO.N,Net-(J1A-JTAG_SCMCNTRL_TMS)*%
X135800000Y-72300000D03*
%TO.P,J1,A12,JTAG_SCMCNTRL_TRST_N_A12*%
%TO.N,Net-(J1A-JTAG_SCMCNTRL_TRST_N)*%
X136400000Y-72300000D03*
%TO.P,J1,A13,SCM_HPM_STBY_RST_N_A13*%
%TO.N,Net-(J1A-SCM_HPM_STBY_RST_N)*%
X137000000Y-72300000D03*
%TO.P,J1,A14,SCM_HPM_STBY_EN_A14*%
%TO.N,Net-(J1A-SCM_HPM_STBY_EN)*%
X137600000Y-72300000D03*
%TO.P,J1,A15,I2C_3V3_0_SCL_A15*%
%TO.N,Net-(J1B-I2C_3V3_0_SCL)*%
X138200000Y-72300000D03*
%TO.P,J1,A16,I2C_3V3_0_SDA_A16*%
%TO.N,Net-(J1B-I2C_3V3_0_SDA)*%
X138800000Y-72300000D03*
%TO.P,J1,A17,I2C_3V3_1_SCL_A17*%
%TO.N,Net-(J1B-I2C_3V3_1_SCL)*%
X139400000Y-72300000D03*
%TO.P,J1,A18,I2C_3V3_1_SDA_A18*%
%TO.N,Net-(J1B-I2C_3V3_1_SDA)*%
X140000000Y-72300000D03*
%TO.P,J1,A19,GND_A19*%
%TO.N,GND*%
X140600000Y-72300000D03*
%TO.P,J1,A20,LTPI_SCM_HPM_DATA_DN_A20*%
%TO.N,/DC-SCI gold fingers connector/LTPI_TXD-*%
X141200000Y-72300000D03*
%TO.P,J1,A21,LTPI_SCM_HPM_DATA_DP_A21*%
%TO.N,/DC-SCI gold fingers connector/LTPI_TXD+*%
X141800000Y-72300000D03*
%TO.P,J1,A22,GND_A22*%
%TO.N,GND*%
X142400000Y-72300000D03*
%TO.P,J1,A23,LTPI_SCM_HPM_CLK_DN_A23*%
%TO.N,/DC-SCI gold fingers connector/LTPI_TXCK-*%
X143000000Y-72300000D03*
%TO.P,J1,A24,LTPI_SCM_HPM_CLK_DP_A24*%
%TO.N,/DC-SCI gold fingers connector/LTPI_TXCK+*%
X143600000Y-72300000D03*
%TO.P,J1,A25,GND_A25*%
%TO.N,GND*%
X144200000Y-72300000D03*
%TO.P,J1,A26,I2C_3V3_2_SCL_A26*%
%TO.N,Net-(J1B-I2C_3V3_2_SCL)*%
X144800000Y-72300000D03*
%TO.P,J1,A27,I2C_3V3_2_SDA_A27*%
%TO.N,Net-(J1B-I2C_3V3_2_SDA)*%
X145400000Y-72300000D03*
%TO.P,J1,A28,PCIE_HPM_SCM_PERST_N_A28*%
%TO.N,Net-(J1D-PCIE_HPM_SCM_PERST_N)*%
X146000000Y-72300000D03*
%TO.P,J1,A29,GND_A29*%
%TO.N,GND*%
X150010000Y-72300000D03*
%TO.P,J1,A30,PCIE_HPMROOT_SCM_HPM_4_DN_A30*%
%TO.N,/DC-SCI gold fingers connector/PCIE1_RX0-*%
X150600000Y-72300000D03*
%TO.P,J1,A31,PCIE_HPMROOT_SCM_HPM_4_DP_A31*%
%TO.N,/DC-SCI gold fingers connector/PCIE1_RX0+*%
X151200000Y-72300000D03*
%TO.P,J1,A32,GND_A32*%
%TO.N,GND*%
X151800000Y-72300000D03*
%TO.P,J1,A33,PCIE_SCMROOT_SCM_HPM_DN_A33*%
%TO.N,/DC-SCI gold fingers connector/PCIE_USB_SCMROOT_RX0-*%
X152400000Y-72300000D03*
%TO.P,J1,A34,PCIE_SCMROOT_SCM_HPM_DP_A34*%
%TO.N,/DC-SCI gold fingers connector/PCIE_USB_SCMROOT_RX0+*%
X153000000Y-72300000D03*
%TO.P,J1,A35,GND_A35*%
%TO.N,GND*%
X153600000Y-72300000D03*
%TO.P,J1,A36,PCIE_HPM_SCM_CLK_100M_0_DN_A36*%
%TO.N,/DC-SCI gold fingers connector/CLK_100M_0_CLK-*%
X154200000Y-72300000D03*
%TO.P,J1,A37,PCIE_HPM_SCM_CLK_100M_0_DP_A37*%
%TO.N,/DC-SCI gold fingers connector/CLK_100M_0_CLK+*%
X154800000Y-72300000D03*
%TO.P,J1,A38,GND_A38*%
%TO.N,GND*%
X155400000Y-72300000D03*
%TO.P,J1,A39,I2C_I3C_1V0_18_SCL_A39*%
%TO.N,Net-(J1B-I2C_I3C_1V0_18_SCL)*%
X156000000Y-72300000D03*
%TO.P,J1,A40,I2C_I3C_1V0_18_SDA_A40*%
%TO.N,Net-(J1B-I2C_I3C_1V0_18_SDA)*%
X156600000Y-72300000D03*
%TO.P,J1,A41,I2C_I3C_1V0_19_SCL_A41*%
%TO.N,Net-(J1B-I2C_I3C_1V0_19_SCL)*%
X157200000Y-72300000D03*
%TO.P,J1,A42,I2C_I3C_1V0_19_SDA_A42*%
%TO.N,Net-(J1B-I2C_I3C_1V0_19_SDA)*%
X157800000Y-72300000D03*
%TO.P,J1,A43,I2C_3V3_3_SCL_A43*%
%TO.N,Net-(J1B-I2C_3V3_3_SCL)*%
X162715000Y-72300000D03*
%TO.P,J1,A44,I2C_3V3_3_SDA_A44*%
%TO.N,Net-(J1B-I2C_3V3_3_SDA)*%
X163300000Y-72300000D03*
%TO.P,J1,A45,I2C_3V3_4_SCL_A45*%
%TO.N,Net-(J1B-I2C_3V3_4_SCL)*%
X163900000Y-72300000D03*
%TO.P,J1,A46,I2C_3V3_4_SDA_A46*%
%TO.N,Net-(J1B-I2C_3V3_4_SDA)*%
X164500000Y-72300000D03*
%TO.P,J1,A47,I2C_3V3_5_SCL_A47*%
%TO.N,Net-(J1B-I2C_3V3_5_SCL)*%
X165100000Y-72300000D03*
%TO.P,J1,A48,I2C_3V3_5_SDA_A48*%
%TO.N,Net-(J1B-I2C_3V3_5_SDA)*%
X165700000Y-72300000D03*
%TO.P,J1,A49,I2C_3V3_6_SCL_A49*%
%TO.N,Net-(J1B-I2C_3V3_6_SCL)*%
X166300000Y-72300000D03*
%TO.P,J1,A50,I2C_3V3_6_SDA_A50*%
%TO.N,Net-(J1B-I2C_3V3_6_SDA)*%
X166900000Y-72300000D03*
%TO.P,J1,A51,I2C_I3C_1V8_16_SCL_A51*%
%TO.N,Net-(J1B-I2C_I3C_1V8_16_SCL)*%
X167500000Y-72300000D03*
%TO.P,J1,A52,I2C_I3C_1V8_16_SDA_A52*%
%TO.N,Net-(J1B-I2C_I3C_1V8_16_SDA)*%
X168100000Y-72300000D03*
%TO.P,J1,A53,GND_A53*%
%TO.N,GND*%
X168700000Y-72300000D03*
%TO.P,J1,A54,SPI_HPMCNTRL_TPM_CLK_A54*%
%TO.N,Net-(J1B-SPI_HPMCNTRL_TPM_CLK)*%
X169300000Y-72300000D03*
%TO.P,J1,A55,SPI_HPMCNTRL_TPM_CS_N_A55*%
%TO.N,Net-(J1B-SPI_HPMCNTRL_TPM_CS_N)*%
X169900000Y-72300000D03*
%TO.P,J1,A56,SPI_HPMCNTRL_TPM_DI_IO0_A56*%
%TO.N,Net-(J1B-SPI_HPMCNTRL_TPM_DI_IO0)*%
X170500000Y-72300000D03*
%TO.P,J1,A57,SPI_HPMCNTRL_TPM_DO_IO1_A57*%
%TO.N,Net-(J1B-SPI_HPMCNTRL_TPM_DO_IO1)*%
X171100000Y-72300000D03*
%TO.P,J1,A58,I2C_I3C_1V8_12_SCL_A58*%
%TO.N,Net-(J1B-I2C_I3C_1V8_12_SCL)*%
X171700000Y-72300000D03*
%TO.P,J1,A59,I2C_I3C_1V8_12_SDA_A59*%
%TO.N,Net-(J1B-I2C_I3C_1V8_12_SDA)*%
X172300000Y-72300000D03*
%TO.P,J1,A60,GPIO_A60*%
%TO.N,Net-(J1A-GPIO)*%
X172900000Y-72300000D03*
%TO.P,J1,A61,I2C_I3C_1V8_13_SCL_A61*%
%TO.N,Net-(J1B-I2C_I3C_1V8_13_SCL)*%
X173500000Y-72300000D03*
%TO.P,J1,A62,I2C_I3C_1V8_13_SDA_A62*%
%TO.N,Net-(J1B-I2C_I3C_1V8_13_SDA)*%
X174100000Y-72300000D03*
%TO.P,J1,A63,UART0_HPM_SCM_DATA_A63*%
%TO.N,Net-(J1A-UART0_HPM_SCM_DATA)*%
X174700000Y-72300000D03*
%TO.P,J1,A64,GND_A64*%
%TO.N,GND*%
X175300000Y-72300000D03*
%TO.P,J1,A65,PCIE_HPMROOT_SCM_HPM_5_DN_A65*%
%TO.N,unconnected-(J1D-PCIE_HPMROOT_SCM_HPM_5_DN-PadA65)*%
X175900000Y-72300000D03*
%TO.P,J1,A66,PCIE_HPMROOT_SCM_HPM_5_DP_A66*%
%TO.N,unconnected-(J1D-PCIE_HPMROOT_SCM_HPM_5_DP-PadA66)*%
X176500000Y-72300000D03*
%TO.P,J1,A67,GND_A67*%
%TO.N,GND*%
X177100000Y-72300000D03*
%TO.P,J1,A68,PCIE_HPM_SCM_CLK_100M_1_S0_DN_A68*%
%TO.N,/DC-SCI gold fingers connector/CLK_100M_1_CLK-*%
X177700000Y-72300000D03*
%TO.P,J1,A69,PCIE_HPM_SCM_CLK_100M_1_S0_DP_A69*%
%TO.N,/DC-SCI gold fingers connector/CLK_100M_1_CLK+*%
X178300000Y-72300000D03*
%TO.P,J1,A70,GND_A70*%
%TO.N,GND*%
X178900000Y-72300000D03*
%TO.P,J1,OA1,GND_OA1*%
X117600000Y-72300000D03*
%TO.P,J1,OA2,PCIE_HPMROOT_SCM_HPM_0_DN_OA2*%
%TO.N,/DC-SCI gold fingers connector/PCIE0_SGMII_RX0-*%
X118200000Y-72300000D03*
%TO.P,J1,OA3,PCIE_HPMROOT_SCM_HPM_0_DP_OA3*%
%TO.N,/DC-SCI gold fingers connector/PCIE0_SGMII_RX0+*%
X118800000Y-72300000D03*
%TO.P,J1,OA4,GND_OA4*%
%TO.N,GND*%
X119400000Y-72300000D03*
%TO.P,J1,OA5,PCIE_HPMROOT_SCM_HPM_1_DN_OA5*%
%TO.N,/DC-SCI gold fingers connector/PCIE0_SGMII_RX1-*%
X120000000Y-72300000D03*
%TO.P,J1,OA6,PCIE_HPMROOT_SCM_HPM_1_DP_OA6*%
%TO.N,/DC-SCI gold fingers connector/PCIE0_SGMII_RX1+*%
X120600000Y-72300000D03*
%TO.P,J1,OA7,GND_OA7*%
%TO.N,GND*%
X121200000Y-72300000D03*
%TO.P,J1,OA8,PCIE_HPMROOT_SCM_HPM_2_DN_OA8*%
%TO.N,/DC-SCI gold fingers connector/PCIE0_SGMII_RX2-*%
X121800000Y-72300000D03*
%TO.P,J1,OA9,PCIE_HPMROOT_SCM_HPM_2_DP_OA9*%
%TO.N,/DC-SCI gold fingers connector/PCIE0_SGMII_RX2+*%
X122400000Y-72300000D03*
%TO.P,J1,OA10,GND_OA10*%
%TO.N,GND*%
X123000000Y-72300000D03*
%TO.P,J1,OA11,PCIE_HPMROOT_SCM_HPM_3_DN_OA11*%
%TO.N,/DC-SCI gold fingers connector/PCIE0_SGMII_RX3-*%
X123600000Y-72300000D03*
%TO.P,J1,OA12,PCIE_HPMROOT_SCM_HPM_3_DP_OA12*%
%TO.N,/DC-SCI gold fingers connector/PCIE0_SGMII_RX3+*%
X124200000Y-72300000D03*
%TO.P,J1,OA13,GND_OA13*%
%TO.N,GND*%
X124800000Y-72300000D03*
%TO.P,J1,OA14,PECI_HPM_SCM_OA14*%
%TO.N,Net-(J1A-PECI_HPM_SCM)*%
X125400000Y-72300000D03*
%TD*%
D12*
%TO.P,J14,1,VBUS_1*%
%TO.N,/PCIe to USB/USBA2_VBUS*%
X186800000Y-101900000D03*
%TO.P,J14,2,D-_2*%
%TO.N,/PCIe to USB/LOCAL_USB2.D-*%
X186800000Y-104400000D03*
%TO.P,J14,3,D+_3*%
%TO.N,/PCIe to USB/LOCAL_USB2.D+*%
X186800000Y-106400000D03*
%TO.P,J14,4,GND_4*%
%TO.N,GND*%
X186800000Y-108900000D03*
D13*
%TO.P,J14,SH,SH_SH*%
X184090000Y-98160000D03*
X184090000Y-112640000D03*
%TD*%
D14*
%TO.P,R63,1*%
%TO.N,Net-(J1B-I2C_I3C_1V8_12_SCL)*%
X171700000Y-77720000D03*
%TO.P,R63,2*%
%TO.N,/DC-SCI edge connector/DC_SCM_I2C_I3C12.SCL*%
X171700000Y-78680000D03*
%TD*%
D15*
%TO.P,R24,1*%
%TO.N,/DC-SCI edge connector/DC_SCM_I2C5.SCL*%
X165100000Y-80680000D03*
%TO.P,R24,2*%
%TO.N,Net-(J1B-I2C_3V3_5_SCL)*%
X165100000Y-79720000D03*
%TD*%
%TO.P,R2,1*%
%TO.N,/DC-SCI edge connector/DC_SCM_P3V0*%
X123800000Y-81080000D03*
%TO.P,R2,2*%
%TO.N,Net-(J1A-P3V0_HPM_SCM_BAT)*%
X123800000Y-80120000D03*
%TD*%
%TO.P,R27,1*%
%TO.N,/DC-SCI edge connector/DC_SCM_I2C6.SDA*%
X166900000Y-78680000D03*
%TO.P,R27,2*%
%TO.N,Net-(J1B-I2C_3V3_6_SDA)*%
X166900000Y-77720000D03*
%TD*%
%TO.P,R3,1*%
%TO.N,/DC-SCI edge connector/DC_SCM_STBY_RDY*%
X122630000Y-81080000D03*
%TO.P,R3,2*%
%TO.N,Net-(J1A-HPM_SCM_STBY_RDY)*%
X122630000Y-80120000D03*
%TD*%
D16*
%TO.P,FD7,*%
%TO.N,*%
X187500000Y-126400000D03*
%TD*%
%TO.P,FD8,*%
%TO.N,*%
X102500000Y-126400000D03*
%TD*%
D15*
%TO.P,R13,1*%
%TO.N,/DC-SCI edge connector/~{DC_SCM_INTRUSION}*%
X123218009Y-83093009D03*
%TO.P,R13,2*%
%TO.N,Net-(J1A-HPM_SCM_INTRUSION_N)*%
X123218009Y-82133009D03*
%TD*%
D14*
%TO.P,R72,1*%
%TO.N,Net-(J1B-I2C_I3C_1V8_16_SCL)*%
X167500000Y-79720000D03*
%TO.P,R72,2*%
%TO.N,/DC-SCI edge connector/DC_SCM_I2C_I3C16.SDA*%
X167500000Y-80680000D03*
%TD*%
D15*
%TO.P,R7,1*%
%TO.N,/DC-SCI edge connector/DC_SCM_JTAG.TDO*%
X134600000Y-80680000D03*
%TO.P,R7,2*%
%TO.N,Net-(J1A-JTAG_SCMCNTRL_TDO)*%
X134600000Y-79720000D03*
%TD*%
%TO.P,R4,1*%
%TO.N,/DC-SCI edge connector/~{DC_SCM_STBY_RST}*%
X137000000Y-80680000D03*
%TO.P,R4,2*%
%TO.N,Net-(J1A-SCM_HPM_STBY_RST_N)*%
X137000000Y-79720000D03*
%TD*%
D14*
%TO.P,R67,1*%
%TO.N,Net-(J1B-I2C_I3C_1V8_14_SCL)*%
X159900000Y-81720000D03*
%TO.P,R67,2*%
%TO.N,/DC-SCI edge connector/DC_SCM_I2C_I3C14.SCL*%
X159900000Y-82680000D03*
%TD*%
D15*
%TO.P,R35,1*%
%TO.N,/DC-SCI edge connector/DC_SCM_TPM_SPI.~{CS0}*%
X169900000Y-80680000D03*
%TO.P,R35,2*%
%TO.N,Net-(J1B-SPI_HPMCNTRL_TPM_CS_N)*%
X169900000Y-79720000D03*
%TD*%
D17*
%TO.P,R1,1*%
%TO.N,/DC-SCI edge connector/DC_SCM_12V_AUX*%
X130305000Y-78850000D03*
%TO.P,R1,2*%
%TO.N,/DC-SCI gold fingers connector/12V_AUX*%
X130305000Y-77450000D03*
%TD*%
D15*
%TO.P,R36,1*%
%TO.N,/DC-SCI edge connector/DC_SCM_TPM_SPI.DI*%
X170500000Y-78680000D03*
%TO.P,R36,2*%
%TO.N,Net-(J1B-SPI_HPMCNTRL_TPM_DI_IO0)*%
X170500000Y-77720000D03*
%TD*%
D14*
%TO.P,R99,1*%
%TO.N,Net-(J1D-PCIE_HPM_SCM_PERST_N)*%
X125000000Y-80120000D03*
%TO.P,R99,2*%
%TO.N,/DC-SCI edge connector/~{PCIE_HPM_SCM_PERST}*%
X125000000Y-81080000D03*
%TD*%
D16*
%TO.P,FD6,*%
%TO.N,*%
X187500000Y-74500000D03*
%TD*%
D15*
%TO.P,R14,1*%
%TO.N,/DC-SCI edge connector/DC_SCM_I2C0.SCL*%
X138200000Y-80680000D03*
%TO.P,R14,2*%
%TO.N,Net-(J1B-I2C_3V3_0_SCL)*%
X138200000Y-79720000D03*
%TD*%
%TO.P,R23,1*%
%TO.N,/DC-SCI edge connector/DC_SCM_I2C4.SDA*%
X164500000Y-78680000D03*
%TO.P,R23,2*%
%TO.N,Net-(J1B-I2C_3V3_4_SDA)*%
X164500000Y-77720000D03*
%TD*%
%TO.P,R16,1*%
%TO.N,/DC-SCI edge connector/DC_SCM_I2C1.SCL*%
X139400000Y-80680000D03*
%TO.P,R16,2*%
%TO.N,Net-(J1B-I2C_3V3_1_SCL)*%
X139400000Y-79720000D03*
%TD*%
D16*
%TO.P,FD5,*%
%TO.N,*%
X102500000Y-74500000D03*
%TD*%
D15*
%TO.P,R9,1*%
%TO.N,/DC-SCI edge connector/DC_SCM_JTAG.TMS*%
X135800000Y-80680000D03*
%TO.P,R9,2*%
%TO.N,Net-(J1A-JTAG_SCMCNTRL_TMS)*%
X135800000Y-79720000D03*
%TD*%
%TO.P,R18,1*%
%TO.N,/DC-SCI edge connector/DC_SCM_I2C2.SCL*%
X124380000Y-83080000D03*
%TO.P,R18,2*%
%TO.N,Net-(J1B-I2C_3V3_2_SCL)*%
X124380000Y-82120000D03*
%TD*%
D14*
%TO.P,R65,1*%
%TO.N,Net-(J1B-I2C_I3C_1V8_13_SCL)*%
X173500000Y-79720000D03*
%TO.P,R65,2*%
%TO.N,/DC-SCI edge connector/DC_SCM_I2C_I3C13.SCL*%
X173500000Y-80680000D03*
%TD*%
D15*
%TO.P,R6,1*%
%TO.N,/DC-SCI edge connector/DC_SCM_JTAG.TCK*%
X134000000Y-78680000D03*
%TO.P,R6,2*%
%TO.N,Net-(J1A-JTAG_SCMCNTRL_TCK)*%
X134000000Y-77720000D03*
%TD*%
%TO.P,R8,1*%
%TO.N,/DC-SCI edge connector/DC_SCM_JTAG.TDI*%
X135200000Y-78680000D03*
%TO.P,R8,2*%
%TO.N,Net-(J1A-JTAG_SCMCNTRL_TDI)*%
X135200000Y-77720000D03*
%TD*%
%TO.P,R21,1*%
%TO.N,/DC-SCI edge connector/DC_SCM_I2C3.SDA*%
X163300000Y-78680000D03*
%TO.P,R21,2*%
%TO.N,Net-(J1B-I2C_3V3_3_SDA)*%
X163300000Y-77720000D03*
%TD*%
D14*
%TO.P,R78,1*%
%TO.N,Net-(J1B-I2C_I3C_1V0_19_SDA)*%
X157800000Y-77720000D03*
%TO.P,R78,2*%
%TO.N,/DC-SCI edge connector/DC_SCM_I2C_I3C19.SDA*%
X157800000Y-78680000D03*
%TD*%
%TO.P,R76,1*%
%TO.N,Net-(J1B-I2C_I3C_1V0_18_SDA)*%
X156550000Y-77720000D03*
%TO.P,R76,2*%
%TO.N,/DC-SCI edge connector/DC_SCM_I2C_I3C18.SDA*%
X156550000Y-78680000D03*
%TD*%
D15*
%TO.P,R20,1*%
%TO.N,/DC-SCI edge connector/DC_SCM_I2C3.SCL*%
X162700000Y-80680000D03*
%TO.P,R20,2*%
%TO.N,Net-(J1B-I2C_3V3_3_SCL)*%
X162700000Y-79720000D03*
%TD*%
D14*
%TO.P,R55,1*%
%TO.N,Net-(J1A-PECI_HPM_SCM)*%
X122050000Y-82150000D03*
%TO.P,R55,2*%
%TO.N,/DC-SCI edge connector/DC_SCM_PECI*%
X122050000Y-83110000D03*
%TD*%
%TO.P,R71,1*%
%TO.N,Net-(J1B-I2C_I3C_1V8_16_SDA)*%
X168100000Y-77720000D03*
%TO.P,R71,2*%
%TO.N,/DC-SCI edge connector/DC_SCM_I2C_I3C16.SCL*%
X168100000Y-78680000D03*
%TD*%
D15*
%TO.P,R5,1*%
%TO.N,/DC-SCI edge connector/DC_SCM_STBY_EN*%
X137600000Y-78680000D03*
%TO.P,R5,2*%
%TO.N,Net-(J1A-SCM_HPM_STBY_EN)*%
X137600000Y-77720000D03*
%TD*%
D14*
%TO.P,R70,1*%
%TO.N,Net-(J1B-I2C_I3C_1V8_15_SDA)*%
X161650000Y-79720000D03*
%TO.P,R70,2*%
%TO.N,/DC-SCI edge connector/DC_SCM_I2C_I3C15.SDA*%
X161650000Y-80680000D03*
%TD*%
D15*
%TO.P,R25,1*%
%TO.N,/DC-SCI edge connector/DC_SCM_I2C5.SDA*%
X165700000Y-78680000D03*
%TO.P,R25,2*%
%TO.N,Net-(J1B-I2C_3V3_5_SDA)*%
X165700000Y-77720000D03*
%TD*%
D14*
%TO.P,R56,1*%
%TO.N,Net-(J1A-GPIO)*%
X172900000Y-77720000D03*
%TO.P,R56,2*%
%TO.N,/DC-SCI edge connector/~{DC_SCM_SPI_SCMCNTRL_IRQ0}*%
X172900000Y-78680000D03*
%TD*%
D15*
%TO.P,R34,1*%
%TO.N,/DC-SCI edge connector/DC_SCM_TPM_SPI.SCK*%
X169300000Y-78680000D03*
%TO.P,R34,2*%
%TO.N,Net-(J1B-SPI_HPMCNTRL_TPM_CLK)*%
X169300000Y-77720000D03*
%TD*%
D14*
%TO.P,R68,1*%
%TO.N,Net-(J1B-I2C_I3C_1V8_14_SDA)*%
X160450000Y-79720000D03*
%TO.P,R68,2*%
%TO.N,/DC-SCI edge connector/DC_SCM_I2C_I3C14.SDA*%
X160450000Y-80680000D03*
%TD*%
D15*
%TO.P,R17,1*%
%TO.N,/DC-SCI edge connector/DC_SCM_I2C1.SDA*%
X140000000Y-78680000D03*
%TO.P,R17,2*%
%TO.N,Net-(J1B-I2C_3V3_1_SDA)*%
X140000000Y-77720000D03*
%TD*%
D14*
%TO.P,R66,1*%
%TO.N,Net-(J1B-I2C_I3C_1V8_13_SDA)*%
X174100000Y-77720000D03*
%TO.P,R66,2*%
%TO.N,/DC-SCI edge connector/DC_SCM_I2C_I3C13.SDA*%
X174100000Y-78680000D03*
%TD*%
%TO.P,R77,1*%
%TO.N,Net-(J1B-I2C_I3C_1V0_19_SCL)*%
X157200000Y-79720000D03*
%TO.P,R77,2*%
%TO.N,/DC-SCI edge connector/DC_SCM_I2C_I3C19.SCL*%
X157200000Y-80680000D03*
%TD*%
%TO.P,R69,1*%
%TO.N,Net-(J1B-I2C_I3C_1V8_15_SCL)*%
X161050000Y-81720000D03*
%TO.P,R69,2*%
%TO.N,/DC-SCI edge connector/DC_SCM_I2C_I3C15.SCL*%
X161050000Y-82680000D03*
%TD*%
D15*
%TO.P,R10,1*%
%TO.N,/DC-SCI edge connector/DC_SCM_JTAG.TRST*%
X136400000Y-78680000D03*
%TO.P,R10,2*%
%TO.N,Net-(J1A-JTAG_SCMCNTRL_TRST_N)*%
X136400000Y-77720000D03*
%TD*%
D14*
%TO.P,R64,1*%
%TO.N,Net-(J1B-I2C_I3C_1V8_12_SDA)*%
X172300000Y-79720000D03*
%TO.P,R64,2*%
%TO.N,/DC-SCI edge connector/DC_SCM_I2C_I3C12.SDA*%
X172300000Y-80680000D03*
%TD*%
D15*
%TO.P,R37,1*%
%TO.N,/DC-SCI edge connector/DC_SCM_TPM_SPI.DO*%
X171100000Y-80680000D03*
%TO.P,R37,2*%
%TO.N,Net-(J1B-SPI_HPMCNTRL_TPM_DO_IO1)*%
X171100000Y-79720000D03*
%TD*%
D14*
%TO.P,R58,1*%
%TO.N,Net-(J1A-UART0_HPM_SCM_DATA)*%
X174700000Y-79720000D03*
%TO.P,R58,2*%
%TO.N,/DC-SCI edge connector/DC_SCM_UART.TX*%
X174700000Y-80680000D03*
%TD*%
D15*
%TO.P,R12,1*%
%TO.N,/DC-SCI edge connector/DC_SCM_PRSNT1_N*%
X133400000Y-80680000D03*
%TO.P,R12,2*%
%TO.N,Net-(J1A-PRSNT1_HPM_SCM_N)*%
X133400000Y-79720000D03*
%TD*%
D14*
%TO.P,R75,1*%
%TO.N,Net-(J1B-I2C_I3C_1V0_18_SCL)*%
X156000000Y-79720000D03*
%TO.P,R75,2*%
%TO.N,/DC-SCI edge connector/DC_SCM_I2C_I3C18.SCL*%
X156000000Y-80680000D03*
%TD*%
D15*
%TO.P,R19,1*%
%TO.N,/DC-SCI edge connector/DC_SCM_I2C2.SDA*%
X125650000Y-83080000D03*
%TO.P,R19,2*%
%TO.N,Net-(J1B-I2C_3V3_2_SDA)*%
X125650000Y-82120000D03*
%TD*%
%TO.P,R15,1*%
%TO.N,/DC-SCI edge connector/DC_SCM_I2C0.SDA*%
X138800000Y-78680000D03*
%TO.P,R15,2*%
%TO.N,Net-(J1B-I2C_3V3_0_SDA)*%
X138800000Y-77720000D03*
%TD*%
%TO.P,R22,1*%
%TO.N,/DC-SCI edge connector/DC_SCM_I2C4.SCL*%
X163900000Y-80680000D03*
%TO.P,R22,2*%
%TO.N,Net-(J1B-I2C_3V3_4_SCL)*%
X163900000Y-79720000D03*
%TD*%
%TO.P,R26,1*%
%TO.N,/DC-SCI edge connector/DC_SCM_I2C6.SCL*%
X166300000Y-80680000D03*
%TO.P,R26,2*%
%TO.N,Net-(J1B-I2C_3V3_6_SCL)*%
X166300000Y-79720000D03*
%TD*%
D18*
%TO.N,/DC-SCI edge connector/DC-SCM_PCIE0_SGMII.RX0+*%
X119388973Y-127978987D03*
%TO.N,/DC-SCI edge connector/DC-SCM_PCIE0_SGMII.RX0-*%
X119388973Y-127239987D03*
%TO.N,/DC-SCI edge connector/DC-SCM_PCIE0_SGMII.RX1-*%
X121256004Y-127042046D03*
%TO.N,/DC-SCI edge connector/DC-SCM_PCIE0_SGMII.RX1+*%
X121256004Y-127781046D03*
%TO.N,/DC-SCI edge connector/DC-SCM_PCIE0_SGMII.RX2-*%
X122947469Y-127098226D03*
%TO.N,/DC-SCI edge connector/DC-SCM_PCIE0_SGMII.RX2+*%
X122947469Y-127837226D03*
%TO.N,/DC-SCI edge connector/DC-SCM_PCIE0_SGMII.RX3-*%
X124800000Y-127130500D03*
%TO.N,/DC-SCI edge connector/DC-SCM_PCIE0_SGMII.RX3+*%
X124800000Y-127869500D03*
%TO.N,/Power/1V8_FB*%
X106000000Y-107050000D03*
X108000000Y-105750000D03*
%TO.N,/DC-SCI edge connector/DC_SCM_SPI_SCMCNTRL.DO*%
X176950000Y-124475000D03*
X176925000Y-84500000D03*
%TO.N,/DC-SCI edge connector/DC_SCM_LTPI.TXCK-*%
X145197500Y-82500000D03*
%TO.N,/DC-SCI gold fingers connector/LTPI_TXCK-*%
X145433067Y-75966933D03*
%TO.N,/DC-SCI edge connector/DC_SCM_ESPI.~{ALERT0}*%
X131891500Y-83432046D03*
X123075000Y-91300000D03*
X132775000Y-126725000D03*
%TO.N,/DC-SCI edge connector/DC-SCM_PCIE0_SGMII.TX0-*%
X110621743Y-91775000D03*
X112055500Y-116150000D03*
%TO.N,/DC-SCI edge connector/DC_SCM_NC-SI.TXD1*%
X165075000Y-115900000D03*
X159025000Y-116000000D03*
%TO.N,/DC-SCI edge connector/DC_SCM_QSPI.SCK*%
X132450000Y-121475000D03*
X141050000Y-91650000D03*
X130700000Y-91650000D03*
X113575000Y-118800000D03*
%TO.N,/DC-SCI edge connector/DC_SCM_SPI_SCMCNTRL.SCK*%
X176200000Y-84525000D03*
X176200000Y-124475000D03*
X177200000Y-112425000D03*
%TO.N,GND*%
X142425000Y-71000000D03*
X153600000Y-128850000D03*
X149464509Y-83973935D03*
X147600000Y-77150000D03*
X115698835Y-114813356D03*
X103901856Y-90767829D03*
X183531146Y-121319881D03*
X178900000Y-128800000D03*
X177100000Y-128800000D03*
X121704002Y-116176590D03*
X110040425Y-92164965D03*
X143800000Y-71000000D03*
X144938090Y-76461910D03*
X105969444Y-90741598D03*
X132800000Y-71000000D03*
X178900000Y-71000000D03*
X177578897Y-76724572D03*
X132125000Y-71000000D03*
X106496207Y-78441110D03*
X128150000Y-108400000D03*
X117996961Y-89489683D03*
X105323958Y-77234193D03*
X135800000Y-128100000D03*
X151800000Y-128850000D03*
X120024851Y-116277854D03*
X123000000Y-128775000D03*
X159025000Y-96080000D03*
X150000000Y-71000000D03*
X175300000Y-128825000D03*
X104050000Y-107050000D03*
X150000000Y-128825000D03*
X108386209Y-80380949D03*
X168675000Y-128150000D03*
X175300000Y-71050000D03*
X140600000Y-70975000D03*
X117575000Y-128800000D03*
X151392341Y-81292095D03*
X142400000Y-128750000D03*
X113871828Y-109465000D03*
X168700000Y-70975000D03*
X121225000Y-70975000D03*
X123900000Y-118300000D03*
X151800000Y-71000000D03*
X117600000Y-71025000D03*
X155400000Y-128850000D03*
X106014023Y-92124555D03*
X142985850Y-76631958D03*
X132800000Y-128450000D03*
X113692054Y-114771098D03*
X146364280Y-74856770D03*
X121200000Y-128775000D03*
X153600000Y-70950000D03*
X103928818Y-92128614D03*
X108383934Y-81095681D03*
X182050000Y-104900000D03*
X149571761Y-79753103D03*
X119400000Y-128775000D03*
X102430000Y-77250000D03*
X115996736Y-92285769D03*
X122950000Y-93480000D03*
X124825000Y-128825000D03*
X177100000Y-71000000D03*
X151888960Y-76556955D03*
X109705172Y-82264811D03*
X108039613Y-90634394D03*
X185669503Y-121350000D03*
X107350000Y-119375000D03*
X151115556Y-79779340D03*
X144175000Y-128750000D03*
X101981065Y-92175636D03*
X153428460Y-81311605D03*
X140625000Y-128750000D03*
X103916584Y-78482257D03*
X104050000Y-107800000D03*
X113491413Y-116084315D03*
X135800000Y-70975000D03*
X124800000Y-71000000D03*
X113990965Y-89527845D03*
X111948676Y-92154919D03*
X179411687Y-76709066D03*
X159050000Y-117800000D03*
X109989343Y-90719547D03*
X150528080Y-82893672D03*
X155100000Y-71000000D03*
X115983478Y-89532856D03*
X150604670Y-75190155D03*
X111997892Y-89550315D03*
X122975000Y-71000000D03*
X119425000Y-71025000D03*
X108000000Y-92100000D03*
X141050000Y-96150000D03*
X104050000Y-106300000D03*
X114003161Y-92285564D03*
X149072317Y-78328708D03*
X111358897Y-116081098D03*
X118567648Y-115033216D03*
X159025000Y-91000000D03*
X153255000Y-77746365D03*
X116930700Y-114950401D03*
X176950000Y-92200000D03*
X159025000Y-104225000D03*
X141050000Y-116250000D03*
X107287236Y-79180949D03*
%TO.N,/DC-SCI edge connector/DC_SCM_QSPI.IO3*%
X135225000Y-95075000D03*
X115975000Y-113150000D03*
X135425000Y-113175000D03*
X141075000Y-95075000D03*
X131825000Y-113175000D03*
%TO.N,+1V8*%
X115950000Y-107400000D03*
X159100000Y-121450000D03*
X141150000Y-97350000D03*
X130900000Y-107600000D03*
X111950000Y-106700000D03*
X120650000Y-97250000D03*
%TO.N,/DC-SCI edge connector/DC_SCM_QSPI.~{CS0}*%
X133100000Y-110225000D03*
X123925000Y-110250000D03*
X131625000Y-86600000D03*
X141000000Y-87150000D03*
%TO.N,/DC-SCI edge connector/DC_SCM_QSPI.IO1*%
X133575000Y-89950000D03*
X122600000Y-109700000D03*
X134350000Y-109725000D03*
X106025000Y-109700000D03*
X141025000Y-90050000D03*
%TO.N,/DC-SCI edge connector/DC_SCM_QSPI.IO2*%
X141050000Y-92450000D03*
X134875000Y-119100000D03*
X134325000Y-92575000D03*
X106625000Y-118550000D03*
X122600000Y-118975000D03*
%TO.N,/DC-SCI edge connector/DC_SCM_QSPI.IO0*%
X132600000Y-87350000D03*
X130400000Y-119875000D03*
X112250000Y-118900000D03*
X133700000Y-120250000D03*
X140925000Y-87975000D03*
%TO.N,/DC-SCI edge connector/DC_SCM_UART.RX*%
X141100000Y-99400000D03*
X167575000Y-99350000D03*
%TO.N,/DC-SCI gold fingers connector/PCIE0_SGMII_RX1+*%
X105821276Y-78431276D03*
%TO.N,/DC-SCI edge connector/DC-SCM_PCIE0_SGMII.RX1+*%
X105309500Y-90975000D03*
%TO.N,/DC-SCI edge connector/DC_SCM_I2C_I3C17.SDA*%
X141075000Y-112900000D03*
X132850000Y-125200000D03*
X137425000Y-113675000D03*
X132850000Y-82425000D03*
%TO.N,/DC-SCI edge connector/DC_SCM_LTPI.TXD-*%
X143632500Y-81644122D03*
%TO.N,/DC-SCI gold fingers connector/LTPI_TXD-*%
X143632500Y-76900000D03*
%TO.N,/DC-SCI edge connector/DC_SCM_I2C8.SDA*%
X179525000Y-90625000D03*
X169875000Y-91675000D03*
%TO.N,/DC-SCI edge connector/DC_SCM_I2C_I3C13.SCL*%
X173500000Y-99825000D03*
%TO.N,/DC-SCI edge connector/DC_SCM_I2C_I3C13.SDA*%
X179475000Y-100775000D03*
X174100000Y-100975000D03*
%TO.N,/DC-SCI edge connector/DC_SCM_I2C_I3C14.SCL*%
X158400000Y-102325000D03*
X175325000Y-103425000D03*
X158750000Y-122825000D03*
%TO.N,/DC-SCI edge connector/DC_SCM_I2C_I3C14.SDA*%
X159725000Y-122825000D03*
X159725000Y-102625000D03*
X179300000Y-103725000D03*
%TO.N,/DC-SCI edge connector/DC_SCM_I2C_I3C15.SCL*%
X160575000Y-107500000D03*
X175350000Y-106200000D03*
X160300000Y-123500000D03*
%TO.N,/DC-SCI edge connector/DC_SCM_I2C_I3C15.SDA*%
X160625000Y-124175000D03*
X161500000Y-107300000D03*
X179300000Y-106425000D03*
%TO.N,/DC-SCI edge connector/DC_SCM_I2C_I3C16.SCL*%
X168100000Y-109450000D03*
X175425000Y-108975000D03*
%TO.N,/DC-SCI edge connector/DC_SCM_I2C_I3C16.SDA*%
X167500000Y-110725000D03*
X177220000Y-109980000D03*
%TO.N,/DC-SCI edge connector/DC_SCM_ESPI.SCK*%
X126750000Y-122775000D03*
X127725000Y-82200000D03*
%TO.N,/DC-SCI edge connector/PECI_VREF_HPM_SCM*%
X127100000Y-104950000D03*
X127100000Y-81525000D03*
X125925000Y-122750000D03*
%TO.N,/DC-SCI edge connector/DC-SCM_PCIE0_SGMII.TX1+*%
X115074812Y-114496181D03*
X113369500Y-89850000D03*
%TO.N,/DC-SCI edge connector/DC_SCM_ESPI.IO3*%
X123075000Y-88725000D03*
X132826102Y-127561950D03*
X131300000Y-82950000D03*
%TO.N,/DC-SCI edge connector/DC_SCM_ESPI.IO1*%
X130100000Y-82875000D03*
X130125000Y-122700000D03*
%TO.N,/DC-SCI edge connector/DC_SCM_ESPI.~{CS0}*%
X120600000Y-84675000D03*
X127525000Y-122750000D03*
X128300000Y-83325000D03*
%TO.N,/DC-SCI edge connector/DC_SCM_ESPI.IO2*%
X130700000Y-83475000D03*
X123025000Y-86275000D03*
X130950000Y-122675000D03*
%TO.N,/DC-SCI edge connector/DC_SCM_ESPI.~{RESET}*%
X120950000Y-87125000D03*
X128900000Y-82875000D03*
X128325000Y-122725000D03*
%TO.N,/DC-SCI edge connector/DC_SCM_ESPI.IO0*%
X129200000Y-122725000D03*
X121925000Y-89675000D03*
X129500000Y-83400000D03*
%TO.N,/DC-SCI edge connector/DC_SCM_I2C_I3C17.SCL*%
X132750000Y-125925000D03*
X132430420Y-82985315D03*
X136875000Y-111525000D03*
%TO.N,/DC-SCI edge connector/DC_SCM_I2C_I3C18.SDA*%
X141100000Y-115100000D03*
X156600000Y-115125000D03*
%TO.N,/DC-SCI edge connector/DC_SCM_I2C_I3C18.SCL*%
X156000000Y-117625000D03*
X141075000Y-117600000D03*
%TO.N,/DC-SCI edge connector/DC_SCM_I2C_I3C19.SDA*%
X141075000Y-120150000D03*
X157800000Y-120225000D03*
%TO.N,/DC-SCI edge connector/DC_SCM_I2C_I3C19.SCL*%
X157200000Y-122750000D03*
X141175000Y-122750000D03*
%TO.N,/DC-SCI edge connector/DC_SCM_12V_AUX*%
X126950000Y-80650000D03*
X126300000Y-79700000D03*
X126400000Y-124300000D03*
X126400000Y-123600000D03*
X123050000Y-101600000D03*
X126400000Y-125000000D03*
X127700000Y-124600000D03*
X126300000Y-79000000D03*
X125800000Y-124650000D03*
X127000000Y-123950000D03*
X126300000Y-81100000D03*
X126950000Y-79950000D03*
X127000000Y-124650000D03*
X125800000Y-125350000D03*
X126300000Y-80400000D03*
X125800000Y-123950000D03*
%TO.N,/DC-SCI edge connector/DC_SCM_PRSNT1_N*%
X137975000Y-108850000D03*
%TO.N,/DC-SCI edge connector/DC_SCM_JTAG.TCK*%
X138525000Y-101275000D03*
%TO.N,/DC-SCI edge connector/DC_SCM_JTAG.TDO*%
X139125000Y-103825000D03*
%TO.N,/DC-SCI edge connector/DC_SCM_JTAG.TDI*%
X139725000Y-108475000D03*
%TO.N,/DC-SCI edge connector/DC_SCM_JTAG.TMS*%
X140800000Y-100100000D03*
%TO.N,/DC-SCI edge connector/DC_SCM_JTAG.TRST*%
X141825000Y-108725000D03*
%TO.N,/DC-SCI edge connector/~{DC_SCM_STBY_RST}*%
X142400000Y-106025000D03*
X122975000Y-105900000D03*
%TO.N,/DC-SCI edge connector/DC_SCM_STBY_EN*%
X142950000Y-100925000D03*
X101800000Y-105650000D03*
X123150000Y-100750000D03*
%TO.N,/DC-SCI edge connector/DC_SCM_I2C0.SCL*%
X159000000Y-87175000D03*
X143525000Y-88225000D03*
%TO.N,/DC-SCI edge connector/DC_SCM_I2C0.SDA*%
X159050000Y-86225000D03*
X143625000Y-86025000D03*
%TO.N,/DC-SCI edge connector/DC_SCM_I2C1.SCL*%
X144700000Y-96125000D03*
X159000000Y-97700000D03*
%TO.N,/DC-SCI edge connector/DC_SCM_I2C1.SDA*%
X145250000Y-98725000D03*
X159075000Y-98475000D03*
%TO.N,/DC-SCI edge connector/DC_SCM_LTPI.TXD+*%
X144387500Y-81644122D03*
%TO.N,/DC-SCI edge connector/DC_SCM_LTPI.TXCK+*%
X145952500Y-82500000D03*
%TO.N,/DC-SCI edge connector/DC_SCM_I2C2.SCL*%
X149500000Y-100900000D03*
X158975000Y-100850000D03*
X149500000Y-123650000D03*
X125250000Y-114800000D03*
%TO.N,/DC-SCI edge connector/DC_SCM_I2C2.SDA*%
X158950000Y-99975000D03*
X126400000Y-115350000D03*
X149498497Y-124350001D03*
X149473500Y-99675000D03*
%TO.N,/DC-SCI edge connector/~{PCIE_HPM_SCM_PERST}*%
X125900000Y-115950000D03*
X149525000Y-125225000D03*
%TO.N,/DC-SCI edge connector/DC-SCM_PCIE1.RX0-*%
X150152970Y-84100522D03*
%TO.N,/DC-SCI edge connector/DC-SCM_PCIE1.RX0+*%
X150675522Y-83577970D03*
%TO.N,/DC-SCI edge connector/DC-SCM_PCIE_USB_SCMROOT.RX0-*%
X149955500Y-80338550D03*
%TO.N,/DC-SCI edge connector/DC-SCM_PCIE_USB_SCMROOT.RX0+*%
X150694500Y-80338550D03*
%TO.N,/DC-SCI edge connector/DC-SCM_CLK_100M_0.CLK-*%
X152055500Y-81609506D03*
%TO.N,/DC-SCI edge connector/DC-SCM_CLK_100M_0.CLK+*%
X152794500Y-81609506D03*
%TO.N,/DC-SCI edge connector/DC_SCM_I2C3.SCL*%
X162700000Y-104975000D03*
%TO.N,/DC-SCI edge connector/DC_SCM_I2C3.SDA*%
X163300000Y-106275000D03*
%TO.N,/DC-SCI edge connector/DC_SCM_I2C4.SCL*%
X159025000Y-109275000D03*
X163900000Y-109650000D03*
%TO.N,/DC-SCI edge connector/DC_SCM_I2C4.SDA*%
X164500000Y-107825000D03*
X159025000Y-108450000D03*
%TO.N,/DC-SCI edge connector/DC_SCM_I2C5.SCL*%
X158950000Y-88125000D03*
X165100000Y-87675000D03*
%TO.N,/DC-SCI edge connector/DC_SCM_I2C5.SDA*%
X159010348Y-88939652D03*
X165700000Y-89175000D03*
%TO.N,/DC-SCI edge connector/DC_SCM_I2C6.SCL*%
X166300000Y-94400000D03*
X158975000Y-93950000D03*
%TO.N,/DC-SCI edge connector/DC_SCM_I2C6.SDA*%
X166900000Y-92750000D03*
X158983732Y-93191268D03*
%TO.N,/DC-SCI edge connector/DC_SCM_TPM_SPI.SCK*%
X169300000Y-113200000D03*
X175325000Y-113500000D03*
%TO.N,/DC-SCI edge connector/DC_SCM_TPM_SPI.~{CS0}*%
X175525000Y-116025000D03*
X169900000Y-115800000D03*
%TO.N,/DC-SCI edge connector/DC_SCM_TPM_SPI.DI*%
X175300000Y-118650000D03*
X170500000Y-118650000D03*
%TO.N,/DC-SCI edge connector/DC_SCM_TPM_SPI.DO*%
X171100000Y-119175000D03*
X176025000Y-119150000D03*
%TO.N,/DC-SCI edge connector/DC_SCM_I2C_I3C12.SCL*%
X171700000Y-98150000D03*
%TO.N,/DC-SCI edge connector/DC_SCM_I2C_I3C12.SDA*%
X179225000Y-96200000D03*
X172300000Y-96200000D03*
%TO.N,/DC-SCI edge connector/~{DC_SCM_SPI_SCMCNTRL_IRQ0}*%
X172900000Y-122650000D03*
%TO.N,/DC-SCI edge connector/DC_SCM_UART.TX*%
X141150000Y-101950000D03*
X174850000Y-101250000D03*
%TO.N,/DC-SCI edge connector/DC-SCM_CLK_100M_1.CLK-*%
X184230500Y-121350000D03*
%TO.N,/DC-SCI edge connector/DC-SCM_CLK_100M_1.CLK+*%
X184969500Y-121350000D03*
%TO.N,/DC-SCI edge connector/DC_SCM_QSPI.~{CS1}*%
X108075000Y-113550000D03*
X141100000Y-89275000D03*
X136000000Y-113925000D03*
X136015000Y-89275000D03*
%TO.N,/DC-SCI edge connector/DC_SCM_STBY_RDY*%
X123000000Y-104050000D03*
X144800000Y-128125000D03*
%TO.N,/DC-SCI edge connector/~{DC_SCM_INTRUSION}*%
X141150000Y-110100000D03*
X144927463Y-127436700D03*
X123800000Y-105100000D03*
%TO.N,/DC-SCI edge connector/DC_SCM_P3V0*%
X124600000Y-97300000D03*
X145050000Y-126747508D03*
X124600000Y-116050000D03*
%TO.N,/DC-SCI edge connector/DC_SCM_NC-SI.REF_CLK*%
X161800000Y-124850000D03*
X162162500Y-84212500D03*
X161775000Y-112575000D03*
%TO.N,/DC-SCI edge connector/DC_SCM_NC-SI.CRS_DV*%
X159000000Y-113300000D03*
X164175000Y-112650000D03*
%TO.N,/DC-SCI edge connector/DC_SCM_NC-SI.TX_EN*%
X159100000Y-111050000D03*
X164102500Y-111300000D03*
%TO.N,/DC-SCI edge connector/DC_SCM_NC-SI.TXD0*%
X164925000Y-115025000D03*
X159025000Y-114275000D03*
%TO.N,/DC-SCI edge connector/DC_SCM_NC-SI.RXD0*%
X165775000Y-117125000D03*
X159025000Y-116850000D03*
%TO.N,/DC-SCI edge connector/DC_SCM_NC-SI.RXD1*%
X159025000Y-118600000D03*
X166300000Y-118875000D03*
%TO.N,/DC-SCI edge connector/DC_SCM_HPM_FRU*%
X166802500Y-103550000D03*
X123000000Y-103250000D03*
%TO.N,/DC-SCI edge connector/DC_SCM_I2C7.SCL*%
X175425000Y-85750000D03*
X168100000Y-85100000D03*
%TO.N,/DC-SCI edge connector/DC_SCM_I2C7.SDA*%
X179475000Y-88175000D03*
X168700000Y-89050000D03*
%TO.N,/DC-SCI edge connector/DC_SCM_I2C8.SCL*%
X176850000Y-90075000D03*
X169300000Y-90475000D03*
%TO.N,/DC-SCI edge connector/DC_SCM_I2C9.SCL*%
X176800000Y-95100000D03*
X170500000Y-95575000D03*
%TO.N,/DC-SCI edge connector/DC_SCM_I2C9.SDA*%
X171075000Y-93975000D03*
X177225000Y-94325000D03*
%TO.N,/DC-SCI edge connector/DC_SCM_PRSNT0_N*%
X171700000Y-104550000D03*
X141050000Y-104600000D03*
%TO.N,/DC-SCI edge connector/DC_SCM_SPI_SCMCNTRL.~{CS1}*%
X175375000Y-124475000D03*
X175425000Y-84525000D03*
%TO.N,/DC-SCI edge connector/DC_SCM_SPI_SCMCNTRL.DI*%
X177800000Y-124450000D03*
X177800000Y-84525000D03*
%TO.N,/DC-SCI edge connector/DC_SCM_SPI_SCMCNTRL.~{CS0}*%
X179925000Y-114100000D03*
X178625000Y-124425000D03*
X178600000Y-84525000D03*
%TO.N,/DC-SCI edge connector/DC-SCM_PCIE0_SGMII.RX0-*%
X102571743Y-91800000D03*
%TO.N,/DC-SCI edge connector/DC-SCM_PCIE0_SGMII.RX0+*%
X103310743Y-91800000D03*
%TO.N,/DC-SCI edge connector/DC-SCM_PCIE0_SGMII.RX1-*%
X104570500Y-90975000D03*
%TO.N,/DC-SCI edge connector/DC-SCM_PCIE0_SGMII.RX2-*%
X106620500Y-91775000D03*
%TO.N,/DC-SCI edge connector/DC-SCM_PCIE0_SGMII.RX2+*%
X107359500Y-91775000D03*
%TO.N,/DC-SCI edge connector/DC-SCM_PCIE0_SGMII.RX3-*%
X108620500Y-91025000D03*
%TO.N,/DC-SCI edge connector/DC-SCM_PCIE0_SGMII.RX3+*%
X109359500Y-91025000D03*
%TO.N,/DC-SCI edge connector/DC_SCM_PECI*%
X121050000Y-99850000D03*
%TO.N,/DC-SCI edge connector/DC-SCM_PCIE0_SGMII.TX0+*%
X111360743Y-91775000D03*
X112794500Y-116150000D03*
%TO.N,/DC-SCI edge connector/DC-SCM_PCIE0_SGMII.TX1-*%
X114335812Y-114496181D03*
X112630500Y-89850000D03*
%TO.N,/DC-SCI edge connector/DC-SCM_PCIE0_SGMII.TX2-*%
X114630500Y-91975000D03*
X117330500Y-115525000D03*
%TO.N,/DC-SCI edge connector/DC-SCM_PCIE0_SGMII.TX2+*%
X115369500Y-91975000D03*
X118069500Y-115525000D03*
%TO.N,/DC-SCI edge connector/DC-SCM_PCIE0_SGMII.TX3-*%
X116630500Y-89800000D03*
X120550207Y-116740460D03*
%TO.N,/DC-SCI edge connector/DC-SCM_PCIE0_SGMII.TX3+*%
X117369500Y-89800000D03*
X121289207Y-116740460D03*
%TO.N,/DC-SCI gold fingers connector/CLK_100M_0_CLK+*%
X153111276Y-77061276D03*
%TO.N,/DC-SCI gold fingers connector/PCIE0_SGMII_RX0+*%
X103667764Y-77854788D03*
%TO.N,/DC-SCI gold fingers connector/CLK_100M_1_CLK-*%
X178119599Y-76280000D03*
%TO.N,/DC-SCI gold fingers connector/PCIE0_SGMII_RX0-*%
X103145212Y-77332236D03*
%TO.N,/DC-SCI gold fingers connector/CLK_100M_1_CLK+*%
X178858599Y-76280000D03*
%TO.N,/DC-SCI gold fingers connector/PCIE1_RX0+*%
X148861276Y-77661276D03*
%TO.N,/DC-SCI gold fingers connector/PCIE_USB_SCMROOT_RX0+*%
X151811276Y-75861276D03*
%TO.N,/DC-SCI gold fingers connector/PCIE0_SGMII_RX3-*%
X109058724Y-81078724D03*
%TO.N,/DC-SCI gold fingers connector/PCIE0_SGMII_RX2-*%
X107188724Y-79848724D03*
%TO.N,/DC-SCI gold fingers connector/PCIE0_SGMII_RX1-*%
X105298724Y-77908724D03*
%TO.N,/DC-SCI gold fingers connector/PCIE0_SGMII_RX2+*%
X107711276Y-80371276D03*
%TO.N,/DC-SCI gold fingers connector/PCIE1_RX0-*%
X148338724Y-77138724D03*
%TO.N,/DC-SCI gold fingers connector/PCIE0_SGMII_RX3+*%
X109581276Y-81601276D03*
%TO.N,/DC-SCI gold fingers connector/CLK_100M_0_CLK-*%
X152588724Y-76538724D03*
%TO.N,/DC-SCI gold fingers connector/LTPI_TXD+*%
X144387500Y-76900000D03*
%TO.N,/DC-SCI gold fingers connector/LTPI_TXCK+*%
X145966933Y-75433067D03*
%TO.N,Net-(J1B-I2C_3V3_2_SCL)*%
X124400000Y-79450000D03*
X144975000Y-73650000D03*
%TO.N,Net-(J1B-I2C_3V3_2_SDA)*%
X125475000Y-79350000D03*
X145883516Y-74250688D03*
%TO.N,Net-(J1D-PCIE_HPM_SCM_PERST_N)*%
X146100000Y-73585002D03*
X124896225Y-78956275D03*
%TO.N,/DC-SCI gold fingers connector/PCIE_USB_SCMROOT_RX0-*%
X151288724Y-75338724D03*
%TO.N,Net-(J1A-HPM_SCM_STBY_RDY)*%
X144640247Y-71014998D03*
X122650000Y-79530000D03*
%TO.N,Net-(J1A-HPM_SCM_INTRUSION_N)*%
X145340044Y-70998013D03*
X123200000Y-79080000D03*
%TO.N,Net-(J1A-P3V0_HPM_SCM_BAT)*%
X123766117Y-78668278D03*
X146138962Y-71014998D03*
%TO.N,Net-(J1B-I2C_I3C_1V8_14_SCL)*%
X155948511Y-71014998D03*
X159805699Y-80208126D03*
%TO.N,Net-(J1B-I2C_I3C_1V8_14_SDA)*%
X160450000Y-78504760D03*
X156648514Y-71014998D03*
%TO.N,Net-(J1B-I2C_I3C_1V8_15_SCL)*%
X157348517Y-71014998D03*
X161050000Y-78029760D03*
%TO.N,Net-(J1B-I2C_I3C_1V8_15_SDA)*%
X161650000Y-77550000D03*
X158120824Y-71035635D03*
%TO.N,/DC-SCI edge connector/PCIE_LOCAL_USB_RX0-*%
X109950000Y-108250000D03*
%TD*%
%TO.N,/DC-SCI edge connector/DC-SCM_PCIE0_SGMII.RX0-*%
D19*
X118304000Y-128805999D02*
X118304000Y-127818814D01*
X118200000Y-128909999D02*
X118304000Y-128805999D01*
%TO.N,/DC-SCI edge connector/DC-SCM_PCIE0_SGMII.RX0+*%
X118800000Y-128909999D02*
X118696000Y-128805999D01*
X118871699Y-127805487D02*
X119215473Y-127805487D01*
X118696000Y-128805999D02*
X118696000Y-127981186D01*
X118800000Y-130200000D02*
X118800000Y-128909999D01*
%TO.N,/DC-SCI edge connector/DC-SCM_PCIE0_SGMII.RX0-*%
X118304000Y-127818814D02*
X118709327Y-127413487D01*
%TO.N,/DC-SCI edge connector/DC-SCM_PCIE0_SGMII.RX0+*%
X118696000Y-127981186D02*
X118871699Y-127805487D01*
%TO.N,/DC-SCI edge connector/DC-SCM_PCIE0_SGMII.RX0-*%
X118200000Y-130200000D02*
X118200000Y-128909999D01*
%TO.N,/DC-SCI edge connector/DC-SCM_PCIE0_SGMII.RX0+*%
X119215473Y-127805487D02*
X119388973Y-127978987D01*
%TO.N,/DC-SCI edge connector/DC-SCM_PCIE0_SGMII.RX0-*%
X118709327Y-127413487D02*
X119215473Y-127413487D01*
X119215473Y-127413487D02*
X119388973Y-127239987D01*
%TO.N,/DC-SCI edge connector/DC-SCM_PCIE0_SGMII.RX1-*%
X120000000Y-130200000D02*
X120000000Y-128909999D01*
X120104000Y-128805999D02*
X120104000Y-127618814D01*
%TO.N,/DC-SCI edge connector/DC-SCM_PCIE0_SGMII.RX1+*%
X121082504Y-127607546D02*
X121256004Y-127781046D01*
X120600000Y-130200000D02*
X120600000Y-128909999D01*
X120496000Y-128805999D02*
X120496000Y-127781186D01*
X120669640Y-127607546D02*
X121082504Y-127607546D01*
X120600000Y-128909999D02*
X120496000Y-128805999D01*
%TO.N,/DC-SCI edge connector/DC-SCM_PCIE0_SGMII.RX1-*%
X120000000Y-128909999D02*
X120104000Y-128805999D01*
%TO.N,/DC-SCI edge connector/DC-SCM_PCIE0_SGMII.RX1+*%
X120496000Y-127781186D02*
X120669640Y-127607546D01*
%TO.N,/DC-SCI edge connector/DC-SCM_PCIE0_SGMII.RX1-*%
X120104000Y-127618814D02*
X120507268Y-127215546D01*
X120507268Y-127215546D02*
X121082504Y-127215546D01*
X121082504Y-127215546D02*
X121256004Y-127042046D01*
%TO.N,/DC-SCI edge connector/DC-SCM_PCIE0_SGMII.RX2-*%
X121904000Y-128805999D02*
X121904000Y-127668814D01*
%TO.N,/DC-SCI edge connector/DC-SCM_PCIE0_SGMII.RX2+*%
X122773969Y-127663726D02*
X122947469Y-127837226D01*
%TO.N,/DC-SCI edge connector/DC-SCM_PCIE0_SGMII.RX2-*%
X122301088Y-127271726D02*
X122773969Y-127271726D01*
X121800000Y-130200000D02*
X121800000Y-128909999D01*
%TO.N,/DC-SCI edge connector/DC-SCM_PCIE0_SGMII.RX2+*%
X122400000Y-128909999D02*
X122296000Y-128805999D01*
X122296000Y-127831186D02*
X122463460Y-127663726D01*
X122296000Y-128805999D02*
X122296000Y-127831186D01*
X122400000Y-130200000D02*
X122400000Y-128909999D01*
%TO.N,/DC-SCI edge connector/DC-SCM_PCIE0_SGMII.RX2-*%
X122773969Y-127271726D02*
X122947469Y-127098226D01*
%TO.N,/DC-SCI edge connector/DC-SCM_PCIE0_SGMII.RX2+*%
X122463460Y-127663726D02*
X122773969Y-127663726D01*
%TO.N,/DC-SCI edge connector/DC-SCM_PCIE0_SGMII.RX2-*%
X121800000Y-128909999D02*
X121904000Y-128805999D01*
X121904000Y-127668814D02*
X122301088Y-127271726D01*
%TO.N,/DC-SCI edge connector/DC-SCM_PCIE0_SGMII.RX3-*%
X123704000Y-128805999D02*
X123704000Y-127718814D01*
%TO.N,/DC-SCI edge connector/DC-SCM_PCIE0_SGMII.RX3+*%
X124096000Y-127881186D02*
X124281186Y-127696000D01*
%TO.N,/DC-SCI edge connector/DC-SCM_PCIE0_SGMII.RX3-*%
X123600000Y-130200000D02*
X123600000Y-128909999D01*
%TO.N,/DC-SCI edge connector/DC-SCM_PCIE0_SGMII.RX3+*%
X124200000Y-128909999D02*
X124096000Y-128805999D01*
X124281186Y-127696000D02*
X124626500Y-127696000D01*
%TO.N,/DC-SCI edge connector/DC-SCM_PCIE0_SGMII.RX3-*%
X123600000Y-128909999D02*
X123704000Y-128805999D01*
%TO.N,/DC-SCI edge connector/DC-SCM_PCIE0_SGMII.RX3+*%
X124200000Y-130200000D02*
X124200000Y-128909999D01*
%TO.N,/DC-SCI edge connector/DC-SCM_PCIE0_SGMII.RX3-*%
X124118814Y-127304000D02*
X124626500Y-127304000D01*
%TO.N,/DC-SCI edge connector/DC-SCM_PCIE0_SGMII.RX3+*%
X124096000Y-128805999D02*
X124096000Y-127881186D01*
X124626500Y-127696000D02*
X124800000Y-127869500D01*
%TO.N,/DC-SCI edge connector/DC-SCM_PCIE0_SGMII.RX3-*%
X123704000Y-127718814D02*
X124118814Y-127304000D01*
X124626500Y-127304000D02*
X124800000Y-127130500D01*
%TO.N,/DC-SCI edge connector/DC_SCM_SPI_SCMCNTRL.DO*%
D20*
X177300000Y-84875000D02*
X176925000Y-84500000D01*
X176950000Y-124475000D02*
X176950000Y-121450000D01*
X177800000Y-109350000D02*
X177575000Y-109125000D01*
X177575000Y-96000000D02*
X178300000Y-95275000D01*
X178300000Y-89500000D02*
X177300000Y-88500000D01*
X176950000Y-121450000D02*
X177800000Y-120600000D01*
X177800000Y-120600000D02*
X177800000Y-109350000D01*
X177300000Y-88500000D02*
X177300000Y-84875000D01*
X177575000Y-109125000D02*
X177575000Y-96000000D01*
X178300000Y-95275000D02*
X178300000Y-89500000D01*
%TO.N,/DC-SCI edge connector/DC_SCM_LTPI.TXCK-*%
D21*
X143000000Y-128909999D02*
X143000000Y-130200000D01*
X147670000Y-85929120D02*
X147670000Y-121580000D01*
X143120000Y-128789999D02*
X143000000Y-128909999D01*
X145395000Y-82697500D02*
X145395000Y-83654120D01*
X145395000Y-83654120D02*
X147670000Y-85929120D01*
X143120000Y-126130000D02*
X143120000Y-128789999D01*
X147670000Y-121580000D02*
X143120000Y-126130000D01*
X145197500Y-82500000D02*
X145395000Y-82697500D01*
%TO.N,/DC-SCI gold fingers connector/LTPI_TXCK-*%
X145433067Y-75966933D02*
X145433067Y-75687626D01*
X145433067Y-75687626D02*
X143120000Y-73374559D01*
X143000000Y-72970000D02*
X143000000Y-72300000D01*
X143120000Y-73374559D02*
X143120000Y-73090000D01*
X143120000Y-73090000D02*
X143000000Y-72970000D01*
%TO.N,/DC-SCI edge connector/DC_SCM_ESPI.~{ALERT0}*%
D20*
X134875000Y-118150000D02*
X131935000Y-121090000D01*
X131935000Y-125885000D02*
X132775000Y-126725000D01*
X135350000Y-86925000D02*
X135350000Y-89775000D01*
X131891500Y-83432046D02*
X131891500Y-83466500D01*
X136050000Y-90475000D02*
X136050000Y-111725000D01*
X131935000Y-121090000D02*
X131935000Y-125885000D01*
X136050000Y-111725000D02*
X134875000Y-112900000D01*
X131891500Y-83466500D02*
X135350000Y-86925000D01*
X134875000Y-112900000D02*
X134875000Y-118150000D01*
X135350000Y-89775000D02*
X136050000Y-90475000D01*
%TO.N,/DC-SCI edge connector/DC-SCM_PCIE0_SGMII.TX0-*%
D19*
X110621743Y-91775000D02*
X110795243Y-91948500D01*
X110795243Y-91948500D02*
X110795243Y-113872429D01*
X110795243Y-113872429D02*
X112229000Y-115306186D01*
X112055500Y-116150000D02*
X112229000Y-115976500D01*
X112229000Y-115976500D02*
X112229000Y-115306186D01*
%TO.N,/DC-SCI edge connector/DC_SCM_SPI_SCMCNTRL.SCK*%
D20*
X177175000Y-112400000D02*
X177200000Y-112425000D01*
X176675000Y-88850000D02*
X177740000Y-89915000D01*
X176850000Y-95900000D02*
X176850000Y-109125000D01*
X177175000Y-110850000D02*
X177175000Y-112400000D01*
X176850000Y-109125000D02*
X176625000Y-109350000D01*
X177200000Y-112425000D02*
X177200000Y-120100000D01*
X177200000Y-120100000D02*
X176200000Y-121100000D01*
X176200000Y-84525000D02*
X176675000Y-85000000D01*
X177740000Y-89915000D02*
X177740000Y-95010000D01*
X177740000Y-95010000D02*
X176850000Y-95900000D01*
X176625000Y-110300000D02*
X177175000Y-110850000D01*
X176625000Y-109350000D02*
X176625000Y-110300000D01*
X176200000Y-121100000D02*
X176200000Y-124475000D01*
X176675000Y-85000000D02*
X176675000Y-88850000D01*
%TO.N,GND*%
D22*
X132200000Y-72300000D02*
X132200000Y-71075000D01*
X144175000Y-128750000D02*
X144175000Y-130375000D01*
X155100000Y-71000000D02*
X155400000Y-71300000D01*
X121225000Y-72275000D02*
X121200000Y-72300000D01*
X122975000Y-72275000D02*
X123000000Y-72300000D01*
X168700000Y-70975000D02*
X168700000Y-72300000D01*
X140625000Y-128750000D02*
X140625000Y-130375000D01*
X132200000Y-128675000D02*
X132200000Y-130400000D01*
X140600000Y-70975000D02*
X140600000Y-72300000D01*
X155400000Y-128850000D02*
X155400000Y-130400000D01*
X117575000Y-130375000D02*
X117600000Y-130400000D01*
X121225000Y-70975000D02*
X121225000Y-72275000D01*
X175300000Y-71050000D02*
X175300000Y-72300000D01*
X155400000Y-71300000D02*
X155400000Y-72300000D01*
X117575000Y-128800000D02*
X117575000Y-130375000D01*
X142425000Y-71000000D02*
X142425000Y-72275000D01*
X153600000Y-70950000D02*
X153600000Y-72300000D01*
X119425000Y-72275000D02*
X119400000Y-72300000D01*
X144175000Y-130375000D02*
X144200000Y-130400000D01*
X150000000Y-71000000D02*
X150000000Y-72290000D01*
X178900000Y-71000000D02*
X178900000Y-72300000D01*
X123000000Y-128775000D02*
X123000000Y-130400000D01*
X144200000Y-71400000D02*
X144200000Y-72300000D01*
X119400000Y-128775000D02*
X119400000Y-130400000D01*
X177100000Y-128800000D02*
X177100000Y-130400000D01*
X142425000Y-72275000D02*
X142400000Y-72300000D01*
X151800000Y-71000000D02*
X151800000Y-72300000D01*
X177100000Y-71000000D02*
X177100000Y-72300000D01*
X132200000Y-71075000D02*
X132125000Y-71000000D01*
X122975000Y-71000000D02*
X122975000Y-72275000D01*
X132800000Y-128450000D02*
X132425000Y-128450000D01*
X143800000Y-71000000D02*
X144200000Y-71400000D01*
X150000000Y-72290000D02*
X150010000Y-72300000D01*
X168700000Y-130400000D02*
X168700000Y-128175000D01*
X124825000Y-130375000D02*
X124800000Y-130400000D01*
X132800000Y-71000000D02*
X132800000Y-72300000D01*
X140625000Y-130375000D02*
X140600000Y-130400000D01*
X168700000Y-128175000D02*
X168675000Y-128150000D01*
X153600000Y-128850000D02*
X153600000Y-130400000D01*
X121200000Y-128775000D02*
X121200000Y-130400000D01*
X132800000Y-128450000D02*
X132800000Y-130400000D01*
X124800000Y-71000000D02*
X124800000Y-72300000D01*
X151800000Y-128850000D02*
X151800000Y-130400000D01*
X150000000Y-128825000D02*
X150000000Y-130400000D01*
X117600000Y-71025000D02*
X117600000Y-72300000D01*
X124825000Y-128825000D02*
X124825000Y-130375000D01*
X175300000Y-128825000D02*
X175300000Y-130400000D01*
X142400000Y-128750000D02*
X142400000Y-130400000D01*
X178900000Y-128800000D02*
X178900000Y-130400000D01*
X119425000Y-71025000D02*
X119425000Y-72275000D01*
X132425000Y-128450000D02*
X132200000Y-128675000D01*
%TO.N,/DC-SCI gold fingers connector/PCIE0_SGMII_RX1+*%
D19*
X120600000Y-73590001D02*
X120496000Y-73694001D01*
X120496000Y-73694001D02*
X120496000Y-74781186D01*
X120496000Y-74781186D02*
X117591186Y-77686000D01*
X105821276Y-78185910D02*
X105821276Y-78431276D01*
X120600000Y-72300000D02*
X120600000Y-73590001D01*
X106321186Y-77686000D02*
X105821276Y-78185910D01*
X117591186Y-77686000D02*
X106321186Y-77686000D01*
%TO.N,/DC-SCI edge connector/DC-SCM_PCIE0_SGMII.RX1+*%
X105136000Y-118233814D02*
X109706186Y-122804000D01*
X105309500Y-90975000D02*
X105136000Y-91148500D01*
X105136000Y-91148500D02*
X105136000Y-118233814D01*
%TO.N,/DC-SCI edge connector/DC_SCM_I2C_I3C17.SDA*%
D23*
X137425000Y-87600000D02*
X137425000Y-113675000D01*
X137425000Y-118000000D02*
X132850000Y-122575000D01*
X132850000Y-82425000D02*
X132955420Y-82530420D01*
X132850000Y-122575000D02*
X132850000Y-125200000D01*
X132955420Y-83130420D02*
X137425000Y-87600000D01*
X137425000Y-113675000D02*
X137425000Y-118000000D01*
X132955420Y-82530420D02*
X132955420Y-83130420D01*
%TO.N,/DC-SCI edge connector/DC_SCM_LTPI.TXD-*%
D21*
X143632500Y-81644122D02*
X143830000Y-81841622D01*
X146270000Y-86004120D02*
X146270000Y-121330000D01*
X143830000Y-81841622D02*
X143830000Y-83564120D01*
X146270000Y-121330000D02*
X141320000Y-126280000D01*
X141320000Y-126280000D02*
X141320000Y-128789999D01*
X143830000Y-83564120D02*
X146270000Y-86004120D01*
X141200000Y-128909999D02*
X141200000Y-130200000D01*
X141320000Y-128789999D02*
X141200000Y-128909999D01*
%TO.N,/DC-SCI gold fingers connector/LTPI_TXD-*%
X143830000Y-76702500D02*
X143632500Y-76900000D01*
X141200000Y-72970000D02*
X141320000Y-73090000D01*
X143830000Y-76484560D02*
X143830000Y-76702500D01*
X141320000Y-73974560D02*
X143830000Y-76484560D01*
X141320000Y-73090000D02*
X141320000Y-73974560D01*
X141200000Y-72300000D02*
X141200000Y-72970000D01*
%TO.N,/DC-SCI edge connector/DC_SCM_I2C_I3C13.SCL*%
D23*
X173500000Y-99825000D02*
X173500000Y-80680000D01*
X173500000Y-130200000D02*
X173500000Y-99825000D01*
%TO.N,/DC-SCI edge connector/DC_SCM_I2C_I3C13.SDA*%
X174100000Y-78680000D02*
X174100000Y-100975000D01*
X174100000Y-100975000D02*
X174100000Y-130200000D01*
%TO.N,/DC-SCI edge connector/DC_SCM_I2C_I3C14.SCL*%
X158750000Y-119800000D02*
X158750000Y-120700000D01*
X158700000Y-122775000D02*
X158750000Y-122825000D01*
X159900000Y-82680000D02*
X158400000Y-84180000D01*
X158400000Y-119450000D02*
X158750000Y-119800000D01*
X158500000Y-120950000D02*
X158500000Y-121850000D01*
X158400000Y-84180000D02*
X158400000Y-119450000D01*
X158750000Y-120700000D02*
X158500000Y-120950000D01*
X158700000Y-122050000D02*
X158700000Y-122775000D01*
X158500000Y-121850000D02*
X158700000Y-122050000D01*
%TO.N,/DC-SCI edge connector/DC_SCM_I2C_I3C14.SDA*%
X160470000Y-80700000D02*
X160470000Y-83080000D01*
X160450000Y-80680000D02*
X160470000Y-80700000D01*
X159725000Y-83825000D02*
X159725000Y-102625000D01*
X160470000Y-83080000D02*
X159725000Y-83825000D01*
X159725000Y-122825000D02*
X159725000Y-102625000D01*
%TO.N,/DC-SCI edge connector/DC_SCM_I2C_I3C15.SCL*%
X161050000Y-83150000D02*
X160575000Y-83625000D01*
X160575000Y-123150000D02*
X160300000Y-123425000D01*
X160575000Y-107500000D02*
X160575000Y-123150000D01*
X161050000Y-82680000D02*
X161050000Y-83150000D01*
X160575000Y-83625000D02*
X160575000Y-107500000D01*
X160300000Y-123425000D02*
X160300000Y-123500000D01*
%TO.N,/DC-SCI edge connector/DC_SCM_I2C_I3C15.SDA*%
X161620000Y-83580000D02*
X161620000Y-80710000D01*
X161500000Y-83700000D02*
X161620000Y-83580000D01*
X161250000Y-108550000D02*
X161250000Y-123550000D01*
X161620000Y-80710000D02*
X161650000Y-80680000D01*
X161500000Y-108300000D02*
X161250000Y-108550000D01*
X161250000Y-123550000D02*
X160625000Y-124175000D01*
X161500000Y-107300000D02*
X161500000Y-83700000D01*
X161500000Y-107300000D02*
X161500000Y-108300000D01*
%TO.N,/DC-SCI edge connector/DC_SCM_I2C_I3C16.SCL*%
X168700000Y-84775000D02*
X168700000Y-85450000D01*
X168100000Y-78680000D02*
X168100000Y-84175000D01*
X168100000Y-109450000D02*
X168100000Y-130200000D01*
X168100000Y-86050000D02*
X168100000Y-109450000D01*
X168700000Y-85450000D02*
X168100000Y-86050000D01*
X168100000Y-84175000D02*
X168700000Y-84775000D01*
%TO.N,/DC-SCI edge connector/DC_SCM_I2C_I3C16.SDA*%
X167725000Y-102900000D02*
X167725000Y-104725000D01*
X167500000Y-98475000D02*
X167050000Y-98925000D01*
X167050000Y-102225000D02*
X167725000Y-102900000D01*
X167500000Y-80680000D02*
X167500000Y-98475000D01*
X167450000Y-105000000D02*
X167450000Y-110675000D01*
X167725000Y-104725000D02*
X167450000Y-105000000D01*
X167050000Y-98925000D02*
X167050000Y-102225000D01*
X167450000Y-110675000D02*
X167500000Y-110725000D01*
X167500000Y-130200000D02*
X167500000Y-110725000D01*
%TO.N,/DC-SCI edge connector/DC_SCM_ESPI.SCK*%
D20*
X129075000Y-97525000D02*
X129075000Y-116300000D01*
X126750000Y-118625000D02*
X126750000Y-122775000D01*
X128250000Y-96700000D02*
X129075000Y-97525000D01*
X127725000Y-88275000D02*
X128250000Y-88800000D01*
X129075000Y-116300000D02*
X126750000Y-118625000D01*
X127725000Y-82200000D02*
X127725000Y-88275000D01*
X128250000Y-88800000D02*
X128250000Y-96700000D01*
%TO.N,/DC-SCI edge connector/PECI_VREF_HPM_SCM*%
D23*
X127100000Y-81525000D02*
X127100000Y-104950000D01*
X127100000Y-104950000D02*
X127100000Y-117350000D01*
X125575000Y-122400000D02*
X125925000Y-122750000D01*
X125575000Y-118875000D02*
X125575000Y-122400000D01*
X127100000Y-117350000D02*
X125575000Y-118875000D01*
%TO.N,/DC-SCI edge connector/DC-SCM_PCIE0_SGMII.TX1+*%
D19*
X114901312Y-113799126D02*
X114901312Y-114322681D01*
X113196000Y-112093814D02*
X114901312Y-113799126D01*
X113196000Y-90023500D02*
X113196000Y-112093814D01*
X114901312Y-114322681D02*
X115074812Y-114496181D01*
X113369500Y-89850000D02*
X113196000Y-90023500D01*
%TO.N,/DC-SCI edge connector/DC_SCM_ESPI.IO3*%
D20*
X135225000Y-111600000D02*
X134350000Y-112475000D01*
X134350000Y-112475000D02*
X134350000Y-117850000D01*
X134350000Y-117850000D02*
X131525000Y-120675000D01*
X134600000Y-95350000D02*
X135225000Y-95975000D01*
X131525000Y-126250000D02*
X132826102Y-127551102D01*
X131525000Y-120675000D02*
X131525000Y-126250000D01*
X135225000Y-90625000D02*
X135225000Y-94100000D01*
X132826102Y-127551102D02*
X132826102Y-127561950D01*
X131300000Y-83775000D02*
X134750000Y-87225000D01*
X134750000Y-90150000D02*
X135225000Y-90625000D01*
X134750000Y-87225000D02*
X134750000Y-90150000D01*
X135225000Y-95975000D02*
X135225000Y-111600000D01*
X134600000Y-94725000D02*
X134600000Y-95350000D01*
X131300000Y-82950000D02*
X131300000Y-83775000D01*
X135225000Y-94100000D02*
X134600000Y-94725000D01*
%TO.N,/DC-SCI edge connector/DC_SCM_ESPI.IO1*%
X133000000Y-111250000D02*
X132450000Y-110700000D01*
X132450000Y-110700000D02*
X132450000Y-108900000D01*
X132600000Y-95850000D02*
X132600000Y-88500000D01*
X129750000Y-119625000D02*
X133000000Y-116375000D01*
X130125000Y-120775000D02*
X129750000Y-120400000D01*
X132450000Y-108900000D02*
X133575000Y-107775000D01*
X132600000Y-88500000D02*
X130100000Y-86000000D01*
X133575000Y-96825000D02*
X132600000Y-95850000D01*
X130100000Y-86000000D02*
X130100000Y-82875000D01*
X130125000Y-122700000D02*
X130125000Y-120775000D01*
X129750000Y-120400000D02*
X129750000Y-119625000D01*
X133000000Y-116375000D02*
X133000000Y-111250000D01*
X133575000Y-107775000D02*
X133575000Y-96825000D01*
%TO.N,/DC-SCI edge connector/DC_SCM_ESPI.~{CS0}*%
X128300000Y-87900000D02*
X128300000Y-83325000D01*
X130225000Y-116175000D02*
X130225000Y-97275000D01*
X129100000Y-96150000D02*
X129100000Y-88700000D01*
X127525000Y-118875000D02*
X130225000Y-116175000D01*
X127525000Y-122750000D02*
X127525000Y-118875000D01*
X130225000Y-97275000D02*
X129100000Y-96150000D01*
X129100000Y-88700000D02*
X128300000Y-87900000D01*
%TO.N,/DC-SCI edge connector/DC_SCM_ESPI.IO2*%
X134325000Y-108575000D02*
X133700000Y-109200000D01*
X130950000Y-120425000D02*
X130950000Y-122675000D01*
X133700000Y-109200000D02*
X133700000Y-117675000D01*
X134325000Y-96350000D02*
X134325000Y-108575000D01*
X130700000Y-84050000D02*
X134225000Y-87575000D01*
X133575000Y-95600000D02*
X134325000Y-96350000D01*
X130700000Y-83475000D02*
X130700000Y-84050000D01*
X133575000Y-91625000D02*
X133575000Y-95600000D01*
X133700000Y-117675000D02*
X130950000Y-120425000D01*
X134225000Y-87575000D02*
X134225000Y-90975000D01*
X134225000Y-90975000D02*
X133575000Y-91625000D01*
%TO.N,/DC-SCI edge connector/DC_SCM_ESPI.~{RESET}*%
X130000000Y-95875000D02*
X130000000Y-88500000D01*
X128900000Y-87400000D02*
X128900000Y-82875000D01*
X128325000Y-119175000D02*
X131200000Y-116300000D01*
X131200000Y-116300000D02*
X131200000Y-108400000D01*
X131550000Y-108050000D02*
X131550000Y-97425000D01*
X131550000Y-97425000D02*
X130000000Y-95875000D01*
X130000000Y-88500000D02*
X128900000Y-87400000D01*
X128325000Y-122725000D02*
X128325000Y-119175000D01*
X131200000Y-108400000D02*
X131550000Y-108050000D01*
%TO.N,/DC-SCI edge connector/DC_SCM_ESPI.IO0*%
X132425000Y-116100000D02*
X132425000Y-111700000D01*
X129500000Y-86750000D02*
X129500000Y-83400000D01*
X131825000Y-108800000D02*
X132375000Y-108250000D01*
X131825000Y-111100000D02*
X131825000Y-108800000D01*
X129200000Y-119325000D02*
X132425000Y-116100000D01*
X132425000Y-111700000D02*
X131825000Y-111100000D01*
X131650000Y-96250000D02*
X131650000Y-88900000D01*
X132375000Y-108250000D02*
X132375000Y-96975000D01*
X129200000Y-122725000D02*
X129200000Y-119325000D01*
X132375000Y-96975000D02*
X131650000Y-96250000D01*
X131650000Y-88900000D02*
X129500000Y-86750000D01*
%TO.N,/DC-SCI edge connector/DC_SCM_I2C_I3C17.SCL*%
D23*
X136875000Y-87700000D02*
X136875000Y-111525000D01*
X132430420Y-83255420D02*
X136875000Y-87700000D01*
X132430420Y-82985315D02*
X132430420Y-83255420D01*
X136875000Y-117875000D02*
X132325000Y-122425000D01*
X136875000Y-111525000D02*
X136875000Y-117875000D01*
X132325000Y-122425000D02*
X132325000Y-125500000D01*
X132325000Y-125500000D02*
X132750000Y-125925000D01*
%TO.N,/DC-SCI edge connector/DC_SCM_I2C_I3C18.SDA*%
X156620000Y-78750000D02*
X156600000Y-78730000D01*
X156600000Y-78730000D02*
X156550000Y-78680000D01*
X156600000Y-115125000D02*
X156600000Y-78730000D01*
X156600000Y-130200000D02*
X156600000Y-115125000D01*
%TO.N,/DC-SCI edge connector/DC_SCM_I2C_I3C18.SCL*%
X155950000Y-80730000D02*
X156000000Y-80680000D01*
X156000000Y-85030000D02*
X156000000Y-80730000D01*
X156000000Y-130200000D02*
X156000000Y-117625000D01*
X156000000Y-117625000D02*
X156000000Y-85030000D01*
%TO.N,/DC-SCI edge connector/DC_SCM_I2C_I3C19.SDA*%
X157800000Y-130200000D02*
X157800000Y-120225000D01*
X157800000Y-120225000D02*
X157800000Y-78680000D01*
%TO.N,/DC-SCI edge connector/DC_SCM_I2C_I3C19.SCL*%
X157200000Y-130200000D02*
X157200000Y-122750000D01*
X157200000Y-80680000D02*
X157200000Y-122750000D01*
%TO.N,/DC-SCI edge connector/DC_SCM_PRSNT1_N*%
X137975000Y-87375000D02*
X133400000Y-82800000D01*
X133400000Y-130200000D02*
X133400000Y-122825000D01*
X137975000Y-108850000D02*
X137975000Y-87375000D01*
X133400000Y-122825000D02*
X137975000Y-118250000D01*
X137975000Y-118250000D02*
X137975000Y-108850000D01*
X133400000Y-82800000D02*
X133400000Y-80680000D01*
%TO.N,/DC-SCI edge connector/DC_SCM_JTAG.TCK*%
X138525000Y-87125000D02*
X138525000Y-101275000D01*
X134000000Y-78680000D02*
X134000000Y-82600000D01*
X134000000Y-123025000D02*
X134000000Y-130200000D01*
X134000000Y-82600000D02*
X138525000Y-87125000D01*
X138525000Y-118500000D02*
X134000000Y-123025000D01*
X138525000Y-101275000D02*
X138525000Y-118500000D01*
%TO.N,/DC-SCI edge connector/DC_SCM_JTAG.TDO*%
X139125000Y-118800000D02*
X139125000Y-103825000D01*
X134600000Y-130200000D02*
X134600000Y-123325000D01*
X139125000Y-103825000D02*
X139125000Y-87025000D01*
X139125000Y-87025000D02*
X134600000Y-82500000D01*
X134600000Y-123325000D02*
X139125000Y-118800000D01*
X134600000Y-82500000D02*
X134600000Y-80680000D01*
%TO.N,/DC-SCI edge connector/DC_SCM_JTAG.TDI*%
X139725000Y-119025000D02*
X139725000Y-108475000D01*
X139725000Y-86725000D02*
X135200000Y-82200000D01*
X139725000Y-108475000D02*
X139725000Y-86725000D01*
X135200000Y-123550000D02*
X139725000Y-119025000D01*
X135200000Y-130200000D02*
X135200000Y-123550000D01*
X135200000Y-82200000D02*
X135200000Y-78680000D01*
%TO.N,/DC-SCI edge connector/DC_SCM_JTAG.TMS*%
X136375000Y-123300000D02*
X136375000Y-128500000D01*
X136375000Y-128500000D02*
X135800000Y-129075000D01*
X140350000Y-100100000D02*
X140800000Y-100100000D01*
X140350000Y-100100000D02*
X140350000Y-119325000D01*
X135800000Y-81900000D02*
X140350000Y-86450000D01*
X140350000Y-86450000D02*
X140350000Y-100100000D01*
X135800000Y-129075000D02*
X135800000Y-130200000D01*
X135800000Y-80680000D02*
X135800000Y-81900000D01*
X140350000Y-119325000D02*
X136375000Y-123300000D01*
%TO.N,/DC-SCI edge connector/DC_SCM_JTAG.TRST*%
X141250000Y-120725000D02*
X141825000Y-120150000D01*
X141825000Y-87175000D02*
X136400000Y-81750000D01*
X141825000Y-108725000D02*
X141825000Y-87175000D01*
X136800000Y-128750000D02*
X136800000Y-123762500D01*
X141825000Y-120150000D02*
X141825000Y-108725000D01*
X136400000Y-129150000D02*
X136800000Y-128750000D01*
X139837500Y-120725000D02*
X141250000Y-120725000D01*
X136400000Y-81750000D02*
X136400000Y-78680000D01*
X136400000Y-130200000D02*
X136400000Y-129150000D01*
X136800000Y-123762500D02*
X139837500Y-120725000D01*
%TO.N,/DC-SCI edge connector/~{DC_SCM_STBY_RST}*%
X137000000Y-130200000D02*
X137000000Y-129175000D01*
X140175000Y-121200000D02*
X141400000Y-121200000D01*
X137000000Y-81600000D02*
X142400000Y-87000000D01*
X137000000Y-129175000D02*
X137225000Y-128950000D01*
X142400000Y-120200000D02*
X142400000Y-106025000D01*
X137225000Y-128950000D02*
X137225000Y-124150000D01*
X142400000Y-87000000D02*
X142400000Y-106025000D01*
X137000000Y-80680000D02*
X137000000Y-81600000D01*
X141400000Y-121200000D02*
X142400000Y-120200000D01*
X137225000Y-124150000D02*
X140175000Y-121200000D01*
%TO.N,/DC-SCI edge connector/DC_SCM_STBY_EN*%
X142950000Y-120325000D02*
X142950000Y-100925000D01*
X142950000Y-86900000D02*
X137600000Y-81550000D01*
X137600000Y-130200000D02*
X137675000Y-130125000D01*
X141650000Y-121625000D02*
X142950000Y-120325000D01*
X137675000Y-124475000D02*
X140525000Y-121625000D01*
X140525000Y-121625000D02*
X141650000Y-121625000D01*
X137600000Y-81550000D02*
X137600000Y-78680000D01*
X137675000Y-130125000D02*
X137675000Y-124475000D01*
X142950000Y-100925000D02*
X142950000Y-86900000D01*
%TO.N,/DC-SCI edge connector/DC_SCM_I2C0.SCL*%
X138200000Y-130200000D02*
X138200000Y-124850000D01*
X138200000Y-81425000D02*
X138200000Y-80680000D01*
X141775000Y-122225000D02*
X143525000Y-120475000D01*
X138200000Y-124850000D02*
X140825000Y-122225000D01*
X143525000Y-86750000D02*
X138200000Y-81425000D01*
X140825000Y-122225000D02*
X141775000Y-122225000D01*
X143525000Y-120475000D02*
X143525000Y-88225000D01*
X143525000Y-88225000D02*
X143525000Y-86750000D01*
%TO.N,/DC-SCI edge connector/DC_SCM_I2C0.SDA*%
X144100000Y-120625000D02*
X141350000Y-123375000D01*
X138800000Y-125050000D02*
X138800000Y-130200000D01*
X141350000Y-123375000D02*
X140475000Y-123375000D01*
X143625000Y-86025000D02*
X144100000Y-86500000D01*
X144100000Y-86500000D02*
X144100000Y-120625000D01*
X138800000Y-81300000D02*
X138800000Y-78680000D01*
X140475000Y-123375000D02*
X138800000Y-125050000D01*
X143525000Y-86025000D02*
X138800000Y-81300000D01*
X143625000Y-86025000D02*
X143525000Y-86025000D01*
%TO.N,/DC-SCI edge connector/DC_SCM_I2C1.SCL*%
X139400000Y-130200000D02*
X139400000Y-125250000D01*
X139400000Y-125250000D02*
X140800000Y-123850000D01*
X140800000Y-123850000D02*
X141575000Y-123850000D01*
X144700000Y-120725000D02*
X144700000Y-96125000D01*
X144700000Y-86275000D02*
X139400000Y-80975000D01*
X139400000Y-80975000D02*
X139400000Y-80680000D01*
X144700000Y-96125000D02*
X144700000Y-86275000D01*
X141575000Y-123850000D02*
X144700000Y-120725000D01*
%TO.N,/DC-SCI edge connector/DC_SCM_I2C1.SDA*%
X141100000Y-124350000D02*
X141925000Y-124350000D01*
X140000000Y-78680000D02*
X140000000Y-81025000D01*
X140000000Y-130200000D02*
X140000000Y-125450000D01*
X141925000Y-124350000D02*
X145250000Y-121025000D01*
X145250000Y-86275000D02*
X145250000Y-98725000D01*
X140000000Y-125450000D02*
X141100000Y-124350000D01*
X140000000Y-81025000D02*
X145250000Y-86275000D01*
X145250000Y-121025000D02*
X145250000Y-98725000D01*
%TO.N,/DC-SCI edge connector/DC_SCM_LTPI.TXD+*%
D21*
X141680000Y-126429122D02*
X141680000Y-128789999D01*
X146630000Y-121479122D02*
X141680000Y-126429122D01*
X144190000Y-81841622D02*
X144190000Y-83415000D01*
X141680000Y-128789999D02*
X141800000Y-128909999D01*
X146630000Y-85855000D02*
X146630000Y-121479122D01*
X144387500Y-81644122D02*
X144190000Y-81841622D01*
X141800000Y-128909999D02*
X141800000Y-130200000D01*
X144190000Y-83415000D02*
X146630000Y-85855000D01*
%TO.N,/DC-SCI edge connector/DC_SCM_LTPI.TXCK+*%
X143480000Y-126279120D02*
X143480000Y-128789999D01*
X143480000Y-128789999D02*
X143600000Y-128909999D01*
X148030000Y-85780000D02*
X148030000Y-121729120D01*
X145755000Y-83505000D02*
X148030000Y-85780000D01*
X145952500Y-82500000D02*
X145755000Y-82697500D01*
X145755000Y-82697500D02*
X145755000Y-83505000D01*
X148030000Y-121729120D02*
X143480000Y-126279120D01*
X143600000Y-128909999D02*
X143600000Y-130200000D01*
%TO.N,/DC-SCI edge connector/DC_SCM_I2C2.SCL*%
D23*
X149500000Y-123650000D02*
X147457929Y-123650000D01*
X145575000Y-125532929D02*
X145575000Y-128200000D01*
X147457929Y-123650000D02*
X145575000Y-125532929D01*
X124380000Y-83630000D02*
X125250000Y-84500000D01*
X145575000Y-128200000D02*
X144800000Y-128975000D01*
X124380000Y-83080000D02*
X124380000Y-83630000D01*
X144800000Y-128975000D02*
X144800000Y-130200000D01*
X125250000Y-84500000D02*
X125250000Y-114800000D01*
%TO.N,/DC-SCI edge connector/DC_SCM_I2C2.SDA*%
X146000000Y-125602904D02*
X146000000Y-128375000D01*
X126400000Y-83900000D02*
X126400000Y-115350000D01*
X149498497Y-124350001D02*
X149496996Y-124348500D01*
X149496996Y-124348500D02*
X147254404Y-124348500D01*
X146000000Y-128375000D02*
X145400000Y-128975000D01*
X145400000Y-128975000D02*
X145400000Y-130200000D01*
X125650000Y-83150000D02*
X126400000Y-83900000D01*
X125650000Y-83080000D02*
X125650000Y-83150000D01*
X147254404Y-124348500D02*
X146000000Y-125602904D01*
D19*
X125510000Y-83105000D02*
X125510000Y-83080000D01*
%TO.N,/DC-SCI edge connector/~{PCIE_HPM_SCM_PERST}*%
X125900000Y-115950000D02*
X125850000Y-115900000D01*
X146450000Y-125650000D02*
X146450000Y-128600000D01*
X125000000Y-83350000D02*
X125000000Y-81080000D01*
X149525000Y-125225000D02*
X149000000Y-124700000D01*
X146000000Y-129050000D02*
X146000000Y-130200000D01*
X149000000Y-124700000D02*
X147400000Y-124700000D01*
X147400000Y-124700000D02*
X146450000Y-125650000D01*
X125850000Y-115900000D02*
X125850000Y-84200000D01*
X146450000Y-128600000D02*
X146000000Y-129050000D01*
X125850000Y-84200000D02*
X125000000Y-83350000D01*
%TO.N,/DC-SCI edge connector/DC-SCM_PCIE1.RX0-*%
X150398336Y-84100522D02*
X151208000Y-84910186D01*
X150152970Y-84100522D02*
X150398336Y-84100522D01*
X150704000Y-128805999D02*
X150600000Y-128909999D01*
X151208000Y-84910186D02*
X151208000Y-126239814D01*
X150600000Y-128909999D02*
X150600000Y-130200000D01*
X150704000Y-126743814D02*
X150704000Y-128805999D01*
X151208000Y-126239814D02*
X150704000Y-126743814D01*
%TO.N,/DC-SCI edge connector/DC-SCM_PCIE1.RX0+*%
X151096000Y-126906186D02*
X151096000Y-128805999D01*
X151600000Y-126402186D02*
X151096000Y-126906186D01*
X151200000Y-128909999D02*
X151200000Y-130200000D01*
X150675522Y-83823336D02*
X151600000Y-84747814D01*
X151600000Y-84747814D02*
X151600000Y-126402186D01*
X151096000Y-128805999D02*
X151200000Y-128909999D01*
X150675522Y-83577970D02*
X150675522Y-83823336D01*
%TO.N,/DC-SCI edge connector/DC-SCM_PCIE_USB_SCMROOT.RX0-*%
X149955500Y-80338550D02*
X150129000Y-80512050D01*
X152740981Y-84265981D02*
X152740981Y-126706833D01*
X152504000Y-126943814D02*
X152504000Y-128805999D01*
X150129000Y-80512050D02*
X150129000Y-81654000D01*
X152740981Y-126706833D02*
X152504000Y-126943814D01*
X152400000Y-128909999D02*
X152400000Y-130200000D01*
X152504000Y-128805999D02*
X152400000Y-128909999D01*
X150129000Y-81654000D02*
X152740981Y-84265981D01*
%TO.N,/DC-SCI edge connector/DC-SCM_PCIE_USB_SCMROOT.RX0+*%
X152896000Y-127106186D02*
X152896000Y-128805999D01*
X153132981Y-84103609D02*
X153132981Y-126869205D01*
X153000000Y-128909999D02*
X153000000Y-130200000D01*
X150521000Y-81491628D02*
X153132981Y-84103609D01*
X150521000Y-80512050D02*
X150521000Y-81491628D01*
X150694500Y-80338550D02*
X150521000Y-80512050D01*
X153132981Y-126869205D02*
X152896000Y-127106186D01*
X152896000Y-128805999D02*
X153000000Y-128909999D01*
%TO.N,/DC-SCI edge connector/DC-SCM_CLK_100M_0.CLK-*%
X152229000Y-81783006D02*
X152055500Y-81609506D01*
X154304000Y-128805999D02*
X154304000Y-84233372D01*
X154200000Y-128909999D02*
X154304000Y-128805999D01*
X154304000Y-84233372D02*
X152229000Y-82158372D01*
X154200000Y-130200000D02*
X154200000Y-128909999D01*
X152229000Y-82158372D02*
X152229000Y-81783006D01*
%TO.N,/DC-SCI edge connector/DC-SCM_CLK_100M_0.CLK+*%
X154696000Y-128805999D02*
X154696000Y-84071000D01*
X152621000Y-81783006D02*
X152794500Y-81609506D01*
X154696000Y-84071000D02*
X152621000Y-81996000D01*
X152621000Y-81996000D02*
X152621000Y-81783006D01*
X154800000Y-128909999D02*
X154696000Y-128805999D01*
X154800000Y-130200000D02*
X154800000Y-128909999D01*
%TO.N,/DC-SCI edge connector/DC_SCM_I2C3.SCL*%
D23*
X162700000Y-120775000D02*
X162700000Y-130200000D01*
X162700000Y-108825000D02*
X162325000Y-109200000D01*
X162325000Y-109200000D02*
X162325000Y-120400000D01*
X162700000Y-104975000D02*
X162700000Y-108825000D01*
X162325000Y-120400000D02*
X162700000Y-120775000D01*
X162700000Y-104975000D02*
X162700000Y-80680000D01*
%TO.N,/DC-SCI edge connector/DC_SCM_I2C3.SDA*%
X163300000Y-78680000D02*
X163300000Y-106275000D01*
X163300000Y-120650000D02*
X162850000Y-120200000D01*
X163300000Y-130200000D02*
X163300000Y-120650000D01*
X162850000Y-109525000D02*
X163300000Y-109075000D01*
X162850000Y-120200000D02*
X162850000Y-109525000D01*
X163300000Y-109075000D02*
X163300000Y-106275000D01*
%TO.N,/DC-SCI edge connector/DC_SCM_I2C4.SCL*%
X163375000Y-110175000D02*
X163900000Y-109650000D01*
X163900000Y-120425000D02*
X163375000Y-119900000D01*
X163375000Y-119900000D02*
X163375000Y-110175000D01*
X163900000Y-109650000D02*
X163900000Y-80680000D01*
X163900000Y-130200000D02*
X163900000Y-120425000D01*
%TO.N,/DC-SCI edge connector/DC_SCM_I2C4.SDA*%
X163950000Y-116225000D02*
X163950000Y-114125000D01*
X164275000Y-116550000D02*
X163950000Y-116225000D01*
X164500000Y-108650000D02*
X164500000Y-107825000D01*
X164700000Y-108850000D02*
X164500000Y-108650000D01*
X164500000Y-120200000D02*
X164275000Y-119975000D01*
X164500000Y-130200000D02*
X164500000Y-120200000D01*
X164500000Y-78680000D02*
X164500000Y-107825000D01*
X164275000Y-119975000D02*
X164275000Y-116550000D01*
X163950000Y-114125000D02*
X164700000Y-113375000D01*
X164700000Y-113375000D02*
X164700000Y-108850000D01*
%TO.N,/DC-SCI edge connector/DC_SCM_I2C5.SCL*%
X164775000Y-119775000D02*
X165100000Y-120100000D01*
X165100000Y-120100000D02*
X165100000Y-130200000D01*
X164775000Y-116425000D02*
X164775000Y-119775000D01*
X165100000Y-113925000D02*
X164400000Y-114625000D01*
X165100000Y-87675000D02*
X165100000Y-113925000D01*
X164400000Y-114625000D02*
X164400000Y-116050000D01*
X165100000Y-87675000D02*
X165100000Y-80680000D01*
X164400000Y-116050000D02*
X164775000Y-116425000D01*
%TO.N,/DC-SCI edge connector/DC_SCM_I2C5.SDA*%
X165700000Y-78680000D02*
X165700000Y-89175000D01*
X165700000Y-119880026D02*
X165250000Y-119430026D01*
X165725000Y-89200000D02*
X165700000Y-89175000D01*
X165700000Y-130200000D02*
X165700000Y-119880026D01*
X165250000Y-116850000D02*
X165725000Y-116375000D01*
X165250000Y-119430026D02*
X165250000Y-116850000D01*
X165725000Y-116375000D02*
X165725000Y-89200000D01*
%TO.N,/DC-SCI edge connector/DC_SCM_I2C6.SCL*%
X166300000Y-117342463D02*
X166150000Y-117492463D01*
X165775000Y-119150000D02*
X166300000Y-119675000D01*
X166150000Y-118075000D02*
X165775000Y-118450000D01*
X165775000Y-118450000D02*
X165775000Y-119150000D01*
X166300000Y-94400000D02*
X166300000Y-80680000D01*
X166300000Y-119675000D02*
X166300000Y-130200000D01*
X166300000Y-116907537D02*
X166300000Y-117342463D01*
X166150000Y-94550000D02*
X166150000Y-116757537D01*
X166300000Y-94400000D02*
X166150000Y-94550000D01*
X166150000Y-117492463D02*
X166150000Y-118075000D01*
X166150000Y-116757537D02*
X166300000Y-116907537D01*
%TO.N,/DC-SCI edge connector/DC_SCM_I2C6.SDA*%
X166875000Y-92775000D02*
X166900000Y-92750000D01*
X167350000Y-104200000D02*
X167350000Y-103200000D01*
X166650000Y-102500000D02*
X166650000Y-95650000D01*
X166900000Y-95400000D02*
X166900000Y-92750000D01*
X166650000Y-95650000D02*
X166900000Y-95400000D01*
X166900000Y-78680000D02*
X166900000Y-92750000D01*
X167350000Y-103200000D02*
X166650000Y-102500000D01*
X166900000Y-104650000D02*
X167350000Y-104200000D01*
X166900000Y-130200000D02*
X166900000Y-104650000D01*
%TO.N,/DC-SCI edge connector/DC_SCM_TPM_SPI.SCK*%
D20*
X169300000Y-78680000D02*
X169300000Y-89450000D01*
X168675000Y-112575000D02*
X169300000Y-113200000D01*
X169300000Y-89450000D02*
X168675000Y-90075000D01*
X169300000Y-113200000D02*
X169300000Y-130200000D01*
X168675000Y-90075000D02*
X168675000Y-112575000D01*
%TO.N,/DC-SCI edge connector/DC_SCM_TPM_SPI.~{CS0}*%
X169300000Y-91375000D02*
X169900000Y-90775000D01*
X169900000Y-115800000D02*
X169900000Y-113000000D01*
X169900000Y-113000000D02*
X169300000Y-112400000D01*
X169300000Y-112400000D02*
X169300000Y-91375000D01*
X169900000Y-130200000D02*
X169900000Y-115800000D01*
X169900000Y-90775000D02*
X169900000Y-80680000D01*
%TO.N,/DC-SCI edge connector/DC_SCM_TPM_SPI.DI*%
X170500000Y-78680000D02*
X170500000Y-91925000D01*
X170500000Y-112925000D02*
X170500000Y-118650000D01*
X169900000Y-92525000D02*
X169900000Y-112325000D01*
X170500000Y-91925000D02*
X169900000Y-92525000D01*
X169900000Y-112325000D02*
X170500000Y-112925000D01*
X170500000Y-118650000D02*
X170500000Y-130200000D01*
%TO.N,/DC-SCI edge connector/DC_SCM_TPM_SPI.DO*%
X170425000Y-94375000D02*
X171100000Y-95050000D01*
X170500000Y-105300000D02*
X171100000Y-105900000D01*
X170500000Y-96600000D02*
X170500000Y-105300000D01*
X171100000Y-92350000D02*
X170425000Y-93025000D01*
X171100000Y-105900000D02*
X171100000Y-119175000D01*
X170425000Y-93025000D02*
X170425000Y-94375000D01*
X171100000Y-96000000D02*
X170500000Y-96600000D01*
X171100000Y-95050000D02*
X171100000Y-96000000D01*
X171100000Y-130200000D02*
X171100000Y-119175000D01*
X171100000Y-80680000D02*
X171100000Y-92350000D01*
%TO.N,/DC-SCI edge connector/DC_SCM_I2C_I3C12.SCL*%
D23*
X171100000Y-104800000D02*
X171100000Y-104100000D01*
X171700000Y-130200000D02*
X171700000Y-105400000D01*
X171700000Y-78680000D02*
X171700000Y-98150000D01*
X171100000Y-104100000D02*
X171700000Y-103500000D01*
X171700000Y-105400000D02*
X171100000Y-104800000D01*
X171700000Y-103500000D02*
X171700000Y-98150000D01*
%TO.N,/DC-SCI edge connector/DC_SCM_I2C_I3C12.SDA*%
X172300000Y-96200000D02*
X172300000Y-130200000D01*
X172300000Y-96200000D02*
X172300000Y-80680000D01*
%TO.N,/DC-SCI edge connector/~{DC_SCM_SPI_SCMCNTRL_IRQ0}*%
D20*
X172900000Y-122650000D02*
X172900000Y-130200000D01*
X172900000Y-78680000D02*
X172900000Y-122650000D01*
%TO.N,/DC-SCI edge connector/DC_SCM_UART.TX*%
D23*
X174850000Y-101250000D02*
X174850000Y-101850000D01*
X174700000Y-100500000D02*
X174850000Y-100650000D01*
X174700000Y-80680000D02*
X174700000Y-100500000D01*
X174700000Y-102000000D02*
X174700000Y-130200000D01*
X174850000Y-100650000D02*
X174850000Y-101250000D01*
X174850000Y-101850000D02*
X174700000Y-102000000D01*
%TO.N,/DC-SCI edge connector/DC-SCM_CLK_100M_1.CLK-*%
D19*
X182543814Y-124979000D02*
X184404000Y-123118814D01*
X177804000Y-128805999D02*
X177804000Y-126743814D01*
X179568814Y-124979000D02*
X182543814Y-124979000D01*
X177804000Y-126743814D02*
X179568814Y-124979000D01*
X177700000Y-130200000D02*
X177700000Y-128909999D01*
X184404000Y-123118814D02*
X184404000Y-121523500D01*
X177700000Y-128909999D02*
X177804000Y-128805999D01*
X184404000Y-121523500D02*
X184230500Y-121350000D01*
%TO.N,/DC-SCI edge connector/DC-SCM_CLK_100M_1.CLK+*%
X178300000Y-128909999D02*
X178196000Y-128805999D01*
X184796000Y-123281186D02*
X184796000Y-121523500D01*
X184796000Y-121523500D02*
X184969500Y-121350000D01*
X178196000Y-128805999D02*
X178196000Y-126906186D01*
X182706186Y-125371000D02*
X184796000Y-123281186D01*
X178196000Y-126906186D02*
X179731186Y-125371000D01*
X178300000Y-130200000D02*
X178300000Y-128909999D01*
X179731186Y-125371000D02*
X182706186Y-125371000D01*
%TO.N,/DC-SCI edge connector/DC_SCM_STBY_RDY*%
D23*
X122550000Y-89250000D02*
X122550000Y-90150000D01*
X122300000Y-103350000D02*
X123000000Y-104050000D01*
X122550000Y-90150000D02*
X122300000Y-90400000D01*
X122630000Y-81080000D02*
X122630000Y-85470000D01*
X122300000Y-90400000D02*
X122300000Y-103350000D01*
X122300000Y-85800000D02*
X122300000Y-89000000D01*
X122300000Y-89000000D02*
X122550000Y-89250000D01*
X122630000Y-85470000D02*
X122300000Y-85800000D01*
%TO.N,/DC-SCI edge connector/~{DC_SCM_INTRUSION}*%
X123218009Y-83918009D02*
X123800000Y-84500000D01*
X123800000Y-84500000D02*
X123800000Y-105100000D01*
X123218009Y-83093009D02*
X123218009Y-83918009D01*
%TO.N,/DC-SCI edge connector/DC_SCM_P3V0*%
X124600000Y-84550000D02*
X124600000Y-97300000D01*
X124600000Y-97300000D02*
X124600000Y-116050000D01*
X123800000Y-83750000D02*
X124600000Y-84550000D01*
X123800000Y-81080000D02*
X123800000Y-83750000D01*
%TO.N,/DC-SCI edge connector/DC_SCM_NC-SI.REF_CLK*%
D21*
X161775000Y-108850000D02*
X161775000Y-112575000D01*
X162000000Y-104650000D02*
X162000000Y-105425000D01*
X162175000Y-108450000D02*
X161775000Y-108850000D01*
X161800000Y-124850000D02*
X161800000Y-112600000D01*
X162200000Y-104450000D02*
X162000000Y-104650000D01*
X161800000Y-112600000D02*
X161775000Y-112575000D01*
X162175000Y-105600000D02*
X162175000Y-108450000D01*
X162162500Y-84387500D02*
X162200000Y-84425000D01*
X162162500Y-84212500D02*
X162162500Y-84387500D01*
X162200000Y-84425000D02*
X162200000Y-104450000D01*
X162000000Y-105425000D02*
X162175000Y-105600000D01*
%TO.N,/DC-SCI edge connector/DC_SCM_SPI_SCMCNTRL.~{CS1}*%
D20*
X175425000Y-84525000D02*
X176150000Y-85250000D01*
X176675000Y-111300000D02*
X176675000Y-119525000D01*
X175375000Y-120825000D02*
X175375000Y-124475000D01*
X176150000Y-110775000D02*
X176675000Y-111300000D01*
X176675000Y-119525000D02*
X175375000Y-120825000D01*
X176150000Y-85250000D02*
X176150000Y-110775000D01*
%TO.N,/DC-SCI edge connector/DC_SCM_SPI_SCMCNTRL.DI*%
X178850000Y-85575000D02*
X177800000Y-84525000D01*
X177800000Y-121650000D02*
X178400000Y-121050000D01*
X178850000Y-95500000D02*
X178850000Y-85575000D01*
X178400000Y-95950000D02*
X178850000Y-95500000D01*
X177800000Y-124450000D02*
X177800000Y-121650000D01*
X178400000Y-121050000D02*
X178400000Y-95950000D01*
%TO.N,/DC-SCI edge connector/DC_SCM_SPI_SCMCNTRL.~{CS0}*%
X179925000Y-123125000D02*
X178625000Y-124425000D01*
X180150000Y-113875000D02*
X180150000Y-86075000D01*
X179925000Y-114100000D02*
X179925000Y-123125000D01*
X180150000Y-86075000D02*
X178600000Y-84525000D01*
X179925000Y-114100000D02*
X180150000Y-113875000D01*
%TO.N,/DC-SCI edge connector/DC-SCM_PCIE0_SGMII.RX0-*%
D19*
X116443814Y-124871000D02*
X108443814Y-124871000D01*
X108443814Y-124871000D02*
X102745243Y-119172429D01*
X102745243Y-119172429D02*
X102745243Y-91973500D01*
X102745243Y-91973500D02*
X102571743Y-91800000D01*
%TO.N,/DC-SCI edge connector/DC-SCM_PCIE0_SGMII.RX0+*%
X116606186Y-124479000D02*
X108606186Y-124479000D01*
X103137243Y-91973500D02*
X103310743Y-91800000D01*
X103137243Y-119010057D02*
X103137243Y-91973500D01*
X108606186Y-124479000D02*
X103137243Y-119010057D01*
%TO.N,/DC-SCI edge connector/DC-SCM_PCIE0_SGMII.RX1-*%
X104570500Y-90975000D02*
X104744000Y-91148500D01*
X104744000Y-91148500D02*
X104744000Y-118396186D01*
X104744000Y-118396186D02*
X109543814Y-123196000D01*
%TO.N,/DC-SCI edge connector/DC-SCM_PCIE0_SGMII.RX2-*%
X106620500Y-91775000D02*
X106794000Y-91948500D01*
X106794000Y-117696186D02*
X110593814Y-121496000D01*
X110593814Y-121496000D02*
X117843814Y-121496000D01*
X106794000Y-91948500D02*
X106794000Y-117696186D01*
%TO.N,/DC-SCI edge connector/DC-SCM_PCIE0_SGMII.RX2+*%
X107186000Y-117533814D02*
X110756186Y-121104000D01*
X110756186Y-121104000D02*
X118006186Y-121104000D01*
X107186000Y-91948500D02*
X107186000Y-117533814D01*
X107359500Y-91775000D02*
X107186000Y-91948500D01*
%TO.N,/DC-SCI edge connector/DC-SCM_PCIE0_SGMII.RX3-*%
X111318814Y-120046000D02*
X118493814Y-120046000D01*
X108794000Y-117521186D02*
X111318814Y-120046000D01*
X108620500Y-91025000D02*
X108794000Y-91198500D01*
X108794000Y-91198500D02*
X108794000Y-117521186D01*
%TO.N,/DC-SCI edge connector/DC-SCM_PCIE0_SGMII.RX3+*%
X109186000Y-117358814D02*
X111481186Y-119654000D01*
X109186000Y-91198500D02*
X109186000Y-117358814D01*
X109359500Y-91025000D02*
X109186000Y-91198500D01*
X111481186Y-119654000D02*
X118656186Y-119654000D01*
%TO.N,/DC-SCI edge connector/DC_SCM_PECI*%
D23*
X121050000Y-99850000D02*
X121050000Y-111000000D01*
X121350000Y-99050000D02*
X121050000Y-99350000D01*
X125200000Y-123100000D02*
X125200000Y-125950000D01*
X123350000Y-121250000D02*
X125200000Y-123100000D01*
X121050000Y-99350000D02*
X121050000Y-99850000D01*
X121350000Y-95150000D02*
X121350000Y-99050000D01*
X125200000Y-125950000D02*
X125400000Y-126150000D01*
X122050000Y-83110000D02*
X121700000Y-83460000D01*
X121200000Y-89150000D02*
X121200000Y-95000000D01*
X123350000Y-116500000D02*
X123350000Y-121250000D01*
X122250000Y-115400000D02*
X123350000Y-116500000D01*
X121700000Y-88650000D02*
X121200000Y-89150000D01*
X122250000Y-112200000D02*
X122250000Y-115400000D01*
X121050000Y-111000000D02*
X122250000Y-112200000D01*
X121200000Y-95000000D02*
X121350000Y-95150000D01*
X125400000Y-126150000D02*
X125400000Y-130200000D01*
X121700000Y-83460000D02*
X121700000Y-88650000D01*
%TO.N,/DC-SCI edge connector/DC-SCM_PCIE0_SGMII.TX0+*%
D19*
X111360743Y-91775000D02*
X111187243Y-91948500D01*
X112621000Y-115976500D02*
X112621000Y-115143814D01*
X112794500Y-116150000D02*
X112621000Y-115976500D01*
X111187243Y-113710057D02*
X112621000Y-115143814D01*
X111187243Y-91948500D02*
X111187243Y-113710057D01*
%TO.N,/DC-SCI edge connector/DC-SCM_PCIE0_SGMII.TX1-*%
X112804000Y-90023500D02*
X112804000Y-112256186D01*
X114509312Y-113961498D02*
X114509312Y-114322681D01*
X112804000Y-112256186D02*
X114509312Y-113961498D01*
X114509312Y-114322681D02*
X114335812Y-114496181D01*
X112630500Y-89850000D02*
X112804000Y-90023500D01*
%TO.N,/DC-SCI edge connector/DC-SCM_PCIE0_SGMII.TX2-*%
X117504000Y-113358372D02*
X117504000Y-115351500D01*
X114804000Y-110658372D02*
X117504000Y-113358372D01*
X114630500Y-91975000D02*
X114804000Y-92148500D01*
X114804000Y-92148500D02*
X114804000Y-110658372D01*
X117504000Y-115351500D02*
X117330500Y-115525000D01*
%TO.N,/DC-SCI edge connector/DC-SCM_PCIE0_SGMII.TX2+*%
X115369500Y-91975000D02*
X115196000Y-92148500D01*
X115196000Y-92148500D02*
X115196000Y-110496000D01*
X115196000Y-110496000D02*
X117896000Y-113196000D01*
X117896000Y-113196000D02*
X117896000Y-115351500D01*
X117896000Y-115351500D02*
X118069500Y-115525000D01*
%TO.N,/DC-SCI edge connector/DC-SCM_PCIE0_SGMII.TX3-*%
X116804000Y-89973500D02*
X116804000Y-110208372D01*
X116630500Y-89800000D02*
X116804000Y-89973500D01*
X120629000Y-116601500D02*
X120455500Y-116775000D01*
X120629000Y-114033372D02*
X120629000Y-116601500D01*
X116804000Y-110208372D02*
X120629000Y-114033372D01*
%TO.N,/DC-SCI edge connector/DC-SCM_PCIE0_SGMII.TX3+*%
X117196000Y-110046000D02*
X121021000Y-113871000D01*
X121021000Y-113871000D02*
X121021000Y-116466669D01*
X121076707Y-116657207D02*
X121194500Y-116775000D01*
X121076707Y-116522376D02*
X121076707Y-116657207D01*
X121021000Y-116466669D02*
X121076707Y-116522376D01*
X117196000Y-89973500D02*
X117196000Y-110046000D01*
X117369500Y-89800000D02*
X117196000Y-89973500D01*
%TO.N,/DC-SCI gold fingers connector/CLK_100M_0_CLK+*%
X154696000Y-73074000D02*
X154800000Y-72970000D01*
X153446000Y-75081186D02*
X154696000Y-73831186D01*
X153446000Y-76481186D02*
X153446000Y-75081186D01*
X153111276Y-77061276D02*
X153111276Y-76815910D01*
X154800000Y-72970000D02*
X154800000Y-72300000D01*
X154696000Y-73831186D02*
X154696000Y-73074000D01*
X153111276Y-76815910D02*
X153446000Y-76481186D01*
%TO.N,/DC-SCI gold fingers connector/PCIE0_SGMII_RX0+*%
X105481186Y-75796000D02*
X103667764Y-77609422D01*
X118800000Y-72300000D02*
X118800000Y-73590001D01*
X118800000Y-73590001D02*
X118696000Y-73694001D01*
X117081186Y-75796000D02*
X105481186Y-75796000D01*
X103667764Y-77609422D02*
X103667764Y-77854788D01*
X118696000Y-73694001D02*
X118696000Y-74181186D01*
X118696000Y-74181186D02*
X117081186Y-75796000D01*
%TO.N,/DC-SCI gold fingers connector/CLK_100M_1_CLK-*%
X178293099Y-74060285D02*
X178293099Y-76106500D01*
X178293099Y-76106500D02*
X178119599Y-76280000D01*
X177700000Y-72300000D02*
X177700000Y-72970000D01*
X177700000Y-72970000D02*
X177804000Y-73074000D01*
X177804000Y-73571186D02*
X178293099Y-74060285D01*
X177804000Y-73074000D02*
X177804000Y-73571186D01*
%TO.N,/DC-SCI gold fingers connector/PCIE0_SGMII_RX0-*%
X118200000Y-73590001D02*
X118304000Y-73694001D01*
X103390578Y-77332236D02*
X103145212Y-77332236D01*
X116918814Y-75404000D02*
X105318814Y-75404000D01*
X118304000Y-73694001D02*
X118304000Y-74018814D01*
X118304000Y-74018814D02*
X116918814Y-75404000D01*
X118200000Y-72300000D02*
X118200000Y-73590001D01*
X105318814Y-75404000D02*
X103390578Y-77332236D01*
%TO.N,/DC-SCI gold fingers connector/CLK_100M_1_CLK+*%
X178300000Y-72300000D02*
X178300000Y-72970000D01*
X178300000Y-72970000D02*
X178196000Y-73074000D01*
X178196000Y-73074000D02*
X178196000Y-73408814D01*
X178685099Y-73897913D02*
X178685099Y-76106500D01*
X178685099Y-76106500D02*
X178858599Y-76280000D01*
X178196000Y-73408814D02*
X178685099Y-73897913D01*
%TO.N,/DC-SCI gold fingers connector/PCIE1_RX0+*%
X148861276Y-77415910D02*
X148861276Y-77661276D01*
X151096000Y-73074000D02*
X151096000Y-73581186D01*
X151200000Y-72970000D02*
X151096000Y-73074000D01*
X150000000Y-76277186D02*
X148861276Y-77415910D01*
X151096000Y-73581186D02*
X150000000Y-74677186D01*
X151200000Y-72300000D02*
X151200000Y-72970000D01*
X150000000Y-74677186D02*
X150000000Y-76277186D01*
%TO.N,/DC-SCI gold fingers connector/PCIE_USB_SCMROOT_RX0+*%
X151811276Y-75861276D02*
X151811276Y-75615910D01*
X152196000Y-74481186D02*
X152896000Y-73781186D01*
X151811276Y-75615910D02*
X152196000Y-75231186D01*
X152896000Y-73781186D02*
X152896000Y-73074000D01*
X152196000Y-75231186D02*
X152196000Y-74481186D01*
X153000000Y-72970000D02*
X153000000Y-72300000D01*
X152896000Y-73074000D02*
X153000000Y-72970000D01*
%TO.N,/DC-SCI gold fingers connector/PCIE0_SGMII_RX3-*%
X123600000Y-73590001D02*
X123600000Y-72300000D01*
X109058724Y-81078724D02*
X109304090Y-81078724D01*
X123704000Y-75541628D02*
X123704000Y-73694001D01*
X123704000Y-73694001D02*
X123600000Y-73590001D01*
X109538814Y-80844000D02*
X118401628Y-80844000D01*
X118401628Y-80844000D02*
X123704000Y-75541628D01*
X109304090Y-81078724D02*
X109538814Y-80844000D01*
%TO.N,/DC-SCI gold fingers connector/PCIE0_SGMII_RX2-*%
X121904000Y-73694001D02*
X121904000Y-75041628D01*
X121800000Y-72300000D02*
X121800000Y-73590001D01*
X117581628Y-79364000D02*
X107918814Y-79364000D01*
X107434090Y-79848724D02*
X107188724Y-79848724D01*
X107918814Y-79364000D02*
X107434090Y-79848724D01*
X121800000Y-73590001D02*
X121904000Y-73694001D01*
X121904000Y-75041628D02*
X117581628Y-79364000D01*
%TO.N,/DC-SCI gold fingers connector/PCIE0_SGMII_RX1-*%
X120104000Y-73694001D02*
X120104000Y-74618814D01*
X105544090Y-77908724D02*
X105298724Y-77908724D01*
X120000000Y-72300000D02*
X120000000Y-73590001D01*
X106158814Y-77294000D02*
X105544090Y-77908724D01*
X117428814Y-77294000D02*
X106158814Y-77294000D01*
X120000000Y-73590001D02*
X120104000Y-73694001D01*
X120104000Y-74618814D02*
X117428814Y-77294000D01*
%TO.N,/DC-SCI gold fingers connector/PCIE0_SGMII_RX2+*%
X107711276Y-80125910D02*
X107711276Y-80371276D01*
X122400000Y-72300000D02*
X122400000Y-73590001D01*
X122296000Y-75204000D02*
X117744000Y-79756000D01*
X122296000Y-73694001D02*
X122296000Y-75204000D01*
X122400000Y-73590001D02*
X122296000Y-73694001D01*
X117744000Y-79756000D02*
X108081186Y-79756000D01*
X108081186Y-79756000D02*
X107711276Y-80125910D01*
%TO.N,/DC-SCI gold fingers connector/PCIE1_RX0-*%
X150600000Y-72970000D02*
X150704000Y-73074000D01*
X150704000Y-73418814D02*
X149608000Y-74514814D01*
X148584090Y-77138724D02*
X148338724Y-77138724D01*
X150600000Y-72300000D02*
X150600000Y-72970000D01*
X150704000Y-73074000D02*
X150704000Y-73418814D01*
X149608000Y-74514814D02*
X149608000Y-76114814D01*
X149608000Y-76114814D02*
X148584090Y-77138724D01*
%TO.N,/DC-SCI gold fingers connector/PCIE0_SGMII_RX3+*%
X118564000Y-81236000D02*
X124096000Y-75704000D01*
X109701186Y-81236000D02*
X118564000Y-81236000D01*
X124200000Y-73590001D02*
X124200000Y-72300000D01*
X124096000Y-75704000D02*
X124096000Y-73694001D01*
X109581276Y-81601276D02*
X109581276Y-81355910D01*
X124096000Y-73694001D02*
X124200000Y-73590001D01*
X109581276Y-81355910D02*
X109701186Y-81236000D01*
%TO.N,/DC-SCI gold fingers connector/CLK_100M_0_CLK-*%
X152588724Y-76538724D02*
X152834090Y-76538724D01*
X154304000Y-73074000D02*
X154200000Y-72970000D01*
X153054000Y-76318814D02*
X153054000Y-74918814D01*
X153054000Y-74918814D02*
X154304000Y-73668814D01*
X152834090Y-76538724D02*
X153054000Y-76318814D01*
X154304000Y-73668814D02*
X154304000Y-73074000D01*
X154200000Y-72970000D02*
X154200000Y-72300000D01*
%TO.N,/DC-SCI gold fingers connector/LTPI_TXD+*%
D21*
X144190000Y-76702500D02*
X144387500Y-76900000D01*
X141680000Y-73825440D02*
X144190000Y-76335440D01*
X141800000Y-72970000D02*
X141680000Y-73090000D01*
X141800000Y-72300000D02*
X141800000Y-72970000D01*
X141680000Y-73090000D02*
X141680000Y-73825440D01*
X144190000Y-76335440D02*
X144190000Y-76702500D01*
%TO.N,Net-(J1A-PRSNT1_HPM_SCM_N)*%
D23*
X133400000Y-72300000D02*
X133400000Y-79720000D01*
%TO.N,Net-(J1A-JTAG_SCMCNTRL_TCK)*%
X134000000Y-72300000D02*
X134000000Y-77720000D01*
%TO.N,Net-(J1A-JTAG_SCMCNTRL_TDO)*%
X134600000Y-72300000D02*
X134600000Y-79720000D01*
%TO.N,Net-(J1A-JTAG_SCMCNTRL_TDI)*%
X135200000Y-72300000D02*
X135200000Y-77720000D01*
%TO.N,Net-(J1A-JTAG_SCMCNTRL_TMS)*%
X135800000Y-72300000D02*
X135800000Y-79720000D01*
%TO.N,Net-(J1A-JTAG_SCMCNTRL_TRST_N)*%
X136400000Y-72300000D02*
X136400000Y-77720000D01*
%TO.N,Net-(J1A-SCM_HPM_STBY_RST_N)*%
X137000000Y-72300000D02*
X137000000Y-79720000D01*
%TO.N,Net-(J1A-SCM_HPM_STBY_EN)*%
X137600000Y-72300000D02*
X137600000Y-77720000D01*
%TO.N,Net-(J1B-I2C_3V3_0_SCL)*%
X138200000Y-72300000D02*
X138200000Y-79720000D01*
%TO.N,Net-(J1B-I2C_3V3_0_SDA)*%
X138800000Y-72300000D02*
X138800000Y-77720000D01*
%TO.N,Net-(J1B-I2C_3V3_1_SCL)*%
X139400000Y-72300000D02*
X139400000Y-79720000D01*
%TO.N,Net-(J1B-I2C_3V3_1_SDA)*%
X140000000Y-72300000D02*
X140000000Y-77720000D01*
%TO.N,/DC-SCI gold fingers connector/LTPI_TXCK+*%
D21*
X145966933Y-75433067D02*
X145687626Y-75433067D01*
X143480000Y-73225441D02*
X143480000Y-73090000D01*
X143480000Y-73090000D02*
X143600000Y-72970000D01*
X145687626Y-75433067D02*
X143480000Y-73225441D01*
X143600000Y-72970000D02*
X143600000Y-72300000D01*
%TO.N,Net-(J1B-I2C_3V3_2_SCL)*%
D23*
X144939999Y-73650000D02*
X144800000Y-73510001D01*
X124400000Y-79450000D02*
X124380000Y-79470000D01*
X124380000Y-82120000D02*
X124380000Y-79470000D01*
X144800000Y-73510001D02*
X144800000Y-72300000D01*
X144975000Y-73650000D02*
X144939999Y-73650000D01*
%TO.N,Net-(J1B-I2C_3V3_2_SDA)*%
D19*
X125630000Y-79505000D02*
X125630000Y-82115000D01*
D23*
X145400000Y-72300000D02*
X145500000Y-72400000D01*
D19*
X125475000Y-79350000D02*
X125630000Y-79505000D01*
D23*
X145500000Y-73867172D02*
X145883516Y-74250688D01*
X145500000Y-72400000D02*
X145500000Y-73867172D01*
%TO.N,Net-(J1D-PCIE_HPM_SCM_PERST_N)*%
X124896225Y-78956275D02*
X124896225Y-78996498D01*
X124896225Y-78996498D02*
X124950000Y-79050273D01*
X124950000Y-79050273D02*
X124950000Y-80120000D01*
D19*
X146000000Y-73485002D02*
X146100000Y-73585002D01*
X146000000Y-72300000D02*
X146000000Y-73485002D01*
%TO.N,/DC-SCI gold fingers connector/PCIE_USB_SCMROOT_RX0-*%
X152400000Y-72970000D02*
X152400000Y-72300000D01*
X151534090Y-75338724D02*
X151804000Y-75068814D01*
X151804000Y-75068814D02*
X151804000Y-74318814D01*
X152504000Y-73074000D02*
X152400000Y-72970000D01*
X152504000Y-73618814D02*
X152504000Y-73074000D01*
X151804000Y-74318814D02*
X152504000Y-73618814D01*
X151288724Y-75338724D02*
X151534090Y-75338724D01*
%TO.N,Net-(J1B-I2C_I3C_1V0_18_SCL)*%
D23*
X156000000Y-72300000D02*
X156000000Y-79670000D01*
X155950000Y-79670000D02*
X156000000Y-79720000D01*
%TO.N,Net-(J1B-I2C_I3C_1V0_18_SDA)*%
X156600000Y-72300000D02*
X156600000Y-77670000D01*
X156600000Y-77670000D02*
X156550000Y-77720000D01*
%TO.N,Net-(J1B-I2C_I3C_1V0_19_SCL)*%
X157200000Y-79720000D02*
X157200000Y-72300000D01*
%TO.N,Net-(J1B-I2C_I3C_1V0_19_SDA)*%
X157800000Y-72300000D02*
X157800000Y-77720000D01*
%TO.N,Net-(J1B-I2C_3V3_3_SCL)*%
X162715000Y-72300000D02*
X162715000Y-79705000D01*
X162715000Y-79705000D02*
X162700000Y-79720000D01*
%TO.N,Net-(J1B-I2C_3V3_3_SDA)*%
X163300000Y-72300000D02*
X163300000Y-77720000D01*
%TO.N,Net-(J1B-I2C_3V3_4_SCL)*%
X163900000Y-72300000D02*
X163900000Y-79720000D01*
%TO.N,Net-(J1B-I2C_3V3_4_SDA)*%
X164500000Y-72300000D02*
X164500000Y-77720000D01*
%TO.N,Net-(J1B-I2C_3V3_5_SCL)*%
X165100000Y-72300000D02*
X165100000Y-79720000D01*
%TO.N,Net-(J1B-I2C_3V3_5_SDA)*%
X165700000Y-72300000D02*
X165700000Y-77720000D01*
%TO.N,Net-(J1B-I2C_3V3_6_SCL)*%
X166300000Y-72300000D02*
X166300000Y-79720000D01*
%TO.N,Net-(J1B-I2C_3V3_6_SDA)*%
X166900000Y-72300000D02*
X166900000Y-77720000D01*
%TO.N,Net-(J1B-I2C_I3C_1V8_16_SCL)*%
X167500000Y-72300000D02*
X167500000Y-79720000D01*
%TO.N,Net-(J1B-I2C_I3C_1V8_16_SDA)*%
X168100000Y-72300000D02*
X168100000Y-77720000D01*
%TO.N,Net-(J1B-SPI_HPMCNTRL_TPM_CLK)*%
D20*
X169300000Y-72300000D02*
X169300000Y-77720000D01*
%TO.N,Net-(J1B-SPI_HPMCNTRL_TPM_CS_N)*%
X169900000Y-72300000D02*
X169900000Y-79720000D01*
%TO.N,Net-(J1B-SPI_HPMCNTRL_TPM_DI_IO0)*%
X170500000Y-72300000D02*
X170500000Y-77720000D01*
%TO.N,Net-(J1B-SPI_HPMCNTRL_TPM_DO_IO1)*%
X171100000Y-72300000D02*
X171100000Y-79720000D01*
%TO.N,Net-(J1B-I2C_I3C_1V8_12_SCL)*%
D23*
X171700000Y-72300000D02*
X171700000Y-77720000D01*
%TO.N,Net-(J1B-I2C_I3C_1V8_12_SDA)*%
X172300000Y-72300000D02*
X172300000Y-79720000D01*
%TO.N,Net-(J1A-GPIO)*%
X172900000Y-72300000D02*
X172900000Y-77720000D01*
%TO.N,Net-(J1B-I2C_I3C_1V8_13_SCL)*%
X173500000Y-72300000D02*
X173500000Y-79720000D01*
%TO.N,Net-(J1B-I2C_I3C_1V8_13_SDA)*%
X174100000Y-72300000D02*
X174100000Y-77720000D01*
%TO.N,Net-(J1A-UART0_HPM_SCM_DATA)*%
X174700000Y-72300000D02*
X174700000Y-79720000D01*
%TO.N,Net-(J1A-HPM_SCM_STBY_RDY)*%
X122630000Y-80120000D02*
X122630000Y-79550000D01*
X122630000Y-79550000D02*
X122650000Y-79530000D01*
%TO.N,Net-(J1A-HPM_SCM_INTRUSION_N)*%
X123218009Y-82133009D02*
X123218009Y-79098009D01*
X123218009Y-79098009D02*
X123200000Y-79080000D01*
%TO.N,Net-(J1A-P3V0_HPM_SCM_BAT)*%
X123800000Y-78702161D02*
X123766117Y-78668278D01*
X123800000Y-80120000D02*
X123800000Y-78702161D01*
%TO.N,Net-(J1B-I2C_I3C_1V8_14_SCL)*%
X159805699Y-81625699D02*
X159900000Y-81720000D01*
X159805699Y-80208126D02*
X159805699Y-81625699D01*
%TO.N,Net-(J1B-I2C_I3C_1V8_14_SDA)*%
X160450000Y-78504760D02*
X160450000Y-79720000D01*
%TO.N,Net-(J1B-I2C_I3C_1V8_15_SCL)*%
X161050000Y-78029760D02*
X161050000Y-81720000D01*
%TO.N,Net-(J1B-I2C_I3C_1V8_15_SDA)*%
X158120824Y-71035635D02*
X158120824Y-71190000D01*
X161650000Y-77550000D02*
X161650000Y-79720000D01*
%TO.N,Net-(J1A-PECI_HPM_SCM)*%
X125400000Y-76000000D02*
X125400000Y-72300000D01*
X122060000Y-82110000D02*
X122060000Y-79340000D01*
X122060000Y-79340000D02*
X125400000Y-76000000D01*
X122100000Y-82150000D02*
X122060000Y-82110000D01*
%TD*%
%TA.AperFunction,Conductor*%
%TO.N,/DC-SCI gold fingers connector/12V_AUX*%
G36*
X131652606Y-72905023D02*
G01*
X131667604Y-72909427D01*
X131682594Y-72919057D01*
X131699675Y-72924067D01*
X131726355Y-72947172D01*
X131727542Y-72948541D01*
X131755018Y-73003402D01*
X131756663Y-73010960D01*
X131759500Y-73037331D01*
X131759500Y-73184678D01*
X131759500Y-73184680D01*
X131759499Y-73184680D01*
X131774028Y-73257717D01*
X131774032Y-73257735D01*
X131774182Y-73258334D01*
X131783996Y-73280955D01*
X131794334Y-73313971D01*
X131800000Y-73351023D01*
X131800000Y-76926945D01*
X131794977Y-76961881D01*
X131787861Y-76986115D01*
X131751836Y-77043347D01*
X130848621Y-77856240D01*
X130826239Y-77871227D01*
X130819298Y-77875875D01*
X130794431Y-77887803D01*
X130740802Y-77900000D01*
X129873891Y-77900000D01*
X129838955Y-77894977D01*
X129813624Y-77887539D01*
X129761244Y-77856606D01*
X129249342Y-77348933D01*
X129228074Y-77320765D01*
X129215415Y-77297808D01*
X129200000Y-77237932D01*
X129200000Y-73666209D01*
X129205022Y-73631276D01*
X129212711Y-73605091D01*
X129240448Y-73556055D01*
X129605000Y-73160000D01*
X129605000Y-73159998D01*
X129602773Y-73044205D01*
X129607123Y-73009187D01*
X129611239Y-72994103D01*
X129647871Y-72934614D01*
X129648823Y-72933757D01*
X129704219Y-72905050D01*
X129712824Y-72903091D01*
X129740342Y-72900000D01*
X131617670Y-72900000D01*
X131652606Y-72905023D01*
G37*
%TD.AperFunction*%
%TD*%
%TA.AperFunction,Conductor*%
%TO.N,/DC-SCI edge connector/DC_SCM_12V_AUX*%
G36*
X130958854Y-78404918D02*
G01*
X131004810Y-78457546D01*
X131016158Y-78513203D01*
X130981430Y-79672247D01*
X130959747Y-79738667D01*
X130946900Y-79754447D01*
X129666878Y-81086619D01*
X129606235Y-81121321D01*
X129576773Y-81124703D01*
X127469879Y-81112967D01*
X127408571Y-81096357D01*
X127302836Y-81035312D01*
X127169183Y-80999500D01*
X127030817Y-80999500D01*
X126897164Y-81035312D01*
X126897161Y-81035313D01*
X126777338Y-81104492D01*
X126777333Y-81104496D01*
X126679496Y-81202333D01*
X126679492Y-81202338D01*
X126610313Y-81322161D01*
X126610312Y-81322164D01*
X126587288Y-81408093D01*
X126572794Y-81431870D01*
X126561226Y-81457203D01*
X126554860Y-81461293D01*
X126550923Y-81467754D01*
X126525875Y-81479921D01*
X126502448Y-81494977D01*
X126491700Y-81496522D01*
X126488076Y-81498283D01*
X126467513Y-81500000D01*
X126251362Y-81500000D01*
X126184323Y-81480315D01*
X126163681Y-81463681D01*
X126018319Y-81318319D01*
X125984834Y-81256996D01*
X125982000Y-81230638D01*
X125982000Y-79504551D01*
X125986225Y-79472458D01*
X126000500Y-79419183D01*
X126000500Y-79280817D01*
X125964688Y-79147164D01*
X125964684Y-79147157D01*
X125961577Y-79139654D01*
X125963491Y-79138860D01*
X125962457Y-79135000D01*
X125955023Y-79123432D01*
X125950000Y-79088497D01*
X125950000Y-78897144D01*
X125969685Y-78830105D01*
X125981316Y-78814768D01*
X126313005Y-78441618D01*
X126372256Y-78404591D01*
X126405684Y-78400000D01*
X127100023Y-78400000D01*
X127478098Y-78398553D01*
X130891741Y-78385490D01*
X130958854Y-78404918D01*
G37*
%TD.AperFunction*%
%TD*%
%TA.AperFunction,Conductor*%
%TO.N,/DC-SCI edge connector/DC_SCM_12V_AUX*%
G36*
X130663775Y-123116543D02*
G01*
X130747164Y-123164688D01*
X130880817Y-123200500D01*
X130880819Y-123200500D01*
X131019180Y-123200500D01*
X131019183Y-123200500D01*
X131028408Y-123198028D01*
X131098256Y-123199691D01*
X131156119Y-123238853D01*
X131183623Y-123303082D01*
X131184500Y-123317803D01*
X131184500Y-126205172D01*
X131184500Y-126294828D01*
X131207705Y-126381428D01*
X131252531Y-126459071D01*
X131966737Y-127173277D01*
X132000222Y-127234600D01*
X132002936Y-127266423D01*
X131957101Y-128305487D01*
X131934481Y-128371593D01*
X131920904Y-128387701D01*
X131879523Y-128429083D01*
X131879520Y-128429087D01*
X131826793Y-128520411D01*
X131809410Y-128585288D01*
X131799500Y-128622271D01*
X131799500Y-129166532D01*
X131779815Y-129233571D01*
X131778603Y-129235421D01*
X131774033Y-129242259D01*
X131759500Y-129315323D01*
X131759500Y-129576000D01*
X131739815Y-129643039D01*
X131687011Y-129688794D01*
X131635500Y-129700000D01*
X129249500Y-129700000D01*
X129182461Y-129680315D01*
X129136706Y-129627511D01*
X129125500Y-129576000D01*
X129125500Y-126404363D01*
X129125490Y-126404207D01*
X129125490Y-126344936D01*
X129097024Y-126165212D01*
X129087928Y-126107780D01*
X129013728Y-125879413D01*
X128904718Y-125665465D01*
X128868215Y-125615223D01*
X128763586Y-125471212D01*
X128763582Y-125471208D01*
X128763580Y-125471205D01*
X128593791Y-125301415D01*
X128399531Y-125160276D01*
X128185583Y-125051264D01*
X127957217Y-124977063D01*
X127957215Y-124977062D01*
X127957214Y-124977062D01*
X127775031Y-124948207D01*
X127720054Y-124939500D01*
X127479936Y-124939500D01*
X127424958Y-124948207D01*
X127242776Y-124977062D01*
X127014404Y-125051265D01*
X126800458Y-125160276D01*
X126606196Y-125301417D01*
X126436403Y-125471212D01*
X126295279Y-125665454D01*
X126295270Y-125665468D01*
X126210270Y-125832294D01*
X126162296Y-125883090D01*
X126099785Y-125900000D01*
X125697044Y-125900000D01*
X125667603Y-125891355D01*
X125637617Y-125884832D01*
X125632601Y-125881077D01*
X125630005Y-125880315D01*
X125609363Y-125863681D01*
X125586819Y-125841137D01*
X125553334Y-125779814D01*
X125550500Y-125753456D01*
X125550500Y-123354161D01*
X125570185Y-123287122D01*
X125622989Y-123241367D01*
X125692147Y-123231423D01*
X125721956Y-123239601D01*
X125722156Y-123239683D01*
X125722164Y-123239688D01*
X125855817Y-123275500D01*
X125855819Y-123275500D01*
X125994181Y-123275500D01*
X125994183Y-123275500D01*
X126127836Y-123239688D01*
X126247665Y-123170505D01*
X126247674Y-123170495D01*
X126248897Y-123169558D01*
X126250133Y-123169079D01*
X126254704Y-123166441D01*
X126255115Y-123167153D01*
X126314064Y-123144357D01*
X126382510Y-123158388D01*
X126412075Y-123180245D01*
X126427335Y-123195505D01*
X126427336Y-123195506D01*
X126427338Y-123195507D01*
X126460559Y-123214687D01*
X126547164Y-123264688D01*
X126680817Y-123300500D01*
X126680819Y-123300500D01*
X126819181Y-123300500D01*
X126819183Y-123300500D01*
X126952836Y-123264688D01*
X127072665Y-123195505D01*
X127072669Y-123195500D01*
X127079110Y-123190559D01*
X127080858Y-123192837D01*
X127129985Y-123165995D01*
X127199678Y-123170960D01*
X127218377Y-123179767D01*
X127235559Y-123189687D01*
X127322164Y-123239688D01*
X127455817Y-123275500D01*
X127455819Y-123275500D01*
X127594181Y-123275500D01*
X127594183Y-123275500D01*
X127727836Y-123239688D01*
X127847665Y-123170505D01*
X127852843Y-123165327D01*
X127914164Y-123131839D01*
X127983856Y-123136820D01*
X128002527Y-123145617D01*
X128122157Y-123214684D01*
X128122164Y-123214688D01*
X128255817Y-123250500D01*
X128255819Y-123250500D01*
X128394181Y-123250500D01*
X128394183Y-123250500D01*
X128527836Y-123214688D01*
X128647665Y-123145505D01*
X128656891Y-123136279D01*
X128683821Y-123121572D01*
X128709637Y-123104981D01*
X128715837Y-123104089D01*
X128718213Y-123102792D01*
X128744560Y-123099958D01*
X128780426Y-123099957D01*
X128847461Y-123119639D01*
X128868105Y-123136275D01*
X128877335Y-123145505D01*
X128877336Y-123145506D01*
X128877338Y-123145507D01*
X128936679Y-123179767D01*
X128997164Y-123214688D01*
X129130817Y-123250500D01*
X129130819Y-123250500D01*
X129269181Y-123250500D01*
X129269183Y-123250500D01*
X129402836Y-123214688D01*
X129522665Y-123145505D01*
X129531903Y-123136267D01*
X129558829Y-123121562D01*
X129584650Y-123104968D01*
X129590850Y-123104076D01*
X129593225Y-123102780D01*
X129619579Y-123099945D01*
X129733496Y-123099943D01*
X129795495Y-123116556D01*
X129802335Y-123120505D01*
X129922164Y-123189688D01*
X130055817Y-123225500D01*
X130055819Y-123225500D01*
X130194181Y-123225500D01*
X130194183Y-123225500D01*
X130327836Y-123189688D01*
X130447665Y-123120505D01*
X130447666Y-123120503D01*
X130454523Y-123116545D01*
X130470010Y-123112395D01*
X130481587Y-123104955D01*
X130516517Y-123099932D01*
X130601776Y-123099931D01*
X130663775Y-123116543D01*
G37*
%TD.AperFunction*%
%TD*%
M02*
