%TF.GenerationSoftware,KiCad,Pcbnew,10.0.4-10.0.4~ubuntu24.04.1*%
%TF.CreationDate,2026-07-22T09:53:31+02:00*%
%TF.ProjectId,dc-scm-server-integration-dc-scm-debug-interposer,64632d73-636d-42d7-9365-727665722d69,1.0.0*%
%TF.SameCoordinates,Original*%
%TF.FileFunction,Paste,Top*%
%TF.FilePolarity,Positive*%
%FSLAX46Y46*%
G04 Gerber Fmt 4.6, Leading zero omitted, Abs format (unit mm)*
G04 Created by KiCad (PCBNEW 10.0.4-10.0.4~ubuntu24.04.1) date 2026-07-22 09:53:31*
%MOMM*%
%LPD*%
G01*
G04 APERTURE LIST*
G04 Aperture macros list*
%AMRoundRect*
0 Rectangle with rounded corners*
0 $1 Rounding radius*
0 $2 $3 $4 $5 $6 $7 $8 $9 X,Y pos of 4 corners*
0 Add a 4 corners polygon primitive as box body*
4,1,4,$2,$3,$4,$5,$6,$7,$8,$9,$2,$3,0*
0 Add four circle primitives for the rounded corners*
1,1,$1+$1,$2,$3*
1,1,$1+$1,$4,$5*
1,1,$1+$1,$6,$7*
1,1,$1+$1,$8,$9*
0 Add four rect primitives between the rounded corners*
20,1,$1+$1,$2,$3,$4,$5,0*
20,1,$1+$1,$4,$5,$6,$7,0*
20,1,$1+$1,$6,$7,$8,$9,0*
20,1,$1+$1,$8,$9,$2,$3,0*%
G04 Aperture macros list end*
%ADD10RoundRect,0.147500X-0.172500X0.147500X-0.172500X-0.147500X0.172500X-0.147500X0.172500X0.147500X0*%
%ADD11RoundRect,0.147500X0.172500X-0.147500X0.172500X0.147500X-0.172500X0.147500X-0.172500X-0.147500X0*%
%ADD12R,0.800000X2.000000*%
%ADD13R,3.680000X1.270000*%
%ADD14RoundRect,0.147500X-0.147500X-0.172500X0.147500X-0.172500X0.147500X0.172500X-0.147500X0.172500X0*%
%ADD15RoundRect,0.112000X0.448000X0.748000X-0.448000X0.748000X-0.448000X-0.748000X0.448000X-0.748000X0*%
%ADD16RoundRect,0.100000X0.125000X0.100000X-0.125000X0.100000X-0.125000X-0.100000X0.125000X-0.100000X0*%
G04 APERTURE END LIST*
D10*
%TO.C,R126*%
X157150000Y-79720000D03*
X157150000Y-80680000D03*
%TD*%
%TO.C,R82*%
X173500000Y-79720000D03*
X173500000Y-80680000D03*
%TD*%
D11*
%TO.C,R50*%
X145600000Y-78680000D03*
X145600000Y-77720000D03*
%TD*%
%TO.C,R46*%
X141400000Y-78680000D03*
X141400000Y-77720000D03*
%TD*%
D10*
%TO.C,R91*%
X132350000Y-78220000D03*
X132350000Y-79180000D03*
%TD*%
%TO.C,R105*%
X110490000Y-82280000D03*
X110490000Y-83240000D03*
%TD*%
%TO.C,R98*%
X165100000Y-79720000D03*
X165100000Y-80680000D03*
%TD*%
D11*
%TO.C,R40*%
X134750000Y-79180000D03*
X134750000Y-78220000D03*
%TD*%
D10*
%TO.C,R79*%
X172900000Y-77720000D03*
X172900000Y-78680000D03*
%TD*%
D12*
%TO.C,J15*%
X131500000Y-111600000D03*
X130220000Y-111600000D03*
X128950000Y-111600000D03*
X127680000Y-111600000D03*
X126420000Y-111600000D03*
X125150000Y-111600000D03*
X123880000Y-111600000D03*
X122600000Y-111600000D03*
X122600000Y-121200000D03*
X123880000Y-121200000D03*
X125150000Y-121200000D03*
X126420000Y-121200000D03*
X127680000Y-121200000D03*
X128880000Y-121200000D03*
X130150000Y-121200000D03*
X131500000Y-121200000D03*
%TD*%
D10*
%TO.C,R57*%
X167500000Y-79720000D03*
X167500000Y-80680000D03*
%TD*%
%TO.C,R110*%
X105440000Y-84000000D03*
X105440000Y-84960000D03*
%TD*%
%TO.C,R74*%
X133550000Y-78220000D03*
X133550000Y-79180000D03*
%TD*%
D11*
%TO.C,R52*%
X143500000Y-80680000D03*
X143500000Y-79720000D03*
%TD*%
%TO.C,R31*%
X169900000Y-80680000D03*
X169900000Y-79720000D03*
%TD*%
D13*
%TO.C,J6*%
X174526000Y-99820000D03*
X179475000Y-99820000D03*
X174526000Y-102360000D03*
X179475000Y-102360000D03*
X174526000Y-104900000D03*
X179475000Y-104900000D03*
X174526000Y-107440000D03*
X179475000Y-107440000D03*
X174526000Y-109980000D03*
X179475000Y-109980000D03*
%TD*%
D10*
%TO.C,R84*%
X128150000Y-80220000D03*
X128150000Y-81180000D03*
%TD*%
D11*
%TO.C,R41*%
X135950000Y-79180000D03*
X135950000Y-78220000D03*
%TD*%
D10*
%TO.C,R54*%
X127550000Y-78220000D03*
X127550000Y-79180000D03*
%TD*%
%TO.C,R108*%
X113500000Y-80520000D03*
X113500000Y-81480000D03*
%TD*%
D14*
%TO.C,C4*%
X113690000Y-108500000D03*
X114650000Y-108500000D03*
%TD*%
%TO.C,R136*%
X129120000Y-107300000D03*
X130080000Y-107300000D03*
%TD*%
D10*
%TO.C,R90*%
X131750000Y-80220000D03*
X131750000Y-81180000D03*
%TD*%
D13*
%TO.C,J10*%
X120526000Y-83320000D03*
X125475000Y-83320000D03*
X120526000Y-85860000D03*
X125475000Y-85860000D03*
X120526000Y-88400000D03*
X125475000Y-88400000D03*
X120526000Y-90940000D03*
X125475000Y-90940000D03*
X120526000Y-93480000D03*
X125475000Y-93480000D03*
%TD*%
D14*
%TO.C,C3*%
X129120000Y-108400000D03*
X130080000Y-108400000D03*
%TD*%
D13*
%TO.C,J7*%
X138526000Y-112515000D03*
X143475000Y-112515000D03*
X138526000Y-115055000D03*
X143475000Y-115055000D03*
X138526000Y-117595000D03*
X143475000Y-117595000D03*
X138526000Y-120135000D03*
X143475000Y-120135000D03*
X138526000Y-122675000D03*
X143475000Y-122675000D03*
%TD*%
D10*
%TO.C,R80*%
X174700000Y-79720000D03*
X174700000Y-80680000D03*
%TD*%
%TO.C,R112*%
X115500000Y-82280000D03*
X115500000Y-83240000D03*
%TD*%
%TO.C,R92*%
X162700000Y-79720000D03*
X162700000Y-80680000D03*
%TD*%
%TO.C,R93*%
X163300000Y-77720000D03*
X163300000Y-78680000D03*
%TD*%
%TO.C,R100*%
X152950000Y-79720000D03*
X152950000Y-80680000D03*
%TD*%
%TO.C,R53*%
X166900000Y-77720000D03*
X166900000Y-78680000D03*
%TD*%
D13*
%TO.C,J17*%
X120526000Y-96020000D03*
X125475000Y-96020000D03*
X120526000Y-98560000D03*
X125475000Y-98560000D03*
X120526000Y-101100000D03*
X125475000Y-101100000D03*
X120526000Y-103640000D03*
X125475000Y-103640000D03*
X120526000Y-106180000D03*
X125475000Y-106180000D03*
%TD*%
D11*
%TO.C,R11*%
X171700000Y-78680000D03*
X171700000Y-77720000D03*
%TD*%
D10*
%TO.C,R106*%
X103450000Y-85752486D03*
X103450000Y-86712486D03*
%TD*%
%TO.C,R113*%
X114500000Y-82280000D03*
X114500000Y-83240000D03*
%TD*%
D13*
%TO.C,J4*%
X156526000Y-98620000D03*
X161475000Y-98620000D03*
X156526000Y-101160000D03*
X161475000Y-101160000D03*
X156526000Y-103700000D03*
X161475000Y-103700000D03*
X156526000Y-106240000D03*
X161475000Y-106240000D03*
X156526000Y-108780000D03*
X161475000Y-108780000D03*
%TD*%
D10*
%TO.C,R83*%
X174100000Y-77720000D03*
X174100000Y-78680000D03*
%TD*%
%TO.C,R59*%
X159300000Y-77720000D03*
X159300000Y-78680000D03*
%TD*%
D11*
%TO.C,R38*%
X135350000Y-81180000D03*
X135350000Y-80220000D03*
%TD*%
D10*
%TO.C,R60*%
X158250000Y-77720000D03*
X158250000Y-78680000D03*
%TD*%
D12*
%TO.C,J16*%
X114450000Y-111600000D03*
X113170000Y-111600000D03*
X111900000Y-111600000D03*
X110630000Y-111600000D03*
X109370000Y-111600000D03*
X108100000Y-111600000D03*
X106830000Y-111600000D03*
X105550000Y-111600000D03*
X105550000Y-121200000D03*
X106830000Y-121200000D03*
X108100000Y-121200000D03*
X109370000Y-121200000D03*
X110630000Y-121200000D03*
X111830000Y-121200000D03*
X113100000Y-121200000D03*
X114450000Y-121200000D03*
%TD*%
D10*
%TO.C,R96*%
X163900000Y-79720000D03*
X163900000Y-80680000D03*
%TD*%
%TO.C,R88*%
X130550000Y-80220000D03*
X130550000Y-81180000D03*
%TD*%
%TO.C,R94*%
X165700000Y-77720000D03*
X165700000Y-78680000D03*
%TD*%
%TO.C,R103*%
X177960000Y-79730000D03*
X177960000Y-80690000D03*
%TD*%
%TO.C,R107*%
X102440000Y-85760000D03*
X102440000Y-86720000D03*
%TD*%
%TO.C,R89*%
X131150000Y-78220000D03*
X131150000Y-79180000D03*
%TD*%
D11*
%TO.C,R32*%
X170500000Y-78680000D03*
X170500000Y-77720000D03*
%TD*%
D10*
%TO.C,R109*%
X112500000Y-80520000D03*
X112500000Y-81480000D03*
%TD*%
D11*
%TO.C,R28*%
X168100000Y-78680000D03*
X168100000Y-77720000D03*
%TD*%
D10*
%TO.C,R102*%
X179018198Y-79730000D03*
X179018198Y-80690000D03*
%TD*%
D13*
%TO.C,J5*%
X174526000Y-87120000D03*
X179475000Y-87120000D03*
X174526000Y-89660000D03*
X179475000Y-89660000D03*
X174526000Y-92200000D03*
X179475000Y-92200000D03*
X174526000Y-94740000D03*
X179475000Y-94740000D03*
X174526000Y-97280000D03*
X179475000Y-97280000D03*
%TD*%
D11*
%TO.C,R29*%
X168700000Y-80680000D03*
X168700000Y-79720000D03*
%TD*%
D10*
%TO.C,R122*%
X148730000Y-79720000D03*
X148730000Y-80680000D03*
%TD*%
%TO.C,R95*%
X166300000Y-79720000D03*
X166300000Y-80680000D03*
%TD*%
%TO.C,R85*%
X128750000Y-78220000D03*
X128750000Y-79180000D03*
%TD*%
%TO.C,R124*%
X150850000Y-77720000D03*
X150850000Y-78680000D03*
%TD*%
%TO.C,R97*%
X164500000Y-77720000D03*
X164500000Y-78680000D03*
%TD*%
%TO.C,R119*%
X108490000Y-84000000D03*
X108490000Y-84960000D03*
%TD*%
D11*
%TO.C,R42*%
X136550000Y-81180000D03*
X136550000Y-80220000D03*
%TD*%
%TO.C,R128*%
X110840000Y-106630000D03*
X110840000Y-107590000D03*
%TD*%
D10*
%TO.C,R115*%
X106490000Y-85780000D03*
X106490000Y-86740000D03*
%TD*%
%TO.C,R87*%
X129950000Y-78220000D03*
X129950000Y-79180000D03*
%TD*%
D13*
%TO.C,J11*%
X138526000Y-87120000D03*
X143475000Y-87120000D03*
X138526000Y-89660000D03*
X143475000Y-89660000D03*
X138526000Y-92200000D03*
X143475000Y-92200000D03*
X138526000Y-94740000D03*
X143475000Y-94740000D03*
X138526000Y-97280000D03*
X143475000Y-97280000D03*
%TD*%
D11*
%TO.C,R45*%
X142400000Y-78680000D03*
X142400000Y-77720000D03*
%TD*%
D10*
%TO.C,R111*%
X104440000Y-84000000D03*
X104440000Y-84960000D03*
%TD*%
%TO.C,R117*%
X116500000Y-80520000D03*
X116500000Y-81480000D03*
%TD*%
D11*
%TO.C,R39*%
X138350000Y-79180000D03*
X138350000Y-78220000D03*
%TD*%
D10*
%TO.C,R114*%
X107490000Y-85780000D03*
X107490000Y-86740000D03*
%TD*%
D11*
%TO.C,R33*%
X171100000Y-80680000D03*
X171100000Y-79720000D03*
%TD*%
D13*
%TO.C,J12*%
X156526000Y-111315000D03*
X161475000Y-111315000D03*
X156526000Y-113855000D03*
X161475000Y-113855000D03*
X156526000Y-116395000D03*
X161475000Y-116395000D03*
X156526000Y-118935000D03*
X161475000Y-118935000D03*
X156526000Y-121475000D03*
X161475000Y-121475000D03*
%TD*%
D11*
%TO.C,R43*%
X137150000Y-79180000D03*
X137150000Y-78220000D03*
%TD*%
D10*
%TO.C,C1*%
X101690000Y-107590000D03*
X101690000Y-106630000D03*
%TD*%
%TO.C,R123*%
X147700000Y-79720000D03*
X147700000Y-80680000D03*
%TD*%
%TO.C,R116*%
X117500000Y-80520000D03*
X117500000Y-81480000D03*
%TD*%
%TO.C,R120*%
X155030000Y-77720000D03*
X155030000Y-78680000D03*
%TD*%
%TO.C,R118*%
X109490000Y-84000000D03*
X109490000Y-84960000D03*
%TD*%
%TO.C,R81*%
X172300000Y-79720000D03*
X172300000Y-80680000D03*
%TD*%
%TO.C,R101*%
X151900000Y-79720000D03*
X151900000Y-80680000D03*
%TD*%
D11*
%TO.C,R51*%
X144520000Y-80680000D03*
X144520000Y-79720000D03*
%TD*%
D10*
%TO.C,R62*%
X180090000Y-77730000D03*
X180090000Y-78690000D03*
%TD*%
D11*
%TO.C,R30*%
X169300000Y-78680000D03*
X169300000Y-77720000D03*
%TD*%
%TO.C,R44*%
X137750000Y-81180000D03*
X137750000Y-80220000D03*
%TD*%
D10*
%TO.C,R127*%
X156100000Y-79720000D03*
X156100000Y-80680000D03*
%TD*%
D11*
%TO.C,R48*%
X139350000Y-80680000D03*
X139350000Y-79720000D03*
%TD*%
D13*
%TO.C,J3*%
X156526000Y-85920000D03*
X161475000Y-85920000D03*
X156526000Y-88460000D03*
X161475000Y-88460000D03*
X156526000Y-91000000D03*
X161475000Y-91000000D03*
X156526000Y-93540000D03*
X161475000Y-93540000D03*
X156526000Y-96080000D03*
X161475000Y-96080000D03*
%TD*%
%TO.C,J9*%
X174526000Y-112520000D03*
X179475000Y-112520000D03*
X174526000Y-115060000D03*
X179475000Y-115060000D03*
X174526000Y-117600000D03*
X179475000Y-117600000D03*
X174526000Y-120140000D03*
X179475000Y-120140000D03*
X174526000Y-122680000D03*
X179475000Y-122680000D03*
%TD*%
D11*
%TO.C,R47*%
X140370000Y-80680000D03*
X140370000Y-79720000D03*
%TD*%
D10*
%TO.C,R125*%
X149800000Y-77720000D03*
X149800000Y-78680000D03*
%TD*%
%TO.C,R86*%
X129350000Y-80220000D03*
X129350000Y-81180000D03*
%TD*%
%TO.C,R121*%
X154000000Y-77720000D03*
X154000000Y-78680000D03*
%TD*%
%TO.C,R61*%
X181148198Y-77730000D03*
X181148198Y-78690000D03*
%TD*%
%TO.C,R104*%
X111500000Y-82272486D03*
X111500000Y-83232486D03*
%TD*%
D15*
%TO.C,U1*%
X104200000Y-107050000D03*
D16*
X103227000Y-107702000D03*
X103227000Y-107050000D03*
X103227000Y-106400000D03*
X105175000Y-106400000D03*
X105175000Y-107050000D03*
X105175000Y-107702000D03*
%TD*%
D10*
%TO.C,R73*%
X132950000Y-80220000D03*
X132950000Y-81180000D03*
%TD*%
D11*
%TO.C,R49*%
X146600000Y-78680000D03*
X146600000Y-77720000D03*
%TD*%
D14*
%TO.C,R137*%
X113690000Y-107400000D03*
X114650000Y-107400000D03*
%TD*%
D13*
%TO.C,J13*%
X138526000Y-99820000D03*
X143475000Y-99820000D03*
X138526000Y-102360000D03*
X143475000Y-102360000D03*
X138526000Y-104900000D03*
X143475000Y-104900000D03*
X138526000Y-107440000D03*
X143475000Y-107440000D03*
X138526000Y-109980000D03*
X143475000Y-109980000D03*
%TD*%
M02*
